<svg width="24" height="25" viewBox="0 0 24 25" fill="none" xmlns="http://www.w3.org/2000/svg">
<path d="M9.98959 23.2496C9.78959 23.2496 9.62959 23.2096 9.50959 23.1596C9.10959 23.0096 8.42959 22.5196 8.42959 20.9696V14.5196H6.08959C4.74959 14.5196 4.26959 13.8896 4.09959 13.5196C3.92959 13.1396 3.77959 12.3696 4.65959 11.3596L12.2296 2.75964C13.2496 1.59964 14.0796 1.67964 14.4796 1.82964C14.8796 1.97964 15.5596 2.46964 15.5596 4.01964V10.4696H17.8996C19.2396 10.4696 19.7196 11.0996 19.8896 11.4696C20.0596 11.8496 20.2096 12.6196 19.3296 13.6296L11.7596 22.2296C11.0496 23.0396 10.4296 23.2496 9.98959 23.2496ZM13.9296 3.23964C13.8996 3.27964 13.6896 3.37964 13.3596 3.75964L5.78959 12.3596C5.50959 12.6796 5.46959 12.8796 5.46959 12.9196C5.48959 12.9296 5.66959 13.0296 6.08959 13.0296H9.17959C9.58959 13.0296 9.92959 13.3696 9.92959 13.7796V20.9796C9.92959 21.4796 10.0196 21.6996 10.0596 21.7596C10.0896 21.7196 10.2996 21.6196 10.6296 21.2396L18.1996 12.6396C18.4796 12.3196 18.5196 12.1196 18.5196 12.0796C18.4996 12.0696 18.3196 11.9696 17.8996 11.9696H14.8096C14.3996 11.9696 14.0596 11.6296 14.0596 11.2196V4.01964C14.0696 3.51964 13.9696 3.30964 13.9296 3.23964Z" fill="#292D32"/>
</svg>
