<svg width="313" height="189" viewBox="0 0 313 189" fill="none" xmlns="http://www.w3.org/2000/svg">
<rect width="313" height="189" rx="10" fill="#E8E5FF"/>
<path d="M161.75 114.604H150.25C139.843 114.604 135.396 110.157 135.396 99.7497V88.2497C135.396 77.8422 139.843 73.3955 150.25 73.3955H161.75C172.158 73.3955 176.604 77.8422 176.604 88.2497V99.7497C176.604 110.157 172.158 114.604 161.75 114.604ZM150.25 76.2705C141.414 76.2705 138.271 79.4138 138.271 88.2497V99.7497C138.271 108.586 141.414 111.729 150.25 111.729H161.75C170.586 111.729 173.729 108.586 173.729 99.7497V88.2497C173.729 79.4138 170.586 76.2705 161.75 76.2705H150.25Z" fill="#AFAAD0"/>
<path d="M150.25 91.6042C147.337 91.6042 144.979 89.2467 144.979 86.3333C144.979 83.42 147.337 81.0625 150.25 81.0625C153.163 81.0625 155.521 83.42 155.521 86.3333C155.521 89.2467 153.163 91.6042 150.25 91.6042ZM150.25 83.9375C148.927 83.9375 147.854 85.0108 147.854 86.3333C147.854 87.6558 148.927 88.7292 150.25 88.7292C151.572 88.7292 152.646 87.6558 152.646 86.3333C152.646 85.0108 151.572 83.9375 150.25 83.9375Z" fill="#AFAAD0"/>
<path d="M138.118 108.758C137.658 108.758 137.198 108.528 136.929 108.126C136.488 107.474 136.661 106.573 137.332 106.132L146.781 99.7882C148.851 98.3891 151.707 98.5616 153.585 100.152L154.218 100.708C155.176 101.532 156.805 101.532 157.744 100.708L165.718 93.8657C167.749 92.1216 170.95 92.1216 173.001 93.8657L176.125 96.5491C176.719 97.0666 176.796 97.9674 176.278 98.5807C175.761 99.1749 174.86 99.2516 174.247 98.7341L171.123 96.0507C170.164 95.2266 168.535 95.2266 167.577 96.0507L159.603 102.893C157.572 104.637 154.371 104.637 152.32 102.893L151.688 102.337C150.806 101.59 149.349 101.513 148.372 102.184L138.923 108.528C138.673 108.682 138.386 108.758 138.118 108.758Z" fill="#AFAAD0"/>
</svg>
