<svg width="88" height="88" viewBox="0 0 88 88" fill="none" xmlns="http://www.w3.org/2000/svg">
<circle cx="44" cy="44" r="44" fill="#9B53FF"/>
<path d="M44.7005 14.1498C44.7005 13.0168 44.3852 12.1001 43.9928 12.1001C43.6005 12.1001 43.2852 13.0168 43.2852 14.1498C43.2852 15.2828 43.6005 16.1994 43.9928 16.1994C44.3852 16.1994 44.7005 15.2828 44.7005 14.1498Z" fill="#F17FB2"/>
<path d="M33.2244 16.5992C32.7257 15.7376 32.051 15.1986 31.7137 15.3929C31.3764 15.5872 31.303 16.0932 31.5524 16.5259C31.8017 16.9549 33.1767 18.7076 33.514 18.5132C33.8514 18.3189 33.723 17.4609 33.2244 16.5992Z" fill="#56DEFF"/>
<path d="M24.9231 24.8345C23.9038 24.2442 22.9211 24.0425 22.7231 24.3798C22.5288 24.7172 23.1961 25.4688 24.2154 26.0555C25.2348 26.6458 26.2174 26.8475 26.4154 26.5102C26.6098 26.1728 25.9424 25.4212 24.9231 24.8345Z" fill="#F17FB2"/>
<path d="M21.3476 35.9556C20.2916 35.9556 19.4336 36.2709 19.4336 36.6632C19.4336 37.0556 20.2916 37.3709 21.3476 37.3709C22.4036 37.3709 23.2616 37.0556 23.2616 36.6632C23.2616 36.2709 22.4036 35.9556 21.3476 35.9556Z" fill="#56DEFF"/>
<path d="M24.0276 47.3733C23.1146 47.9013 22.5279 48.6016 22.7259 48.9426C22.9203 49.28 23.8223 49.126 24.7353 48.598C25.6483 48.07 26.2349 47.3696 26.0369 47.0286C25.8426 46.6913 24.9406 46.8453 24.0276 47.3733Z" fill="#F17FB2"/>
<path d="M54.7629 16.5992C55.2616 15.7376 55.9362 15.1986 56.2736 15.3929C56.6109 15.5872 56.6842 16.0932 56.4349 16.5259C56.1856 16.9549 54.8106 18.7076 54.4732 18.5132C54.1359 18.3189 54.2642 17.4609 54.7629 16.5992Z" fill="#56DEFF"/>
<path d="M63.0631 24.8345C64.0824 24.2442 65.0651 24.0425 65.2631 24.3798C65.4574 24.7172 64.7901 25.4688 63.7708 26.0555C62.7514 26.6458 61.7688 26.8475 61.5708 26.5102C61.3764 26.1728 62.0437 25.4212 63.0631 24.8345Z" fill="#F17FB2"/>
<path d="M66.6406 35.9556C67.6966 35.9556 68.5546 36.2709 68.5546 36.6632C68.5546 37.0519 67.6966 37.3709 66.6406 37.3709C65.5846 37.3709 64.7266 37.0556 64.7266 36.6632C64.7266 36.2746 65.5846 35.9556 66.6406 35.9556Z" fill="#56DEFF"/>
<path d="M63.9579 47.3733C64.8709 47.9013 65.4576 48.6016 65.2596 48.9426C65.0653 49.28 64.1633 49.126 63.2503 48.598C62.3373 48.07 61.7506 47.3696 61.9486 47.0286C62.1429 46.6913 63.0449 46.8453 63.9579 47.3733Z" fill="#F17FB2"/>
<path d="M63.3396 36.5233C63.3396 49.0486 52.9153 52.6383 52.5193 60.8003C52.5119 60.958 52.5082 61.123 52.5082 61.2843C52.5082 69.7946 50.1872 73.278 43.9979 73.278C37.8086 73.278 35.4876 69.7946 35.4876 61.2843C35.4876 61.123 35.4839 60.958 35.4766 60.8003C35.0769 52.6383 24.6562 49.045 24.6562 36.5233C24.6562 24.0016 35.1026 17.178 44.0016 17.178C52.9006 17.178 63.3469 23.756 63.3469 36.5233H63.3396Z" fill="#FFE767"/>
<path opacity="0.1" d="M56.6403 39.5372C56.6403 47.7249 49.8277 50.0715 49.5673 55.4065C49.5637 55.5092 49.56 55.6155 49.56 55.7219C49.56 61.2879 48.042 63.5612 43.994 63.5612C39.946 63.5612 38.428 61.2842 38.428 55.7219C38.428 55.6155 38.428 55.5092 38.4207 55.4065C38.1603 50.0715 31.3477 47.7212 31.3477 39.5372C31.3477 31.3532 38.175 26.8909 43.994 26.8909C49.813 26.8909 56.6403 31.1919 56.6403 39.5372Z" fill="white"/>
<path opacity="0.15" d="M39.6012 19.7447C36.7632 20.3607 34.0975 22.5863 32.2898 24.779C30.6032 26.825 29.7342 30.3083 32.1468 32.193C33.1405 32.9703 35.2195 32.9813 36.3928 32.6733C38.1235 32.2187 39.6268 30.9793 40.9102 29.784C43.0478 27.7893 45.2772 24.0603 43.7922 21.072C43.0662 19.6127 41.7865 19.664 39.6012 19.7447Z" fill="white"/>
<path d="M31.9731 39.1341C31.4817 38.4668 31.0601 37.7114 30.8254 36.8168C30.7081 36.3658 30.6567 35.8158 30.8107 35.2621C30.8914 35.0018 30.9867 34.7194 31.2177 34.4371C31.3167 34.2978 31.4744 34.1694 31.6357 34.0558C31.8081 33.9568 32.0024 33.8724 32.1931 33.8504C32.5781 33.7808 32.9191 33.8504 33.1904 33.9494C33.4764 34.0448 33.7037 34.1878 33.9127 34.3418C34.3197 34.6534 34.6681 35.0348 34.8991 35.4784C35.2987 36.2484 35.6177 37.0808 35.6397 37.9974C35.6434 38.2138 35.4711 38.3934 35.2547 38.3971C35.0934 38.3971 34.9541 38.3054 34.8881 38.1661L34.8771 38.1404C34.5727 37.4658 34.1547 36.8241 33.7074 36.2228C33.5167 35.9734 33.2821 35.7718 33.0327 35.6104C32.7907 35.4601 32.5121 35.3868 32.4864 35.4234C32.4717 35.4344 32.4864 35.4088 32.4497 35.4528C32.4131 35.4784 32.3617 35.5848 32.3214 35.7094C32.2297 35.9331 32.2187 36.2191 32.2444 36.5601C32.3177 37.2604 32.5157 38.0158 32.6807 38.8261C32.7247 39.0388 32.5854 39.2478 32.3727 39.2918C32.2187 39.3248 32.0647 39.2588 31.9767 39.1378L31.9731 39.1341Z" fill="black"/>
<path d="M51.3565 37.6013C51.4262 36.7653 51.5435 35.922 51.9982 35.0603C52.2182 34.6386 52.6069 34.1766 53.1752 33.9456C53.3072 33.8796 53.4649 33.8503 53.5969 33.821C53.7252 33.8026 53.8425 33.777 53.9782 33.7696C54.2385 33.7476 54.5282 33.766 54.8252 33.843C55.1259 33.9273 55.4229 34.107 55.6465 34.338C55.8702 34.5726 56.0205 34.8403 56.1122 35.1006C56.2809 35.6213 56.3065 36.1016 56.2772 36.5526C56.2185 37.451 55.9692 38.287 55.6392 39.0423V39.0533C55.5475 39.2513 55.3165 39.343 55.1185 39.255C54.9609 39.1853 54.8729 39.0276 54.8839 38.8626C54.9535 38.0413 55.0342 37.2676 54.9975 36.538C54.9719 36.1786 54.9279 35.834 54.8142 35.5883C54.7005 35.339 54.6015 35.2546 54.4255 35.1996C54.3302 35.174 54.2092 35.1556 54.0625 35.1666C53.9929 35.1666 53.9122 35.185 53.8352 35.1886C53.7692 35.2033 53.7215 35.207 53.6702 35.229C53.4685 35.284 53.2705 35.46 53.0762 35.7276C52.6912 36.2703 52.4162 37.033 52.1045 37.7736V37.7846C52.0165 37.9826 51.7892 38.078 51.5875 37.9936C51.4262 37.9276 51.3345 37.7663 51.3492 37.6013H51.3565Z" fill="black"/>
<path d="M40.2673 39.5081C41.9148 35.7972 40.2421 31.4533 36.5312 29.8057C32.8203 28.1582 28.4764 29.8309 26.8289 33.5418C25.1813 37.2527 26.854 41.5966 30.5649 43.2441C34.2758 44.8917 38.6197 43.219 40.2673 39.5081Z" stroke="#56DEFF" stroke-width="1.54733" stroke-miterlimit="10"/>
<path d="M56.1462 43.6746C60.095 42.7302 62.5306 38.7634 61.5862 34.8146C60.6418 30.8657 56.6751 28.4301 52.7262 29.3745C48.7774 30.3189 46.3418 34.2857 47.2861 38.2345C48.2305 42.1834 52.1973 44.619 56.1462 43.6746Z" stroke="#56DEFF" stroke-width="1.54733" stroke-miterlimit="10"/>
<path d="M40.3474 35.9698C40.4244 35.5371 40.5564 35.2035 40.7398 34.8441C40.9304 34.4958 41.1688 34.1621 41.4731 33.8725C41.7701 33.5755 42.1478 33.3445 42.5474 33.1611C42.7528 33.0805 42.9581 32.9998 43.1744 32.9631C43.3871 32.9081 43.6034 32.8898 43.8161 32.8788C44.2414 32.8568 44.6448 32.9045 45.0591 33.0071C45.4661 33.1208 45.8658 33.2968 46.2141 33.5351C46.5661 33.7735 46.8631 34.0778 47.1014 34.4078C47.3398 34.7525 47.5121 35.0788 47.6221 35.5335L46.5441 35.9661C46.4744 35.9038 46.3644 35.7828 46.2727 35.6948C46.1737 35.6031 46.0748 35.5115 45.9684 35.4308C45.7631 35.2695 45.5468 35.1338 45.3231 35.0348C44.8831 34.8368 44.3954 34.7488 43.8931 34.7708C43.6511 34.7708 43.4311 34.8221 43.2111 34.8808C42.9948 34.9541 42.7858 35.0531 42.5768 35.1888C42.3751 35.3318 42.1697 35.4968 41.9791 35.6985C41.7884 35.8891 41.5978 36.1421 41.4438 36.3365L40.3438 35.9698H40.3474Z" fill="#56DEFF"/>
<path d="M46.3139 73.278C46.3139 71.9947 45.2762 70.957 43.9929 70.957C42.7095 70.957 41.6719 71.9947 41.6719 73.278C41.6719 74.5614 42.7095 75.599 43.9929 75.599C45.2762 75.599 46.3139 74.5614 46.3139 73.278Z" fill="#A5A5A5"/>
<path d="M52.5187 60.8003C52.5114 60.958 52.5077 61.123 52.5077 61.2843C52.5077 62.366 52.4674 63.3706 52.3904 64.2946C52.2731 65.6843 52.0604 66.8906 51.7487 67.9356C50.6341 71.661 48.2141 73.278 43.9937 73.278C39.7734 73.278 37.3534 71.661 36.2387 67.9356C35.9271 66.8906 35.7107 65.6843 35.5971 64.2946C35.5201 63.3706 35.4797 62.3696 35.4797 61.2843C35.4797 61.123 35.4761 60.958 35.4688 60.8003C35.4688 60.8003 37.4157 62.443 43.9937 62.443C50.5717 62.443 52.5187 60.8003 52.5187 60.8003Z" fill="#C9C9C9"/>
<path d="M52.389 64.2944C52.2717 65.6841 52.059 66.8904 51.7474 67.9354C50.1194 68.2984 47.637 68.6358 43.9924 68.6358C40.3477 68.6358 37.869 68.2984 36.2374 67.9354C35.9257 66.8904 35.7094 65.6841 35.5957 64.2944C37.187 64.7161 39.8307 65.1524 43.9924 65.1524C48.154 65.1524 50.7977 64.7161 52.389 64.2944Z" fill="#A5A5A5"/>
<path opacity="0.4" d="M33.7602 48.9054C35.3742 48.9054 36.6826 47.996 36.6826 46.8741C36.6826 45.7522 35.3742 44.8428 33.7602 44.8428C32.1463 44.8428 30.8379 45.7522 30.8379 46.8741C30.8379 47.996 32.1463 48.9054 33.7602 48.9054Z" fill="#F17FB2"/>
<path opacity="0.4" d="M55.0415 49.2905C56.6554 49.2905 57.9638 48.381 57.9638 47.2591C57.9638 46.1372 56.6554 45.2278 55.0415 45.2278C53.4275 45.2278 52.1191 46.1372 52.1191 47.2591C52.1191 48.381 53.4275 49.2905 55.0415 49.2905Z" fill="#F17FB2"/>
<path d="M44.4663 37.0367C44.3197 36.7104 43.854 36.7214 43.7147 37.0514C43.502 37.5537 43.26 38.0487 43.095 38.5694C42.9593 38.9874 42.8823 39.4531 42.798 39.8821C42.7393 40.1754 42.6477 40.4981 42.7357 40.7914C42.864 41.2131 43.2123 41.1581 43.5827 41.1911C43.997 41.2277 44.4553 41.3047 44.8697 41.2277C45.757 41.0627 45.1667 39.3174 44.9943 38.7601C44.943 38.5987 44.7487 37.6674 44.4663 37.0367Z" fill="#F17FB2"/>
<path d="M46.1602 43.1345C46.3472 43.9521 46.4865 44.7918 46.3142 45.7488C46.2299 46.2181 46.0025 46.7718 45.5295 47.1678C45.4232 47.2705 45.2839 47.3475 45.1665 47.4171C45.0492 47.4721 44.9466 47.5345 44.8182 47.5785C44.5799 47.6775 44.2939 47.7471 43.9896 47.7655C43.6779 47.7765 43.3369 47.6958 43.0582 47.5381C42.7759 47.3841 42.5522 47.1715 42.3835 46.9515C42.0645 46.5041 41.8959 46.0568 41.7895 45.6168C41.5732 44.7405 41.5622 43.8715 41.6466 43.0501V43.0391C41.6686 42.8228 41.8629 42.6688 42.0755 42.6908C42.2479 42.7091 42.3799 42.8338 42.4165 42.9951C42.5962 43.7981 42.7539 44.5608 43.0106 45.2465C43.1426 45.5801 43.2892 45.8955 43.4689 46.0971C43.6522 46.2988 43.7732 46.3538 43.9565 46.3501C44.0555 46.3428 44.1765 46.3281 44.3122 46.2731C44.3782 46.2548 44.4515 46.2108 44.5212 46.1815C44.5762 46.1448 44.6239 46.1301 44.6642 46.0935C44.8402 45.9798 44.9759 45.7525 45.0822 45.4371C45.2875 44.8065 45.3205 43.9925 45.3902 43.1931V43.1821C45.4122 42.9658 45.5992 42.8081 45.8155 42.8265C45.9879 42.8411 46.1235 42.9695 46.1602 43.1308V43.1345Z" fill="black"/>
</svg>
