<svg width="41" height="41" viewBox="0 0 41 41" fill="none" xmlns="http://www.w3.org/2000/svg">
<path d="M29.0892 38.3172H11.5327C6.842 38.3172 3.86007 35.5195 3.59203 30.8456L2.72091 17.0249C2.58689 14.9309 3.30724 12.9206 4.74795 11.3961C6.1719 9.87164 8.18219 9.00052 10.2595 9.00052C10.7956 9.00052 11.3149 8.68222 11.5662 8.17965L12.7723 5.78406C13.7607 3.82403 16.2401 2.29956 18.4011 2.29956H22.2374C24.3985 2.29956 26.8611 3.82403 27.8495 5.7673L29.0557 8.21315C29.3069 8.68222 29.8095 9.00052 30.3624 9.00052C32.4396 9.00052 34.4499 9.87164 35.8739 11.3961C37.3146 12.9373 38.0349 14.9309 37.9009 17.0249L37.0298 30.8624C36.7283 35.6033 33.8301 38.3172 29.0892 38.3172ZM18.4011 4.81242C17.1615 4.81242 15.5867 5.78406 15.0172 6.90647L13.811 9.31881C13.1074 10.6758 11.7504 11.5134 10.2595 11.5134C8.85228 11.5134 7.5456 12.083 6.57396 13.1049C5.61907 14.1267 5.13325 15.4669 5.23377 16.8574L6.10489 30.6949C6.30592 34.0788 8.13193 35.8043 11.5327 35.8043H29.0892C32.4732 35.8043 34.2992 34.0788 34.5169 30.6949L35.3881 16.8574C35.4718 15.4669 35.0028 14.1267 34.0479 13.1049C33.0762 12.083 31.7696 11.5134 30.3624 11.5134C28.8714 11.5134 27.5144 10.6758 26.8108 9.35232L25.5879 6.90647C25.0351 5.80081 23.4604 4.82917 22.2207 4.82917H18.4011V4.81242Z" fill="white"/>
<path d="M22.8232 14.8639H17.7974C17.1106 14.8639 16.541 14.2944 16.541 13.6075C16.541 12.9207 17.1106 12.3511 17.7974 12.3511H22.8232C23.51 12.3511 24.0796 12.9207 24.0796 13.6075C24.0796 14.2944 23.51 14.8639 22.8232 14.8639Z" fill="white"/>
<path d="M20.3103 31.6163C16.6081 31.6163 13.6094 28.6176 13.6094 24.9153C13.6094 21.213 16.6081 18.2144 20.3103 18.2144C24.0126 18.2144 27.0113 21.213 27.0113 24.9153C27.0113 28.6176 24.0126 31.6163 20.3103 31.6163ZM20.3103 20.7272C17.9985 20.7272 16.1222 22.6035 16.1222 24.9153C16.1222 27.2271 17.9985 29.1034 20.3103 29.1034C22.6222 29.1034 24.4984 27.2271 24.4984 24.9153C24.4984 22.6035 22.6222 20.7272 20.3103 20.7272Z" fill="white"/>
</svg>
