<svg width="124" height="160" viewBox="0 0 124 160" fill="none" xmlns="http://www.w3.org/2000/svg">
<path d="M7.43778 103.323C6.13172 107.418 3.99903 111.264 1.18851 114.529C5.32163 115.789 9.83501 115.822 13.9847 114.596C25.3755 129.101 44.0903 138.666 62.2264 135.599C68.4757 134.538 74.4274 132.068 79.9658 128.968C98.1019 118.823 112.601 100.273 113.345 79.4685C113.56 73.451 112.651 65.7095 110.931 59.924C106.319 44.4078 96.085 25.3772 82.3134 16.9229C54.2743 -0.284236 9.45476 18.6303 2.23006 44.7062C-3.06033 63.8031 2.03166 84.193 7.43778 103.323Z" fill="white"/>
<path d="M22.6641 44.2429C22.6641 44.2429 22.6641 44.2756 22.6797 44.292C22.6797 44.2756 22.6797 44.2593 22.6641 44.2593V44.2429Z" fill="#C192EE"/>
<path d="M22.6651 44.2419C22.5494 43.9766 22.599 44.0761 22.6651 44.2419V44.2419Z" fill="#C192EE"/>
<path d="M26.5659 55.9789C25.9211 54.1057 25.3755 52.1827 24.7638 50.2764C24.4828 49.3149 23.557 46.6625 22.6973 44.3583C22.2839 43.4797 22.1351 42.369 21.3912 41.7225C21.2424 41.6065 21.0771 41.507 20.9117 41.4573C20.3166 41.1423 19.523 41.391 19.1593 41.938C19.0271 42.0707 18.9278 42.2199 18.8782 42.4022C18.4815 43.3803 19.1262 44.4412 19.242 45.4358C19.3411 45.7839 19.4238 46.1155 19.523 46.4305C19.6057 49.0828 19.2585 52.448 18.3327 54.0891C17.2581 53.857 14.7451 49.3315 13.5052 46.2647C12.8439 45.1374 11.141 46.1486 11.7858 47.2759C13.1084 50.2598 14.2988 53.6084 16.8613 55.7634C19.3577 57.3382 20.5976 55.2329 21.1928 52.879C21.5896 54.4041 22.0359 56.0452 22.6311 58.0842C22.9452 58.9462 23.1271 59.974 24.0198 60.4547C25.2102 61.2007 26.8965 60.4879 27.2437 59.1451C27.5247 58.051 26.8469 57.0233 26.5659 55.9955V55.9789Z" fill="#C192EE"/>
<path d="M22.6777 44.2764C22.6777 44.2764 22.6943 44.3261 22.7108 44.3593C22.7273 44.3924 22.7439 44.4256 22.7604 44.4587C22.7439 44.409 22.7108 44.3427 22.6777 44.2764Z" fill="#C192EE"/>
<path d="M38.3701 46.7952C38.0395 44.5739 37.6261 42.1204 36.039 40.413C35.8902 40.2306 35.51 39.9488 35.3281 39.7996C34.9479 39.5178 34.4684 39.3521 33.989 39.3521C33.5922 39.3521 33.245 39.4349 32.9475 39.6007C31.2777 39.2029 29.641 40.2306 28.6655 41.5402C25.2103 45.4359 27.6901 55.4319 34.518 55.1667C38.3866 54.603 38.9653 49.978 38.3866 46.7952H38.3701ZM34.3527 51.1881C34.3527 51.1881 34.2866 51.3042 34.2535 51.3705C34.2204 51.4037 34.1874 51.4534 34.1212 51.5031C34.0716 51.5528 34.0551 51.5694 34.0221 51.6026C30.9305 51.8181 28.5498 45.1706 31.0793 42.5349C31.3934 42.2199 31.6083 42.0376 31.7736 41.9215C31.8398 42.4851 32.1043 43.0322 32.6003 43.4466C32.749 43.5792 32.8813 43.7118 32.964 43.8113C33.0797 43.9771 33.1789 44.1594 33.2616 44.3252C33.8071 45.7177 34.2039 47.1433 34.4354 48.6187C34.485 49.1492 34.6338 50.2598 34.5015 49.232C34.5015 49.3149 34.5015 49.3812 34.518 49.4641C34.5676 49.7128 34.5511 50.2764 34.518 50.5582C34.485 50.7737 34.4188 50.9726 34.3362 51.1881H34.3527Z" fill="#C192EE"/>
<path d="M50.1078 34.7106C49.8103 33.2352 49.7607 30.9144 47.8264 30.7321C47.0163 30.5663 46.1235 31.047 45.7102 31.7433C45.0324 33.4673 45.6772 33.401 46.0409 35.755C46.7352 39.5677 47.3304 41.1094 47.2147 44.3585C47.1651 44.5243 47.1155 44.7564 47.0824 44.9221C46.7848 44.7232 46.4211 44.3585 45.6441 43.5131C44.6191 42.3195 42.8005 38.1918 42.0069 35.2742C41.3952 33.1855 38.2871 34.0475 38.8162 36.1528C39.9404 39.9821 41.0976 44.0601 43.9082 47.0109C47.661 51.0557 51.2982 47.906 51.1329 43.1815C50.951 39.6837 50.67 38.5233 50.0913 34.694L50.1078 34.7106Z" fill="#C192EE"/>
<path d="M50.0895 73.9654C50.0895 73.9654 50.2548 74.3467 50.3044 74.4959C49.9573 73.667 49.577 72.8547 49.1637 72.059C47.9403 69.6222 46.8491 67.119 45.477 64.7651C45.2455 64.3672 44.8652 64.0688 44.4519 63.8865C43.4434 63.2068 41.8729 63.7041 41.5587 64.9474C41.5587 65.0303 41.5422 65.0966 41.5257 65.1795C41.4761 65.3121 41.4595 65.4447 41.4595 65.5774C41.2777 66.3896 41.8067 67.0859 42.0878 67.8153C42.2035 68.1302 42.5507 68.8431 42.9805 69.788C43.3938 71.4954 43.5261 73.2526 42.7656 74.1643C42.7326 74.1975 42.716 74.2472 42.683 74.2804C42.6168 74.3633 42.5176 74.4793 42.4019 74.5788C42.3523 74.5788 42.2862 74.5953 42.2201 74.6119C40.1535 74.5125 36.8305 69.5559 37.1115 65.9421C37.624 63.1405 37.7893 62.8753 39.0293 61.5491C39.1781 61.4165 39.2442 61.3668 39.2607 61.3502C39.922 60.9026 40.7982 60.6871 40.9966 59.8251C41.4265 58.4658 39.7898 57.2059 38.5829 57.9684C35.2929 59.0791 32.6147 64.0191 33.8877 68.8265C34.8796 72.3906 36.9131 76.2033 40.5172 77.629C42.0547 78.2755 44.0221 78.0102 45.0636 76.6343C45.2951 76.3691 45.4935 76.0873 45.6753 75.7889C46.1878 76.8167 47.1302 77.7616 48.3536 77.4964C49.2629 77.4466 50.073 76.6675 50.3044 75.8055C50.4367 75.1755 50.4036 74.5456 50.073 73.982L50.0895 73.9654Z" fill="#C192EE"/>
<path d="M56.356 54.4374C56.0914 54.2882 55.8104 54.1887 55.5128 54.1224C55.3475 54.0727 55.1821 54.0561 55.0003 54.0561C54.9176 54.0561 54.8515 54.0561 54.7688 54.0561C53.4297 52.962 51.5946 52.5144 50.0075 53.4262C47.2631 55.2165 47.7756 59.1287 48.3212 61.9302C49.0486 65.428 51.5781 70.0365 55.7773 69.2408C60.8032 67.467 60.0262 56.7416 56.3725 54.4374H56.356ZM55.5128 64.7815C55.4467 64.997 55.3805 65.2125 55.2813 65.428C55.2317 65.5275 55.1491 65.6933 55.0664 65.8425C55.0003 65.9253 54.9342 65.9917 54.8515 66.058C54.8515 66.058 54.835 66.058 54.8184 66.058C54.6862 66.0248 54.5208 65.9917 54.372 65.9419C54.372 65.9419 54.3721 65.9419 54.3555 65.9419C53.3636 65.2788 53.1156 65.1296 52.2724 63.4719C51.8591 62.3944 51.5285 61.3003 51.3301 60.1565C51.1647 58.3993 51.1151 57.4378 51.4293 56.4929C51.5285 56.3106 51.6442 56.1282 51.7599 55.9459C51.7764 55.9293 51.793 55.9127 51.8261 55.8796C51.9252 55.8133 52.0244 55.7635 52.1402 55.7138C52.1732 55.7138 52.1898 55.6972 52.2394 55.6806C52.2394 55.6806 52.2394 55.6806 52.2724 55.6806C52.3882 55.6806 52.5039 55.6806 52.6196 55.6806C52.7188 55.7138 52.8676 55.7635 52.9668 55.7801C52.9337 55.9459 52.9337 56.1117 52.9337 56.2774C52.9337 56.3272 52.9337 56.3769 52.9337 56.4266C52.9668 56.6753 53.0495 56.9239 53.1983 57.1394C53.1983 57.1394 53.1982 57.1726 53.2148 57.1726C53.347 57.471 53.2809 57.3218 53.2148 57.156C53.2148 57.156 53.2148 57.1726 53.2313 57.1892C53.4958 57.7196 53.9257 58.1175 54.3059 58.5817C54.339 58.5817 54.9672 59.5763 55.1987 60.5212C55.7112 62.6596 55.7112 63.4056 55.4797 64.7484L55.5128 64.7815Z" fill="#C192EE"/>
<path d="M66.6937 58.267C66.4127 57.4713 66.4292 56.4104 65.6356 55.9462C64.5775 55.2831 63.1392 56.3772 63.5194 57.5708C64.1477 60.3723 64.4783 61.599 64.5445 63.8867C64.6602 65.1134 63.9658 66.9535 65.4372 67.5337C66.1316 67.8818 67.0243 67.5337 67.4046 66.8872C67.7518 66.1909 67.6526 65.3455 67.7187 64.5829C67.7022 62.4445 67.2393 60.3226 66.6937 58.267Z" fill="#C192EE"/>
<path d="M50.4574 117.397C49.8953 116.237 49.3332 115.093 48.7877 113.916C48.0106 112.391 47.2667 110.866 46.5227 109.324C45.7622 106.92 44.6545 104.235 41.9928 103.655C40.9017 103.389 39.8601 103.539 39.1988 103.721C39.0831 103.754 38.9839 103.787 38.8682 103.82C38.7359 103.87 38.6532 103.903 38.5706 103.953C38.0415 104.251 37.6117 104.732 37.4629 105.545C37.2149 106.738 38.3061 107.948 39.5129 107.915C39.5956 107.915 39.6617 107.898 39.7444 107.882C40.1577 107.882 40.5875 107.882 41.0009 107.915C41.0174 107.915 41.0505 107.915 41.0835 107.932C41.0835 107.932 41.1166 107.965 41.1331 107.981C42.0589 108.86 43.3485 113.12 43.3485 115.955C43.2162 117.861 43.4146 116.95 42.9682 118.591C42.9186 118.69 42.869 118.79 42.8029 118.873C42.7368 118.922 42.6541 118.955 42.588 118.989C40.1247 119.851 33.2802 113.634 31.412 105.511C30.8168 103.704 30.5689 99.7922 30.8664 98.5655C30.8995 98.4495 30.9326 98.35 30.9822 98.2506C31.0814 98.0516 31.2302 97.8196 31.3128 97.6869C31.3128 97.6704 31.3459 97.6538 31.3459 97.6372C32.8669 95.8966 32.2717 96.8415 34.5201 95.6479C36.0742 94.5539 34.7847 92.0175 32.9826 92.5646C30.5193 93.0951 28.3039 94.7693 27.312 97.1067C26.568 99.3778 26.7995 99.3281 26.7168 101.35C26.8325 106.324 28.3039 111.264 31.0153 115.441C33.2306 118.674 36.0742 122.022 39.9263 123.199C42.7368 124.144 46.2747 123.067 47.184 120.033C47.4485 120.464 47.8784 120.796 48.3744 120.945C49.4324 121.26 50.6393 120.563 50.9203 119.502C51.0691 117.778 50.8377 118.458 50.4574 117.347V117.397Z" fill="#C192EE"/>
<path d="M57.8122 112.176C57.1014 110.617 56.3243 109.092 55.5638 107.551C53.7949 104.02 52.9352 101.218 51.1331 97.1732C50.3561 96.046 48.4879 96.9909 48.8847 98.3005C50.2734 102.312 52.8525 109.308 53.5634 110.717C54.0098 111.794 54.4562 112.888 54.9521 113.949C55.2663 114.646 55.9937 115.209 56.7707 115.043C58.7381 114.662 58.176 112.673 57.8122 112.176Z" fill="#C192EE"/>
<path d="M47.168 89.3489C45.4982 89.3489 45.5148 91.8852 47.168 91.9018C48.8378 91.9018 48.8213 89.3655 47.168 89.3489Z" fill="#C192EE"/>
<path d="M79.1366 101.45C79.1366 101.45 79.1862 101.367 79.2027 101.318C79.3846 100.986 79.5003 100.621 79.4838 100.24C79.5169 98.798 78.0289 97.6873 76.6568 98.0852C75.3672 98.5991 76.0616 98.4499 74.5736 99.7097C74.4249 99.8258 74.3091 99.9418 74.2099 100.025C73.0196 100.854 73.3006 100.655 72.4079 100.903C72.193 100.936 72.0277 100.97 71.8954 100.986C71.6143 101.019 71.3333 101.036 71.0357 101.036C69.7792 101.086 69.0849 100.936 67.8119 100.655C70.1429 96.3611 70.8539 90.6255 67.5143 87.1608C63.0505 82.1877 57.6775 87.3598 57.6113 92.6976C57.8097 95.7146 58.6529 98.7151 59.5952 101.583C60.9013 105.064 62.8686 108.811 63.8771 110.883C65.0509 112.54 67.7623 111.165 67.1836 109.225C66.5223 107.551 65.9437 106.307 65.4147 105.147C65.7618 105.247 66.2248 105.363 67.101 105.561C69.5478 106.109 72.1434 106.307 74.5571 105.528C76.4088 104.932 77.8802 103.572 78.8556 101.915C78.9382 101.782 79.0209 101.649 79.1036 101.5C79.1036 101.5 79.1201 101.467 79.1366 101.45ZM61.8602 92.3992C62.1743 90.8244 62.0255 91.4212 62.6537 90.2276C62.7364 90.1116 62.8025 90.0121 62.8521 89.9458C62.9844 89.7966 63.1332 89.6474 63.2985 89.5148C63.0836 89.6971 62.6207 90.0121 63.1332 89.6308C63.2654 89.5314 63.3977 89.4319 63.53 89.3159C63.5134 89.3324 63.53 89.3159 63.5465 89.2993C63.5961 89.2661 63.6291 89.233 63.6787 89.1998C63.6126 89.233 63.6291 89.2164 63.6787 89.1998C63.7118 89.1667 63.7449 89.1501 63.7779 89.1169C63.7779 89.1169 63.7118 89.1667 63.6953 89.1832C63.6953 89.1832 63.7283 89.1832 63.7449 89.1667C63.7283 89.1667 63.7118 89.1832 63.6953 89.1832C63.6457 89.2164 63.6126 89.2496 63.5796 89.2661C63.6292 89.233 63.6953 89.1832 63.7945 89.1335C63.8276 89.1335 63.8606 89.1169 63.9102 89.1004C65.1171 89.6143 66.3074 90.6089 65.9933 93.5596C65.9933 93.5762 65.9933 93.5928 65.9933 93.6259C65.365 96.3943 65.2328 96.6927 63.7449 98.9804C63.6126 99.1295 63.4473 99.3451 63.282 99.5274C62.538 96.9248 61.8767 93.5099 61.8602 92.7142C61.8602 92.5816 61.8602 92.4489 61.8767 92.3495L61.8602 92.3992Z" fill="#C192EE"/>
<path d="M63.5433 89.3158C63.5433 89.3158 63.5433 89.3158 63.5273 89.3322C63.5273 89.3322 63.5433 89.3158 63.5753 89.2993C63.5753 89.2993 63.5593 89.2993 63.5433 89.3158Z" fill="#C192EE"/>
<path d="M63.6759 89.2L63.6602 89.2166L63.6759 89.2Z" fill="#C192EE"/>
<path d="M88.6582 96.4774C88.03 95.5325 86.7239 95.4828 85.7485 95.8309C85.5832 95.864 85.4178 95.9138 85.269 95.9469C85.2525 95.9469 85.236 95.9469 85.2029 95.9469C85.1368 95.9303 85.0706 95.9138 85.0045 95.8972C85.0045 95.8972 84.988 95.8972 84.9715 95.8972C84.9715 95.8972 84.9715 95.8972 84.9384 95.8806C84.3432 94.9854 83.9134 93.9908 83.4835 93.0128C83.467 92.963 83.4505 92.9299 83.4339 92.8801C83.3678 92.7144 83.2521 92.4657 83.1694 92.2336C83.1363 92.1342 83.0868 92.0347 83.0537 91.9352C82.7892 91.355 81.3508 87.6086 80.6895 85.0723C79.8133 81.9392 78.7552 78.8559 77.7963 75.7393C77.0193 73.2528 76.4738 70.6833 75.4983 68.2465C74.9032 66.2075 71.8447 67.0363 72.3737 69.1085C73.2003 72.2084 73.4814 75.4078 74.1592 78.5409C74.7213 81.2098 75.5149 83.8124 76.077 86.4814C76.8375 89.5481 77.846 92.5486 79.119 95.433C79.7803 96.8752 80.3919 98.3838 81.5162 99.511C82.9049 100.771 84.9549 101.334 86.757 100.738C88.3772 100.207 89.9147 98.0356 88.6582 96.4774Z" fill="#C192EE"/>
<path d="M97.3891 87.3768C97.3891 87.3768 97.3891 87.327 97.3891 87.2939C97.3891 87.2607 97.3891 87.211 97.3891 87.1778C97.3726 85.9511 96.7279 84.8405 96.3641 83.6966C95.6367 81.7239 95.0746 79.7015 94.4794 77.6791C93.2891 73.2862 91.6193 67.2852 91.1233 64.4671C90.3959 62.511 87.3539 63.1409 87.387 65.2131C87.5358 67.7162 88.2632 70.1365 88.7427 72.5899C89.4866 76.0877 90.0983 79.6021 91.0737 83.0501C91.735 85.3378 92.7931 88.8853 93.3552 89.1174C93.7189 89.4821 94.1818 89.7473 94.7109 89.7805C95.8682 90.0125 96.9593 89.1505 97.2734 88.073C97.3396 87.8575 97.3561 87.6254 97.3561 87.3933L97.3891 87.3768Z" fill="#C192EE"/>
<path d="M100.185 92.5481C99.2266 89.4979 94.5479 90.6086 95.3249 93.9406C95.6391 95.9962 98.2677 97.1897 99.8052 95.5983C100.681 94.7695 100.731 93.5096 100.185 92.5481Z" fill="#C192EE"/>
<path d="M53.2618 138.318C51.0464 137.572 48.517 137.903 46.4835 139.064C44.45 140.224 42.9125 142.18 42.1189 144.402C41.4576 146.258 41.3253 148.413 42.2511 150.137C43.2265 151.961 45.2105 153.055 47.2274 153.436C49.2444 153.817 51.3275 153.602 53.3775 153.386C52.1045 155.84 52.6666 159.072 54.6174 161.012C56.5683 162.951 59.726 163.532 62.272 162.487C64.818 161.443 66.6531 158.89 66.9507 156.155C68.4386 158.525 71.2822 160.001 74.0596 159.735C76.8371 159.47 79.3996 157.415 80.1767 154.729C80.9537 152.044 79.8129 148.877 77.4488 147.385C79.2674 147.601 81.1686 146.872 82.3755 145.479C83.5823 144.103 84.0452 142.097 83.5823 140.324C83.2848 139.196 82.6565 138.169 81.896 137.29C79.1186 134.024 74.0762 132.433 70.4225 134.671C70.6374 131.488 69.5959 128.057 67.0829 126.1C63.9914 123.697 59.2135 124.194 56.2872 126.78C53.3444 129.366 52.1872 133.626 53.2783 138.318H53.2618Z" fill="#FF9AED"/>
<path d="M66.8217 139.677C64.7717 137.853 61.2834 138.052 59.4317 140.074C58.8531 140.704 58.4398 141.467 58.1753 142.263C57.4644 144.318 57.6793 146.705 58.8862 148.496C60.093 150.286 62.3249 151.397 64.4576 151.115C66.6895 150.816 68.5907 149.076 69.4008 146.97C69.9133 145.644 70.029 144.136 69.6157 142.776C69.2024 141.417 67.9294 140.655 66.8052 139.677H66.8217Z" fill="#FFCCFB"/>
<path d="M67.6827 43.4141C67.6496 43.6793 67.6827 43.5964 67.6827 43.4141V43.4141Z" fill="#FFBFD0"/>
<path d="M102.781 7.80622C102.781 7.80622 102.731 7.72333 102.715 7.6736C101.805 5.02125 100.268 2.60099 98.1352 0.727767C91.3403 -6.69881 79.9494 -6.66565 72.328 -0.548673C69.8812 1.5069 67.6162 3.94374 66.2771 6.89448C66.1779 7.12656 66.1117 7.37521 66.0291 7.62387C63.0863 14.3708 66.0291 22.6428 71.7328 27.1684C74.1135 29.2073 77.0067 30.5667 80.0321 31.2795C79.0898 34.9431 78.6268 38.1922 78.0647 42.0215C76.6264 41.7728 75.1881 41.5408 73.7498 41.3418C72.5429 41.2092 71.3195 41.1595 70.0961 41.1263C69.6001 41.06 69.1703 41.1926 68.8231 41.4579C68.1783 41.6071 67.6493 42.1375 67.6823 42.9664C67.6823 43.099 67.6823 43.2814 67.6493 43.414C67.6493 43.3808 67.6493 43.3311 67.6493 43.2814C67.6327 43.53 67.5997 43.7621 67.5831 44.0108C67.5831 44.3091 67.484 44.6241 67.484 44.9391C67.3682 46 67.3352 47.3593 68.1618 48.039C68.3271 48.2214 68.509 48.3871 68.7239 48.47C71.0219 49.2326 73.4687 49.2989 75.8494 49.647C76.1966 49.6801 76.5603 49.6967 76.924 49.7133C76.8248 50.4759 76.7421 51.255 76.6429 52.0673C76.5272 53.095 76.1966 54.1726 76.5272 55.2003C76.7917 55.9297 77.4365 56.4602 78.1143 56.7752C78.445 56.9078 78.7922 57.0404 79.1394 57.1067C79.3873 57.1067 79.5361 57.1565 79.189 57.1067C80.5446 57.488 81.0406 56.6094 81.2886 55.7474C81.8672 53.8908 82.3301 52.0175 82.7269 50.1277C84.3967 50.4593 86.8931 51.2881 88.7943 50.8737C89.9351 50.4095 90.7947 49.3983 91.6544 48.5529C92.5968 47.2102 92.2331 46.2818 91.3403 45.5856C91.3238 45.5359 91.2907 45.4696 91.2577 45.4198C91.0097 45.0385 90.5468 44.9722 90.1334 44.8893C88.9431 44.3755 87.5048 44.0273 86.4798 43.7455C85.6862 43.5632 84.8761 43.3808 84.066 43.1985C84.4793 40.9274 84.8927 38.6563 85.3886 36.4018C85.4713 35.3243 86.0169 33.3516 85.9342 31.81C86.2814 31.81 86.6286 31.7768 86.9757 31.7437C87.6536 31.6773 88.3314 31.5613 88.9927 31.4121C95.3577 30.1522 101.624 25.7261 102.731 19.3439C104.451 15.9125 104.798 11.9008 102.764 7.77306L102.781 7.80622ZM88.5794 48.4203C88.0834 48.3706 87.5378 48.3042 86.9757 48.2214C86.86 48.1053 86.7112 48.0224 86.5459 47.9395C86.7608 47.9893 86.9757 48.039 87.1907 48.0722C87.1741 48.0722 87.1576 48.0722 87.1411 48.0556C87.2568 48.1053 87.389 48.1385 87.4882 48.1385C87.852 48.1882 88.2322 48.3042 88.5959 48.3042C88.5959 48.3374 88.5629 48.3706 88.5463 48.4037L88.5794 48.4203ZM78.9244 53.7416C78.8748 53.5924 79.0071 54.3383 79.0071 54.5538C79.0071 54.7362 79.0732 54.902 79.1724 55.0512C79.0897 55.018 79.0071 54.9683 78.8748 54.902C78.8748 54.902 78.8583 54.902 78.8418 54.8854C78.8252 54.8688 78.7922 54.8522 78.7756 54.8357C78.693 54.7528 78.6103 54.6699 78.5276 54.587C78.5276 54.5704 78.5276 54.5538 78.5111 54.5207C78.5111 54.4875 78.5111 54.4544 78.5111 54.4212C78.6103 53.6918 78.726 52.863 78.8748 51.9844C78.8418 52.6475 78.8418 53.2608 78.9244 53.7581V53.7416ZM91.1585 1.12562C91.1915 1.22508 91.2411 1.30797 91.3403 1.39085C91.423 1.45716 91.4891 1.54005 91.5718 1.60636C91.5387 1.58978 91.5056 1.55662 91.4726 1.54005C90.0012 0.644881 88.2818 0.0481029 86.4632 -0.250286C88.0834 -0.101092 89.6705 0.396223 91.175 1.12562H91.1585ZM66.988 16.7247C66.6904 15.3488 66.5912 13.8735 66.7896 12.2821C66.8723 10.8398 67.2194 9.49709 67.7319 8.22065C68.0295 7.64045 68.3602 7.07682 68.757 6.52978C70.559 4.20897 72.1957 2.61757 74.2457 1.49032C74.1631 1.58978 74.0804 1.70582 73.9812 1.80528C73.0223 2.53468 72.1296 3.33038 71.3525 4.22555C68.3602 7.47468 66.5581 12.2489 66.988 16.7247ZM83.1567 35.2249C83.2725 33.7495 83.2063 32.7383 83.3386 31.7602C83.4874 31.7602 83.6196 31.7768 83.7684 31.7934C83.537 32.9372 83.3386 34.081 83.1567 35.2249ZM86.7278 30.3677C86.3475 30.3843 85.9673 30.4009 85.587 30.4009C85.5374 30.318 85.4713 30.2517 85.4052 30.1854C85.8681 30.1522 86.331 30.1025 86.7774 30.0196C86.7443 30.1357 86.7278 30.2517 86.7278 30.3677ZM89.158 30.0694C89.158 30.0694 89.0754 30.0694 89.0423 30.0859C89.2903 29.8207 89.5217 29.5389 89.7697 29.2737C90.4145 29.0747 91.0593 28.8592 91.7702 28.6271C92.4976 28.3785 93.2085 28.0635 93.9029 27.732C92.448 28.7763 90.8609 29.5886 89.158 30.0859V30.0694ZM95.0105 17.9183C93.5557 22.1952 89.9185 25.9085 85.7193 27.5331C85.2233 27.7154 84.7273 27.8646 84.2148 27.9806C80.3627 28.0304 76.5603 26.1571 73.4191 22.792C73.2373 22.5599 73.0554 22.3112 72.8735 22.046C72.7743 21.8471 72.6752 21.6482 72.576 21.4492C70.84 17.4873 70.9558 12.5804 72.4437 8.32011C72.609 7.69018 72.9562 6.91105 73.4356 6.09877C73.8985 5.55172 74.3945 5.05441 74.907 4.63998C80.6273 -0.266862 89.5383 0.843808 94.4484 6.13192C96.4819 9.69602 96.4323 13.6745 94.994 17.9349L95.0105 17.9183ZM97.1598 6.31427C96.9614 5.98273 96.7464 5.66776 96.5315 5.3528C96.2505 5.00468 95.9694 4.65656 95.7049 4.30844C96.3331 4.90521 96.9283 5.55173 97.4739 6.21481C97.3581 6.21481 97.2589 6.26454 97.1598 6.31427Z" fill="#FFBFD0"/>
<path d="M104.033 51.1551C102.049 49.3482 99.6019 48.0551 96.9898 47.4584C95.8325 47.1931 94.4107 47.16 93.6503 48.0883C93.0551 48.8177 93.1543 49.9449 93.6503 50.7406C94.1462 51.5529 94.9563 52.1 95.7829 52.5475C97.866 53.6914 100.181 54.4042 102.561 54.6031C99.4036 55.1667 96.1301 56.6421 94.6257 59.4934C94.1958 60.3222 93.9313 61.3666 94.4107 62.1623C94.7249 62.6762 95.3035 62.9912 95.8821 63.1569C97.5023 63.6211 99.2878 63.1404 100.71 62.2452C102.148 61.35 103.289 60.0736 104.429 58.8137C102.479 61.8971 101.106 65.6435 101.983 69.2076C102.148 69.9038 102.412 70.5835 102.875 71.114C103.338 71.6444 104.049 72.0091 104.76 71.9097C105.57 71.8102 106.198 71.1471 106.661 70.4675C108.596 67.6328 108.877 64.0189 108.893 60.5875C109.092 63.8366 110.927 66.9531 113.671 68.6937C114.498 69.2242 115.622 69.622 116.432 69.075C116.862 68.7932 117.11 68.2959 117.259 67.782C117.87 65.7927 117.242 63.6211 116.217 61.7976C115.06 59.7255 113.407 57.9351 111.439 56.6255C114.316 58.3827 117.407 60.2062 120.764 60.0902C122.169 60.0404 123.822 59.3608 123.987 57.9683C124.103 56.9571 123.359 56.0453 122.566 55.432C119.97 53.393 116.415 53.0117 113.142 53.3267C115.308 53.1941 117.44 52.5475 119.309 51.4203C120.549 50.6743 121.689 49.6963 122.351 48.4033C122.929 47.2429 122.995 45.6514 122.037 44.7894C121.59 44.3916 120.978 44.1927 120.367 44.1429C118.647 43.9606 116.911 44.7231 115.605 45.8669C114.299 47.0108 113.374 48.5193 112.563 50.061C113.175 48.6851 113.671 47.2594 114.051 45.8006C114.415 44.3916 114.647 42.8996 114.233 41.5072C113.803 40.1147 112.53 38.9045 111.092 38.9874C109.323 39.0869 108.199 40.927 107.67 42.6344C107.075 44.6237 106.86 46.7124 107.042 48.7845C106.513 46.5963 105.488 44.5242 104.049 42.7836C103.57 42.2034 103.041 41.6563 102.363 41.3414C101.685 41.0264 100.842 40.9933 100.23 41.4077C99.4862 41.905 99.2547 42.9328 99.2878 43.828C99.4201 46.8118 101.685 49.2653 104.016 51.1053L104.033 51.1551Z" fill="#FFC4ED"/>
<path d="M104.658 54.2225C104.658 52.4156 106.146 50.9568 107.981 50.9568C109.816 50.9568 111.304 52.4156 111.304 54.2225C111.304 56.0294 109.816 57.4882 107.981 57.4882C106.146 57.4882 104.658 56.0294 104.658 54.2225Z" fill="#FBF2FF"/>
</svg>
