<svg width="42" height="42" viewBox="0 0 42 42" fill="none" xmlns="http://www.w3.org/2000/svg">
<circle cx="21" cy="21" r="21" fill="white"/>
<path d="M21.187 20.5568C21.152 20.5568 21.1286 20.5568 21.0936 20.5568C21.0353 20.5452 20.9536 20.5452 20.8836 20.5568C17.5003 20.4518 14.9453 17.7918 14.9453 14.5135C14.9453 11.1768 17.6636 8.4585 21.0003 8.4585C24.337 8.4585 27.0553 11.1768 27.0553 14.5135C27.0436 17.7918 24.477 20.4518 21.222 20.5568C21.2103 20.5568 21.1986 20.5568 21.187 20.5568ZM21.0003 10.2085C18.632 10.2085 16.6953 12.1452 16.6953 14.5135C16.6953 16.8468 18.5153 18.7252 20.837 18.8068C20.8953 18.7952 21.0586 18.7952 21.2103 18.8068C23.497 18.7018 25.2936 16.8235 25.3053 14.5135C25.3053 12.1452 23.3686 10.2085 21.0003 10.2085Z" fill="#E6DDFF"/>
<path d="M21.1989 33.3082C18.9122 33.3082 16.6139 32.7248 14.8755 31.5582C13.2539 30.4848 12.3672 29.0148 12.3672 27.4165C12.3672 25.8182 13.2539 24.3365 14.8755 23.2515C18.3755 20.9298 24.0455 20.9298 27.5222 23.2515C29.1322 24.3248 30.0305 25.7948 30.0305 27.3932C30.0305 28.9915 29.1439 30.4732 27.5222 31.5582C25.7722 32.7248 23.4855 33.3082 21.1989 33.3082ZM15.8439 24.7215C14.7239 25.4682 14.1172 26.4248 14.1172 27.4282C14.1172 28.4198 14.7355 29.3765 15.8439 30.1115C18.7489 32.0598 23.6489 32.0598 26.5539 30.1115C27.6739 29.3648 28.2805 28.4082 28.2805 27.4048C28.2805 26.4132 27.6622 25.4565 26.5539 24.7215C23.6489 22.7848 18.7489 22.7848 15.8439 24.7215Z" fill="#E6DDFF"/>
</svg>
