<svg width="40" height="40" viewBox="0 0 40 40" fill="none" xmlns="http://www.w3.org/2000/svg">
<path d="M26.187 27.9549L12.0448 13.8128C11.5616 13.3296 11.5616 12.5282 12.0448 12.045C12.528 11.5618 13.3294 11.5618 13.8126 12.045L27.9547 26.1872C28.4379 26.6703 28.4379 27.4717 27.9547 27.9549C27.4715 28.4381 26.6702 28.4381 26.187 27.9549Z" fill="#B3ABE3"/>
<path d="M12.0453 27.9549C11.5621 27.4717 11.5621 26.6703 12.0453 26.1872L26.1874 12.045C26.6706 11.5618 27.472 11.5618 27.9552 12.045C28.4384 12.5282 28.4384 13.3296 27.9552 13.8128L13.813 27.9549C13.3298 28.4381 12.5285 28.4381 12.0453 27.9549Z" fill="#B3ABE3"/>
</svg>
