<svg width="126" height="137" viewBox="0 0 126 137" fill="none" xmlns="http://www.w3.org/2000/svg">
<path fill-rule="evenodd" clip-rule="evenodd" d="M57.7792 18.3172C56.6652 18.7708 55.004 21.324 54.2624 23.7221C53.6875 25.5808 53.4834 28.1048 53.8539 28.7706C54.2078 29.4064 54.6367 29.6627 55.4381 29.7169C56.1635 29.7659 56.2 29.7541 56.723 29.2978C57.2615 28.8282 57.2615 28.8282 57.3617 27.3625C57.4518 26.0446 57.7997 24.3383 58.0705 23.8859C58.1446 23.762 58.3509 23.9996 58.818 24.7467C60.8703 28.0285 62.937 29.9031 69.0895 34.0642C72.2214 36.1824 73.2056 37.1608 74.0457 38.9913C74.5805 40.1568 75.0108 40.5029 75.9245 40.5022C76.9931 40.5013 77.7498 39.79 77.7483 38.7878C77.7479 38.5276 77.5755 37.9333 77.3652 37.4671C76.4702 35.4836 74.7628 33.6738 72.0284 31.8101C67.5342 28.7467 66.3023 27.8383 65.0596 26.6711C62.9916 24.729 61.5946 22.7119 60.5502 20.1608C60.0347 18.9014 59.6555 18.4398 58.9957 18.2684C58.4181 18.1185 58.2508 18.1251 57.7792 18.3172ZM11.9408 20.3086C11.1484 20.6885 10.9244 21.1513 10.9244 22.4079C10.9244 23.664 11.1478 24.1247 11.9457 24.5144C12.8977 24.9796 14.0243 24.6331 14.417 23.7541C14.6818 23.1618 14.6485 21.499 14.3618 20.9868C14.1214 20.5577 13.2468 20.0425 12.7584 20.0425C12.614 20.0425 12.2461 20.1622 11.9408 20.3086ZM100.033 21.2122C99.1211 21.6056 98.7046 22.2259 98.7046 23.1902C98.7046 24.7342 100.497 25.7232 101.998 25.0074C103.632 24.2279 103.591 21.9772 101.929 21.2249C101.283 20.9323 100.691 20.9282 100.033 21.2122ZM43.9759 23.5843C43.2566 23.8895 43.0234 24.3741 42.6911 26.2515C42.2625 28.6748 42.1661 29.6626 42.1661 31.6327C42.1661 35.072 42.7678 37.8362 44.1057 40.5439C44.4314 41.203 44.5546 41.645 44.6243 42.4042C44.8444 44.8021 45.4578 46.9038 46.5089 48.8605C46.9242 49.6339 47.1124 50.1598 47.222 50.854C47.7872 54.4324 49.3302 57.3322 52.0888 60C52.7184 60.6089 53.5918 61.3737 54.0297 61.6998C54.4676 62.0257 54.7935 62.3228 54.7539 62.3598C54.602 62.5018 50.6699 62.7295 47.0357 62.8067C38.8569 62.9805 33.5123 62.1664 30.4875 60.2862C29.1387 59.4477 28.2462 59.5209 27.4385 60.5365C27.0875 60.9777 27.1244 62.0609 27.5426 63.5907C28.76 68.0438 31.7522 71.4869 36.1581 73.5046C38.8614 74.7426 40.6575 75.1583 41.4907 74.7389C42.5665 74.1971 42.7469 72.7147 41.8311 71.9402C41.7024 71.8312 40.8907 71.5252 40.0276 71.2602C36.5798 70.2017 34.0956 68.4477 32.5216 65.9603C31.8739 64.9367 31.7868 64.6713 32.1422 64.8054C32.7923 65.0509 35.4379 65.6007 36.9537 65.8053C39.9899 66.2152 42.3242 66.3204 46.7828 66.2484C51.0713 66.1791 53.7385 66.0125 57.8881 65.5544C60.2114 65.298 60.2798 65.2969 60.8605 65.5076C62.84 66.2257 64.1162 66.6389 65.0929 66.8779C66.4228 67.2034 66.9609 67.1133 67.5715 66.4632C68.1216 65.8774 68.1947 65.3568 67.8247 64.6595C67.4665 63.9843 67.2567 63.8785 64.9495 63.2084C61.8698 62.3139 58.9928 60.947 56.728 59.302C55.6228 58.4992 54.0915 57.0839 53.5652 56.3786C53.2857 56.0039 53.3109 56.012 54.4571 56.6656C56.4374 57.7948 57.6788 58.299 58.4826 58.3004C59.6089 58.3026 60.2533 57.6863 60.2533 56.6072C60.2533 55.7549 59.8973 55.4169 58.1836 54.642C56.1871 53.7394 54.6125 52.7225 53.0942 51.3551C51.6675 50.0701 50.8069 49.0579 50.0659 47.7934C49.5911 46.9829 49.5911 46.9829 50.7799 47.7496C52.598 48.9224 54.0358 49.6091 54.6731 49.6091C55.9262 49.6091 56.7817 48.6017 56.4644 47.4999C56.3051 46.9467 55.8858 46.5799 54.7513 46.001C51.7537 44.4713 49.8047 42.7814 48.1894 40.3113C46.5589 37.8181 45.8331 35.105 45.8361 31.5144C45.8383 29.0874 45.7296 29.1348 47.5262 30.7781C51.6161 34.5189 56.4291 37.3531 65.2122 41.1926C67.1395 42.0351 69.1317 42.9816 69.6391 43.2957C70.8956 44.0738 72.7111 45.7384 73.6606 46.9832C75.2051 49.008 76.5136 51.9233 77.0158 54.4581C77.1381 55.076 77.3449 55.7489 77.4752 55.9534C78.1863 57.069 80.1375 56.8754 80.6677 55.6365C80.8393 55.2354 80.8512 55.0254 80.7402 54.3636C79.7781 48.6346 76.3412 43.3475 71.6856 40.4346C70.6946 39.8147 69.4843 39.2439 65.3127 37.4298C56.3836 33.5466 51.0278 29.926 47.0963 25.115C45.6422 23.3356 45.141 23.0897 43.9759 23.5843ZM5.81963 25.9438C4.62056 26.683 4.71707 28.342 5.99406 28.9419C6.5812 29.2178 8.2451 29.2265 8.85248 28.9571C9.77847 28.5463 10.1879 27.3502 9.6678 26.5757C9.21068 25.8951 8.74332 25.7202 7.38286 25.7205C6.41841 25.7209 6.10992 25.7649 5.81963 25.9438ZM16.4768 25.9878C15.2813 26.7345 15.3859 28.3898 16.6644 28.9571C17.2048 29.1967 18.8587 29.2151 19.4405 28.9877C20.1337 28.7169 20.5372 28.1615 20.5372 27.4784C20.5372 26.7503 20.2926 26.2896 19.7348 25.9673C19.3781 25.7612 19.1034 25.7193 18.1062 25.7193C17.0695 25.7193 16.8482 25.7558 16.4768 25.9878ZM117.209 27.8576C116.459 28.2049 116.159 28.8216 116.159 30.019C116.159 31.2363 116.45 31.7935 117.26 32.1285C118.19 32.5129 119.066 32.2675 119.58 31.4784C119.779 31.1738 119.827 30.8824 119.827 29.9769C119.827 28.6302 119.615 28.1975 118.781 27.8439C118.098 27.5539 117.861 27.5559 117.209 27.8576ZM11.8403 30.3311C11.1367 30.7322 10.9254 31.1965 10.9251 32.3423C10.9248 33.5156 11.1374 34.0272 11.7969 34.4391C12.6287 34.9587 13.7936 34.6894 14.3401 33.8512C14.7028 33.2952 14.7028 31.5075 14.3401 30.9516C14.0032 30.4347 13.377 30.096 12.7584 30.096C12.4763 30.096 12.0702 30.2 11.8403 30.3311ZM111.29 33.3966C110.324 33.7928 109.91 35.0844 110.491 35.8902C110.937 36.5092 111.489 36.7178 112.681 36.7178C113.874 36.7178 114.426 36.5092 114.872 35.8902C115.117 35.5495 115.161 35.3649 115.116 34.8469C115.07 34.3134 114.991 34.1514 114.597 33.7825C114.132 33.3475 114.132 33.3475 112.837 33.3202C112.125 33.3052 111.429 33.3395 111.29 33.3966ZM121.763 33.5197C120.915 34.0033 120.657 34.8195 121.073 35.7C121.42 36.4319 122.045 36.7118 123.342 36.7155C124.412 36.7186 124.96 36.5383 125.415 36.033C125.885 35.5099 125.966 34.9422 125.66 34.2965C125.277 33.4861 124.829 33.2892 123.369 33.2892C122.401 33.2892 122.089 33.334 121.763 33.5197ZM89.7007 34.5985C85.942 35.1141 83.3695 36.5343 78.8209 40.6053C77.4847 41.8011 77.2228 42.2435 77.3818 43.0357C77.487 43.5606 78.1762 44.2346 78.7225 44.3468C79.5814 44.5232 79.8753 44.3612 81.9593 42.5621C84.3699 40.4812 85.5951 39.6035 86.9722 38.9707C88.619 38.2139 89.729 37.9851 91.8112 37.9731C93.4165 37.9639 93.6445 37.9892 94.2503 38.2439C95.1858 38.637 96.3473 39.8395 97.0441 41.1365C97.6444 42.2538 98.1521 42.7491 99.1326 43.1738C99.8284 43.4753 99.7839 43.5202 98.674 43.6365C96.6758 43.8459 92.2644 46.9508 90.5226 49.3736C88.7745 51.8055 87.6156 54.7617 86.3814 59.9386C85.6036 63.2011 84.9967 64.7475 83.8351 66.4264C81.9476 69.1547 79.3137 70.5327 74.7017 71.2046C73.6241 71.3616 72.1717 71.4111 67.6527 71.4448C64.5222 71.4681 61.4486 71.5427 60.8225 71.6105C56.0434 72.1282 51.078 73.86 46.8012 76.5009C44.3411 78.0199 43.6729 78.7488 43.8644 79.7037C44.0278 80.5183 44.787 81.068 45.7485 81.068C46.2457 81.068 46.4535 80.9682 47.6205 80.1692C51.299 77.6502 55.231 76.0515 59.8507 75.1964C60.5923 75.0591 62.3506 74.9938 67.2732 74.9206C72.111 74.8487 74.0561 74.7774 75.052 74.6356C79.754 73.9661 82.516 72.8168 84.9966 70.4976C87.4236 68.2284 88.8161 65.5546 89.8698 61.1401C91.733 53.3345 93.2545 50.5819 97.0102 48.2218C99.0339 46.9502 99.0215 46.9541 101.045 46.9595C102.626 46.9638 102.922 46.9983 103.813 47.2818C104.985 47.6549 105.525 47.59 106.156 46.9998C106.893 46.3105 106.838 45.5434 105.946 44.0513C104.864 42.2421 103.038 40.7836 101.139 40.2109C100.774 40.1006 100.475 39.9473 100.475 39.8698C100.475 39.4592 99.2002 37.7567 98.1452 36.759C96.8089 35.4952 95.7504 34.9422 94.1049 34.6477C93.0535 34.4597 90.8893 34.4354 89.7007 34.5985ZM117.045 37.9222C116.383 38.3393 116.16 38.8554 116.16 39.9704C116.16 41.0854 116.383 41.6016 117.045 42.0187C117.409 42.2484 117.607 42.2888 118.161 42.2472C118.731 42.2044 118.904 42.1306 119.299 41.7616C119.764 41.3266 119.764 41.3266 119.764 39.9704C119.764 38.6143 119.764 38.6143 119.299 38.1793C118.904 37.8103 118.731 37.7365 118.161 37.6937C117.607 37.6521 117.409 37.6925 117.045 37.9222ZM3.3905 41.3388C2.46628 41.59 1.67942 42.8294 1.88319 43.7134C2.12806 44.7763 2.84573 45.3711 3.97537 45.4475C4.59906 45.4896 4.80346 45.4502 5.26083 45.1996C6.47913 44.532 6.76258 42.8922 5.82495 41.9358C5.23755 41.3365 4.27121 41.0996 3.3905 41.3388ZM2.336 66.4795C0.833239 66.8607 -0.0195188 67.8258 0.00033926 69.1231C0.0072959 69.5847 0.58748 71.6791 1.99867 76.3373C3.09238 79.9474 4.9216 86.0299 6.06375 89.8539C7.2059 93.678 8.23384 96.9777 8.34819 97.1864C8.99528 98.3693 12.0179 102.023 16.4414 106.971C21.144 112.231 20.9798 112.076 32.0869 121.672C35.5977 124.705 36.9744 125.965 36.9318 126.107C36.899 126.216 36.8361 128.301 36.792 130.74C36.7132 135.098 36.7164 135.182 36.9759 135.567C37.3187 136.077 38.2303 136.468 38.8299 136.363C39.416 136.26 40.111 135.665 40.2641 135.134C40.4561 134.469 40.6801 124.947 40.5143 124.503C40.4213 124.253 38.6878 122.68 34.9799 119.48C25.1868 111.029 24.1433 110.09 22.1922 107.975C17.6792 103.082 13.2135 97.9115 12.0271 96.2061C11.6431 95.654 11.3521 94.8042 10.103 90.5884C8.28368 84.4472 3.97043 70.0951 3.87253 69.8565C3.74909 69.5556 5.53416 69.7278 6.40551 70.1008C7.31531 70.4903 8.32757 71.3724 8.74168 72.1365C8.91863 72.4631 10.7016 77.741 12.7038 83.8655C14.7061 89.9898 16.4317 95.1588 16.5386 95.3522C16.7514 95.7372 16.4844 95.573 25.5214 100.873C28.7148 102.746 31.6461 104.418 32.0353 104.588C32.6348 104.851 32.9169 104.899 33.8813 104.899C34.8515 104.899 35.1265 104.852 35.7423 104.582C37.1349 103.972 38.0155 103.048 38.4205 101.773C38.9426 100.129 38.2882 98.063 36.9409 97.1022C36.7145 96.9406 34.0266 95.428 30.968 93.7408C26.0751 91.0419 25.373 90.6185 25.1243 90.217C24.3659 88.9917 25.376 87.4755 26.8615 87.6093C27.3011 87.6489 28.2218 88.0707 30.909 89.4635C32.822 90.455 36.664 92.4358 39.4467 93.8651C42.6735 95.5225 44.6339 96.5992 44.8589 96.8376C47.0534 99.1616 50.9069 106.593 55.5658 117.486C57.0912 121.053 57.0912 121.053 57.0917 128.114C57.0921 134.904 57.1016 135.189 57.3386 135.553C57.6992 136.106 58.1624 136.344 58.8775 136.344C59.5448 136.344 59.9708 136.125 60.4352 135.543C60.6922 135.221 60.696 135.107 60.696 127.686C60.696 120.155 60.696 120.155 59.2217 116.725C53.5092 103.437 49.3952 95.7993 46.9462 93.9379C46.1601 93.3403 29.0772 84.559 28.2614 84.3331C27.2587 84.0555 25.9586 84.0911 24.9507 84.4237C21.7152 85.4916 20.2695 88.7952 21.7711 91.6888C22.4413 92.9804 23.0564 93.4039 28.9328 96.62C31.9039 98.2462 34.4456 99.6713 34.5809 99.787C34.7163 99.9025 34.8648 100.138 34.9112 100.311C35.0751 100.922 34.3221 101.645 33.6829 101.49C33.2536 101.386 19.8742 93.5293 19.6978 93.2773C19.6187 93.1644 17.9747 88.229 16.0445 82.3098C14.1142 76.3906 12.3661 71.2118 12.1597 70.8015C11.1338 68.7613 8.94582 67.0916 6.54692 66.5179C5.37466 66.2376 3.36204 66.2192 2.336 66.4795ZM119.407 66.5099C117.019 67.1304 114.955 68.7015 113.903 70.6996C113.691 71.1012 111.904 76.3658 109.932 82.3986C106.345 93.3672 106.345 93.3672 99.3942 97.4472C94.8668 100.105 92.3283 101.527 92.1129 101.528C91.931 101.528 91.6321 101.418 91.4488 101.283C91.1817 101.086 91.1156 100.938 91.1156 100.533C91.1156 100.201 91.1918 99.9629 91.3369 99.8405C91.4586 99.7379 94.0342 98.2896 97.0603 96.6223C100.086 94.9549 102.781 93.3942 103.048 93.154C103.688 92.5795 104.234 91.8341 104.474 91.2106C105.473 88.6066 104.292 85.8722 101.639 84.6459C100.721 84.2219 100.621 84.202 99.4069 84.202C98.7076 84.202 97.9078 84.2675 97.6295 84.3475C97.3512 84.4275 93.1393 86.5467 88.2697 89.0569C82.0426 92.2669 79.2518 93.7676 78.8631 94.1151C76.4676 96.2577 72.8168 102.904 68.0991 113.71C65.0426 120.71 65.3127 119.36 65.3127 127.64C65.3127 134.29 65.3336 135.062 65.524 135.437C66.1344 136.64 67.9933 136.667 68.7045 135.484C68.98 135.026 68.9808 135.004 68.9808 127.963C68.9808 120.902 68.9808 120.902 70.612 117.099C73.2678 110.907 75.186 106.829 77.3258 102.823C79.1838 99.3454 80.8579 96.8653 81.66 96.4028C81.8169 96.3123 85.6957 94.3077 90.2794 91.9482C96.5209 88.7353 98.7438 87.6457 99.1333 87.609C100.198 87.5082 101.108 88.3093 101.108 89.3466C101.108 90.3801 101.057 90.4168 95.0326 93.7362C91.9407 95.4398 89.2559 97.0001 88.8978 97.3015C87.3968 98.5647 86.9734 100.682 87.8646 102.468C88.2378 103.216 89.3224 104.197 90.1963 104.577C90.8276 104.851 91.0876 104.894 92.1274 104.893C93.068 104.891 93.4527 104.838 93.8982 104.648C94.47 104.404 108.149 96.4283 108.918 95.8901C109.145 95.732 109.408 95.4589 109.504 95.2834C109.601 95.1079 111.314 89.9621 113.312 83.8484C115.31 77.7347 117.078 72.4868 117.241 72.1864C118.043 70.7063 119.729 69.7144 121.442 69.7144C122.131 69.7144 122.132 69.7148 122.046 70.0397C121.999 70.2185 120.793 74.2499 119.366 78.9983C117.94 83.7467 116.236 89.4369 115.581 91.6433C114.926 93.8495 114.296 95.792 114.181 95.96C113.237 97.3398 109.478 101.738 105.243 106.416C102.318 109.648 101.172 110.72 94.1512 116.784C86.7396 123.187 85.9173 123.909 85.6365 124.261C85.3831 124.579 85.3815 124.649 85.5079 129.82C85.6486 135.577 85.6421 135.533 86.4536 136.074C87.2727 136.619 88.3368 136.399 89.0207 135.544C89.3273 135.16 89.329 135.097 89.184 129.557C89.0866 125.832 89.0866 125.832 91.7731 123.526C95.8564 120.02 103.209 113.62 104.213 112.697C106.014 111.041 113.134 103.065 116.017 99.4747C117.668 97.4184 117.762 97.2102 119.129 92.599C119.803 90.3223 121.636 84.2021 123.201 78.9983C126.384 68.4156 126.328 68.6841 125.57 67.6755C124.805 66.6575 124.081 66.396 121.851 66.3313C120.576 66.2943 120.103 66.3289 119.407 66.5099Z" fill="#CBAACB"/>
<path fill-rule="evenodd" clip-rule="evenodd" d="M113.71 46.7376C117.231 52.2502 118.447 54.5615 120.802 60.8829C121.175 61.8818 120.672 62.9952 119.679 63.3697C118.687 63.7443 117.58 63.2382 117.208 62.2393C114.957 56.1983 113.869 54.1312 110.481 48.8266C109.907 47.9293 110.166 46.7341 111.057 46.1573C111.949 45.5804 113.137 45.8402 113.71 46.7376ZM94.2385 31.2515C93.7698 32.2083 92.619 32.6016 91.6682 32.1299C82.7434 27.7025 77.2282 25.7344 66.7876 24.9839C65.7302 24.9079 64.9342 23.9836 65.0097 22.9195C65.0853 21.8554 66.0037 21.0544 67.0611 21.1304C78.1182 21.9253 84.1196 24.078 93.3656 28.6648C94.3164 29.1365 94.7072 30.2946 94.2385 31.2515ZM39.7479 27.271C40.1916 28.2399 39.7707 29.3873 38.8079 29.8338C26.1219 35.7164 14.7678 45.4189 8.58008 62.1076C8.20949 63.1071 7.10392 63.615 6.11073 63.2421C5.11753 62.8691 4.61282 61.7565 4.98341 60.757C11.5918 42.9339 23.7829 32.5474 37.2014 26.3251C38.1642 25.8786 39.3043 26.3021 39.7479 27.271Z" fill="#E8CBF8"/>
<path fill-rule="evenodd" clip-rule="evenodd" d="M103.887 51.7499C108.07 57.1816 109.752 62.0503 111.369 67.299C111.683 68.318 111.117 69.4001 110.105 69.7161C109.092 70.0321 108.017 69.4622 107.703 68.4432C106.122 63.3147 104.604 58.9867 100.853 54.1164C100.204 53.2732 100.356 52.0598 101.194 51.4063C102.032 50.7528 103.238 50.9067 103.887 51.7499ZM41.1118 38.1275C41.6046 39.072 41.2431 40.2397 40.3046 40.7356C30.4566 45.9386 21.7853 54.6827 18.235 68.2348C17.9648 69.2663 16.9147 69.8821 15.8897 69.6102C14.8646 69.3382 14.2527 68.2815 14.523 67.2499C18.3945 52.4714 27.894 42.9293 38.5201 37.3151C39.4587 36.8192 40.619 37.1829 41.1118 38.1275Z" fill="#CBAACB"/>
<path fill-rule="evenodd" clip-rule="evenodd" d="M93.066 59.8334C94.0141 59.3563 95.1671 59.743 95.6412 60.6972C95.8625 61.1428 96.0812 61.5778 96.2958 62.0048C97.4057 64.2132 98.4083 66.208 99.131 68.351C100.019 70.9831 100.486 73.8167 100.43 77.6976C100.415 78.7643 99.5433 79.6165 98.4833 79.601C97.4234 79.5855 96.5766 78.7082 96.592 77.6415C96.6425 74.1403 96.2244 71.7527 95.4958 69.5927C94.8676 67.73 94.0088 66.0187 92.9012 63.8119C92.68 63.3711 92.4488 62.9105 92.2076 62.4249C91.7335 61.4708 92.1178 60.3105 93.066 59.8334ZM44.6646 48.9491C45.2962 49.8058 45.1181 51.0157 44.2668 51.6513L44.0482 51.8146C40.2815 54.6265 38.9746 55.6022 35.8281 59.0122C35.1068 59.794 33.8923 59.8392 33.1155 59.1133C32.3387 58.3874 32.2937 57.1652 33.015 56.3834C36.4026 52.7122 37.9282 51.5732 41.7728 48.703L41.9794 48.5487C42.8308 47.9131 44.033 48.0923 44.6646 48.9491ZM28.3916 69.6108C29.4157 69.8866 30.0237 70.9455 29.7497 71.9761C29.203 74.0324 29.1751 75.3688 29.1751 77.7868C29.1751 78.8536 28.3157 79.7185 27.2557 79.7185C26.1956 79.7185 25.3362 78.8536 25.3362 77.7868C25.3362 75.3113 25.3575 73.5495 26.0413 70.9775C26.3153 69.947 27.3676 69.3351 28.3916 69.6108Z" fill="#E21C1C"/>
</svg>
