<svg width="24" height="25" viewBox="0 0 24 25" fill="none" xmlns="http://www.w3.org/2000/svg">
<path d="M17.6191 9.71289H12.3691C11.9591 9.71289 11.6191 9.37289 11.6191 8.96289C11.6191 8.55289 11.9591 8.21289 12.3691 8.21289H17.6191C18.0291 8.21289 18.3691 8.55289 18.3691 8.96289C18.3691 9.37289 18.0391 9.71289 17.6191 9.71289Z" fill="#79768D"/>
<path d="M7.12055 10.4731C6.93055 10.4731 6.74055 10.4031 6.59055 10.2531L5.84055 9.50309C5.55055 9.21309 5.55055 8.73309 5.84055 8.44309C6.13055 8.15309 6.61055 8.15309 6.90055 8.44309L7.12055 8.66309L8.84055 6.94309C9.13055 6.65309 9.61055 6.65309 9.90055 6.94309C10.1905 7.23309 10.1905 7.71309 9.90055 8.00309L7.65055 10.2531C7.51055 10.3931 7.32055 10.4731 7.12055 10.4731Z" fill="#79768D"/>
<path d="M17.6191 16.7129H12.3691C11.9591 16.7129 11.6191 16.3729 11.6191 15.9629C11.6191 15.5529 11.9591 15.2129 12.3691 15.2129H17.6191C18.0291 15.2129 18.3691 15.5529 18.3691 15.9629C18.3691 16.3729 18.0391 16.7129 17.6191 16.7129Z" fill="#79768D"/>
<path d="M7.12055 17.4731C6.93055 17.4731 6.74055 17.4031 6.59055 17.2531L5.84055 16.5031C5.55055 16.2131 5.55055 15.7331 5.84055 15.4431C6.13055 15.1531 6.61055 15.1531 6.90055 15.4431L7.12055 15.6631L8.84055 13.9431C9.13055 13.6531 9.61055 13.6531 9.90055 13.9431C10.1905 14.2331 10.1905 14.7131 9.90055 15.0031L7.65055 17.2531C7.51055 17.3931 7.32055 17.4731 7.12055 17.4731Z" fill="#79768D"/>
<path d="M15 22.8428H9C3.57 22.8428 1.25 20.5228 1.25 15.0928V9.09277C1.25 3.66277 3.57 1.34277 9 1.34277H15C20.43 1.34277 22.75 3.66277 22.75 9.09277V15.0928C22.75 20.5228 20.43 22.8428 15 22.8428ZM9 2.84277C4.39 2.84277 2.75 4.48277 2.75 9.09277V15.0928C2.75 19.7028 4.39 21.3428 9 21.3428H15C19.61 21.3428 21.25 19.7028 21.25 15.0928V9.09277C21.25 4.48277 19.61 2.84277 15 2.84277H9Z" fill="#79768D"/>
</svg>
