<svg width="24" height="25" viewBox="0 0 24 25" fill="none" xmlns="http://www.w3.org/2000/svg">
<path d="M15 22.8428H9C3.57 22.8428 1.25 20.5228 1.25 15.0928V9.09277C1.25 3.66277 3.57 1.34277 9 1.34277H11C11.41 1.34277 11.75 1.68277 11.75 2.09277C11.75 2.50277 11.41 2.84277 11 2.84277H9C4.39 2.84277 2.75 4.48277 2.75 9.09277V15.0928C2.75 19.7028 4.39 21.3428 9 21.3428H15C19.61 21.3428 21.25 19.7028 21.25 15.0928V13.0928C21.25 12.6828 21.59 12.3428 22 12.3428C22.41 12.3428 22.75 12.6828 22.75 13.0928V15.0928C22.75 20.5228 20.43 22.8428 15 22.8428Z" fill="#79768D"/>
<path d="M8.49935 17.7823C7.88935 17.7823 7.32935 17.5623 6.91935 17.1623C6.42935 16.6723 6.21935 15.9623 6.32935 15.2123L6.75935 12.2023C6.83935 11.6223 7.21935 10.8723 7.62935 10.4623L15.5093 2.58234C17.4993 0.592344 19.5193 0.592344 21.5093 2.58234C22.5993 3.67234 23.0893 4.78234 22.9893 5.89234C22.8993 6.79234 22.4193 7.67234 21.5093 8.57234L13.6293 16.4523C13.2193 16.8623 12.4693 17.2423 11.8893 17.3223L8.87935 17.7523C8.74935 17.7823 8.61935 17.7823 8.49935 17.7823ZM16.5693 3.64234L8.68935 11.5223C8.49935 11.7123 8.27935 12.1523 8.23935 12.4123L7.80935 15.4223C7.76935 15.7123 7.82935 15.9523 7.97935 16.1023C8.12935 16.2523 8.36935 16.3123 8.65935 16.2723L11.6693 15.8423C11.9293 15.8023 12.3793 15.5823 12.5593 15.3923L20.4393 7.51234C21.0893 6.86234 21.4293 6.28234 21.4793 5.74234C21.5393 5.09234 21.1993 4.40234 20.4393 3.63234C18.8393 2.03234 17.7393 2.48234 16.5693 3.64234Z" fill="#79768D"/>
<path d="M19.8496 9.92304C19.7796 9.92304 19.7096 9.91304 19.6496 9.89304C17.0196 9.15304 14.9296 7.06304 14.1896 4.43304C14.0796 4.03304 14.3096 3.62304 14.7096 3.50304C15.1096 3.39304 15.5196 3.62304 15.6296 4.02304C16.2296 6.15304 17.9196 7.84304 20.0496 8.44304C20.4496 8.55304 20.6796 8.97304 20.5696 9.37304C20.4796 9.71304 20.1796 9.92304 19.8496 9.92304Z" fill="#79768D"/>
</svg>
