<svg width="24" height="25" viewBox="0 0 24 25" fill="none" xmlns="http://www.w3.org/2000/svg">
<path d="M12 9.84277C11.9 9.84277 11.81 9.82277 11.71 9.78277C11.43 9.67277 11.25 9.39277 11.25 9.09277V2.09277C11.25 1.68277 11.59 1.34277 12 1.34277C12.41 1.34277 12.75 1.68277 12.75 2.09277V7.28277L13.47 6.56277C13.76 6.27277 14.24 6.27277 14.53 6.56277C14.82 6.85277 14.82 7.33277 14.53 7.62277L12.53 9.62277C12.39 9.76277 12.2 9.84277 12 9.84277Z" fill="#79768D"/>
<path d="M11.9995 9.8432C11.8095 9.8432 11.6195 9.7732 11.4695 9.6232L9.46945 7.6232C9.17945 7.3332 9.17945 6.8532 9.46945 6.5632C9.75945 6.2732 10.2395 6.2732 10.5295 6.5632L12.5295 8.5632C12.8195 8.8532 12.8195 9.3332 12.5295 9.6232C12.3795 9.7732 12.1895 9.8432 11.9995 9.8432Z" fill="#79768D"/>
<path d="M13.7605 17.8428H10.2305C9.18047 17.8428 8.24047 17.2628 7.77047 16.3228L6.60047 13.9828C6.56047 13.8928 6.47047 13.8428 6.38047 13.8428H1.98047C1.57047 13.8428 1.23047 13.5028 1.23047 13.0928C1.23047 12.6828 1.57047 12.3428 1.98047 12.3428H6.39047C7.06047 12.3428 7.66047 12.7128 7.96047 13.3128L9.13047 15.6528C9.34047 16.0828 9.77047 16.3428 10.2505 16.3428H13.7805C14.2605 16.3428 14.6905 16.0828 14.9005 15.6528L16.0705 13.3128C16.3705 12.7128 16.9705 12.3428 17.6405 12.3428H22.0005C22.4105 12.3428 22.7505 12.6828 22.7505 13.0928C22.7505 13.5028 22.4105 13.8428 22.0005 13.8428H17.6405C17.5405 13.8428 17.4605 13.8928 17.4205 13.9828L16.2505 16.3228C15.7505 17.2628 14.8105 17.8428 13.7605 17.8428Z" fill="#79768D"/>
<path d="M15 22.8427H9C3.57 22.8427 1.25 20.5227 1.25 15.0927V11.0927C1.25 6.4027 2.99 4.0527 6.89 3.4827C7.31 3.4227 7.68 3.7027 7.74 4.1127C7.8 4.5227 7.52 4.9027 7.11 4.9627C3.97 5.4227 2.75 7.1427 2.75 11.0927V15.0927C2.75 19.7027 4.39 21.3427 9 21.3427H15C19.61 21.3427 21.25 19.7027 21.25 15.0927V11.0927C21.25 7.1427 20.03 5.4227 16.89 4.9627C16.48 4.9027 16.2 4.5227 16.26 4.1127C16.32 3.7027 16.7 3.4227 17.11 3.4827C21.01 4.0527 22.75 6.4027 22.75 11.0927V15.0927C22.75 20.5227 20.43 22.8427 15 22.8427Z" fill="#79768D"/>
</svg>
