<svg width="24" height="25" viewBox="0 0 24 25" fill="none" xmlns="http://www.w3.org/2000/svg">
<path d="M18.0003 8.00255C17.9703 8.00255 17.9503 8.00255 17.9203 8.00255H17.8703C15.9803 7.94255 14.5703 6.48254 14.5703 4.68254C14.5703 2.84254 16.0703 1.35254 17.9003 1.35254C19.7303 1.35254 21.2303 2.85254 21.2303 4.68254C21.2203 6.49254 19.8103 7.95254 18.0103 8.01254C18.0103 8.00254 18.0103 8.00255 18.0003 8.00255ZM17.9003 2.84254C16.8903 2.84254 16.0703 3.66255 16.0703 4.67255C16.0703 5.66255 16.8403 6.46255 17.8303 6.50255C17.8403 6.49255 17.9203 6.49255 18.0103 6.50255C18.9803 6.45255 19.7303 5.65255 19.7403 4.67255C19.7403 3.66255 18.9203 2.84254 17.9003 2.84254Z" fill="#79768D"/>
<path d="M18.0105 15.3724C17.6205 15.3724 17.2305 15.3424 16.8405 15.2724C16.4305 15.2024 16.1605 14.8124 16.2305 14.4024C16.3005 13.9924 16.6905 13.7224 17.1005 13.7924C18.3305 14.0024 19.6305 13.7724 20.5005 13.1924C20.9705 12.8824 21.2205 12.4924 21.2205 12.1024C21.2205 11.7124 20.9605 11.3324 20.5005 11.0224C19.6305 10.4424 18.3105 10.2124 17.0705 10.4324C16.6605 10.5124 16.2705 10.2324 16.2005 9.82243C16.1305 9.41243 16.4005 9.02244 16.8105 8.95244C18.4405 8.66244 20.1305 8.97243 21.3305 9.77243C22.2105 10.3624 22.7205 11.2024 22.7205 12.1024C22.7205 12.9924 22.2205 13.8424 21.3305 14.4424C20.4205 15.0424 19.2405 15.3724 18.0105 15.3724Z" fill="#79768D"/>
<path d="M5.97047 8.00278C5.96047 8.00278 5.95047 8.00278 5.95047 8.00278C4.15047 7.94278 2.74047 6.48277 2.73047 4.68277C2.73047 2.84277 4.23047 1.34277 6.06047 1.34277C7.89047 1.34277 9.39047 2.84278 9.39047 4.67278C9.39047 6.48278 7.98047 7.94278 6.18047 8.00278L5.97047 7.25278L6.04047 8.00278C6.02047 8.00278 5.99047 8.00278 5.97047 8.00278ZM6.07047 6.50278C6.13047 6.50278 6.18047 6.50277 6.24047 6.51277C7.13047 6.47277 7.91047 5.67277 7.91047 4.68277C7.91047 3.67277 7.09047 2.85277 6.08047 2.85277C5.07047 2.85277 4.25047 3.67277 4.25047 4.68277C4.25047 5.66277 5.01047 6.45277 5.98047 6.51277C5.99047 6.50277 6.03047 6.50278 6.07047 6.50278Z" fill="#79768D"/>
<path d="M5.96 15.3724C4.73 15.3724 3.55 15.0424 2.64 14.4424C1.76 13.8524 1.25 13.0024 1.25 12.1024C1.25 11.2124 1.76 10.3624 2.64 9.77243C3.84 8.97243 5.53 8.66244 7.16 8.95244C7.57 9.02244 7.84 9.41243 7.77 9.82243C7.7 10.2324 7.31 10.5124 6.9 10.4324C5.66 10.2124 4.35 10.4424 3.47 11.0224C3 11.3324 2.75 11.7124 2.75 12.1024C2.75 12.4924 3.01 12.8824 3.47 13.1924C4.34 13.7724 5.64 14.0024 6.87 13.7924C7.28 13.7224 7.67 14.0024 7.74 14.4024C7.81 14.8124 7.54 15.2024 7.13 15.2724C6.74 15.3424 6.35 15.3724 5.96 15.3724Z" fill="#79768D"/>
<path d="M12.0003 15.4723C11.9703 15.4723 11.9503 15.4723 11.9203 15.4723H11.8703C9.98031 15.4123 8.57031 13.9523 8.57031 12.1523C8.57031 10.3123 10.0703 8.82227 11.9003 8.82227C13.7303 8.82227 15.2303 10.3223 15.2303 12.1523C15.2203 13.9623 13.8103 15.4223 12.0103 15.4823C12.0103 15.4723 12.0103 15.4723 12.0003 15.4723ZM11.9003 10.3123C10.8903 10.3123 10.0703 11.1323 10.0703 12.1423C10.0703 13.1323 10.8403 13.9323 11.8303 13.9723C11.8403 13.9623 11.9203 13.9623 12.0103 13.9723C12.9803 13.9223 13.7303 13.1223 13.7403 12.1423C13.7403 11.1423 12.9203 10.3123 11.9003 10.3123Z" fill="#79768D"/>
<path d="M11.9993 22.8525C10.7993 22.8525 9.5993 22.5425 8.6693 21.9125C7.7893 21.3225 7.2793 20.4825 7.2793 19.5825C7.2793 18.6925 7.7793 17.8325 8.6693 17.2425C10.5393 16.0025 13.4693 16.0025 15.3293 17.2425C16.2093 17.8325 16.7193 18.6725 16.7193 19.5725C16.7193 20.4625 16.2193 21.3225 15.3293 21.9125C14.3993 22.5325 13.1993 22.8525 11.9993 22.8525ZM9.4993 18.5025C9.0293 18.8125 8.7793 19.2025 8.7793 19.5925C8.7793 19.9825 9.0393 20.3625 9.4993 20.6725C10.8493 21.5825 13.1393 21.5825 14.4893 20.6725C14.9593 20.3625 15.2093 19.9725 15.2093 19.5825C15.2093 19.1925 14.9493 18.8125 14.4893 18.5025C13.1493 17.5925 10.8593 17.6025 9.4993 18.5025Z" fill="#79768D"/>
</svg>
