<svg width="325" height="142" viewBox="0 0 325 142" fill="none" xmlns="http://www.w3.org/2000/svg">
<path fill-rule="evenodd" clip-rule="evenodd" d="M30.6455 86.32C30.8247 86.4454 31.0419 86.5387 31.2716 86.5819C55.8541 91.2097 79.6227 96.2734 104.809 98.5274C108.483 98.8526 117.626 100.626 124.29 100.951C127.481 101.107 130.134 100.886 131.597 100.193C134.335 98.9018 136.05 96.7111 137.141 94.128C138.617 90.5963 138.844 86.3451 139.102 83.1209C139.81 74.3258 139.661 65.1077 140.966 56.3859C141.703 51.4714 143.429 46.6907 143.83 41.7391C144.203 37.2013 144.43 33.801 142.737 31.1781C141.554 29.3452 139.456 27.8113 135.742 26.6147C130.528 24.9261 124.164 24.422 118.725 23.3981C104.418 20.7046 89.57 17.4643 74.9204 16.6963C69.1664 16.3986 50.0188 12.6892 36.1875 13.044C29.8092 13.2047 24.5345 14.3064 21.8486 16.7201C20.652 17.7909 19.9213 19.2243 19.5195 20.785C18.9875 22.8711 19.0385 25.211 19.1037 27.0691C19.363 34.2658 23.0195 50.1794 25.4506 56.8554C27.8347 63.4178 28.4426 70.6016 29.0257 77.401C29.1101 78.3333 28.9739 81.4888 29.3483 83.6147C29.5612 84.9377 30.0854 85.9135 30.6455 86.32ZM32.4942 84.1938C32.4554 84.108 32.4166 84.0221 32.4065 83.9416C32.2761 83.4982 32.1991 82.9601 32.1346 82.3719C31.9363 80.384 32.03 78.0059 31.9546 77.2193C31.3606 70.2214 30.71 62.8464 28.2545 56.0872C25.8898 49.5677 22.3074 34.0215 22.0508 26.9956C21.995 25.5843 21.9357 23.8843 22.2033 22.259C22.4356 20.8365 22.8945 19.4698 23.9565 18.5177C26.2532 16.4627 30.8442 15.756 36.2863 15.6154C50.0284 15.2569 69.0406 18.967 74.7516 19.2566C89.2514 20.0226 103.956 23.2359 118.12 25.9023C123.415 26.8992 129.635 27.3764 134.727 29.0156C137.593 29.9348 139.279 31.0115 140.19 32.4266C141.642 34.6898 141.227 37.6359 140.902 41.5544C140.499 46.4532 138.783 51.1965 138.058 56.0609C136.74 64.8328 136.905 74.1063 136.185 82.9514C135.977 85.4911 135.811 88.7065 134.967 91.6242C134.192 94.2668 132.871 96.6887 130.214 97.9558C129.073 98.5002 126.964 98.5223 124.47 98.4061C117.867 98.0795 108.781 96.3166 105.121 95.9941C80.2314 93.7566 56.758 88.7747 32.4942 84.1938Z" fill="#CDB4DB"/>
<path fill-rule="evenodd" clip-rule="evenodd" d="M170.586 78.6271C170.715 78.8347 171.9 80.7203 172.27 81.9551C172.392 82.3709 172.445 82.9438 172.472 83.1977C169.06 85.1474 165.18 87.8338 161.29 88.9865C151.595 91.8613 140.674 92.9602 131.896 97.8928C131.216 98.2752 131.021 99.0632 131.459 99.6564C131.898 100.25 132.802 100.42 133.483 100.037C142.051 95.2224 152.755 94.2134 162.224 91.4009C166.456 90.1423 170.691 87.2348 174.359 85.163C174.795 84.9178 175.147 84.526 175.304 83.9533C175.441 83.5209 175.455 82.9213 175.337 82.2446C175.089 80.8232 174.252 78.9246 173.486 77.7724C173.029 77.0711 172.513 76.6074 172.165 76.4371C171.112 75.8984 169.714 75.6614 168.237 75.6191C166.404 75.562 164.41 75.7888 163.017 75.7752C159.32 75.7208 155.27 74.4871 151.268 73.4849C146.87 72.382 142.519 71.576 138.664 72.4606C137.884 72.6409 137.411 73.3374 137.615 74.0303C137.821 74.7107 138.621 75.123 139.401 74.9427C142.778 74.1646 146.585 74.9859 150.447 75.9486C154.705 77.0119 159.016 78.2818 162.955 78.3294C164.12 78.3525 165.693 78.1903 167.259 78.1711C168.503 78.1827 169.712 78.2139 170.586 78.6271Z" fill="#CDB4DB"/>
<path fill-rule="evenodd" clip-rule="evenodd" d="M169.299 77.8219C168.42 78.8869 167.07 79.4838 165.642 79.9742C163.953 80.5464 162.143 80.9389 160.594 81.4327C154.335 83.4749 141.271 87.404 136.021 90.3431C135.341 90.7256 135.145 91.5136 135.584 92.1067C136.023 92.6999 136.927 92.8701 137.608 92.4877C142.738 89.6046 155.512 85.8173 161.623 83.8258C163.176 83.3195 165 82.9297 166.706 82.3477C168.659 81.681 170.445 80.7738 171.663 79.3142C172.134 78.7483 171.99 77.9357 171.341 77.5254C170.691 77.1152 169.773 77.2435 169.299 77.8219Z" fill="#CDB4DB"/>
<path fill-rule="evenodd" clip-rule="evenodd" d="M80.6012 42.3247C81.0378 41.8963 81.0749 41.2618 80.7148 40.7751C79.9436 39.7659 78.4154 39.3866 76.5372 39.753C74.4395 40.1567 71.7731 41.4613 70.115 42.5761C69.2875 43.1273 68.6876 43.6689 68.4306 44.0394C66.5122 46.6893 65.7318 49.4748 66.4065 52.207C67.0649 54.8838 69.1374 57.5518 73.1382 59.9545C74.0272 60.4884 77.0909 61.1568 79.7728 61.4261C81.6756 61.6272 83.3953 61.5974 84.0673 61.3705C85.553 60.8909 86.1152 60.1981 86.2783 59.6005C86.457 58.9403 86.2349 58.1392 85.3648 57.347C84.1518 56.2415 81.2904 54.8781 79.02 53.3117C77.8536 52.503 76.8081 51.6909 76.5771 50.7441C76.3217 49.7142 76.7065 48.4644 77.2666 47.2346C78.2128 45.1741 79.7567 43.1868 80.6012 42.3247ZM76.9908 42.2865C76.1448 43.3971 75.2183 44.8329 74.5388 46.3021C73.748 48.0384 73.3478 49.8351 73.7081 51.2906C73.9686 52.3608 74.7767 53.4031 75.9234 54.3521C77.3424 55.5356 79.2927 56.6359 80.9459 57.6017C81.6813 58.0281 82.5087 58.629 83.0033 58.997C82.5057 59.1259 81.376 59.018 80.1139 58.8982C78.7371 58.7568 77.2496 58.5161 76.0996 58.2472C75.5174 58.1114 75.0357 57.9946 74.7991 57.8584C71.5707 55.9153 69.8017 53.8411 69.2694 51.6856C68.7534 49.5855 69.4301 47.4612 70.9003 45.4077C71.0833 45.1541 71.5555 44.8241 72.1613 44.4407C73.2505 43.7424 74.747 42.9768 76.1342 42.5311C76.4297 42.4296 76.719 42.3531 76.9908 42.2865Z" fill="#CDB4DB"/>
<path fill-rule="evenodd" clip-rule="evenodd" d="M150.484 101.863C149.806 101.932 149.257 102.391 149.186 102.98C148.659 106.743 149.369 112.061 149.351 114.558C149.338 116.794 148.784 118.968 148.699 121.19C148.608 123.438 148.592 123.317 148.333 125.638C147.874 129.793 148.853 132.085 150.42 133.336C152.039 134.622 154.43 134.915 157.235 134.749C160.273 134.549 163.848 133.821 167.081 134.05C168.792 134.176 176.263 135.242 179.611 135.309C180.374 135.322 180.953 135.287 181.321 135.199C181.766 135.1 182.062 134.933 182.238 134.77C184.027 133.248 184.993 130.864 185.38 128.213C185.924 124.624 185.474 120.56 185.311 118.068C185.153 115.734 185.699 112.682 185.591 109.847C185.504 107.71 185.059 105.688 183.866 104.076C183.326 103.346 182.181 102.816 180.67 102.61C178.271 102.29 174.791 102.695 173.585 102.651C166.289 102.456 158.079 101.159 150.484 101.863ZM180.428 132.74C177.931 132.938 169.171 131.616 167.325 131.491C163.945 131.248 160.218 131.986 157.029 132.184C155.153 132.302 153.5 132.305 152.42 131.447C151.29 130.554 150.949 128.84 151.263 125.875C151.53 123.464 151.545 123.585 151.641 121.26C151.732 119.012 152.278 116.811 152.294 114.562C152.301 112.351 151.718 107.856 151.996 104.308C159.112 103.841 166.719 105.024 173.52 105.218C174.519 105.249 177.144 104.958 179.339 105.07C179.946 105.105 180.504 105.158 180.968 105.285C181.166 105.335 181.342 105.355 181.417 105.474C182.587 107.056 182.726 109.163 182.674 111.314C182.608 113.762 182.261 116.25 182.385 118.237C182.544 120.623 182.983 124.489 182.468 127.901C182.193 129.8 181.646 131.582 180.428 132.74Z" fill="#CDB4DB"/>
<path fill-rule="evenodd" clip-rule="evenodd" d="M158.454 110.852C157.792 110.858 157.183 111.254 157.034 111.855C157.025 111.892 157.135 113.51 158.723 113.403C159.519 113.344 163.514 112.983 163.664 112.985C165.119 112.931 167.323 113.372 169.248 113.421C170.995 113.462 172.533 113.136 173.5 112.323C174.088 111.831 174.094 111.021 173.53 110.509C172.965 109.997 172.035 109.992 171.448 110.484C170.975 110.879 170.18 110.873 169.313 110.854C167.327 110.807 165.034 110.363 163.533 110.42C163.366 110.428 159.293 110.801 158.486 110.845L158.454 110.852ZM159.564 111.284C159.867 111.576 160.004 111.995 159.898 112.42C159.997 112.02 159.926 111.64 159.564 111.284ZM158.805 110.892C159.092 110.946 159.343 111.085 159.527 111.25C159.402 111.148 159.193 110.965 158.805 110.892Z" fill="#CDB4DB"/>
<path fill-rule="evenodd" clip-rule="evenodd" d="M171.355 116.985C170.952 116.975 169.74 116.956 168.771 116.865C166.597 116.666 164.164 116.365 163.798 116.387C162.947 116.424 160.368 116.71 159.517 116.812C158.888 116.563 158.11 116.731 157.698 117.242C157.395 117.617 157.383 117.968 157.436 118.24C157.502 118.58 157.703 118.919 158.168 119.163C158.368 119.266 158.843 119.408 159.541 119.382C160.647 119.342 162.992 118.972 163.949 118.929C164.464 118.909 169.256 119.575 171.229 119.554C172.073 119.542 172.632 119.347 172.883 119.184C173.241 118.951 173.416 118.669 173.49 118.369C173.661 117.681 173.154 116.997 172.365 116.848C172.017 116.796 171.659 116.846 171.355 116.985ZM160.371 118.151C160.346 118.317 160.273 118.486 160.176 118.638C160.291 118.476 160.349 118.304 160.371 118.151Z" fill="#CDB4DB"/>
<path fill-rule="evenodd" clip-rule="evenodd" d="M158.385 124.349C158.01 124.043 157.457 123.912 156.924 124.061C156.149 124.281 155.73 125.001 155.983 125.677C156.11 126.015 156.363 126.325 156.785 126.561C157.156 126.762 157.804 126.936 158.67 126.956C160.507 127 163.822 126.472 166.598 126.118C168.165 125.915 169.516 125.738 170.162 125.859C170.951 126.008 171.737 125.566 171.907 124.879C172.077 124.191 171.571 123.506 170.782 123.358C170.208 123.25 169.2 123.256 167.968 123.378C165.597 123.612 162.195 124.189 159.871 124.354C159.306 124.391 158.667 124.363 158.385 124.349Z" fill="#CDB4DB"/>
<path fill-rule="evenodd" clip-rule="evenodd" d="M243.195 8.50047C243.745 8.46973 244.219 8.83331 244.254 9.31255L245.914 31.8737C245.95 32.353 245.533 32.7664 244.983 32.7971C244.433 32.8279 243.958 32.4643 243.923 31.985L242.263 9.42386C242.228 8.94462 242.645 8.5312 243.195 8.50047Z" fill="#FFDA52"/>
<path fill-rule="evenodd" clip-rule="evenodd" d="M232.012 19.5464C231.999 19.0663 232.435 18.6678 232.986 18.6563C234.835 18.6176 236.677 18.6356 238.498 18.6535C238.92 18.6576 239.34 18.6618 239.759 18.6652C241.999 18.6834 244.214 18.6814 246.439 18.5569C247.502 18.4975 248.602 18.4107 249.724 18.3221C252.778 18.0808 255.993 17.8269 259.053 18.0806C259.602 18.1261 260.004 18.5505 259.952 19.0286C259.9 19.5066 259.413 19.8573 258.864 19.8118C256.003 19.5746 253.073 19.8059 250.082 20.0421C248.919 20.1339 247.748 20.2264 246.567 20.2924C244.264 20.4212 241.988 20.4224 239.74 20.4041C239.313 20.4007 238.887 20.3965 238.462 20.3923C236.643 20.3745 234.844 20.3569 233.033 20.3948C232.483 20.4064 232.025 20.0265 232.012 19.5464Z" fill="#FFDA52"/>
<path fill-rule="evenodd" clip-rule="evenodd" d="M273.807 34.902C274.235 35.2045 274.3 35.7521 273.953 36.1251C273.812 36.2766 273.729 36.5154 273.721 36.9289C273.717 37.1306 273.731 37.3393 273.747 37.5739C273.748 37.5836 273.748 37.5935 273.749 37.6034C273.764 37.816 273.781 38.0649 273.774 38.2967C273.728 39.7474 273.782 41.2016 273.853 42.6778C273.866 42.9482 273.879 43.2197 273.893 43.4921C273.953 44.698 274.014 45.9211 274.028 47.1438C274.04 48.1787 274.096 49.1719 274.153 50.1877C274.198 50.9914 274.244 51.8092 274.27 52.6731C274.326 54.5577 274.271 56.4936 273.825 58.4218C273.717 58.8925 273.19 59.1972 272.65 59.1023C272.11 59.0074 271.761 58.5488 271.869 58.0781C272.272 56.3373 272.33 54.5515 272.275 52.7181C272.253 51.9597 272.209 51.1584 272.164 50.348C272.105 49.2752 272.045 48.1866 272.033 47.161C272.019 45.9704 271.96 44.7831 271.9 43.5788C271.886 43.3036 271.873 43.0276 271.859 42.7504C271.788 41.2686 271.732 39.7637 271.78 38.2489C271.784 38.0991 271.772 37.9217 271.755 37.6797L271.755 37.6783C271.739 37.4523 271.72 37.1784 271.726 36.8993C271.737 36.3502 271.841 35.6338 272.403 35.0297C272.75 34.6567 273.379 34.5996 273.807 34.902Z" fill="#FFDA52"/>
<path fill-rule="evenodd" clip-rule="evenodd" d="M258.077 47.7165C258.062 47.2365 258.497 46.8367 259.048 46.8237C261.356 46.7689 263.683 46.6926 266.019 46.6161C271.682 46.4304 277.402 46.2429 283.055 46.3555C283.606 46.3665 284.043 46.7646 284.03 47.2447C284.017 47.7248 283.561 48.1051 283.01 48.0941C277.42 47.9828 271.797 48.1671 266.159 48.352C263.809 48.4291 261.456 48.5062 259.102 48.5621C258.551 48.5751 258.092 48.1966 258.077 47.7165Z" fill="#FFDA52"/>
<path fill-rule="evenodd" clip-rule="evenodd" d="M308.178 49.3044C308.727 49.2736 309.202 49.6372 309.237 50.1164C309.369 51.9151 309.326 53.7142 309.272 55.4764C309.269 55.5967 309.265 55.7168 309.261 55.8367C309.211 57.4855 309.161 59.1002 309.239 60.708C309.286 61.6872 309.324 62.6608 309.362 63.6309C309.435 65.5161 309.508 67.3882 309.646 69.2623C309.682 69.7416 309.264 70.155 308.715 70.1857C308.165 70.2165 307.69 69.8529 307.655 69.3736C307.515 67.475 307.44 65.5554 307.366 63.6532C307.328 62.6896 307.291 61.7305 307.245 60.7808C307.165 59.1107 307.216 57.4388 307.266 55.8026C307.27 55.6784 307.274 55.5544 307.278 55.4306C307.331 53.6644 307.372 51.9381 307.246 50.2277C307.211 49.7485 307.628 49.3351 308.178 49.3044Z" fill="#FFDA52"/>
<path fill-rule="evenodd" clip-rule="evenodd" d="M295.936 59.5434C295.919 59.0634 296.352 58.6626 296.903 58.6482C302.637 58.4987 308.459 58.8967 314.096 59.4425C314.643 59.4955 315.038 59.9254 314.977 60.4027C314.916 60.8799 314.423 61.2239 313.876 61.1709C308.274 60.6286 302.56 60.2405 296.963 60.3865C296.412 60.4009 295.952 60.0234 295.936 59.5434Z" fill="#FFDA52"/>
<path fill-rule="evenodd" clip-rule="evenodd" d="M252.643 68.9638C253.192 68.9331 253.667 69.2967 253.702 69.7759L254.213 76.7178C254.248 77.1971 253.831 77.6105 253.281 77.6412C252.731 77.6719 252.257 77.3084 252.222 76.8291L251.711 69.8872C251.676 69.408 252.093 68.9946 252.643 68.9638Z" fill="#FFDA52"/>
<path fill-rule="evenodd" clip-rule="evenodd" d="M246.988 73.6365C246.953 73.1572 247.37 72.7438 247.92 72.7131L255.885 72.2678C256.435 72.2371 256.909 72.6007 256.944 73.0799C256.979 73.5591 256.562 73.9726 256.012 74.0033L248.048 74.4485C247.498 74.4793 247.024 74.1157 246.988 73.6365Z" fill="#FFDA52"/>
<path fill-rule="evenodd" clip-rule="evenodd" d="M301.066 7.00782C301.616 6.97708 302.09 7.34066 302.126 7.8199L304.28 37.0932C304.28 37.0932 304.28 37.0941 303.284 37.1498C302.289 37.2054 302.289 37.2052 302.289 37.2052L300.135 7.93122C300.099 7.45198 300.516 7.03856 301.066 7.00782ZM303.348 38.0175C302.798 38.0482 302.324 37.6844 302.289 37.2052L303.284 37.1498L304.28 37.0941C304.315 37.5733 303.898 37.9868 303.348 38.0175Z" fill="#FFDA52"/>
<path fill-rule="evenodd" clip-rule="evenodd" d="M281.243 22.8418C281.263 22.3619 281.725 21.9866 282.275 22.0035C288.343 22.1903 294.391 22.0239 300.473 21.8565C304.006 21.7593 307.55 21.6618 311.117 21.6329C312.196 21.6242 313.292 21.6534 314.364 21.6819C314.646 21.6895 314.927 21.6969 315.205 21.7037C316.555 21.7363 317.867 21.7522 319.141 21.6809C319.69 21.6502 320.165 22.0138 320.2 22.493C320.235 22.9723 319.818 23.3857 319.268 23.4164C317.897 23.4931 316.509 23.4749 315.15 23.442C314.859 23.435 314.57 23.4273 314.282 23.4197C313.215 23.3913 312.171 23.3635 311.135 23.3719C307.666 23.3999 304.163 23.4959 300.646 23.5923C294.507 23.7605 288.326 23.9299 282.205 23.7415C281.654 23.7245 281.224 23.3217 281.243 22.8418Z" fill="#FFDA52"/>
<path fill-rule="evenodd" clip-rule="evenodd" d="M274.962 3.25114C275.511 3.2996 275.91 3.7262 275.854 4.20398C275.796 4.70777 275.758 5.20318 275.719 5.72071L275.719 5.72675C275.68 6.24211 275.639 6.77858 275.574 7.33776C275.55 7.54321 275.587 7.82548 275.652 8.24766C275.654 8.26385 275.657 8.28034 275.659 8.2971C275.714 8.65222 275.787 9.1297 275.737 9.55586C275.681 10.0336 275.192 10.3816 274.644 10.3332C274.096 10.2847 273.696 9.85812 273.752 9.38035C273.775 9.17969 273.738 8.90092 273.674 8.47686C273.671 8.46243 273.669 8.44777 273.667 8.43289C273.612 8.07546 273.539 7.59429 273.589 7.16225C273.65 6.63814 273.688 6.13128 273.728 5.61234L273.729 5.59269C273.768 5.08434 273.807 4.56294 273.869 4.02846C273.925 3.55069 274.414 3.20267 274.962 3.25114Z" fill="#FFDA52"/>
<path fill-rule="evenodd" clip-rule="evenodd" d="M270.075 6.99772C270.04 6.51848 270.457 6.10506 271.007 6.07432L277.976 5.68472C278.526 5.65399 279 6.01757 279.036 6.4968C279.071 6.97604 278.654 7.38946 278.104 7.4202L271.135 7.8098C270.585 7.84054 270.111 7.47696 270.075 6.99772Z" fill="#FFDA52"/>
<path fill-rule="evenodd" clip-rule="evenodd" d="M288.063 74.8255C288.613 74.7947 289.087 75.1583 289.122 75.6375L289.633 82.5795C289.668 83.0587 289.251 83.4721 288.701 83.5029C288.152 83.5336 287.677 83.17 287.642 82.6908L287.131 75.7489C287.096 75.2696 287.513 74.8562 288.063 74.8255Z" fill="#FFDA52"/>
<path fill-rule="evenodd" clip-rule="evenodd" d="M283.404 79.3308C283.44 78.8516 283.914 78.4882 284.464 78.5191C285.377 78.5704 286.285 78.6523 287.161 78.7312C287.619 78.7725 288.068 78.813 288.504 78.8479C289.804 78.9519 291.063 79.0143 292.364 78.9415C292.914 78.9108 293.389 79.2744 293.424 79.7536C293.459 80.2329 293.042 80.6463 292.492 80.677C291.039 80.7583 289.66 80.6868 288.322 80.5797C287.837 80.5408 287.365 80.4982 286.898 80.456C286.049 80.3793 285.214 80.3039 284.336 80.2545C283.786 80.2236 283.369 79.8101 283.404 79.3308Z" fill="#FFDA52"/>
</svg>
