<svg width="392" height="1" viewBox="0 0 392 1" fill="none" xmlns="http://www.w3.org/2000/svg">
<path d="M65.5015 0.140201C88.4467 0.124329 111.394 0.113744 134.342 0.103163C148.422 0.0978722 162.519 0.111105 176.572 0.0687806C180.421 0.0581993 184.27 0.0132249 188.176 0.039678H188.108C192.184 0.0290968 196.26 0.00793818 200.333 0.0105835C215.751 0.0132288 231.851 -0.0132298 246.645 0.0132233C247.228 0.0132233 248.015 0 248.87 0C252.974 0 267.514 0.0158741 276.835 0.0105835C298.405 0.00264757 319.977 0.00265208 341.49 0.0978831C344.852 0.113755 392.115 0.198391 392 0.497311C391.88 0.809457 346.509 0.904688 340.645 0.894107C326.451 0.865009 312.183 0.79359 298.062 0.849141C277.402 0.9285 256.773 0.886179 236.137 0.902051C217.605 0.915277 199.065 0.899405 180.536 0.917922C163.128 0.933794 145.729 1.00257 128.326 0.999926C113.308 0.99728 98.2956 0.920574 83.2725 0.891475C79.735 0.886185 75.4786 0.939086 71.6012 0.936441C68.3958 0.93115 63.049 0.931152 59.8724 0.904698C58.4997 0.894117 57.0774 0.878249 55.7336 0.891475C49.5632 0.941736 -0.369205 0.865014 0.00205983 0.502607C0.365481 0.14549 45.5944 0.153427 65.5015 0.140201Z" fill="#CBAACB"/>
</svg>
