<svg width="160" height="215" viewBox="0 0 160 215" fill="none" xmlns="http://www.w3.org/2000/svg">
<path d="M9.5972 138.663C7.91194 143.888 5.16007 148.795 1.53357 152.961C6.86666 154.569 12.6904 154.611 18.0448 153.046C32.7428 171.553 56.891 183.757 80.2926 179.844C88.3563 178.491 96.0359 175.339 103.182 171.384C126.584 158.439 145.292 134.772 146.252 108.227C146.53 100.549 145.356 90.6719 143.138 83.2903C137.186 63.493 123.981 39.2117 106.211 28.4248C70.0318 6.47012 12.1998 30.6033 2.87752 63.8737C-3.94884 88.2396 2.62152 114.255 9.5972 138.663Z" fill="white"/>
<path d="M29.2441 63.2827C29.2441 63.2827 29.2441 63.3247 29.2644 63.3457C29.2644 63.3247 29.2644 63.3037 29.2441 63.3037V63.2827Z" fill="#C192EE"/>
<path d="M29.2459 63.2826C29.0966 62.9423 29.1606 63.0699 29.2459 63.2826V63.2826Z" fill="#C192EE"/>
<path d="M34.2794 78.2566C33.4474 75.8666 32.7435 73.4131 31.9542 70.9807C31.5915 69.7539 30.3969 66.3698 29.2876 63.4298C28.7543 62.3088 28.5623 60.8917 27.6024 60.0668C27.4104 59.9188 27.1971 59.7919 26.9837 59.7284C26.2158 59.3265 25.1918 59.6438 24.7225 60.3418C24.5518 60.511 24.4238 60.7014 24.3598 60.934C23.8478 62.1819 24.6798 63.5356 24.8291 64.8046C24.9571 65.2488 25.0638 65.6718 25.1918 66.0737C25.2984 69.4578 24.8505 73.7515 23.6559 75.8454C22.2693 75.5493 19.0267 69.7751 17.4268 65.8622C16.5735 64.4239 14.3763 65.7141 15.2083 67.1524C16.9148 70.9595 18.4508 75.232 21.7573 77.9817C24.9785 79.991 26.5784 77.3048 27.3464 74.3014C27.8584 76.2473 28.4343 78.3412 29.2023 80.9428C29.6076 82.0426 29.8422 83.354 30.9942 83.9674C32.5301 84.9192 34.706 84.0097 35.154 82.2964C35.5167 80.9005 34.642 79.5891 34.2794 78.2778V78.2566Z" fill="#C192EE"/>
<path d="M29.2616 63.3254C29.2616 63.3254 29.2829 63.3892 29.3043 63.4317C29.3256 63.4742 29.3469 63.5167 29.3683 63.5593C29.3469 63.4955 29.3043 63.4105 29.2616 63.3254Z" fill="#C192EE"/>
<path d="M49.51 66.5395C49.0834 63.7053 48.5501 60.5749 46.5022 58.3964C46.3102 58.1637 45.8196 57.8042 45.5849 57.6138C45.0943 57.2542 44.4756 57.0427 43.8569 57.0427C43.345 57.0427 42.897 57.1485 42.513 57.36C40.3585 56.8524 38.2466 58.1637 36.988 59.8346C32.5295 64.8051 35.7293 77.5591 44.5396 77.2207C49.5314 76.5016 50.278 70.6005 49.5314 66.5395H49.51ZM44.3263 72.1445C44.3263 72.1445 44.2409 72.2925 44.1983 72.3771C44.1556 72.4194 44.1129 72.4829 44.0276 72.5463C43.9636 72.6098 43.9423 72.631 43.8996 72.6733C39.9105 72.9482 36.8386 64.4667 40.1025 61.1037C40.5078 60.7018 40.7851 60.4692 40.9984 60.3211C41.0838 61.0402 41.4251 61.7382 42.065 62.267C42.257 62.4362 42.4277 62.6054 42.5344 62.7323C42.6837 62.9438 42.8117 63.1765 42.9184 63.388C43.6223 65.1647 44.1343 66.9837 44.4329 68.8661C44.4969 69.5429 44.6889 70.96 44.5183 69.6487C44.5183 69.7544 44.5183 69.839 44.5396 69.9448C44.6036 70.262 44.5823 70.9812 44.5396 71.3407C44.4969 71.6157 44.4116 71.8695 44.3049 72.1445H44.3263Z" fill="#C192EE"/>
<path d="M64.6566 51.1203C64.2726 49.2379 64.2086 46.2768 61.7128 46.0441C60.6675 45.8326 59.5155 46.446 58.9822 47.3343C58.1076 49.534 58.9395 49.4494 59.4089 52.4528C60.3048 57.3175 61.0728 59.2846 60.9234 63.4302C60.8594 63.6417 60.7955 63.9378 60.7528 64.1493C60.3688 63.8955 59.8995 63.4302 58.8969 62.3515C57.5743 60.8286 55.2277 55.562 54.2038 51.8395C53.4145 49.1745 49.404 50.2743 50.0866 52.9605C51.5372 57.8463 53.0305 63.0495 56.657 66.8143C61.4994 71.9751 66.1925 67.9565 65.9792 61.9284C65.7446 57.4656 65.3819 55.985 64.6353 51.0992L64.6566 51.1203Z" fill="#C192EE"/>
<path d="M64.632 101.206C64.632 101.206 64.8453 101.692 64.9093 101.883C64.4613 100.825 63.9707 99.7888 63.4374 98.7735C61.8588 95.6644 60.4508 92.4706 58.6803 89.4671C58.3816 88.9595 57.8909 88.5788 57.3576 88.3461C56.0564 87.479 54.0298 88.1135 53.6245 89.6998C53.6245 89.8056 53.6032 89.8902 53.5818 89.9959C53.5178 90.1651 53.4965 90.3343 53.4965 90.5035C53.2618 91.5399 53.9445 92.4283 54.3071 93.3589C54.4564 93.7608 54.9044 94.6703 55.4591 95.8759C55.9924 98.0544 56.163 100.296 55.1818 101.46C55.1391 101.502 55.1177 101.565 55.0751 101.608C54.9898 101.714 54.8618 101.862 54.7124 101.988C54.6484 101.988 54.5631 102.01 54.4778 102.031C51.8112 101.904 47.5234 95.5798 47.8861 90.9689C48.5474 87.3944 48.7607 87.0559 50.3606 85.3639C50.5526 85.1947 50.6379 85.1312 50.6593 85.1101C51.5126 84.539 52.6432 84.264 52.8992 83.1642C53.4538 81.4298 51.3419 79.8223 49.7847 80.7953C45.5395 82.2124 42.0837 88.5154 43.7263 94.6491C45.0062 99.1966 47.6301 104.061 52.2806 105.88C54.2645 106.705 56.803 106.367 58.1469 104.611C58.4456 104.273 58.7016 103.913 58.9362 103.532C59.5975 104.844 60.8135 106.049 62.3921 105.711C63.5653 105.648 64.6106 104.654 64.9093 103.554C65.08 102.75 65.0373 101.946 64.6106 101.227L64.632 101.206Z" fill="#C192EE"/>
<path d="M72.7183 76.2898C72.377 76.0994 72.0143 75.9725 71.6304 75.8879C71.417 75.8244 71.2037 75.8033 70.9691 75.8033C70.8624 75.8033 70.7771 75.8033 70.6704 75.8033C68.9425 74.4073 66.5746 73.8362 64.5267 74.9995C60.9855 77.2838 61.6468 82.2755 62.3508 85.85C63.2894 90.3128 66.5533 96.1928 71.9717 95.1775C78.4567 92.9144 77.4541 79.2297 72.7396 76.2898H72.7183ZM71.6304 89.4879C71.545 89.7629 71.4597 90.0379 71.3317 90.3128C71.2677 90.4397 71.161 90.6512 71.0544 90.8416C70.969 90.9473 70.8837 91.0319 70.7771 91.1166C70.7771 91.1166 70.7557 91.1166 70.7344 91.1166C70.5637 91.0743 70.3504 91.032 70.1584 90.9685C70.1584 90.9685 70.1584 90.9685 70.1371 90.9685C68.8572 90.1225 68.5372 89.9321 67.4492 87.817C66.9159 86.4422 66.4893 85.0462 66.2333 83.5868C66.0199 81.3448 65.9559 80.1181 66.3613 78.9125C66.4893 78.6798 66.6386 78.4471 66.7879 78.2145C66.8092 78.1933 66.8306 78.1722 66.8732 78.1299C67.0012 78.0453 67.1292 77.9818 67.2786 77.9184C67.3212 77.9184 67.3426 77.8972 67.4066 77.8761C67.4066 77.8761 67.4066 77.8761 67.4492 77.8761C67.5986 77.8761 67.7479 77.8761 67.8972 77.8761C68.0252 77.9184 68.2172 77.9818 68.3452 78.003C68.3025 78.2145 68.3025 78.426 68.3025 78.6375C68.3025 78.701 68.3025 78.7644 68.3025 78.8279C68.3452 79.1451 68.4518 79.4624 68.6438 79.7374C68.6438 79.7374 68.6438 79.7797 68.6652 79.7797C68.8358 80.1604 68.7505 79.97 68.6652 79.7585C68.6652 79.7585 68.6652 79.7797 68.6865 79.8008C69.0278 80.4776 69.5825 80.9853 70.0731 81.5775C70.1158 81.5775 70.9264 82.8465 71.225 84.0521C71.8863 86.7806 71.8863 87.7324 71.5877 89.4456L71.6304 89.4879Z" fill="#C192EE"/>
<path d="M86.0571 81.1761C85.6944 80.1608 85.7157 78.8072 84.6918 78.215C83.3265 77.3689 81.4706 78.7649 81.9612 80.2878C82.7718 83.8623 83.1985 85.4274 83.2838 88.3463C83.4332 89.9114 82.5372 92.2592 84.4358 92.9995C85.3317 93.4436 86.4837 92.9995 86.9743 92.1746C87.4223 91.2862 87.2943 90.2075 87.3796 89.2346C87.3583 86.5061 86.761 83.7988 86.0571 81.1761Z" fill="#C192EE"/>
<path d="M65.1081 156.621C64.3828 155.14 63.6575 153.681 62.9536 152.179C61.9509 150.233 60.991 148.287 60.031 146.32C59.0497 143.253 57.6205 139.827 54.186 139.086C52.778 138.748 51.4341 138.938 50.5808 139.171C50.4315 139.213 50.3035 139.256 50.1541 139.298C49.9835 139.361 49.8768 139.404 49.7701 139.467C49.0875 139.848 48.5329 140.461 48.3409 141.498C48.0209 143.021 49.4288 144.565 50.9861 144.522C51.0928 144.522 51.1781 144.501 51.2848 144.48C51.8181 144.48 52.3727 144.48 52.906 144.522C52.9273 144.522 52.97 144.522 53.0127 144.543C53.0127 144.543 53.0553 144.586 53.0767 144.607C54.2713 145.728 55.9352 151.164 55.9352 154.78C55.7645 157.213 56.0205 156.049 55.4446 158.143C55.3806 158.27 55.3166 158.397 55.2312 158.503C55.1459 158.566 55.0393 158.609 54.9539 158.651C51.7754 159.751 42.9438 151.819 40.5332 141.455C39.7653 139.15 39.4453 134.158 39.8293 132.593C39.8719 132.445 39.9146 132.318 39.9786 132.191C40.1066 131.937 40.2986 131.641 40.4052 131.472C40.4052 131.451 40.4479 131.43 40.4479 131.409C42.4105 129.188 41.6425 130.393 44.5437 128.871C46.549 127.475 44.8851 124.238 42.5598 124.936C39.3813 125.613 36.5228 127.75 35.2428 130.732C34.2829 133.629 34.5815 133.566 34.4749 136.146C34.6242 142.492 36.5228 148.795 40.0213 154.125C42.8798 158.249 46.549 162.522 51.5194 164.023C55.1459 165.229 59.711 163.854 60.8843 159.984C61.2256 160.533 61.7803 160.957 62.4203 161.147C63.7855 161.549 65.3428 160.66 65.7054 159.307C65.8974 157.107 65.5988 157.974 65.1081 156.557V156.621Z" fill="#C192EE"/>
<path d="M74.5975 149.958C73.6802 147.97 72.6776 146.024 71.6963 144.057C69.4138 139.552 68.3045 135.978 65.9793 130.817C64.9767 129.379 62.5661 130.584 63.0781 132.255C64.87 137.374 68.1978 146.299 69.1151 148.097C69.6911 149.472 70.2671 150.868 70.907 152.222C71.3124 153.11 72.251 153.829 73.2536 153.617C75.7922 153.131 75.0668 150.593 74.5975 149.958Z" fill="#C192EE"/>
<path d="M60.862 120.834C58.7074 120.834 58.7287 124.07 60.862 124.091C63.0165 124.091 62.9952 120.855 60.862 120.834Z" fill="#C192EE"/>
<path d="M102.113 136.274C102.113 136.274 102.177 136.168 102.199 136.105C102.433 135.682 102.583 135.216 102.561 134.73C102.604 132.89 100.684 131.473 98.9135 131.98C97.2496 132.636 98.1455 132.446 96.2256 134.053C96.0336 134.201 95.8843 134.349 95.7563 134.455C94.2204 135.512 94.583 135.259 93.4311 135.576C93.1538 135.618 92.9404 135.661 92.7698 135.682C92.4071 135.724 92.0445 135.745 91.6605 135.745C90.0392 135.809 89.1433 135.618 87.5007 135.259C90.5085 129.781 91.4258 122.462 87.1167 118.042C81.357 111.697 74.424 118.296 74.3386 125.106C74.5946 128.956 75.6826 132.784 76.8985 136.443C78.5838 140.885 81.1223 145.665 82.4236 148.309C83.9382 150.424 87.4367 148.668 86.69 146.194C85.8367 144.057 85.0901 142.471 84.4075 140.991C84.8555 141.117 85.4528 141.266 86.5834 141.519C89.7406 142.217 93.0898 142.471 96.2043 141.477C98.5935 140.716 100.492 138.981 101.751 136.866C101.857 136.697 101.964 136.528 102.071 136.337C102.071 136.337 102.092 136.295 102.113 136.274ZM79.821 124.726C80.2263 122.716 80.0344 123.478 80.845 121.955C80.9517 121.807 81.037 121.68 81.101 121.595C81.2716 121.405 81.4636 121.214 81.677 121.045C81.3996 121.278 80.8023 121.68 81.4636 121.193C81.6343 121.066 81.805 120.94 81.9756 120.791C81.9543 120.813 81.9756 120.791 81.9969 120.77C82.0609 120.728 82.1036 120.686 82.1676 120.643C82.0823 120.686 82.1036 120.665 82.1676 120.643C82.2103 120.601 82.2529 120.58 82.2956 120.538C82.2956 120.538 82.2102 120.601 82.1889 120.622C82.1889 120.622 82.2316 120.622 82.2529 120.601C82.2316 120.601 82.2102 120.622 82.1889 120.622C82.1249 120.665 82.0823 120.707 82.0396 120.728C82.1036 120.686 82.1889 120.622 82.3169 120.559C82.3596 120.559 82.4022 120.538 82.4662 120.516C84.0235 121.172 85.5594 122.441 85.1541 126.206C85.1541 126.227 85.1541 126.248 85.1541 126.291C84.3435 129.823 84.1728 130.204 82.2529 133.122C82.0822 133.313 81.8689 133.588 81.6556 133.82C80.6956 130.5 79.8424 126.143 79.821 125.127C79.821 124.958 79.821 124.789 79.8424 124.662L79.821 124.726Z" fill="#C192EE"/>
<path d="M81.9926 120.791C81.9926 120.791 81.9926 120.791 81.9719 120.813C81.9719 120.813 81.9926 120.791 82.0341 120.77C82.0341 120.77 82.0133 120.77 81.9926 120.791Z" fill="#C192EE"/>
<path d="M82.1639 120.644L82.1439 120.665L82.1639 120.644Z" fill="#C192EE"/>
<path d="M114.398 129.929C113.587 128.723 111.902 128.66 110.643 129.104C110.43 129.146 110.217 129.21 110.025 129.252C110.003 129.252 109.982 129.252 109.939 129.252C109.854 129.231 109.769 129.21 109.683 129.189C109.683 129.189 109.662 129.189 109.641 129.189C109.641 129.189 109.641 129.189 109.598 129.167C108.83 128.025 108.275 126.756 107.721 125.508C107.699 125.445 107.678 125.403 107.657 125.339C107.572 125.128 107.422 124.81 107.316 124.514C107.273 124.387 107.209 124.26 107.166 124.133C106.825 123.393 104.969 118.613 104.116 115.377C102.985 111.379 101.62 107.445 100.382 103.469C99.3799 100.296 98.6759 97.018 97.4173 93.9088C96.6493 91.3073 92.7028 92.3648 93.3855 95.0087C94.4521 98.9639 94.8148 103.046 95.6894 107.044C96.4147 110.449 97.4386 113.77 98.1639 117.175C99.1452 121.088 100.446 124.916 102.089 128.596C102.942 130.436 103.732 132.361 105.182 133.799C106.974 135.407 109.619 136.126 111.945 135.365C114.035 134.688 116.019 131.917 114.398 129.929Z" fill="#C192EE"/>
<path d="M125.665 118.317C125.665 118.317 125.665 118.254 125.665 118.212C125.665 118.169 125.665 118.106 125.665 118.064C125.644 116.498 124.812 115.081 124.343 113.622C123.404 111.105 122.679 108.525 121.911 105.944C120.375 100.339 118.22 92.6826 117.58 89.0869C116.642 86.5911 112.717 87.3948 112.759 90.0387C112.951 93.2325 113.89 96.3205 114.509 99.4509C115.469 103.914 116.258 108.398 117.516 112.797C118.37 115.716 119.735 120.242 120.46 120.538C120.93 121.004 121.527 121.342 122.21 121.384C123.703 121.68 125.111 120.581 125.516 119.206C125.601 118.931 125.623 118.635 125.623 118.339L125.665 118.317Z" fill="#C192EE"/>
<path d="M129.272 124.916C128.035 121.024 121.998 122.441 123.001 126.692C123.406 129.315 126.798 130.838 128.782 128.807C129.912 127.75 129.976 126.142 129.272 124.916Z" fill="#C192EE"/>
<path d="M68.7265 183.313C65.868 182.361 62.6042 182.784 59.9803 184.265C57.3564 185.745 55.3725 188.241 54.3485 191.075C53.4952 193.444 53.3246 196.194 54.5192 198.393C55.7778 200.72 58.3377 202.116 60.9402 202.602C63.5428 203.089 66.2307 202.814 68.8759 202.539C67.2333 205.669 67.9586 209.794 70.4758 212.268C72.993 214.743 77.0675 215.483 80.3527 214.151C83.6378 212.818 86.0057 209.561 86.3897 206.071C88.3096 209.096 91.9788 210.978 95.5626 210.64C99.1465 210.301 102.453 207.679 103.456 204.252C104.458 200.826 102.986 196.786 99.9358 194.882C102.282 195.157 104.736 194.227 106.293 192.45C107.85 190.695 108.447 188.135 107.85 185.872C107.466 184.434 106.655 183.122 105.674 182.001C102.09 177.835 95.584 175.804 90.8695 178.66C91.1469 174.599 89.8029 170.22 86.5604 167.725C82.5712 164.658 76.4062 165.292 72.6304 168.592C68.8332 171.891 67.3399 177.327 68.7479 183.313H68.7265Z" fill="#FF9AED"/>
<path d="M86.2243 185.047C83.5791 182.72 79.078 182.974 76.6888 185.554C75.9422 186.358 75.4088 187.331 75.0675 188.346C74.1502 190.969 74.4276 194.015 75.9848 196.299C77.5421 198.583 80.422 200 83.1738 199.641C86.0537 199.26 88.5069 197.039 89.5522 194.353C90.2135 192.661 90.3628 190.736 89.8295 189.002C89.2962 187.267 87.6536 186.294 86.203 185.047H86.2243Z" fill="#FFCCFB"/>
<path d="M87.3346 62.2249C87.2919 62.565 87.3346 62.4587 87.3346 62.2249V62.2249Z" fill="#FFBFD0"/>
<path d="M132.622 16.7924C132.622 16.7924 132.558 16.6867 132.537 16.6232C131.363 13.2391 129.379 10.151 126.628 7.76098C117.86 -1.71464 103.162 -1.67233 93.3277 6.13236C90.1706 8.75507 87.2481 11.8643 85.5201 15.6291C85.3921 15.9252 85.3068 16.2425 85.2001 16.5598C81.403 25.1682 85.2001 35.7225 92.5598 41.4967C95.6316 44.0983 99.3648 45.8326 103.269 46.7421C102.053 51.4165 101.455 55.5621 100.73 60.4479C98.8742 60.1307 97.0182 59.8346 95.1623 59.5807C93.6051 59.4115 92.0265 59.3481 90.4479 59.3058C89.8079 59.2212 89.2533 59.3904 88.8053 59.7288C87.9733 59.9192 87.2907 60.596 87.3334 61.6535C87.3334 61.8227 87.3334 62.0554 87.2907 62.2246C87.2907 62.1823 87.2907 62.1188 87.2907 62.0554C87.2694 62.3727 87.2267 62.6688 87.2054 62.986C87.2054 63.3667 87.0774 63.7686 87.0774 64.1705C86.9281 65.5241 86.8854 67.2585 87.952 68.1257C88.1653 68.3584 88.4 68.5699 88.6773 68.6756C91.6425 69.6486 94.7997 69.7332 97.8716 70.1774C98.3195 70.2197 98.7888 70.2408 99.2581 70.262C99.1301 71.2349 99.0235 72.229 98.8955 73.2654C98.7462 74.5767 98.3195 75.9515 98.7462 77.2629C99.0875 78.1936 99.9194 78.8704 100.794 79.2722C101.221 79.4415 101.669 79.6107 102.117 79.6953C102.437 79.6953 102.629 79.7587 102.181 79.6953C103.93 80.1817 104.57 79.0607 104.89 77.9609C105.637 75.592 106.234 73.2019 106.746 70.7907C108.9 71.2137 112.122 72.2713 114.575 71.7425C116.047 71.1503 117.156 69.8601 118.265 68.7814C119.481 67.0682 119.012 65.8837 117.86 64.9954C117.839 64.9319 117.796 64.8473 117.753 64.7839C117.433 64.2974 116.836 64.2128 116.303 64.107C114.767 63.4514 112.911 63.0072 111.588 62.6476C110.564 62.415 109.519 62.1823 108.474 61.9496C109.007 59.052 109.54 56.1543 110.18 53.2778C110.287 51.903 110.991 49.386 110.884 47.419C111.332 47.419 111.78 47.3767 112.228 47.3344C113.103 47.2498 113.977 47.1017 114.831 46.9113C123.044 45.3039 131.129 39.6566 132.558 31.5135C134.777 27.1352 135.225 22.0167 132.601 16.7501L132.622 16.7924ZM114.297 68.6122C113.657 68.5487 112.954 68.4641 112.228 68.3584C112.079 68.2103 111.887 68.1046 111.674 67.9988C111.951 68.0623 112.228 68.1257 112.506 68.168C112.484 68.168 112.463 68.168 112.442 68.1469C112.591 68.2103 112.762 68.2526 112.89 68.2526C113.359 68.3161 113.85 68.4641 114.319 68.4641C114.319 68.5064 114.276 68.5487 114.255 68.591L114.297 68.6122ZM101.839 75.4016C101.775 75.2113 101.946 76.1631 101.946 76.438C101.946 76.6707 102.031 76.8822 102.159 77.0726C102.053 77.0303 101.946 76.9668 101.775 76.8822C101.775 76.8822 101.754 76.8822 101.733 76.861C101.711 76.8399 101.669 76.8187 101.647 76.7976C101.541 76.6918 101.434 76.5861 101.327 76.4803C101.327 76.4592 101.327 76.438 101.306 76.3957C101.306 76.3534 101.306 76.3111 101.306 76.2688C101.434 75.3382 101.583 74.2806 101.775 73.1596C101.733 74.0057 101.733 74.7883 101.839 75.4228V75.4016ZM117.625 8.2686C117.668 8.3955 117.732 8.50126 117.86 8.60701C117.967 8.69162 118.052 8.79737 118.159 8.88198C118.116 8.86083 118.073 8.81852 118.031 8.79737C116.132 7.65522 113.913 6.89379 111.567 6.51307C113.657 6.70343 115.705 7.33796 117.647 8.2686H117.625ZM86.4374 28.1716C86.0534 26.4161 85.9254 24.5337 86.1814 22.5032C86.2881 20.663 86.7361 18.9498 87.3974 17.3212C87.7813 16.5809 88.208 15.8618 88.72 15.1638C91.0452 12.2027 93.1571 10.1722 95.8023 8.73392C95.6956 8.86083 95.589 9.00888 95.461 9.13579C94.2237 10.0664 93.0718 11.0817 92.0691 12.2238C88.208 16.3694 85.8828 22.4609 86.4374 28.1716ZM107.3 51.776C107.45 49.8936 107.364 48.6034 107.535 47.3555C107.727 47.3555 107.898 47.3767 108.09 47.3978C107.791 48.8572 107.535 50.3166 107.3 51.776ZM111.908 45.5788C111.418 45.6 110.927 45.6211 110.436 45.6211C110.372 45.5154 110.287 45.4308 110.202 45.3462C110.799 45.3039 111.396 45.2404 111.972 45.1347C111.93 45.2827 111.908 45.4308 111.908 45.5788ZM115.044 45.1981C115.044 45.1981 114.937 45.1981 114.895 45.2193C115.215 44.8808 115.513 44.5213 115.833 44.1829C116.665 43.9291 117.497 43.6541 118.415 43.358C119.353 43.0407 120.271 42.6388 121.166 42.2158C119.289 43.5483 117.241 44.5847 115.044 45.2193V45.1981ZM122.596 29.6945C120.718 35.1514 116.025 39.8892 110.607 41.962C109.967 42.1947 109.327 42.385 108.666 42.5331C103.695 42.5965 98.7888 40.2065 94.7357 35.9129C94.501 35.6167 94.2664 35.2995 94.0317 34.9611C93.9037 34.7072 93.7757 34.4534 93.6478 34.1996C91.4079 29.1446 91.5572 22.8839 93.4771 17.4481C93.6904 16.6444 94.1384 15.6503 94.757 14.6139C95.3543 13.9159 95.9943 13.2814 96.6556 12.7526C104.037 6.49192 115.535 7.90903 121.87 14.6562C124.494 19.2036 124.43 24.2799 122.574 29.7156L122.596 29.6945ZM125.369 14.8888C125.113 14.4658 124.836 14.064 124.558 13.6621C124.196 13.2179 123.833 12.7737 123.492 12.3296C124.302 13.091 125.07 13.9159 125.774 14.7619C125.625 14.7619 125.497 14.8254 125.369 14.8888Z" fill="#FFBFD0"/>
<path d="M134.237 72.1014C131.677 69.796 128.519 68.1462 125.149 67.3848C123.656 67.0464 121.821 67.0041 120.84 68.1885C120.072 69.1192 120.2 70.5574 120.84 71.5727C121.48 72.6091 122.525 73.307 123.592 73.8781C126.28 75.3375 129.266 76.247 132.338 76.5008C128.263 77.22 124.04 79.1024 122.098 82.7404C121.544 83.7979 121.202 85.1304 121.821 86.1457C122.226 86.8013 122.973 87.2032 123.72 87.4147C125.81 88.0069 128.114 87.3936 129.949 86.2514C131.805 85.1093 133.277 83.4806 134.748 81.8732C132.231 85.8072 130.461 90.5873 131.591 95.1348C131.805 96.0231 132.146 96.8903 132.743 97.5672C133.341 98.244 134.258 98.7093 135.175 98.5824C136.22 98.4555 137.031 97.6095 137.628 96.7423C140.124 93.1255 140.487 88.5146 140.508 84.1363C140.764 88.2819 143.132 92.2583 146.673 94.4791C147.74 95.1559 149.19 95.6636 150.236 94.9656C150.79 94.606 151.11 93.9715 151.302 93.3158C152.092 90.7777 151.281 88.0069 149.958 85.6803C148.465 83.0365 146.332 80.7522 143.793 79.0812C147.505 81.3232 151.494 83.6498 155.825 83.5018C157.638 83.4383 159.771 82.5711 159.985 80.7945C160.134 79.5043 159.174 78.341 158.15 77.5584C154.801 74.9568 150.214 74.4703 145.991 74.8722C148.785 74.703 151.537 73.8781 153.948 72.4399C155.548 71.4881 157.019 70.2402 157.873 68.5904C158.619 67.1098 158.705 65.0793 157.467 63.9795C156.891 63.4719 156.102 63.2181 155.313 63.1546C153.094 62.9219 150.854 63.8949 149.169 65.3543C147.484 66.8137 146.289 68.7384 145.244 70.7055C146.033 68.95 146.673 67.131 147.164 65.2697C147.633 63.4719 147.932 61.5683 147.399 59.7916C146.844 58.0149 145.201 56.4709 143.345 56.5767C141.063 56.7036 139.612 59.0513 138.93 61.2299C138.162 63.768 137.884 66.433 138.119 69.0769C137.436 66.2849 136.114 63.6411 134.258 61.4202C133.639 60.6799 132.957 59.982 132.082 59.5801C131.207 59.1782 130.119 59.1359 129.33 59.6647C128.37 60.2992 128.071 61.6106 128.114 62.7527C128.285 66.5599 131.207 69.6902 134.215 72.038L134.237 72.1014Z" fill="#FFC4ED"/>
<path d="M135.044 76.0151C135.044 73.7097 136.964 71.8484 139.332 71.8484C141.7 71.8484 143.62 73.7097 143.62 76.0151C143.62 78.3206 141.7 80.1818 139.332 80.1818C136.964 80.1818 135.044 78.3206 135.044 76.0151Z" fill="#FBF2FF"/>
</svg>
