<svg width="49" height="56" viewBox="0 0 49 56" fill="none" xmlns="http://www.w3.org/2000/svg">
<path d="M38.4269 33.2929C29.3158 37.4496 26.2559 44.7921 22.4825 54.8264C18.7083 44.7921 15.6492 37.4487 6.53809 33.2929C15.6492 29.1363 18.7091 21.1469 22.4825 11.1125C26.2567 21.1469 29.3158 29.1363 38.4269 33.2929Z" fill="#FFD00D"/>
<path d="M48.6352 11.9504C44.1758 13.9848 42.6778 17.5788 40.8305 22.4909C38.9833 17.5797 37.486 13.9848 33.0259 11.9504C37.4852 9.9159 38.9833 6.00497 40.8305 1.09375C42.6778 6.00497 44.1751 9.9159 48.6352 11.9504Z" fill="#FFD00D"/>
<path d="M6.94753 15.2404C5.06713 16.0983 4.4356 17.6135 3.65663 19.6845C2.87766 17.6135 2.24613 16.0983 0.365723 15.2404C2.24613 14.3825 2.87766 12.7335 3.65663 10.6626C4.43638 12.7335 5.06713 14.3825 6.94753 15.2404Z" fill="#FFD00D"/>
<path d="M22.4834 55.2299C22.3352 55.2299 22.2019 55.1318 22.1452 54.9807C18.1533 44.3664 15.1013 37.6351 6.39864 33.6652C6.26146 33.6027 6.17236 33.4559 6.17236 33.2927C6.17236 33.1294 6.26146 32.9827 6.39864 32.9201C15.4356 28.7982 18.3962 20.9252 22.1452 10.9577C22.2019 10.8066 22.3352 10.7085 22.4834 10.7085C22.6316 10.7085 22.7649 10.8066 22.8216 10.9577C26.5706 20.9252 29.5312 28.7974 38.5681 32.9201C38.7053 32.9827 38.7944 33.1294 38.7944 33.2927C38.7944 33.4559 38.7053 33.6027 38.5681 33.6652C29.8655 37.6351 26.8135 44.3664 22.8216 54.9807C22.7649 55.1318 22.6316 55.2299 22.4834 55.2299ZM7.46223 33.2918C15.5886 37.3008 18.6981 43.7994 22.4834 53.7764C26.2686 43.8002 29.379 37.3017 37.5046 33.2918C29.0676 29.0735 25.9052 21.2456 22.4834 12.1664C19.0616 21.2447 15.8992 29.0726 7.46223 33.2918Z" fill="#662D91"/>
<path d="M40.8287 22.8938C40.6805 22.8938 40.5472 22.7957 40.4905 22.6446C38.5549 17.4989 37.0774 14.2357 32.8845 12.3228C32.7473 12.2603 32.6582 12.1136 32.6582 11.9503C32.6582 11.7871 32.7473 11.6403 32.8845 11.5778C37.2358 9.59284 38.6724 5.77396 40.4905 0.939149C40.5472 0.788061 40.6805 0.689941 40.8287 0.689941C40.9769 0.689941 41.1102 0.788061 41.1669 0.939149C42.9851 5.77396 44.4216 9.59284 48.7729 11.5778C48.9101 11.6403 48.9992 11.7871 48.9992 11.9503C48.9992 12.1136 48.9101 12.2603 48.7729 12.3228C44.58 14.2357 43.1025 17.498 41.1669 22.6446C41.1102 22.7957 40.9769 22.8938 40.8287 22.8938ZM33.9165 11.9486C37.5662 13.8884 39.0894 16.9163 40.8287 21.4446C42.568 16.9163 44.0912 13.8884 47.7409 11.9486C43.954 9.88894 42.4063 6.30538 40.8287 2.14612C39.2511 6.30538 37.7034 9.88807 33.9165 11.9486Z" fill="#662D91"/>
<path d="M3.65674 20.0882C3.50851 20.0882 3.37527 19.99 3.3185 19.839C2.52613 17.7324 1.95294 16.4013 0.226279 15.6137C0.0890922 15.5512 0 15.4044 0 15.2412C0 15.078 0.0890922 14.9312 0.226279 14.8687C1.97975 14.069 2.57028 12.4982 3.3185 10.5097C3.37527 10.3586 3.50851 10.2605 3.65674 10.2605C3.80496 10.2605 3.93821 10.3586 3.99498 10.5097C4.7432 12.4982 5.33373 14.069 7.0872 14.8687C7.22438 14.9312 7.31347 15.078 7.31347 15.2412C7.31347 15.4044 7.22438 15.5512 7.0872 15.6137C5.36053 16.4013 4.78735 17.7324 3.99498 19.839C3.93821 19.9892 3.80496 20.0882 3.65674 20.0882ZM1.18895 15.2386C2.48277 16.0696 3.11903 17.3 3.65674 18.6476C4.19445 17.3 4.83071 16.0696 6.12452 15.2386C4.85909 14.4111 4.22914 13.1563 3.65674 11.7036C3.08434 13.1563 2.45438 14.4111 1.18895 15.2386Z" fill="#662D91"/>
</svg>
