<svg width="224" height="98" viewBox="0 0 224 98" fill="none" xmlns="http://www.w3.org/2000/svg">
<path fill-rule="evenodd" clip-rule="evenodd" d="M18.2865 60.7041C18.4271 60.7738 18.5876 60.8136 18.7482 60.8136C35.9406 60.8136 52.6613 61.2614 69.8637 59.3707C72.3728 59.0921 78.7761 59.1319 83.2824 58.4254C85.4403 58.087 87.1766 57.5397 88.0397 56.8033C89.6556 55.4301 90.4384 53.5195 90.7395 51.3999C91.141 48.5042 90.589 45.2402 90.2276 42.7525C89.2441 35.9659 87.6182 28.9802 87.0461 22.1638C86.7249 18.3227 87.0862 14.4418 86.5342 10.6206C86.0324 7.11783 85.6209 4.50071 84.0552 2.74933C82.9613 1.52535 81.3053 0.659611 78.6255 0.281472C74.8619 -0.255884 70.5261 0.271519 66.7223 0.271519C56.716 0.271519 46.2581 -0.066816 36.3421 1.44574C32.4479 2.0428 19.0393 1.96319 9.85594 4.21213C5.62057 5.24703 2.27845 6.8392 0.883386 9.05828C0.261128 10.0434 0.0102123 11.2376 0.000175853 12.4814C-0.00986057 14.1433 0.411664 15.9145 0.762939 17.3176C2.12789 22.7509 7.20632 34.3239 9.93623 39.0507C12.616 43.6978 14.2118 49.0714 15.7273 54.1564C15.938 54.8529 16.3696 57.271 16.9718 58.8333C17.3331 59.8085 17.8449 60.4753 18.2865 60.7041ZM19.1697 58.8234C19.1296 58.7637 19.0895 58.704 19.0694 58.6443C18.9088 58.3258 18.7683 57.9278 18.6278 57.49C18.1661 56.0073 17.8349 54.1862 17.6542 53.5991C16.0986 48.3649 14.4426 42.852 11.6826 38.0655C9.02292 33.4483 4.05488 22.1439 2.72004 16.84C2.44906 15.7752 2.1279 14.4915 2.03757 13.2178C1.95728 12.1033 2.03757 10.9987 2.58958 10.123C3.78391 8.23234 6.73462 7.03822 10.3477 6.15258C19.4708 3.9136 32.7892 4.01311 36.6532 3.41605C46.4688 1.92339 56.8264 2.26172 66.7324 2.26172C70.4358 2.26172 74.6712 1.73433 78.3445 2.25178C80.412 2.54036 81.7168 3.11752 82.5598 4.06287C83.9047 5.57542 84.1154 7.87411 84.547 10.8992C85.089 14.6806 84.7277 18.5317 85.0488 22.333C85.6209 29.1892 87.2669 36.2146 88.2505 43.0411C88.5315 45.0014 88.953 47.4693 88.8727 49.8078C88.7924 51.9273 88.3107 53.9573 86.745 55.3007C86.0726 55.8779 84.6675 56.1963 82.9813 56.465C78.5151 57.1616 72.152 57.1218 69.653 57.4004C52.6513 59.2612 36.1413 58.8333 19.1697 58.8234Z" fill="#F5E3FF"/>
<path fill-rule="evenodd" clip-rule="evenodd" d="M110.522 34.8314C110.643 34.9707 111.747 36.2345 112.198 37.1202C112.349 37.4187 112.479 37.8466 112.54 38.0357C110.582 40.006 108.435 42.6032 106.026 44.0361C100.024 47.6085 92.9083 50.0067 87.86 55.0121C87.4686 55.4002 87.4686 56.0271 87.86 56.4152C88.2514 56.8033 88.8837 56.8033 89.2751 56.4152C94.203 51.5293 101.188 49.2306 107.05 45.7377C109.669 44.1754 112.018 41.3593 114.125 39.2596C114.376 39.0108 114.547 38.6626 114.557 38.2048C114.577 37.8565 114.487 37.3988 114.296 36.9012C113.894 35.8564 113.021 34.5329 112.319 33.7667C111.897 33.299 111.476 33.0203 111.215 32.9407C110.422 32.682 109.448 32.7019 108.455 32.881C107.22 33.0999 105.926 33.5577 104.992 33.7468C102.513 34.2344 99.6026 33.8761 96.7623 33.687C93.641 33.4781 90.5999 33.488 88.1711 34.712C87.6793 34.9608 87.4786 35.5578 87.7295 36.0554C87.9804 36.543 88.5826 36.742 89.0744 36.4932C91.2021 35.4185 93.8818 35.4981 96.6218 35.6773C99.6427 35.8763 102.734 36.2246 105.374 35.6972C106.156 35.5479 107.18 35.1996 108.224 34.9608C109.057 34.7916 109.87 34.6424 110.522 34.8314Z" fill="#F5E3FF"/>
<path fill-rule="evenodd" clip-rule="evenodd" d="M109.528 34.4036C109.117 35.339 108.314 35.9858 107.44 36.563C106.407 37.2396 105.263 37.7969 104.309 38.394C100.465 40.8419 92.3858 45.698 89.3649 48.6833C88.9734 49.0714 88.9734 49.6983 89.3649 50.0864C89.7563 50.4745 90.3886 50.4745 90.78 50.0864C93.7307 47.1608 101.639 42.454 105.393 40.0657C106.347 39.4587 107.501 38.9015 108.544 38.2149C109.739 37.4287 110.783 36.4834 111.355 35.1997C111.575 34.7021 111.345 34.1051 110.843 33.8862C110.341 33.6672 109.749 33.8961 109.528 34.4036Z" fill="#F5E3FF"/>
<path fill-rule="evenodd" clip-rule="evenodd" d="M44.38 20.1138C44.6008 19.7257 44.5205 19.2381 44.1994 18.9197C43.5169 18.2629 42.433 18.1933 41.2386 18.7406C39.9038 19.3476 38.3381 20.7208 37.4147 21.8055C36.9531 22.3428 36.6419 22.8404 36.5315 23.1588C35.6885 25.4476 35.6283 27.6766 36.5315 29.6568C37.4147 31.5973 39.2414 33.3288 42.3125 34.5826C42.995 34.8612 45.1528 34.9309 46.9895 34.7518C48.2942 34.6324 49.4384 34.3637 49.8499 34.095C50.7632 33.5178 51.0241 32.9108 51.0342 32.4332C51.0442 31.9058 50.7632 31.3286 50.0506 30.851C49.057 30.1842 46.9192 29.5573 45.1428 28.6916C44.2295 28.2438 43.3965 27.7761 43.0853 27.0895C42.7441 26.3431 42.7943 25.3381 42.9649 24.3231C43.2559 22.6215 43.9585 20.89 44.38 20.1138ZM41.9612 20.6014C41.5799 21.5667 41.1985 22.7906 40.9877 24.0047C40.7468 25.4376 40.777 26.8606 41.2587 27.9154C41.61 28.6916 42.3226 29.3683 43.2459 29.9255C44.3901 30.6221 45.8755 31.1793 47.14 31.6769C47.7021 31.8958 48.3544 32.2342 48.7459 32.4431C48.4347 32.6123 47.6619 32.6919 46.7988 32.7815C45.8554 32.871 44.8216 32.9009 44.0087 32.8611C43.5972 32.8412 43.2559 32.8213 43.0753 32.7516C40.5963 31.7366 39.0708 30.4131 38.3582 28.8508C37.6657 27.3283 37.766 25.6167 38.4084 23.8454C38.4886 23.6265 38.7496 23.3081 39.0908 22.9299C39.703 22.2433 40.5762 21.4472 41.4293 20.9099C41.61 20.7905 41.7906 20.691 41.9612 20.6014Z" fill="#F5E3FF"/>
<path fill-rule="evenodd" clip-rule="evenodd" d="M100.938 55.3704C100.496 55.5197 100.205 55.9476 100.255 56.4053C100.526 59.3409 101.881 63.2815 102.283 65.1821C102.644 66.8838 102.634 68.6152 102.945 70.3169C103.256 72.0384 103.226 71.9488 103.437 73.75C103.818 76.9741 104.852 78.5762 106.106 79.3027C107.401 80.049 109.047 79.9296 110.894 79.4022C112.891 78.815 115.159 77.7503 117.357 77.4617C118.521 77.3124 123.69 77.0537 125.938 76.6258C126.45 76.5263 126.832 76.4168 127.062 76.2974C127.343 76.1581 127.514 75.989 127.604 75.8397C128.548 74.4266 128.799 72.4762 128.618 70.4064C128.387 67.6002 127.414 64.5751 126.892 62.7043C126.4 60.9529 126.26 58.5548 125.718 56.4153C125.306 54.8032 124.674 53.3305 123.61 52.2757C123.128 51.798 122.275 51.5592 121.231 51.6189C119.575 51.7184 117.317 52.5244 116.504 52.6637C111.596 53.5593 105.896 53.7484 100.938 55.3704ZM126.059 74.556C124.423 75.0635 118.351 75.3123 117.096 75.4815C114.798 75.78 112.429 76.8746 110.332 77.4816C109.097 77.8398 107.993 78.0787 107.13 77.5811C106.227 77.0637 105.715 75.8098 105.434 73.5111C105.213 71.6404 105.243 71.7299 104.922 69.9487C104.611 68.2271 104.611 66.4758 104.25 64.7642C103.888 63.0825 102.754 59.7489 102.353 57.0123C107.03 55.6391 112.309 55.45 116.885 54.6241C117.558 54.5047 119.264 53.9076 120.75 53.6788C121.161 53.619 121.542 53.5792 121.874 53.6091C122.014 53.619 122.135 53.6091 122.205 53.6887C123.249 54.7236 123.69 56.3058 124.011 57.9477C124.373 59.8185 124.553 61.759 124.965 63.2516C125.467 65.0428 126.4 67.9187 126.621 70.5855C126.751 72.0682 126.681 73.5012 126.059 74.556Z" fill="#F5E3FF"/>
<path fill-rule="evenodd" clip-rule="evenodd" d="M107.751 61.0623C107.309 61.1618 106.968 61.5499 106.968 62.0276C106.968 62.0574 107.31 63.2714 108.353 62.963C108.875 62.8037 111.485 61.9579 111.585 61.938C112.549 61.6892 114.094 61.7091 115.389 61.4703C116.563 61.2514 117.537 60.7837 118.048 60.0274C118.36 59.5697 118.229 58.9527 117.767 58.6442C117.306 58.3357 116.684 58.4651 116.372 58.9228C116.122 59.291 115.59 59.4005 115.007 59.51C113.673 59.7587 112.067 59.7488 111.073 60.0075C110.963 60.0374 108.303 60.9031 107.771 61.0524L107.751 61.0623ZM108.564 61.2315C108.815 61.4106 108.976 61.7091 108.976 62.0475C108.976 61.729 108.865 61.4504 108.564 61.2315ZM107.992 61.0424C108.193 61.0424 108.383 61.1121 108.534 61.2116C108.434 61.1519 108.263 61.0424 107.992 61.0424Z" fill="#F5E3FF"/>
<path fill-rule="evenodd" clip-rule="evenodd" d="M117.387 63.8784C117.116 63.9282 116.303 64.0874 115.64 64.157C114.155 64.3163 112.479 64.4357 112.238 64.5053C111.676 64.6546 110 65.2417 109.448 65.4407C108.986 65.3412 108.495 65.58 108.304 66.0278C108.163 66.3562 108.213 66.6249 108.294 66.8239C108.394 67.0727 108.585 67.3016 108.936 67.421C109.087 67.4707 109.428 67.5105 109.89 67.3911C110.622 67.2021 112.128 66.5851 112.76 66.4159C113.101 66.3264 116.413 66.1472 117.728 65.8487C118.29 65.7194 118.631 65.4905 118.772 65.3313C118.973 65.1024 119.043 64.8636 119.043 64.6247C119.043 64.0774 118.591 63.6296 118.039 63.6296C117.798 63.6396 117.567 63.7291 117.387 63.8784ZM110.241 66.3363C110.251 66.4657 110.231 66.605 110.191 66.7344C110.241 66.595 110.251 66.4557 110.241 66.3363Z" fill="#F5E3FF"/>
<path fill-rule="evenodd" clip-rule="evenodd" d="M109.938 71.3318C109.637 71.1526 109.246 71.1327 108.915 71.3218C108.433 71.6004 108.272 72.2074 108.553 72.6851C108.694 72.9239 108.915 73.123 109.236 73.2424C109.517 73.3419 109.978 73.3817 110.561 73.2722C111.795 73.0433 113.923 72.1677 115.719 71.5009C116.733 71.1228 117.606 70.7944 118.058 70.7944C118.61 70.7944 119.061 70.3466 119.061 69.7993C119.061 69.252 118.61 68.8042 118.058 68.8042C117.656 68.8042 116.984 68.9535 116.181 69.2221C114.635 69.7396 112.457 70.665 110.932 71.1228C110.561 71.2323 110.129 71.3019 109.938 71.3318Z" fill="#F5E3FF"/>
<path fill-rule="evenodd" clip-rule="evenodd" d="M213.322 53.6532C213.602 53.7911 213.718 54.132 213.582 54.4147C213.275 55.0507 212.956 55.7762 212.733 56.4272C212.531 57.0144 212.298 57.5876 212.072 58.1441L212.041 58.2202C211.804 58.8059 211.575 59.3746 211.382 59.9541C210.695 62.0193 210.321 64.2295 210.03 66.4272C209.608 69.618 208.791 72.8612 207.738 75.8971C207.157 77.5719 206.74 79.2731 206.353 81.0035C206.248 81.4746 206.145 81.9492 206.041 82.4261C205.767 83.6909 205.488 84.9717 205.159 86.2463C205.07 86.5899 204.875 87.2865 204.394 87.7829C203.945 88.2468 203.343 88.4815 202.713 88.5986C202.083 88.7158 201.372 88.7249 200.647 88.6952C200.127 88.674 199.575 88.6312 199.026 88.5886C198.812 88.5721 198.599 88.5556 198.388 88.5403C197.623 88.4851 196.872 88.4454 196.164 88.4707C190.682 88.6662 186.597 88.1007 180.687 86.7814C176.389 85.8221 173.165 84.9828 169.806 83.4162C169.557 83.4084 169.302 83.3351 169.101 83.1341C168.869 82.9008 168.819 82.6023 168.812 82.3976C168.804 82.1872 168.837 81.9708 168.867 81.8018C168.88 81.7297 168.892 81.6672 168.902 81.6106C168.921 81.5135 168.936 81.4336 168.947 81.3515L169.303 78.6616C169.529 76.9531 169.72 75.2407 169.912 73.5221L169.912 73.5175C170.104 71.8024 170.296 70.081 170.524 68.3629C170.933 65.2655 170.857 62.1408 170.78 58.9597L170.779 58.9485C170.702 55.786 170.623 52.5678 171.048 49.356C171.089 49.0442 171.373 48.8253 171.682 48.867C171.99 48.9086 172.207 49.1951 172.166 49.5068C171.754 52.6186 171.829 55.7507 171.907 58.9315L171.908 58.964C171.985 62.1193 172.063 65.3233 171.641 68.5138C171.415 70.2199 171.224 71.9311 171.033 73.6497L171.032 73.6509C170.841 75.3672 170.648 77.0908 170.421 78.8125L170.065 81.5024C170.05 81.6155 170.024 81.7509 170.002 81.8678C169.993 81.9168 169.984 81.9627 169.977 82.0022C169.957 82.114 169.945 82.2027 169.94 82.2728L170.032 82.2662L170.165 82.3286C173.448 83.8752 176.596 84.7017 180.93 85.6693C186.784 86.9759 190.768 87.5235 196.124 87.3324C196.895 87.305 197.695 87.3485 198.468 87.4043C198.693 87.4205 198.915 87.4377 199.133 87.4546C199.674 87.4966 200.194 87.5368 200.693 87.5572C201.391 87.5858 202.003 87.5725 202.509 87.4785C203.015 87.3845 203.363 87.2192 203.589 86.9861C203.84 86.7269 203.979 86.3046 204.068 85.9589C204.391 84.7073 204.662 83.4596 204.936 82.2023C205.04 81.7208 205.145 81.238 205.253 80.753C205.642 79.0111 206.071 77.2585 206.674 75.5205C207.705 72.5471 208.502 69.3797 208.912 66.2763C209.206 64.0599 209.59 61.7624 210.313 59.5912C210.519 58.9719 210.762 58.3709 210.998 57.7884L211.025 57.7214C211.254 57.1573 211.476 56.6105 211.667 56.0539C211.911 55.3434 212.251 54.5728 212.568 53.9155C212.705 53.6328 213.042 53.5154 213.322 53.6532ZM169.817 82.2761C169.817 82.2761 169.818 82.2762 169.819 82.2766L169.817 82.2761Z" fill="#CDB4DB"/>
<path fill-rule="evenodd" clip-rule="evenodd" d="M184.786 47.4734C183.628 47.3169 181.88 47.292 180.815 47.5458C179.918 47.7594 178.994 47.7082 178.16 47.662L178.154 47.6616C177.288 47.6137 176.511 47.571 175.77 47.7308C175.296 47.8329 174.78 47.8355 174.332 47.8379C174.291 47.8381 174.249 47.8383 174.209 47.8386C173.702 47.8423 173.284 47.8571 172.932 47.9619C172.82 47.9954 172.694 48.0256 172.584 48.0522C172.551 48.0602 172.519 48.0678 172.489 48.0752C172.349 48.1099 172.23 48.1428 172.125 48.1834C171.921 48.2628 171.839 48.3447 171.798 48.4476C171.783 48.4853 171.77 48.5153 171.76 48.5407C171.741 48.5885 171.728 48.6197 171.716 48.6546C171.712 48.6672 171.709 48.6764 171.707 48.6829C171.716 48.7051 171.742 48.7549 171.808 48.8419C171.872 48.9258 171.983 49.0009 172.284 49.1178C172.347 49.1423 172.418 49.1686 172.496 49.1973C172.757 49.2933 173.093 49.4172 173.451 49.5964C173.522 49.6317 173.59 49.6664 173.658 49.7003C174.37 50.0589 174.927 50.3396 175.511 50.4185C178.525 50.8253 181.471 51.323 184.408 51.8191L184.417 51.8206C187.36 52.3178 190.295 52.8133 193.296 53.2184C195.506 53.5169 197.797 53.753 199.995 53.7298C201.498 53.714 203.004 53.839 204.488 53.982C204.753 54.0076 205.017 54.0337 205.28 54.0597C206.499 54.1802 207.7 54.2989 208.895 54.3532C209.17 54.3656 209.441 54.3898 209.686 54.4117C209.783 54.4203 209.875 54.4285 209.962 54.4356C210.287 54.4618 210.556 54.4735 210.796 54.4506C211.03 54.4283 211.222 54.3741 211.394 54.2762C211.564 54.1787 211.743 54.0211 211.925 53.7513C212.1 53.4932 212.048 53.2173 211.846 53.0626C209.984 51.6371 207.535 50.9555 205.086 50.4925C201.5 49.8144 197.902 49.244 194.269 48.7535L184.786 47.4734ZM171.702 48.6687C171.702 48.6687 171.703 48.6707 171.704 48.6741C171.703 48.6704 171.702 48.6687 171.702 48.6687ZM180.556 46.4373C181.809 46.1386 183.71 46.179 184.936 46.3445L194.418 47.6246C198.068 48.1174 201.686 48.6908 205.294 49.373C207.772 49.8415 210.444 50.5599 212.527 52.155C213.265 52.7203 213.329 53.6966 212.856 54.3942C212.592 54.7844 212.292 55.0714 211.949 55.2673C211.607 55.4628 211.252 55.5511 210.902 55.5845C210.558 55.6173 210.207 55.598 209.872 55.5709C209.767 55.5624 209.664 55.5531 209.561 55.544C209.325 55.5229 209.093 55.5022 208.845 55.4909C207.616 55.4352 206.38 55.3129 205.16 55.1922C204.9 55.1665 204.64 55.1408 204.381 55.1158C202.902 54.9732 201.446 54.8536 200.007 54.8687C197.728 54.8927 195.375 54.6482 193.146 54.3473C190.124 53.9393 187.172 53.4406 184.231 52.944C181.288 52.4469 178.357 51.9517 175.362 51.5474C174.579 51.4417 173.848 51.0713 173.174 50.7298C173.099 50.6916 173.024 50.6537 172.95 50.6167C172.654 50.4684 172.4 50.3749 172.149 50.2823C172.06 50.2492 171.97 50.2162 171.879 50.1809C171.561 50.0573 171.185 49.891 170.915 49.537C170.713 49.2728 170.571 48.9945 170.577 48.667C170.582 48.4271 170.678 48.1988 170.732 48.0708C170.739 48.0523 170.746 48.0358 170.752 48.0217C170.957 47.5089 171.366 47.2582 171.72 47.1205C171.895 47.0525 172.072 47.0058 172.222 46.9688C172.267 46.9577 172.308 46.9478 172.346 46.9384C172.448 46.9139 172.532 46.8937 172.613 46.8696C173.139 46.7127 173.712 46.7032 174.201 46.6997C174.235 46.6995 174.268 46.6992 174.301 46.699C174.778 46.6959 175.179 46.6933 175.534 46.6169C176.426 46.4248 177.334 46.4753 178.151 46.5208C178.173 46.522 178.194 46.5232 178.215 46.5244C179.078 46.5722 179.841 46.6075 180.556 46.4373Z" fill="#CDB4DB"/>
<path fill-rule="evenodd" clip-rule="evenodd" d="M179.989 85.8941C180.298 85.9358 180.514 86.2222 180.473 86.534C180.473 86.5322 180.473 86.5348 180.474 86.5426C180.474 86.5677 180.476 86.6471 180.488 86.8074C180.502 86.9904 180.526 87.2283 180.555 87.5073C180.566 87.6168 180.578 87.7323 180.591 87.8523C180.642 88.338 180.701 88.899 180.748 89.448C180.806 90.128 180.847 90.8185 180.828 91.3456C180.818 91.6021 180.794 91.8639 180.73 92.0763C180.699 92.1803 180.645 92.3202 180.541 92.4426C180.423 92.5819 180.231 92.7048 179.981 92.695C179.314 92.6689 178.652 92.575 178.014 92.4735C177.869 92.4504 177.726 92.427 177.584 92.4038C177.093 92.3237 176.619 92.2463 176.144 92.1929C175.991 92.1757 175.667 92.1503 175.418 92.1346C175.375 92.1319 175.336 92.1296 175.302 92.1278C175.245 92.1383 175.186 92.1401 175.126 92.1319C175.102 92.1287 175.077 92.125 175.053 92.1208C175.042 92.1188 175.024 92.1153 175.003 92.1101C174.993 92.1075 174.975 92.1028 174.954 92.0955C174.941 92.0908 174.889 92.0729 174.831 92.0358C174.804 92.0181 174.739 91.9736 174.68 91.8935C174.615 91.8043 174.537 91.6377 174.584 91.4297C174.625 91.2419 174.744 91.1371 174.8 91.0958C174.859 91.0515 174.914 91.0293 174.939 91.0198C174.992 91.0001 175.036 90.993 175.05 90.9909C175.069 90.9878 175.086 90.9862 175.096 90.9854C175.129 90.9827 175.161 90.9829 175.176 90.9831C175.245 90.9838 175.364 90.9901 175.488 90.9979C175.742 91.0138 176.088 91.0406 176.269 91.0609C176.774 91.1177 177.285 91.2012 177.781 91.2821C177.919 91.3046 178.055 91.3269 178.19 91.3484C178.701 91.4298 179.197 91.501 179.686 91.5375C179.692 91.4729 179.697 91.3952 179.701 91.3034C179.717 90.8514 179.682 90.2206 179.624 89.5453C179.579 89.0091 179.521 88.463 179.47 87.978C179.457 87.8564 179.445 87.7387 179.433 87.6259C179.404 87.3472 179.379 87.096 179.364 86.8967C179.35 86.7242 179.337 86.5203 179.355 86.3831C179.397 86.0713 179.68 85.8524 179.989 85.8941Z" fill="#CDB4DB"/>
<path fill-rule="evenodd" clip-rule="evenodd" d="M193.549 87.7547C193.854 87.6948 194.15 87.8965 194.21 88.2053C194.419 89.2953 194.565 90.4414 194.656 91.5359C194.668 91.6756 194.695 91.8227 194.727 92.0025C194.742 92.0821 194.758 92.1681 194.774 92.2627C194.819 92.5335 194.868 92.8787 194.825 93.2017C194.796 93.422 194.711 93.6611 194.504 93.8358C194.304 94.0055 194.075 94.0414 193.916 94.0462C193.759 94.0509 193.6 94.0268 193.486 94.0085C193.461 94.0046 193.437 94.0008 193.415 93.9972C193.316 93.9812 193.235 93.9681 193.152 93.9606C191.851 93.8438 190.533 93.6265 189.239 93.4133C188.44 93.2817 187.651 93.1517 186.882 93.0479C186.573 93.0062 186.356 92.7197 186.398 92.408C186.439 92.0962 186.723 91.8773 187.031 91.9189C187.874 92.0327 188.689 92.1676 189.495 92.301C190.748 92.5082 191.977 92.7117 193.252 92.8262C193.379 92.8376 193.507 92.8584 193.606 92.8746C193.626 92.8778 193.644 92.8807 193.661 92.8834C193.68 92.8864 193.697 92.8891 193.714 92.8916C193.71 92.7756 193.692 92.6318 193.662 92.4547C193.652 92.3965 193.641 92.3325 193.628 92.265C193.592 92.0633 193.549 91.8306 193.533 91.6314C193.444 90.57 193.303 89.4652 193.103 88.4221C193.043 88.1134 193.243 87.8146 193.549 87.7547Z" fill="#CDB4DB"/>
<path fill-rule="evenodd" clip-rule="evenodd" d="M216.061 62.3566C215.083 62.0039 214.118 61.6929 213.18 61.6866C212.192 61.6799 211.574 61.7831 210.904 62.34C210.663 62.5399 210.308 62.505 210.11 62.2621C209.912 62.0192 209.947 61.6603 210.187 61.4605C211.156 60.6551 212.092 60.5403 213.188 60.5477C214.339 60.5555 215.468 60.9335 216.44 61.284C217.248 61.5754 218.044 61.924 218.726 62.6319C219.887 63.8373 220.517 65.6196 220.846 67.116C221.436 69.7984 220.93 72.4637 220.451 74.9846C220.426 75.1141 220.402 75.2432 220.377 75.372C220.36 75.4646 220.342 75.5628 220.323 75.6655C220.227 76.1936 220.11 76.8393 219.912 77.4396C219.677 78.1564 219.296 78.9138 218.598 79.3835C217.732 79.9662 216.687 80.3558 215.765 80.6994C215.581 80.7677 215.403 80.8342 215.232 80.9C215.068 80.9632 214.905 81.0317 214.733 81.1043C214.702 81.1176 214.67 81.131 214.638 81.1446C214.434 81.2303 214.218 81.3197 213.995 81.3982C213.55 81.5555 213.051 81.6794 212.501 81.6505C211.667 81.6068 210.848 81.3129 210.161 80.9961C209.59 80.7325 208.955 80.3562 208.404 79.8816C207.858 79.4106 207.36 78.8129 207.122 78.099C207.022 77.801 207.181 77.4779 207.476 77.3776C207.771 77.2772 208.091 77.4374 208.191 77.7355C208.34 78.1834 208.677 78.6196 209.136 79.0153C209.591 79.4075 210.132 79.7307 210.63 79.9601C211.264 80.2527 211.932 80.4803 212.559 80.5131C212.905 80.5313 213.247 80.4557 213.623 80.323C213.812 80.2565 214.002 80.1783 214.204 80.0932C214.234 80.0806 214.264 80.0678 214.295 80.0548C214.467 79.9824 214.648 79.9058 214.831 79.8356C215.025 79.7608 215.22 79.688 215.413 79.6157C216.334 79.2712 217.228 78.9369 217.973 78.4357C218.361 78.1742 218.637 77.7052 218.842 77.0805C219.013 76.5629 219.113 76.0106 219.21 75.482C219.23 75.3731 219.25 75.2651 219.27 75.1586C219.29 75.0528 219.31 74.9472 219.33 74.8419C219.819 72.2598 220.283 69.8087 219.745 67.3629C219.432 65.9363 218.86 64.404 217.918 63.4261C217.422 62.9111 216.828 62.6333 216.061 62.3566Z" fill="#CDB4DB"/>
<path fill-rule="evenodd" clip-rule="evenodd" d="M213.772 65.7748C213.102 65.6573 212.502 65.5519 211.844 65.5501C211.204 65.5484 210.645 65.924 210.534 66.364C210.457 66.6688 210.151 66.8532 209.849 66.7758C209.547 66.6984 209.364 66.3886 209.441 66.0837C209.725 64.9538 210.905 64.4086 211.847 64.4112C212.61 64.4133 213.332 64.5405 214.017 64.6612C214.197 64.693 214.376 64.7244 214.551 64.753C215.299 64.8743 215.657 65.2837 215.949 65.6179C216.013 65.6913 216.074 65.7612 216.135 65.8235C216.388 66.0806 216.505 66.3827 216.582 66.5822C216.596 66.6178 216.608 66.6501 216.62 66.6784C216.703 66.8771 216.804 67.0727 216.917 67.2905C216.922 67.3005 216.928 67.3106 216.933 67.3208C217.039 67.5238 217.156 67.7478 217.257 67.9816C217.399 68.3118 217.415 68.6171 217.415 68.8589C217.414 68.9348 217.413 69 217.412 69.0585C217.409 69.2047 217.407 69.3087 217.425 69.4327C217.524 70.1142 217.597 70.9248 217.553 71.732C217.509 72.5342 217.347 73.374 216.944 74.0848C216.353 75.1243 215.665 75.9863 214.676 76.7426C214.21 77.0983 213.62 77.1481 213.151 77.1308C212.767 77.1167 212.37 77.0511 212.067 77.001C211.994 76.9889 211.925 76.9776 211.865 76.9683C211.176 76.8625 210.671 76.5187 210.241 76.2259C210.188 76.1895 210.136 76.1539 210.084 76.1196C209.954 76.0323 209.813 75.9461 209.66 75.8517L209.654 75.8479C209.501 75.754 209.336 75.6526 209.174 75.5443C208.854 75.3297 208.511 75.0658 208.242 74.7182C208.043 74.4592 207.941 74.095 207.888 73.8159C207.832 73.5198 207.809 73.1959 207.832 72.9483C207.838 72.8887 207.846 72.8324 207.852 72.7934C207.853 72.7889 207.853 72.7846 207.854 72.7805C207.859 72.7462 207.862 72.7265 207.863 72.7128C207.739 72.4383 207.849 72.111 208.118 71.9712C208.394 71.827 208.734 71.9367 208.877 72.2162C208.981 72.4197 208.999 72.6097 208.989 72.7673C208.985 72.8374 208.976 72.9026 208.97 72.9461L208.968 72.9574C208.962 73.0005 208.958 73.0279 208.955 73.0569C208.944 73.1677 208.954 73.3789 208.996 73.6022C209.042 73.8425 209.104 73.9818 209.132 74.0181C209.289 74.2216 209.513 74.4048 209.798 74.5951C209.938 74.6893 210.085 74.7797 210.24 74.875L210.254 74.8838C210.402 74.9744 210.558 75.0702 210.706 75.1695C210.761 75.2063 210.814 75.2418 210.865 75.2759C211.316 75.5798 211.609 75.777 212.034 75.8423C212.117 75.855 212.201 75.8688 212.285 75.8826C212.583 75.9315 212.887 75.9814 213.192 75.9926C213.591 76.0073 213.849 75.9459 213.995 75.8345C214.842 75.187 215.436 74.4505 215.966 73.5179C216.248 73.0204 216.388 72.3778 216.427 71.6693C216.465 70.9659 216.402 70.2375 216.309 69.5974C216.276 69.3707 216.281 69.1371 216.285 68.9699C216.286 68.9272 216.287 68.8888 216.287 68.856C216.287 68.6707 216.273 68.5522 216.223 68.4369C216.139 68.2424 216.04 68.0518 215.928 67.8385L215.919 67.8211C215.808 67.6075 215.685 67.371 215.581 67.1211C215.55 67.0476 215.526 66.9872 215.506 66.9367C215.435 66.7622 215.412 66.7046 215.335 66.626C215.193 66.4817 215.09 66.3666 215.007 66.274C214.772 66.0126 214.698 65.9304 214.372 65.8775C214.164 65.8437 213.965 65.8088 213.772 65.7748Z" fill="#CDB4DB"/>
<path fill-rule="evenodd" clip-rule="evenodd" d="M182.997 61.6648C183.109 61.7163 183.289 61.8187 183.407 62.0161C183.637 62.4005 183.48 62.8071 183.397 62.9792C183.295 63.1886 183.144 63.3848 183.006 63.5043C182.707 63.7635 182.343 63.85 182 63.7458C181.689 63.6512 181.462 63.4201 181.343 63.1783C181.23 62.9504 181.15 62.5715 181.38 62.237C181.481 62.0905 181.611 61.9951 181.753 61.9367C181.755 61.8704 181.766 61.8063 181.787 61.7486C181.88 61.6444 182.043 61.5453 182.091 61.5285C182.115 61.522 182.154 61.514 182.168 61.5117C182.177 61.5104 182.193 61.5086 182.2 61.5079C182.221 61.5061 182.238 61.5059 182.241 61.5058C182.247 61.5057 182.252 61.5058 182.255 61.5058C182.264 61.5059 182.272 61.5062 182.275 61.5063C182.283 61.5066 182.293 61.5071 182.304 61.5078C182.325 61.509 182.353 61.5112 182.387 61.5145C182.453 61.521 182.547 61.5329 182.649 61.5542C182.747 61.5748 182.874 61.6082 182.997 61.6648ZM182.324 61.5109C182.325 61.5111 182.328 61.5115 182.332 61.512L182.324 61.5109Z" fill="#CDB4DB"/>
<path fill-rule="evenodd" clip-rule="evenodd" d="M194.646 63.3927C194.637 63.3771 194.627 63.3618 194.617 63.3468C194.437 63.0903 194.085 63.0299 193.831 63.2119C193.826 63.2151 193.811 63.225 193.757 63.2476C193.751 63.2505 193.741 63.2543 193.73 63.2588C193.684 63.2781 193.603 63.3111 193.537 63.3452C193.443 63.3936 193.32 63.4699 193.212 63.5966C193.1 63.7287 193.028 63.8868 192.995 64.0636C192.892 64.6144 193.194 65.2699 193.88 65.3625C194.207 65.4068 194.53 65.3567 194.791 65.1758C195.057 64.9913 195.205 64.705 195.22 64.4041C195.241 63.975 195.009 63.6062 194.646 63.3927Z" fill="#CDB4DB"/>
<path fill-rule="evenodd" clip-rule="evenodd" d="M181.325 70.562C181.634 70.6037 181.85 70.8902 181.809 71.2019C181.74 71.727 181.858 72.28 182.045 72.9048C182.244 73.5705 182.539 74.3993 182.956 75.1271C183.378 75.8652 183.885 76.4256 184.474 76.6653C185.02 76.8876 185.651 76.866 186.316 76.68C186.98 76.4944 187.632 76.1574 188.182 75.8137C188.524 75.6002 188.973 75.2772 189.343 74.9108C189.733 74.5252 189.948 74.1779 189.982 73.9211C190.023 73.6094 190.307 73.3905 190.616 73.4321C190.924 73.4738 191.141 73.7603 191.1 74.072C191.013 74.7249 190.561 75.3007 190.132 75.7247C189.684 76.1678 189.162 76.5406 188.776 76.7822C188.177 77.1563 187.423 77.5523 186.617 77.7777C185.812 78.0027 184.909 78.07 184.053 77.7217C183.122 77.343 182.454 76.5249 181.98 75.6974C181.5 74.8597 181.176 73.9358 180.966 73.2346C180.772 72.5873 180.588 71.8339 180.691 71.051C180.733 70.7393 181.016 70.5203 181.325 70.562Z" fill="#CDB4DB"/>
</svg>
