<svg width="104" height="133" viewBox="0 0 104 133" fill="none" xmlns="http://www.w3.org/2000/svg">
<path d="M82.1264 61.2425C63.2775 69.0505 56.9472 82.843 49.1408 101.692C41.3328 82.843 35.0042 69.0489 16.1553 61.2425C35.0042 53.4344 41.3344 38.4268 49.1408 19.5779C56.9489 38.4268 63.2775 53.4344 82.1264 61.2425Z" fill="#FFD00D"/>
<path d="M103.244 21.1518C94.0181 24.9735 90.919 31.7246 87.0973 40.9517C83.2757 31.7262 80.1783 24.9735 70.9512 21.1518C80.1766 17.3302 83.2757 9.98375 87.0973 0.758301C90.919 9.98375 94.0164 17.3302 103.244 21.1518Z" fill="#FFD00D"/>
<path d="M33.0492 111.475C23.8237 115.297 20.7247 122.048 16.903 131.275C13.0814 122.049 9.98392 115.297 0.756836 111.475C9.98229 107.653 13.0814 100.307 16.903 91.0815C20.7247 100.307 23.8237 107.653 33.0492 111.475Z" fill="#FFD00D"/>
<path d="M86.6769 94.2705C82.7867 95.882 81.4802 98.7283 79.8687 102.618C78.2572 98.7283 76.9507 95.882 73.0605 94.2705C76.9507 92.659 78.2572 89.5615 79.8687 85.6714C81.4819 89.5615 82.7884 92.659 86.6769 94.2705Z" fill="#FFD00D"/>
<path d="M17.0001 27.332C13.11 28.9436 11.8035 31.7898 10.192 35.68C8.58044 31.7898 7.27394 28.9436 3.38379 27.332C7.27394 25.7205 8.58044 22.6231 10.192 18.7329C11.8051 22.6231 13.11 25.7205 17.0001 27.332Z" fill="#FFD00D"/>
<path d="M49.1415 102.45C48.8348 102.45 48.5592 102.266 48.4417 101.982C40.1835 82.0437 33.8696 69.3995 15.8656 61.9421C15.5818 61.8247 15.3975 61.549 15.3975 61.2424C15.3975 60.9357 15.5818 60.6601 15.8656 60.5426C34.5611 52.7998 40.6859 38.0108 48.4417 19.2875C48.5592 19.0036 48.8348 18.8193 49.1415 18.8193C49.4481 18.8193 49.7238 19.0036 49.8412 19.2875C57.5971 38.0108 63.7218 52.7982 82.4174 60.5426C82.7012 60.6601 82.8855 60.9357 82.8855 61.2424C82.8855 61.549 82.7012 61.8247 82.4174 61.9421C64.4134 69.3995 58.0994 82.0437 49.8412 101.982C49.7238 102.266 49.4481 102.45 49.1415 102.45ZM18.0659 61.2407C34.8776 68.7715 41.3106 80.9786 49.1415 99.7198C56.9723 80.9802 63.407 68.7731 80.217 61.2407C62.7627 53.3169 56.2204 38.6126 49.1415 21.5579C42.0625 38.611 35.5202 53.3153 18.0659 61.2407Z" fill="#662D91"/>
<path d="M87.0973 41.7086C86.7907 41.7086 86.515 41.5243 86.3976 41.2405C82.3933 31.5747 79.3366 25.445 70.6625 21.8517C70.3786 21.7343 70.1943 21.4586 70.1943 21.152C70.1943 20.8454 70.3786 20.5697 70.6625 20.4523C79.6644 16.7236 82.6363 9.55004 86.3976 0.468122C86.515 0.184313 86.7907 0 87.0973 0C87.404 0 87.6796 0.184313 87.7971 0.468122C91.5584 9.55004 94.5302 16.7236 103.532 20.4523C103.816 20.5697 104 20.8454 104 21.152C104 21.4586 103.816 21.7343 103.532 21.8517C94.8581 25.445 91.8014 31.573 87.7971 41.2405C87.6796 41.5243 87.404 41.7086 87.0973 41.7086ZM72.7976 21.1487C80.3479 24.7926 83.4991 30.4802 87.0973 38.9863C90.6955 30.4802 93.8468 24.7926 101.397 21.1487C93.563 17.2798 90.3611 10.5483 87.0973 2.73534C83.8335 10.5483 80.6317 17.2782 72.7976 21.1487Z" fill="#662D91"/>
<path d="M16.903 132.032C16.5964 132.032 16.3207 131.848 16.2033 131.564C12.1989 121.896 9.14226 115.768 0.468122 112.175C0.184312 112.058 0 111.782 0 111.475C0 111.169 0.184312 110.893 0.468122 110.775C9.47011 107.047 12.442 99.8733 16.2033 90.7914C16.3207 90.5076 16.5964 90.3232 16.903 90.3232C17.2096 90.3232 17.4853 90.5076 17.6027 90.7914C21.364 99.8733 24.3359 107.047 33.3379 110.775C33.6217 110.893 33.806 111.169 33.806 111.475C33.806 111.782 33.6217 112.058 33.3379 112.175C24.6637 115.767 21.6071 121.896 17.6027 131.564C17.4869 131.846 17.2096 132.032 16.903 132.032ZM2.60322 111.47C10.1535 115.114 13.3048 120.802 16.903 129.308C20.5012 120.802 23.6525 115.113 31.2028 111.47C23.3686 107.601 20.1668 100.87 16.903 93.057C13.6392 100.87 10.4374 107.601 2.60322 111.47Z" fill="#662D91"/>
<path d="M79.8716 103.377C79.565 103.377 79.2893 103.193 79.1719 102.909C77.5327 98.9517 76.3469 96.4512 72.7748 94.9702C72.491 94.8528 72.3066 94.5771 72.3066 94.2705C72.3066 93.9638 72.491 93.6882 72.7748 93.5707C76.4023 92.0685 77.624 89.1179 79.1719 85.3827C79.2893 85.0988 79.565 84.9146 79.8716 84.9146C80.1783 84.9146 80.4539 85.0988 80.5714 85.3827C82.1193 89.1179 83.341 92.0685 86.9685 93.5707C87.2523 93.6882 87.4366 93.9638 87.4366 94.2705C87.4366 94.5771 87.2523 94.8528 86.9685 94.9702C83.3964 96.4496 82.2106 98.9501 80.5714 102.909C80.4539 103.191 80.1783 103.377 79.8716 103.377ZM74.7663 94.2672C77.4429 95.8282 78.7592 98.1394 79.8716 100.671C80.984 98.1394 82.3003 95.8282 84.9769 94.2672C82.359 92.7128 81.0558 90.3559 79.8716 87.627C78.6875 90.3542 77.3842 92.7111 74.7663 94.2672Z" fill="#662D91"/>
<path d="M10.1949 36.4385C9.88824 36.4385 9.61259 36.2542 9.49515 35.9704C7.8559 32.0133 6.67009 29.5129 3.09801 28.0335C2.8142 27.916 2.62988 27.6404 2.62988 27.3337C2.62988 27.0271 2.8142 26.7514 3.09801 26.634C6.72555 25.1318 7.94724 22.1811 9.49515 18.4459C9.61259 18.1621 9.88824 17.9778 10.1949 17.9778C10.5015 17.9778 10.7772 18.1621 10.8946 18.4459C12.4425 22.1811 13.6642 25.1318 17.2918 26.634C17.5756 26.7514 17.7599 27.0271 17.7599 27.3337C17.7599 27.6404 17.5756 27.916 17.2918 28.0335C13.7197 29.5129 12.5339 32.0133 10.8946 35.9704C10.7772 36.2525 10.5015 36.4385 10.1949 36.4385ZM5.08957 27.3288C7.76619 28.8898 9.08248 31.2011 10.1949 33.7325C11.3073 31.2011 12.6236 28.8898 15.3002 27.3288C12.6823 25.7744 11.3791 23.4175 10.1949 20.6887C9.01071 23.4175 7.70747 25.7744 5.08957 27.3288Z" fill="#662D91"/>
</svg>
