<svg width="337" height="88" viewBox="0 0 337 88" fill="none" xmlns="http://www.w3.org/2000/svg">
<path d="M189.248 57.1485C190.744 56.6579 193.204 55.8288 196.242 54.7546C199.289 53.638 202.933 52.31 206.815 50.8889C214.599 47.9875 223.566 44.8915 230.844 43.0305C239.224 40.8228 248.063 39.4186 257.03 39.6639L258.71 39.7147C259.27 39.7316 259.83 39.8077 260.38 39.85L263.721 40.163C264.841 40.2306 265.933 40.4845 267.035 40.6621L270.33 41.2457L273.56 42.0662C274.625 42.3623 275.727 42.5738 276.764 42.9629L279.903 44.0203C280.417 44.2064 280.958 44.3586 281.463 44.5701L282.978 45.2045C291.11 48.5035 298.526 53.0121 305.217 58.1889C311.889 63.3996 317.828 69.2785 323.179 75.5212C324.886 77.4498 327.052 80.1566 328.585 82.4744C330.062 84.8344 330.925 86.78 330.017 87.2537C328.071 88.2518 323.803 84.3015 318.076 77.822C311.109 69.9975 303.252 62.7652 294.267 56.9962C293.175 56.2349 292 55.6005 290.843 54.9238C289.687 54.264 288.549 53.5619 287.328 52.9951C286.126 52.403 284.942 51.794 283.73 51.2273L280.013 49.6877C275.001 47.8013 269.797 46.3549 264.483 45.6951C256.718 44.6377 248.816 45.1707 241.069 46.5579C233.304 47.9621 225.705 50.3137 218.169 52.919C210.634 55.5413 203.153 58.5019 195.462 61.1749C187.77 63.8226 179.886 66.2756 171.653 67.7559C167.963 68.4072 164.21 68.9232 160.419 69.1177C156.628 69.3038 152.801 69.2447 148.992 68.864C145.137 68.4242 141.346 67.5867 137.702 66.4109C134.077 65.1759 130.598 63.5857 127.322 61.6824C124.073 59.7454 121.062 57.4361 118.364 54.8223C115.665 52.2085 113.435 49.1548 111.7 45.8642C111.305 45.0184 110.837 44.2063 110.516 43.335L109.589 40.7043C109.158 38.9026 108.671 37.0924 108.598 35.2399C108.194 31.5434 108.745 27.8552 109.653 24.3871C110.534 21.1135 111.783 18.0007 113.178 15.0062C113.894 13.509 114.555 12.071 115.491 10.4807C116.399 8.94966 117.427 7.48624 118.657 6.1159C119.878 4.74556 121.264 3.4429 122.962 2.32633C124.642 1.22667 126.716 0.253941 129.194 0.0424685C130.415 -0.075956 131.7 0.0593987 132.902 0.372378C133.508 0.516179 134.049 0.778397 134.609 0.998328C135.169 1.22672 135.656 1.57346 136.179 1.87798C136.693 2.1825 137.124 2.63927 137.583 3.02838C138.024 3.44287 138.363 3.94195 138.74 4.41565C139.061 4.90627 139.318 5.43077 139.584 5.94676C139.768 6.46275 139.96 6.99565 140.107 7.5201C140.612 9.61791 140.483 11.6058 140.135 13.4413C139.768 15.2769 139.143 16.9941 138.363 18.6351C137.583 20.2592 136.619 21.8495 135.5 23.2875C134.417 24.5986 133.389 25.9521 132.26 27.2209C127.762 32.3385 122.558 36.9232 116.831 40.8482C106.955 47.6322 95.5279 52.4538 83.5317 54.9238C71.5264 57.4192 58.9613 57.3515 47.0202 55.0338C41.3939 53.9764 34.6111 52.4453 28.8195 50.0684C28.2229 49.8231 27.5713 49.5608 26.8829 49.2817C26.1945 49.0025 25.5062 48.6557 24.7719 48.3173C24.0468 47.979 23.2942 47.6237 22.5232 47.2685C21.7614 46.9047 21.0179 46.4818 20.2653 46.0842C19.5127 45.6782 18.7601 45.2722 18.0258 44.8746C17.3099 44.4432 16.6123 44.0118 15.9331 43.5973C15.2539 43.1744 14.6023 42.7768 13.9873 42.3876C13.3999 41.9732 12.84 41.5756 12.326 41.2118C11.4541 40.569 10.5363 39.9515 9.66431 39.2748C8.80154 38.5981 7.9296 37.9383 7.05766 37.3292C6.03886 36.6525 5.2128 35.9166 4.44182 35.2906C3.68002 34.6477 2.99164 34.0895 2.44094 33.5481C1.35789 32.4485 0.632803 31.5856 0.274847 30.9512C-0.450243 29.6824 0.274847 29.3356 2.26655 29.6571C3.1385 29.7924 3.06507 28.828 4.93745 30.1138C5.01088 30.1645 5.16691 30.2745 5.24034 30.3168C6.71806 31.2219 8.20495 32.1101 9.5817 33.1167C11.0411 34.0303 12.3995 35.0453 13.8221 36.0181C16.6674 37.9382 19.5219 39.9261 22.67 41.5164C37.952 49.4846 55.9783 53.0882 73.3713 51.1258C90.7643 49.1464 107.395 41.8463 120.153 30.799C124.063 27.4154 127.643 23.6681 130.745 19.6671C132.14 17.823 133.242 15.6914 133.884 13.5513C134.187 12.4855 134.38 11.4112 134.417 10.3961C134.417 9.398 134.251 8.47597 133.903 7.74004C133.554 7.00412 133.049 6.45429 132.278 6.04826C131.516 5.63378 130.709 5.40541 129.901 5.43078C128.249 5.51537 126.229 6.58118 124.568 8.17146C122.87 9.71943 121.429 11.6818 120.3 13.7204L119.887 14.4987L119.465 15.3531L118.648 17.0618C118.116 18.2037 117.629 19.3456 117.17 20.4876C115.197 25.5206 114.224 30.6806 114.729 35.6798L114.72 35.5951C115.105 38.2005 115.849 40.772 117.161 43.1405C117.703 44.367 118.566 45.4667 119.272 46.6256L120.566 48.2497C120.787 48.5204 120.989 48.7995 121.218 49.0617L123.32 51.2695L124.834 52.6061L125.596 53.2827L126.422 53.9002L128.065 55.1353C130.378 56.6494 132.774 58.1043 135.389 59.2039C137.95 60.3966 140.685 61.251 143.439 61.9785C144.834 62.2492 146.211 62.6382 147.633 62.7905L149.744 63.0865L152.994 63.3404L154.086 63.3658L156.261 63.4249C157.72 63.3657 159.171 63.3996 160.621 63.2727L162.796 63.1204L164.962 62.8835C166.403 62.7482 167.844 62.486 169.276 62.283C175.003 61.3356 180.593 59.8806 186.036 58.2481C186.88 58.0112 188 57.5461 189.248 57.1485Z" fill="#CBAACB" fill-opacity="0.7"/>
<path d="M330.305 72.2138C330.433 71.6523 330.906 69.665 331.058 68.3647C331.435 65.3651 331.628 62.3729 332.165 59.3438C332.245 58.871 332.237 58.0657 334.048 58.0214C335.932 57.9771 337.047 58.5238 336.999 59.4104C336.854 61.5603 336.333 63.6733 336.461 65.801C336.654 68.9409 335.876 72.0069 335.235 75.0508C334.93 76.4249 334.57 77.777 334.137 79.1216C333.928 79.7939 333.696 80.4589 333.479 81.1312C333.231 81.8109 333.046 82.424 332.758 83.185C332.501 83.8573 332.189 84.5888 331.652 85.3719C331.379 85.7635 331.042 86.1624 330.609 86.5318C330.185 86.9012 329.639 87.2485 329.07 87.4923C327.756 88.0464 326.401 88.0611 325.399 87.9355C324.357 87.8099 323.555 87.5735 322.85 87.3593C320.429 86.6057 318.272 85.2907 316.14 84.0864C315.635 83.8057 314.849 83.7613 314.304 83.4363C313.847 83.1703 313.094 82.7269 312.725 82.3428C312.564 82.1728 312.42 81.9882 312.196 81.9291C311.162 81.6336 311.322 80.9982 312.773 79.6018C313.094 79.2915 313.358 78.7965 313.727 78.6783C313.743 78.6709 313.775 78.6635 313.791 78.6561C315.058 78.0577 315.314 78.8409 315.931 79.1586C318.938 80.6953 322.136 81.9956 325.391 82.86C326.321 83.1186 326.97 83.1111 327.074 83.0225C327.162 82.9781 327.243 82.919 327.387 82.7269C327.523 82.5349 327.659 82.2467 327.772 81.8773C327.9 81.471 327.812 80.9465 328.156 80.4589L328.148 80.4663C328.285 79.9048 328.373 79.3285 328.549 78.7892C329.263 76.7353 329.704 74.5189 330.313 72.5241C330.337 72.4576 330.281 72.332 330.305 72.2138Z" fill="#CBAACB" fill-opacity="0.7"/>
</svg>
