<svg width="552" height="117" viewBox="0 0 552 117" fill="none" xmlns="http://www.w3.org/2000/svg">
<path d="M42.1156 36.4836C32.1298 41.1351 28.7762 49.3516 24.6405 60.5804C20.504 49.3516 17.1512 41.1341 7.16553 36.4836C17.1512 31.8322 20.5049 22.8917 24.6405 11.663C28.7771 22.8917 32.1298 31.8322 42.1156 36.4836Z" fill="#FFD00D"/>
<path d="M53.3036 12.6007C48.4161 14.8774 46.7743 18.8992 44.7497 24.396C42.7251 18.9002 41.0841 14.8774 36.1958 12.6007C41.0832 10.3241 42.7251 5.94762 44.7497 0.451782C46.7743 5.94762 48.4153 10.3241 53.3036 12.6007Z" fill="#FFD00D"/>
<path d="M7.61452 16.2821C5.5536 17.2422 4.86144 18.9377 4.0077 21.2552C3.15395 18.9377 2.4618 17.2422 0.400879 16.2821C2.4618 15.3221 3.15395 13.4769 4.0077 11.1594C4.86231 13.4769 5.5536 15.3221 7.61452 16.2821Z" fill="#FFD00D"/>
<path d="M551.107 105.149C546.22 107.426 544.578 111.448 542.553 116.944C540.529 111.448 538.888 107.426 534 105.149C538.887 102.872 540.529 98.496 542.553 93.0001C544.578 98.496 546.219 102.872 551.107 105.149Z" fill="#FFD00D"/>
<path d="M542.954 116.847C542.792 116.847 542.646 116.737 542.584 116.568C540.462 110.81 538.843 107.158 534.248 105.018C534.097 104.948 534 104.784 534 104.601C534 104.418 534.097 104.254 534.248 104.184C539.017 101.963 540.591 97.6893 542.584 92.279C542.646 92.1099 542.792 92.0001 542.954 92.0001C543.117 92.0001 543.263 92.1099 543.325 92.279C545.318 97.6893 546.892 101.963 551.661 104.184C551.812 104.254 551.909 104.418 551.909 104.601C551.909 104.784 551.812 104.948 551.661 105.018C547.066 107.158 545.446 110.809 543.325 116.568C543.263 116.737 543.117 116.847 542.954 116.847ZM535.379 104.599C539.379 106.77 541.048 110.158 542.954 115.225C544.861 110.158 546.53 106.77 550.53 104.599C546.38 102.294 544.683 98.284 542.954 93.6296C541.225 98.284 539.529 102.293 535.379 104.599Z" fill="#662D91"/>
<path d="M24.642 61.0324C24.4795 61.0324 24.3335 60.9226 24.2713 60.7535C19.8962 48.8757 16.5512 41.3432 7.01314 36.9006C6.86278 36.8307 6.76514 36.6665 6.76514 36.4838C6.76514 36.3011 6.86278 36.1369 7.01314 36.0669C16.9176 31.4544 20.1624 22.6441 24.2713 11.4902C24.3335 11.3211 24.4795 11.2113 24.642 11.2113C24.8044 11.2113 24.9505 11.3211 25.0127 11.4902C29.1215 22.6441 32.3663 31.4534 42.2708 36.0669C42.4211 36.1369 42.5188 36.3011 42.5188 36.4838C42.5188 36.6665 42.4211 36.8307 42.2708 36.9006C32.7327 41.3432 29.3877 48.8757 25.0127 60.7535C24.9505 60.9226 24.8044 61.0324 24.642 61.0324ZM8.17883 36.4828C17.0853 40.9691 20.4933 48.2412 24.642 59.4058C28.7906 48.2421 32.1995 40.9701 41.1051 36.4828C31.8582 31.7624 28.3922 23.0027 24.642 12.8428C20.8917 23.0017 17.4257 31.7614 8.17883 36.4828Z" fill="#662D91"/>
<path d="M44.7483 24.8469C44.5858 24.8469 44.4398 24.7371 44.3776 24.568C42.2562 18.8098 40.6368 15.1582 36.0415 13.0176C35.8911 12.9477 35.7935 12.7835 35.7935 12.6008C35.7935 12.4181 35.8911 12.2539 36.0415 12.1839C40.8105 9.96266 42.3849 5.6892 44.3776 0.278872C44.4398 0.1098 44.5858 0 44.7483 0C44.9107 0 45.0568 0.1098 45.119 0.278872C47.1116 5.6892 48.6861 9.96266 53.4551 12.1839C53.6055 12.2539 53.7031 12.4181 53.7031 12.6008C53.7031 12.7835 53.6055 12.9477 53.4551 13.0176C48.8598 15.1582 47.2404 18.8089 45.119 24.568C45.0568 24.7371 44.9107 24.8469 44.7483 24.8469ZM37.1726 12.5988C41.1726 14.7696 42.842 18.1578 44.7483 23.2252C46.6545 18.1578 48.324 14.7696 52.324 12.5988C48.1736 10.294 46.4774 6.28387 44.7483 1.62951C43.0192 6.28387 41.3229 10.293 37.1726 12.5988Z" fill="#662D91"/>
<path d="M4.00777 21.7076C3.84532 21.7076 3.69928 21.5978 3.63707 21.4287C2.76863 19.0714 2.14041 17.5818 0.248001 16.7005C0.0976447 16.6305 0 16.4663 0 16.2837C0 16.101 0.0976447 15.9368 0.248001 15.8668C2.16979 14.9719 2.81702 13.2141 3.63707 10.989C3.69928 10.8199 3.84532 10.7101 4.00777 10.7101C4.17022 10.7101 4.31626 10.8199 4.37848 10.989C5.19853 13.2141 5.84575 14.9719 7.76754 15.8668C7.9179 15.9368 8.01554 16.101 8.01554 16.2837C8.01554 16.4663 7.9179 16.6305 7.76754 16.7005C5.87513 17.5818 5.24692 19.0714 4.37848 21.4287C4.31626 21.5968 4.17022 21.7076 4.00777 21.7076ZM1.30309 16.2807C2.7211 17.2106 3.41844 18.5875 4.00777 20.0956C4.5971 18.5875 5.29444 17.2106 6.71245 16.2807C5.32555 15.3547 4.63512 13.9506 4.00777 12.325C3.38042 13.9506 2.68999 15.3547 1.30309 16.2807Z" fill="#662D91"/>
</svg>
