<svg width="20" height="20" viewBox="0 0 20 20" fill="none" xmlns="http://www.w3.org/2000/svg">
<rect x="0.5" y="0.5" width="19" height="19" fill="white"/>
<g clip-path="url(#clip0_3779_7045)">
<path d="M17.6515 4.45195C17.1874 3.98723 16.4337 3.98752 15.969 4.45195L8.3968 12.0244L5.03129 8.65895C4.56656 8.19423 3.81326 8.19423 3.34854 8.65895C2.88382 9.12367 2.88382 9.87698 3.34854 10.3417L7.55526 14.5484C7.78747 14.7806 8.09196 14.897 8.39648 14.897C8.701 14.897 9.00579 14.7809 9.238 14.5484L17.6515 6.13466C18.1162 5.67026 18.1162 4.91664 17.6515 4.45195Z" fill="#9960C3"/>
</g>
<rect x="0.5" y="0.5" width="19" height="19" stroke="#9960C3"/>
<defs>
<clipPath id="clip0_3779_7045">
<rect width="15" height="15" fill="white" transform="translate(3 2)"/>
</clipPath>
</defs>
</svg>
