<svg width="336" height="314" viewBox="0 0 336 314" fill="none" xmlns="http://www.w3.org/2000/svg">
<path fill-rule="evenodd" clip-rule="evenodd" d="M131.017 64.4941C131.712 63.8863 132.761 63.9644 133.36 64.6685C135.123 66.739 136.98 68.7635 138.868 70.8219C138.986 70.9513 139.105 71.0808 139.224 71.2104C141.226 73.3942 143.256 75.6184 145.186 77.9292C145.584 78.4061 146.185 78.976 146.925 79.6794C147.03 79.7789 147.138 79.8812 147.248 79.9862C148.082 80.7801 149.04 81.7108 149.766 82.652C150.427 83.5092 151.234 84.7904 151.068 86.2232C150.872 87.9069 149.518 88.8709 147.984 89.3993C144.421 90.6269 141.048 92.4132 137.574 94.2525C137.033 94.5394 136.488 94.8276 135.941 95.1151C135.84 95.1678 135.624 95.3175 135.243 95.6177C135.122 95.7132 134.968 95.837 134.801 95.9709C134.553 96.1699 134.278 96.3911 134.043 96.5736C133.615 96.9064 133.126 97.2663 132.639 97.5482C132.206 97.7988 131.531 98.137 130.785 98.1396C130.07 98.1422 129.646 97.7061 129.515 97.5525C129.361 97.3724 129.281 97.2006 129.249 97.1304C129.18 96.9751 129.145 96.8367 129.132 96.7823C129.1 96.6486 129.077 96.5072 129.062 96.3964C129.028 96.1578 128.994 95.8373 128.96 95.4665C128.892 94.7159 128.814 93.6567 128.731 92.4009C128.565 89.8847 128.375 86.5273 128.192 83.1527C128.045 80.4319 127.902 77.6948 127.781 75.3722C127.752 74.8129 127.724 74.2777 127.698 73.7725C127.63 72.47 127.571 71.3686 127.527 70.5685C127.505 70.1681 127.487 69.8464 127.472 69.6139C127.462 69.4556 127.456 69.3634 127.453 69.3188C127.45 69.2876 127.45 69.2796 127.451 69.2884C127.332 68.3662 127.973 67.5207 128.883 67.4C129.792 67.2793 130.626 67.9291 130.745 68.8514C130.782 69.1352 130.883 71.0627 131.016 73.5943C131.042 74.1003 131.07 74.6361 131.099 75.1956C131.22 77.5182 131.362 80.251 131.51 82.968C131.692 86.3409 131.882 89.6813 132.047 92.176C132.086 92.7691 132.123 93.3115 132.159 93.7933C132.343 93.6482 132.509 93.5148 132.678 93.3789C132.843 93.2456 133.012 93.1097 133.204 92.9579C133.561 92.6769 134.004 92.3389 134.413 92.124C134.941 91.8467 135.473 91.5646 136.01 91.2804C139.466 89.4485 143.089 87.5281 146.915 86.2101C147.451 86.0253 147.674 85.8668 147.759 85.784C147.732 85.6701 147.62 85.338 147.149 84.7272C146.601 84.0176 145.824 83.2513 144.973 82.4413C144.871 82.3438 144.766 82.2449 144.661 82.1449C143.948 81.4686 143.184 80.7449 142.651 80.106C140.776 77.8622 138.796 75.691 136.79 73.5036C136.668 73.3705 136.546 73.2373 136.424 73.104C134.546 71.0562 132.65 68.9888 130.845 66.8694C130.246 66.1653 130.323 65.1018 131.017 64.4941ZM147.804 85.7226C147.806 85.7233 147.802 85.7354 147.784 85.7571C147.793 85.7328 147.802 85.7219 147.804 85.7226Z" fill="#E8E5FF"/>
<path fill-rule="evenodd" clip-rule="evenodd" d="M243.431 106.88C243.003 106.088 242.029 105.777 241.227 106.186C240.408 106.605 240.078 107.618 240.491 108.448C241.28 110.033 242.325 110.871 243.457 111.657C243.554 114.377 243.702 117.092 243.857 119.792C243.889 120.331 243.92 120.869 243.951 121.407C244.158 124.972 244.364 128.51 244.474 132.045C244.553 134.588 244.443 137.146 244.3 139.759C244.274 140.225 244.248 140.692 244.221 141.162C244.099 143.311 243.974 145.502 243.942 147.689C243.939 147.902 243.908 148.181 243.863 148.587C243.851 148.69 243.839 148.801 243.826 148.921C243.77 149.437 243.705 150.107 243.736 150.726C243.762 151.23 243.865 152.271 244.66 152.973C245.639 153.837 246.837 153.565 247.606 153.223C255.187 149.856 262.805 146.414 270.264 142.938C271.592 142.319 272.939 141.746 274.316 141.161C274.478 141.092 274.64 141.024 274.802 140.954C276.339 140.301 277.907 139.626 279.455 138.87C279.639 138.78 279.811 138.695 279.975 138.613C280.776 138.215 281.372 137.92 282.015 137.785C282.022 137.785 282.029 137.784 282.037 137.784C282.043 137.784 282.052 137.784 282.062 137.784C282.126 137.782 282.265 137.779 282.387 137.769C282.389 137.768 282.393 137.768 282.396 137.768C282.495 137.76 282.877 137.728 283.252 137.516C283.484 137.385 283.842 137.111 284.035 136.609C284.234 136.093 284.147 135.622 284.035 135.325C283.625 134.236 282.688 133.307 281.982 132.674C281.595 132.327 281.198 132.003 280.852 131.723C280.781 131.666 280.713 131.611 280.648 131.559C280.382 131.345 280.166 131.171 279.989 131.018C274.456 126.232 268.704 121.841 262.378 118.027C261.731 117.637 261.077 117.238 260.417 116.836C257.068 114.793 253.548 112.645 249.874 111.015C249.43 110.818 248.902 110.606 248.407 110.408C248.085 110.279 247.777 110.155 247.516 110.045C247.236 109.927 246.97 109.81 246.719 109.69C246.699 108.918 246.684 108.146 246.674 107.375C246.663 106.445 245.91 105.7 244.992 105.712C244.26 105.721 243.644 106.21 243.431 106.88ZM246.852 113.407C247.008 113.47 247.158 113.53 247.304 113.588C247.724 113.756 248.113 113.911 248.542 114.101C252 115.635 255.303 117.649 258.652 119.691C259.325 120.101 260.001 120.513 260.679 120.922C266.803 124.613 272.4 128.882 277.832 133.58C278.058 133.776 278.335 133.998 278.604 134.215C278.664 134.263 278.724 134.311 278.783 134.359C279.066 134.587 279.351 134.82 279.624 135.058C279.18 135.251 278.77 135.457 278.411 135.637C278.271 135.708 278.138 135.775 278.014 135.835C276.551 136.549 275.053 137.195 273.517 137.849C273.355 137.917 273.193 137.986 273.03 138.055C271.66 138.638 270.259 139.233 268.876 139.877C261.705 143.219 254.382 146.532 247.081 149.779C247.094 149.627 247.11 149.463 247.129 149.288C247.137 149.212 247.146 149.131 247.156 149.046C247.203 148.631 247.259 148.134 247.264 147.739C247.295 145.631 247.415 143.527 247.537 141.382C247.564 140.905 247.591 140.427 247.617 139.946C247.761 137.32 247.879 134.638 247.795 131.939C247.684 128.354 247.475 124.766 247.268 121.204C247.236 120.668 247.205 120.131 247.174 119.596C247.055 117.526 246.942 115.464 246.852 113.407Z" fill="#E8E5FF"/>
<path fill-rule="evenodd" clip-rule="evenodd" d="M184.057 57.4228C185.01 57.8427 185.775 58.7191 186.444 59.767C188.929 63.6611 193.909 67.1533 198.211 69.4635C198.913 69.8403 199.608 70.3472 200.01 71.0776C200.489 71.9474 200.416 72.8715 200.01 73.6218C199.664 74.2627 199.107 74.7325 198.623 75.0665C198.112 75.4195 197.517 75.7309 196.92 76.0034C195.723 76.5488 194.336 77.0168 193.175 77.3826C192.659 77.5452 192.209 77.6816 191.829 77.7967C191.292 77.9595 190.896 78.0795 190.654 78.1704C190.039 78.4006 189.418 78.6585 188.76 78.9316L188.735 78.9423C188.077 79.2154 187.384 79.5029 186.678 79.7656C185.27 80.2902 183.721 80.7521 182.068 80.8486C180.669 80.9303 180.095 79.7056 179.956 79.3548C179.757 78.8576 179.668 78.2891 179.618 77.8554C179.565 77.3921 179.54 76.9213 179.522 76.5663C179.504 76.1929 179.495 76.0463 179.493 76.0094C179.493 76.0023 179.493 75.9993 179.493 75.9995C179.321 75.03 179.192 73.8469 179.065 72.6866C178.992 72.0091 178.919 71.3393 178.839 70.7244C178.602 68.9083 178.287 67.3678 177.751 66.291C177.338 65.4604 177.668 64.4477 178.487 64.0289C178.652 63.9446 178.824 63.8908 178.997 63.8655C178.823 63.8086 178.656 63.7215 178.502 63.603C177.771 63.0403 177.629 61.9838 178.184 61.2431C178.386 60.9727 178.586 60.6873 178.797 60.3835C178.819 60.3518 178.841 60.3198 178.864 60.2876C179.05 60.0194 179.247 59.7347 179.444 59.4652C179.862 58.8945 180.413 58.1988 181.099 57.7337C181.885 57.2011 182.931 56.9262 184.057 57.4228ZM179.742 63.929C180.151 64.0621 180.509 64.3549 180.718 64.7746C181.528 66.4023 181.893 68.4427 182.133 70.283C182.236 71.0779 182.316 71.8204 182.391 72.5193C182.504 73.5688 182.606 74.5201 182.763 75.4032C182.794 75.5809 182.808 75.7793 182.815 75.9059C182.823 76.0242 182.829 76.1622 182.836 76.2984C182.838 76.332 182.839 76.3656 182.841 76.3987C182.856 76.7178 182.875 77.0503 182.907 77.3619C183.756 77.2106 184.622 76.9429 185.532 76.6039C186.172 76.3658 186.81 76.1015 187.475 75.8253L187.524 75.8048C188.165 75.5389 188.832 75.2617 189.502 75.0108C189.834 74.8865 190.413 74.7103 191.063 74.5126C191.427 74.402 191.812 74.2847 192.189 74.166C193.325 73.8082 194.553 73.3891 195.557 72.9313C195.965 72.7454 196.307 72.5659 196.577 72.3976C192.165 70.0188 186.601 66.2128 183.654 61.597C183.388 61.1803 183.168 60.9057 182.997 60.7306C182.943 60.6756 182.897 60.6332 182.859 60.6008C182.691 60.7423 182.452 61.0097 182.112 61.4731C181.942 61.7056 181.77 61.9533 181.58 62.2272C181.558 62.2585 181.536 62.2902 181.514 62.3223C181.303 62.6259 181.072 62.9564 180.829 63.2806C180.554 63.6479 180.159 63.8685 179.742 63.929Z" fill="#E8E5FF"/>
<path fill-rule="evenodd" clip-rule="evenodd" d="M218.144 8.59111C218.801 8.27171 219.441 8.3891 219.852 8.53893C220.366 8.72584 220.929 8.87361 221.567 9.02905C221.676 9.05541 221.787 9.0822 221.901 9.10954C222.429 9.23664 223.007 9.37588 223.563 9.54144C226.259 10.3448 227.494 11.4634 228.867 12.7065C229.14 12.9538 229.418 13.2061 229.715 13.4617C230.805 14.4019 231.953 15.2839 233.147 16.2022C233.61 16.558 234.08 16.9191 234.556 17.2912C236.227 18.596 237.931 20.0017 239.418 21.6231C241.999 24.4359 244.197 27.5015 246.307 30.518C246.548 30.863 246.788 31.2072 247.028 31.5504C248.899 34.2324 250.725 36.8506 252.772 39.3156C253.005 39.5961 253.268 39.9167 253.473 40.227C253.648 40.4918 253.967 41.0133 253.994 41.6703C254.01 42.0478 253.929 42.4482 253.715 42.8199C253.509 43.1755 253.232 43.4172 252.983 43.5789C252.525 43.8762 251.981 44.0176 251.515 44.1054C249.405 44.5037 247.283 45.4713 245.065 46.6595C244.36 47.0376 243.628 47.4477 242.885 47.8643C241.389 48.7034 239.846 49.5689 238.37 50.2521C237.356 50.7214 236.358 51.1588 235.379 51.5882C232.586 52.8128 229.943 53.972 227.5 55.6162C227.501 55.6158 227.498 55.6175 227.492 55.6219L227.467 55.6403C227.445 55.6569 227.417 55.6784 227.381 55.7065C227.333 55.7441 227.287 55.7814 227.232 55.8251C227.197 55.8531 227.159 55.8839 227.114 55.9191C226.909 56.0822 226.634 56.2973 226.335 56.4957C226.046 56.687 225.658 56.9146 225.221 57.0562C224.795 57.1939 224.111 57.3174 223.399 56.9939C222.645 56.6517 222.26 56.0115 222.066 55.5483C221.869 55.0766 221.781 54.5794 221.734 54.1822C221.686 53.7709 221.672 53.3684 221.666 53.0537C221.663 52.9008 221.662 52.7842 221.661 52.6915C221.659 52.559 221.659 52.4753 221.654 52.4039C221.551 50.7662 221.499 49.2001 221.449 47.6664C221.358 44.948 221.272 42.3312 220.912 39.5971C220.757 38.422 220.668 37.0419 220.58 35.6806C220.535 34.9729 220.489 34.2703 220.435 33.6042C220.268 31.5435 220.013 29.6917 219.481 28.2666C219.274 27.7135 219.374 27.119 219.694 26.6747C219.512 25.5297 219.35 24.4089 219.191 23.305C218.772 20.3987 218.37 17.6089 217.649 14.7986C217.629 14.7204 217.6 14.6151 217.566 14.4886C217.402 13.8837 217.107 12.7946 216.979 11.87C216.91 11.3699 216.831 10.5763 217.057 9.88308C217.184 9.49267 217.481 8.91334 218.144 8.59111ZM223.592 31.7223C223.654 32.2628 223.704 32.8008 223.747 33.328C223.812 34.1338 223.861 34.903 223.908 35.6371C223.989 36.9107 224.064 38.0791 224.205 39.1515C224.584 42.0304 224.684 44.9622 224.78 47.8035C224.831 49.2977 224.881 50.7669 224.97 52.1902C224.98 52.3486 224.983 52.5809 224.985 52.7816C224.986 52.8572 224.987 52.9282 224.988 52.9892C224.99 53.1015 224.993 53.2125 224.998 53.3208C225.02 53.3038 225.041 53.2866 225.063 53.2692C225.087 53.25 225.114 53.2286 225.143 53.2056C225.294 53.0846 225.499 52.9202 225.662 52.8102C228.375 50.9843 231.409 49.6547 234.275 48.3992C235.203 47.9925 236.114 47.5936 236.99 47.1881C238.356 46.5555 239.694 45.8043 241.113 45.0076C241.883 44.5751 242.677 44.1291 243.513 43.6814C245.49 42.6222 247.618 41.6046 249.856 41.029C247.863 38.5824 246.066 36.0068 244.314 33.4944C244.074 33.1504 243.835 32.8076 243.597 32.4665C241.488 29.4531 239.401 26.5506 236.985 23.9169C235.693 22.5076 234.168 21.24 232.529 19.9594C232.099 19.6237 231.657 19.2842 231.21 18.9407C229.989 18.0023 228.729 17.0335 227.562 16.0275C227.184 15.7015 226.858 15.4088 226.564 15.1438C225.273 13.9834 224.571 13.3527 222.626 12.773C222.163 12.635 221.689 12.5207 221.165 12.3945C221.043 12.3652 220.919 12.3352 220.791 12.3042C220.669 12.2745 220.545 12.2439 220.419 12.2121C220.518 12.6578 220.638 13.1046 220.742 13.4895C220.787 13.6564 220.829 13.8117 220.864 13.9502C221.635 16.9527 222.077 20.0171 222.505 22.9866C222.661 24.0737 222.816 25.148 222.985 26.202C223.08 26.7985 223.122 27.479 223.155 28.0295C223.169 28.2586 223.182 28.4652 223.197 28.6338C223.255 29.3144 223.355 29.81 223.572 30.2471C223.812 30.728 223.802 31.2699 223.592 31.7223ZM224.21 53.8476C224.204 53.8493 224.204 53.8494 224.21 53.8476V53.8476Z" fill="#E8E5FF"/>
<path fill-rule="evenodd" clip-rule="evenodd" d="M196.29 172.405C196.366 172.455 196.415 172.487 196.442 172.504C196.47 172.522 196.476 172.526 196.467 172.521C199.312 174.206 202.17 175.839 205.1 177.202C205.813 177.534 206.638 178.011 207.068 178.796C207.325 179.264 207.425 179.81 207.308 180.366C207.201 180.874 206.942 181.255 206.724 181.508C206.315 181.984 205.742 182.352 205.324 182.608C205.116 182.735 204.896 182.863 204.689 182.984C204.666 182.997 204.644 183.01 204.621 183.023C204.388 183.159 204.169 183.288 203.958 183.419C202.304 184.445 200.433 185.642 198.451 186.91C193.05 190.365 186.829 194.344 181.974 196.826C181.154 197.244 180.155 196.911 179.742 196.08C179.329 195.25 179.659 194.237 180.478 193.818C185.179 191.415 191.164 187.587 196.523 184.159C198.546 182.865 200.48 181.628 202.222 180.546C202.477 180.388 202.733 180.238 202.966 180.103L203.03 180.065C203.07 180.042 203.11 180.019 203.148 179.996C200.264 178.619 197.478 177.021 194.791 175.429C194.73 175.393 194.347 175.142 193.741 174.744C192.257 173.771 189.435 171.919 186.707 170.187C184.745 168.941 182.799 167.734 181.318 166.881C181.023 166.711 180.752 166.559 180.508 166.425C180.476 167.027 180.491 167.766 180.531 168.641C180.547 169.002 180.568 169.386 180.589 169.785C180.686 171.574 180.799 173.684 180.623 175.602C180.19 180.322 179.604 184.16 178.865 187.661C178.531 189.246 178.2 190.393 177.923 191.356C177.304 193.504 176.948 194.741 177.395 197.88C177.526 198.8 176.896 199.654 175.988 199.787C175.08 199.92 174.237 199.282 174.106 198.361C173.552 194.468 174.136 192.429 174.837 189.978C175.098 189.067 175.375 188.098 175.616 186.956C176.325 183.599 176.893 179.893 177.315 175.29C177.466 173.645 177.371 171.853 177.276 170.074C177.254 169.646 177.231 169.219 177.212 168.795C177.165 167.749 177.139 166.694 177.223 165.784C177.3 164.949 177.495 163.858 178.192 163.061C178.72 162.458 179.41 162.464 179.571 162.468C179.818 162.475 180.03 162.528 180.155 162.564C180.423 162.641 180.708 162.763 180.966 162.884C181.501 163.134 182.193 163.511 182.959 163.952C184.505 164.843 186.501 166.081 188.471 167.332C190.447 168.587 192.415 169.867 193.912 170.846C194.582 171.284 195.159 171.663 195.598 171.952L195.748 172.05C195.976 172.2 196.158 172.319 196.29 172.405Z" fill="#E8E5FF"/>
<path fill-rule="evenodd" clip-rule="evenodd" d="M169.206 109.37C169.909 109.402 170.484 109.751 170.892 110.074C171.31 110.405 171.782 110.626 172.43 110.93C172.683 111.048 172.963 111.179 173.277 111.335C174.244 111.812 175.51 112.527 176.278 113.898C176.276 113.896 176.278 113.898 176.285 113.906C176.319 113.947 176.471 114.129 176.859 114.473C177.272 114.839 177.825 115.28 178.488 115.78C179.554 116.585 180.828 117.489 182.134 118.416C182.457 118.644 182.781 118.874 183.105 119.105C184.713 120.249 186.315 121.407 187.455 122.361C188.012 122.826 188.542 123.311 188.909 123.767C189.082 123.982 189.317 124.31 189.451 124.715C189.596 125.155 189.691 125.973 189.076 126.664C187.989 127.884 186.383 128.614 185.003 129.113C184.285 129.372 183.56 129.591 182.904 129.784C182.767 129.824 182.633 129.863 182.504 129.901C181.998 130.049 181.552 130.179 181.156 130.31C180.718 130.455 180.157 130.692 179.441 130.995C178.753 131.286 177.955 131.624 177.141 131.916C176.331 132.206 175.448 132.472 174.575 132.605C173.715 132.736 172.744 132.757 171.821 132.443C171.051 132.181 170.607 131.546 170.387 131.182C170.127 130.75 169.915 130.24 169.739 129.736C169.384 128.718 169.082 127.45 168.832 126.214C168.579 124.966 168.366 123.69 168.199 122.636C168.135 122.234 168.08 121.874 168.031 121.561C167.948 121.025 167.887 120.627 167.842 120.391C167.671 119.477 168.262 118.596 169.164 118.422C170.065 118.248 170.935 118.848 171.106 119.761C171.161 120.05 171.237 120.545 171.329 121.137C171.376 121.438 171.426 121.765 171.48 122.102C171.644 123.139 171.848 124.359 172.087 125.536C172.328 126.727 172.594 127.816 172.872 128.613C172.981 128.928 173.079 129.156 173.159 129.311C173.385 129.338 173.688 129.334 174.082 129.274C174.658 129.186 175.318 128.996 176.034 128.74C176.747 128.484 177.461 128.183 178.16 127.887L178.223 127.86C178.874 127.585 179.551 127.298 180.125 127.108C180.583 126.957 181.101 126.805 181.613 126.656C181.736 126.62 181.858 126.584 181.979 126.549C182.625 126.359 183.27 126.163 183.888 125.94C184.559 125.697 185.132 125.445 185.599 125.179C185.519 125.11 185.433 125.036 185.341 124.959C184.317 124.103 182.821 123.018 181.195 121.861C180.884 121.639 180.568 121.415 180.25 121.19C178.94 120.261 177.612 119.319 176.504 118.482C175.814 117.961 175.181 117.46 174.673 117.009C174.217 116.606 173.688 116.096 173.389 115.562C173.153 115.141 172.703 114.798 171.821 114.362C171.67 114.288 171.495 114.206 171.303 114.117C170.876 113.919 170.369 113.683 169.872 113.403C169.85 114.254 169.924 115.156 169.982 115.861C170.008 116.165 170.03 116.433 170.04 116.644C170.084 117.573 169.376 118.362 168.46 118.407C167.544 118.451 166.765 117.734 166.721 116.805C166.718 116.739 166.707 116.608 166.692 116.43C166.629 115.682 166.495 114.091 166.57 112.848C166.595 112.438 166.644 112.001 166.741 111.59C166.831 111.205 166.995 110.694 167.339 110.253C167.735 109.743 168.378 109.333 169.206 109.37ZM173.278 129.506C173.278 129.507 173.271 129.499 173.258 129.481C173.272 129.496 173.278 129.505 173.278 129.506Z" fill="#E8E5FF"/>
<path fill-rule="evenodd" clip-rule="evenodd" d="M216.75 94.0621C217.396 93.4022 218.448 93.3987 219.099 94.0542C219.199 94.155 219.437 94.3437 219.878 94.6884C220.262 94.9893 220.751 95.3725 221.178 95.7653C221.553 96.1101 222.103 96.6572 222.385 97.3152C222.54 97.677 222.694 98.2589 222.485 98.9117C222.277 99.5641 221.813 99.9617 221.398 100.186C221.378 100.212 221.317 100.284 221.181 100.453C220.913 100.787 220.384 101.398 219.406 101.587C218.681 101.728 218.167 101.362 217.983 101.205C217.781 101.033 217.66 100.849 217.604 100.76C217.483 100.566 217.404 100.367 217.356 100.238C217.252 99.9544 217.163 99.62 217.099 99.3081C217.034 98.9964 216.978 98.6331 216.963 98.2913C216.956 98.1244 216.955 97.9073 216.989 97.6796C217.007 97.5563 217.059 97.2308 217.264 96.8927C217.077 96.7394 216.897 96.5842 216.757 96.4439C216.107 95.7884 216.103 94.722 216.75 94.0621Z" fill="#E8E5FF"/>
<path fill-rule="evenodd" clip-rule="evenodd" d="M258.859 80.6812C259.582 80.1078 260.626 80.2365 261.191 80.9688C261.191 80.9677 261.191 80.9685 261.191 80.9688C261.199 80.978 261.253 81.0392 261.382 81.165C261.511 81.2915 261.678 81.4457 261.875 81.624C262.109 81.8361 262.355 82.0535 262.612 82.2808C262.803 82.4499 263.001 82.6245 263.205 82.8064C263.649 83.2034 264.115 83.6297 264.445 83.9793C264.588 84.1318 264.809 84.3762 264.968 84.6516C265.024 84.7494 265.238 85.1221 265.233 85.6281C265.23 85.9361 265.143 86.334 264.861 86.6942C264.585 87.0453 264.241 87.21 263.989 87.2839C263.915 87.3055 263.79 87.3494 263.591 87.4194C263.495 87.453 263.382 87.4927 263.249 87.5388C262.884 87.6653 262.429 87.8192 261.98 87.9449C261.564 88.0615 261.024 88.1925 260.532 88.2088C260.308 88.2162 259.886 88.2109 259.455 88.0138C259.216 87.9047 258.932 87.7169 258.704 87.4024C258.468 87.0772 258.36 86.7119 258.344 86.3701C258.296 85.385 258.194 84.3939 257.957 83.7692C257.734 83.1825 257.857 82.5473 258.224 82.094C258.198 81.5654 258.417 81.0324 258.859 80.6812ZM260.424 84.8423C260.408 84.8428 260.411 84.8414 260.431 84.8419C260.429 84.8421 260.426 84.8422 260.424 84.8423Z" fill="#E8E5FF"/>
<path fill-rule="evenodd" clip-rule="evenodd" d="M204.424 150.933C205.284 150.608 206.24 151.052 206.56 151.923C206.591 152.007 206.618 152.092 206.642 152.177C206.813 152.264 206.987 152.351 207.165 152.44C207.365 152.54 207.57 152.643 207.781 152.75C208.198 152.961 208.665 153.202 208.954 153.387C209.025 153.433 209.147 153.513 209.267 153.617C209.321 153.665 209.441 153.773 209.556 153.933L209.557 153.935C209.623 154.026 209.983 154.526 209.858 155.242C209.698 156.156 208.965 156.485 208.706 156.568C208.435 156.654 208.205 156.651 208.126 156.649C208.075 156.647 208.025 156.644 207.977 156.639C207.899 156.67 207.81 156.709 207.685 156.763L207.679 156.766C207.556 156.819 207.4 156.888 207.239 156.951C206.957 157.061 206.428 157.253 205.844 157.229C205.519 157.216 205.13 157.135 204.751 156.901C204.364 156.663 204.089 156.327 203.909 155.965C203.581 155.306 203.527 154.591 203.511 154.133C203.103 153.61 203.035 152.878 203.357 152.282C203.438 151.688 203.83 151.156 204.424 150.933Z" fill="#E8E5FF"/>
<path fill-rule="evenodd" clip-rule="evenodd" d="M148.267 145.048C147.668 144.546 146.784 144.527 146.159 145.044C145.402 145.673 145.248 146.563 145.228 147.125C145.207 147.718 145.32 148.32 145.449 148.819C145.71 149.83 146.15 150.826 146.407 151.342C146.605 151.741 146.914 152.096 147.339 152.333C147.75 152.562 148.167 152.624 148.507 152.62C149.132 152.612 149.701 152.377 150.067 152.202C150.469 152.009 150.856 151.772 151.149 151.59C151.218 151.547 151.28 151.508 151.335 151.473C151.557 151.334 151.682 151.256 151.771 151.211C151.807 151.192 151.847 151.172 151.889 151.151C152.086 151.051 152.333 150.926 152.515 150.813C152.632 150.74 152.841 150.601 153.034 150.387C153.245 150.152 153.516 149.734 153.524 149.15C153.531 148.599 153.296 148.197 153.144 147.989C152.992 147.78 152.82 147.624 152.705 147.526C152.475 147.33 152.164 147.116 151.867 146.912C151.426 146.608 150.948 146.34 150.551 146.118C150.509 146.095 150.468 146.072 150.429 146.05C149.975 145.795 149.628 145.592 149.345 145.379C149.022 145.135 148.64 145.028 148.267 145.048ZM150.774 147.944C150.773 147.945 150.771 147.946 150.77 147.946L150.774 147.944Z" fill="#E8E5FF"/>
<path fill-rule="evenodd" clip-rule="evenodd" d="M194.116 34.3862C194.12 34.3914 194.168 34.4636 194.379 34.6129C194.496 34.6959 194.629 34.7797 194.806 34.8893C194.819 34.8969 194.831 34.9047 194.844 34.9126C195.001 35.0097 195.196 35.1306 195.385 35.2606C195.383 35.2597 195.384 35.2597 195.385 35.2606C195.395 35.2653 195.451 35.2931 195.588 35.3231C195.723 35.3529 195.778 35.3596 195.854 35.3689C195.922 35.3772 196.008 35.3876 196.183 35.4183C196.246 35.4294 196.344 35.4481 196.452 35.4787C196.539 35.5034 196.753 35.5677 196.979 35.7172C197.212 35.8706 197.676 36.267 197.752 36.985C197.823 37.6431 197.51 38.0999 197.385 38.2608C197.151 38.5614 196.846 38.7469 196.741 38.8106C196.738 38.8124 196.735 38.8141 196.732 38.8157C196.57 38.9145 196.375 39.0189 196.163 39.1275C196.149 39.1345 196.114 39.1538 196.061 39.183C195.754 39.3515 194.852 39.8473 194.081 40.169C193.668 40.3415 193.019 40.5879 192.406 40.6023C192.119 40.609 191.426 40.5784 190.873 40.0071C190.251 39.3633 190.294 38.5662 190.38 38.1526C190.457 37.7808 190.521 37.4287 190.542 37.1041C190.564 36.7662 190.53 36.5853 190.504 36.5143C190.24 35.7944 190.492 35.0077 191.072 34.5728C191.211 34.1829 191.492 33.844 191.886 33.6426C192.705 33.2243 193.703 33.5572 194.116 34.3862Z" fill="#E8E5FF"/>
<path fill-rule="evenodd" clip-rule="evenodd" d="M99.8688 72.9987C99.5459 72.1491 98.6116 71.711 97.7608 72.0187C96.8966 72.3311 96.4459 73.2947 96.7541 74.1707C96.797 74.2927 96.8414 74.5177 96.907 74.9484C96.9127 74.9859 96.9186 75.0253 96.9248 75.0664C96.977 75.414 97.0471 75.8807 97.1577 76.2959C97.2633 76.6922 97.509 77.4874 98.2022 78.0048C99.1022 78.6767 100.108 78.4749 100.804 78.1192C101.113 77.9611 101.383 77.8182 101.603 77.689C101.799 77.5742 102.06 77.4117 102.281 77.2031C102.426 77.0658 103.094 76.4042 102.848 75.3918C102.739 74.943 102.489 74.6494 102.324 74.4929C102.16 74.3375 101.996 74.238 101.9 74.1837C101.733 74.0892 101.541 74.0078 101.435 73.9633C101.426 73.9596 101.418 73.9561 101.411 73.9529C101.277 73.8962 101.166 73.8488 101.05 73.7919C100.826 73.6819 100.626 73.5547 100.453 73.3798C100.281 73.207 100.081 73.08 99.8688 72.9987Z" fill="#E8E5FF"/>
<path fill-rule="evenodd" clip-rule="evenodd" d="M16.0218 66.6561C16.3758 66.4754 16.8073 66.6199 16.9855 66.9789C17.5096 68.0343 18.0777 69.0804 18.6554 70.1441C18.6917 70.211 18.728 70.2779 18.7644 70.3449C19.377 71.4733 19.9969 72.6215 20.5661 73.7955C20.6836 74.0378 20.876 74.3406 21.1134 74.7142C21.147 74.7671 21.1815 74.8214 21.2168 74.8771C21.4839 75.2986 21.7889 75.7908 21.9956 76.2625C22.1839 76.6922 22.3891 77.315 22.1708 77.8977C21.9143 78.5823 21.2468 78.842 20.5494 78.9C18.929 79.0347 17.3303 79.4238 15.6842 79.8245C15.4275 79.887 15.1696 79.9498 14.9102 80.0119C14.8627 80.0233 14.7566 80.063 14.5657 80.1482C14.5051 80.1752 14.4276 80.2107 14.344 80.2491C14.2196 80.3061 14.0814 80.3694 13.9639 80.4209C13.7498 80.5147 13.5076 80.6134 13.2744 80.6796C13.0672 80.7385 12.7493 80.8083 12.4364 80.73C12.1363 80.6548 12.0039 80.4269 11.9649 80.3486C11.9192 80.2567 11.9033 80.1762 11.8974 80.1434C11.8845 80.0709 11.8843 80.0093 11.8844 79.9851C11.8847 79.9256 11.89 79.8639 11.8949 79.8158C11.9055 79.7123 11.9246 79.5744 11.9488 79.4154C11.998 79.0936 12.0753 78.6414 12.1707 78.1064C12.362 77.0344 12.6302 75.6072 12.9035 74.1736C13.1238 73.0179 13.3479 71.8557 13.538 70.8696C13.5837 70.6321 13.6275 70.4049 13.6688 70.1904C13.7754 69.6373 13.8652 69.1696 13.9296 68.8296C13.9618 68.6595 13.9875 68.5227 14.0055 68.4237C14.0178 68.3563 14.0246 68.317 14.0279 68.298C14.0302 68.2847 14.0308 68.2813 14.0303 68.2851C14.0761 67.886 14.4323 67.6 14.826 67.6463C15.2198 67.6927 15.5019 68.0538 15.4561 68.453C15.4421 68.5758 15.2847 69.3943 15.0776 70.4692C15.0363 70.6841 14.9924 70.9115 14.9466 71.1491C14.7565 72.1352 14.5329 73.2955 14.3128 74.4497C14.0397 75.8826 13.7728 77.3025 13.5832 78.3654C13.5381 78.6181 13.4976 78.8494 13.4626 79.0551C13.555 79.0139 13.6382 78.9757 13.7229 78.9367C13.8061 78.8984 13.8908 78.8595 13.9873 78.8164C14.1659 78.7366 14.3864 78.6422 14.5801 78.5957C14.8302 78.5358 15.0825 78.4743 15.3367 78.4124C16.9749 78.013 18.6923 77.5944 20.432 77.4497C20.6759 77.4294 20.7858 77.3868 20.8298 77.3611C20.8302 77.3104 20.818 77.1594 20.6838 76.8533C20.528 76.4976 20.2816 76.0936 20.0091 75.6635C19.9763 75.6118 19.9429 75.5592 19.909 75.5061C19.6802 75.1467 19.4354 74.7621 19.278 74.4375C18.7252 73.2976 18.1205 72.1768 17.5068 71.0465C17.4695 70.9777 17.4321 70.9089 17.3947 70.84C16.82 69.7818 16.2398 68.7135 15.7034 67.6331C15.5252 67.2742 15.6677 66.8368 16.0218 66.6561ZM20.8551 77.3402C20.8551 77.3402 20.8529 77.3453 20.8431 77.3524C20.8493 77.3432 20.8551 77.3402 20.8551 77.3402Z" fill="#E8E5FF"/>
<path fill-rule="evenodd" clip-rule="evenodd" d="M58.7325 96.3947C58.6351 96.0171 58.2593 95.783 57.8808 95.8693C57.4941 95.9574 57.2511 96.3467 57.338 96.7388C57.504 97.4868 57.8554 97.9492 58.248 98.3992C58.0068 99.5496 57.7873 100.703 57.5725 101.851C57.5296 102.08 57.4869 102.309 57.4443 102.537C57.1616 104.053 56.881 105.558 56.5605 107.051C56.33 108.125 56.0187 109.185 55.6877 110.265C55.6288 110.457 55.5691 110.65 55.5092 110.844C55.2352 111.731 54.9558 112.636 54.7157 113.55C54.6923 113.638 54.6503 113.752 54.5893 113.918C54.5739 113.959 54.5573 114.004 54.5394 114.053C54.4624 114.264 54.3657 114.537 54.3147 114.8C54.2731 115.014 54.2084 115.461 54.4688 115.84C54.7894 116.307 55.3197 116.32 55.677 116.259C59.203 115.656 62.7521 115.025 66.238 114.363C66.8586 114.245 67.4824 114.149 68.1203 114.05C68.1951 114.039 68.2702 114.027 68.3454 114.016C69.0569 113.905 69.7843 113.79 70.5112 113.638C70.5974 113.62 70.6786 113.602 70.7558 113.586C71.1327 113.504 71.4127 113.444 71.6965 113.456C71.6991 113.457 71.7022 113.457 71.7056 113.458C71.7082 113.459 71.7117 113.459 71.716 113.46C71.7433 113.467 71.8015 113.48 71.8537 113.489L71.8578 113.489C71.8999 113.497 72.0636 113.524 72.2425 113.475C72.3533 113.445 72.532 113.368 72.6647 113.179C72.8013 112.983 72.814 112.777 72.7979 112.641C72.7389 112.14 72.4427 111.651 72.2123 111.311C72.0861 111.124 71.9535 110.946 71.8375 110.792C71.8136 110.76 71.7908 110.73 71.7689 110.701C71.6796 110.583 71.6071 110.487 71.5488 110.404C69.7267 107.81 67.7718 105.357 65.516 103.084C65.2854 102.852 65.0529 102.615 64.8181 102.376C63.6266 101.163 62.3741 99.8885 61.0035 98.814C60.8379 98.6842 60.6385 98.539 60.4518 98.4032C60.3301 98.3147 60.2139 98.2301 60.116 98.1563C60.0108 98.077 59.9117 97.9995 59.8191 97.9225C59.8906 97.5968 59.9641 97.2718 60.0401 96.9477C60.1317 96.5568 59.8934 96.1645 59.5077 96.0716C59.1998 95.9975 58.8911 96.1366 58.7325 96.3947ZM59.4892 99.4943C59.5482 99.5375 59.6048 99.5785 59.6599 99.6184C59.8187 99.7334 59.9656 99.8398 60.1253 99.9651C61.4156 100.977 62.5908 102.172 63.7824 103.385C64.022 103.628 64.2623 103.873 64.5043 104.117C66.6875 106.316 68.5906 108.701 70.3795 111.248C70.454 111.354 70.5468 111.477 70.6373 111.597C70.6574 111.623 70.6774 111.65 70.6971 111.676C70.7922 111.802 70.8874 111.93 70.9769 112.058C70.7709 112.092 70.5781 112.135 70.409 112.172C70.3428 112.187 70.2802 112.2 70.2218 112.213C69.5347 112.356 68.84 112.467 68.1287 112.577C68.0538 112.589 67.9787 112.6 67.9034 112.612C67.2687 112.71 66.62 112.81 65.9738 112.933C62.6223 113.569 59.2103 114.177 55.8142 114.76C55.8353 114.697 55.8591 114.631 55.8853 114.559C55.8966 114.528 55.9089 114.495 55.9217 114.46C55.9843 114.292 56.0593 114.089 56.1027 113.924C56.3341 113.044 56.6023 112.175 56.8758 111.29C56.9365 111.093 56.9975 110.895 57.0584 110.697C57.3911 109.611 57.7184 108.5 57.9631 107.36C58.2881 105.846 58.5726 104.32 58.8551 102.806C58.8976 102.578 58.9401 102.35 58.9827 102.122C59.1475 101.242 59.3136 100.366 59.4892 99.4943Z" fill="#E8E5FF"/>
<path fill-rule="evenodd" clip-rule="evenodd" d="M38.9805 69.3443C39.3362 69.6218 39.5657 70.0705 39.7374 70.5809C40.3753 72.4775 42.0996 74.4714 43.6631 75.8979C43.9181 76.1305 44.1567 76.417 44.2496 76.766C44.3602 77.1815 44.2335 77.5608 43.9857 77.832C43.7741 78.0636 43.4922 78.2012 43.2547 78.2896C43.0038 78.3831 42.7226 78.4502 42.4438 78.5007C41.8859 78.6018 41.2563 78.6501 40.7317 78.6797C40.4986 78.6928 40.2958 78.702 40.1248 78.7098C39.883 78.7208 39.7046 78.7289 39.5935 78.7411C39.3121 78.7721 39.0251 78.814 38.7212 78.8583L38.7093 78.8601C38.4054 78.9044 38.0852 78.9511 37.7623 78.986C37.1177 79.0557 36.421 79.0843 35.7182 78.9486C35.1234 78.8337 35.01 78.2594 34.9878 78.0976C34.9564 77.8681 34.978 77.6204 35.002 77.4333C35.0276 77.2335 35.0659 77.0335 35.0954 76.8829C35.1264 76.7245 35.138 76.6621 35.141 76.6465C35.1415 76.6434 35.1418 76.6422 35.1418 76.6422C35.1702 76.2177 35.2389 75.7082 35.3062 75.2085C35.3456 74.9167 35.3844 74.6283 35.4146 74.3621C35.5036 73.5759 35.5314 72.8968 35.4186 72.3885C35.3317 71.9965 35.5747 71.6072 35.9614 71.519C36.0392 71.5013 36.117 71.4971 36.1922 71.5049C36.1251 71.4626 36.0639 71.4082 36.0117 71.3421C35.7639 71.0285 35.8138 70.5706 36.1231 70.3194C36.2361 70.2277 36.3494 70.1293 36.4692 70.0245C36.4817 70.0136 36.4944 70.0025 36.5071 69.9914C36.6128 69.8989 36.7251 69.8006 36.8358 69.7087C37.0701 69.5141 37.3731 69.2813 37.7087 69.1595C38.0931 69.02 38.5598 69.0162 38.9805 69.3443ZM36.4977 71.6109C36.6553 71.7102 36.7751 71.8711 36.8191 72.0692C36.9895 72.8376 36.9309 73.7314 36.8406 74.5281C36.8016 74.8723 36.7581 75.1919 36.7171 75.4928C36.6556 75.9446 36.5998 76.3541 36.5739 76.7408C36.5687 76.8186 36.5536 76.9032 36.5438 76.957C36.5346 77.0074 36.5231 77.0659 36.5117 77.1237C36.5089 77.138 36.5061 77.1522 36.5033 77.1663C36.4768 77.3017 36.4501 77.4429 36.4313 77.577C36.8025 77.604 37.1934 77.5841 37.61 77.539C37.9026 77.5074 38.1974 77.4646 38.5047 77.4198L38.5275 77.4164C38.8234 77.3732 39.1319 77.3282 39.4385 77.2944C39.5905 77.2777 39.8514 77.2656 40.1444 77.252C40.3081 77.2444 40.4818 77.2363 40.6521 77.2268C41.1652 77.1979 41.7231 77.1531 42.1914 77.0682C42.3816 77.0338 42.5436 76.995 42.6741 76.9532C41.0718 75.4863 39.1349 73.2987 38.3788 71.0505C38.3105 70.8476 38.2469 70.7091 38.1933 70.6175C38.1764 70.5887 38.1614 70.566 38.1487 70.5483C38.0636 70.5897 37.9357 70.6763 37.7454 70.8343C37.65 70.9136 37.5523 70.9991 37.4443 71.0936C37.4319 71.1044 37.4194 71.1154 37.4068 71.1264C37.2869 71.2312 37.156 71.3451 37.0205 71.4551C36.8672 71.5796 36.6788 71.63 36.4977 71.6109Z" fill="#E8E5FF"/>
<path fill-rule="evenodd" clip-rule="evenodd" d="M58.3265 52.5142C58.6351 52.4504 58.8909 52.5677 59.0478 52.6744C59.2436 52.8074 59.4644 52.9293 59.7157 53.0625C59.7583 53.0851 59.8022 53.1081 59.8469 53.1317C60.0551 53.2412 60.2831 53.3612 60.4988 53.4898C61.5452 54.1137 61.9467 54.714 62.393 55.3812C62.4817 55.5139 62.5723 55.6493 62.67 55.788C63.0295 56.2981 63.4189 56.79 63.8244 57.3021C63.9814 57.5005 64.1409 57.7019 64.3019 57.9086C64.8666 58.6333 65.435 59.4039 65.8901 60.2418C66.6797 61.6954 67.2828 63.2141 67.8544 64.703C67.9197 64.8733 67.9847 65.0431 68.0494 65.2124C68.5553 66.5356 69.0492 67.8273 69.6516 69.0784C69.7201 69.2207 69.797 69.3831 69.8507 69.535C69.8966 69.6645 69.9762 69.9171 69.9195 70.1953C69.887 70.3551 69.8115 70.5143 69.6831 70.6472C69.5601 70.7743 69.4191 70.8461 69.298 70.8873C69.0752 70.9631 68.8325 70.9644 68.6283 70.9516C67.7025 70.8935 66.7133 71.073 65.6607 71.3345C65.3258 71.4178 64.9768 71.5117 64.6223 71.6071C63.9083 71.7993 63.172 71.9975 62.4826 72.1266C62.0091 72.2152 61.5457 72.2922 61.0909 72.3678C59.7936 72.5833 58.5657 72.7874 57.3718 73.2161C57.3718 73.2161 57.3708 73.2165 57.3678 73.2177L57.3554 73.2227C57.3444 73.2273 57.3304 73.2333 57.3125 73.2413C57.2885 73.252 57.2652 73.2626 57.2377 73.2751C57.2201 73.2831 57.2008 73.2919 57.1786 73.302C57.0758 73.3484 56.9382 73.4093 56.7921 73.4605C56.6512 73.5099 56.4652 73.5639 56.2673 73.5767C56.0748 73.5891 55.7753 73.5679 55.5103 73.3564C55.2299 73.1327 55.1349 72.8234 55.1018 72.6087C55.0681 72.3901 55.0826 72.1723 55.1042 72.0009C55.1266 71.8233 55.1625 71.6532 55.1927 71.5207C55.2073 71.4563 55.2189 71.4074 55.2281 71.3684C55.2412 71.3128 55.2495 71.2776 55.2551 71.2472C55.3818 70.55 55.5224 69.8882 55.6601 69.2401C55.9042 68.0914 56.1391 66.9856 56.2718 65.8016C56.3288 65.2927 56.4345 64.705 56.5389 64.1252C56.5931 63.8237 56.647 63.5245 56.6934 63.2396C56.8369 62.3583 56.9222 61.5552 56.8469 60.9013C56.8177 60.6475 56.921 60.409 57.1014 60.257C57.1436 59.7578 57.1921 59.2709 57.2399 58.7914C57.3656 57.5289 57.4863 56.317 57.4754 55.0626C57.4751 55.0276 57.474 54.9805 57.4728 54.9238C57.4668 54.6529 57.456 54.1651 57.4983 53.764C57.5212 53.5471 57.5707 53.2062 57.737 52.9397C57.8306 52.7897 58.0152 52.5786 58.3265 52.5142ZM58.2114 62.7874C58.1813 63.0205 58.1463 63.2513 58.1096 63.4767C58.0534 63.8214 57.9943 64.1489 57.9378 64.4615C57.8399 65.0039 57.75 65.5014 57.698 65.9658C57.5583 67.2126 57.2961 68.4517 57.0419 69.6525C56.9083 70.2841 56.7769 70.905 56.6667 71.511C56.6544 71.5784 56.6315 71.676 56.6117 71.7604C56.6042 71.7921 56.5972 71.822 56.5914 71.8477C56.5806 71.895 56.5704 71.9418 56.5612 71.9877C56.572 71.9829 56.5829 71.978 56.5939 71.973C56.606 71.9675 56.6194 71.9614 56.6338 71.9548C56.7096 71.9202 56.8126 71.8732 56.8925 71.8445C58.2183 71.3684 59.6278 71.1346 60.9588 70.9138C61.3899 70.8423 61.8128 70.7722 62.222 70.6956C62.8602 70.5761 63.4986 70.4039 64.1758 70.2212C64.5434 70.122 64.9224 70.0198 65.319 69.9212C66.2573 69.688 67.2544 69.4884 68.2517 69.4856C67.6702 68.248 67.1846 66.9774 66.7108 65.7379C66.646 65.5682 66.5813 65.3991 66.5167 65.2307C65.9457 63.7434 65.3721 62.3048 64.6328 60.9438C64.2371 60.2155 63.7298 59.5218 63.1755 58.8106C63.0302 58.6241 62.8803 58.4348 62.7287 58.2432C62.3143 57.7199 61.8866 57.1796 61.502 56.6338C61.3774 56.4569 61.2713 56.2995 61.1752 56.1571C60.7547 55.5333 60.5262 55.1943 59.7711 54.7441C59.5912 54.6369 59.4044 54.5385 59.198 54.4298C59.1501 54.4046 59.1011 54.3788 59.0509 54.3522C59.0029 54.3267 58.954 54.3007 58.9045 54.2739C58.8997 54.4712 58.9038 54.6713 58.9073 54.8436C58.9088 54.9183 58.9102 54.9878 58.9107 55.0497C58.9224 56.3899 58.7898 57.7211 58.6613 59.011C58.6143 59.4832 58.5678 59.9499 58.5291 60.4095C58.5073 60.6696 58.4541 60.9592 58.4112 61.1935C58.3933 61.291 58.3772 61.3789 58.3658 61.4511C58.3198 61.7425 58.3103 61.9608 58.356 62.1672C58.4064 62.3942 58.3461 62.6202 58.2114 62.7874ZM56.1763 72.1244C56.1736 72.1245 56.1738 72.1246 56.1763 72.1244V72.1244Z" fill="#E8E5FF"/>
<path fill-rule="evenodd" clip-rule="evenodd" d="M48.881 88.1808C49.2204 87.9731 49.6615 88.0837 49.8663 88.4278C49.8978 88.4807 49.9779 88.5851 50.1268 88.7765C50.2568 88.9436 50.4218 89.1562 50.56 89.3663C50.6813 89.5507 50.8553 89.8386 50.9052 90.1444C50.9326 90.3125 50.9367 90.5727 50.7817 90.824C50.6268 91.0752 50.3911 91.1924 50.1939 91.2419C50.1828 91.2507 50.1497 91.2747 50.0755 91.331C49.9285 91.4423 49.6435 91.642 49.2139 91.6171C48.8954 91.5987 48.7179 91.3907 48.6573 91.3054C48.5906 91.2116 48.5587 91.1218 48.5447 91.0784C48.5142 90.9841 48.5014 90.8923 48.4949 90.8333C48.4804 90.7033 48.4781 90.5538 48.4834 90.4162C48.4887 90.2787 48.5028 90.1205 48.5319 89.9756C48.5461 89.9049 48.5685 89.8139 48.6061 89.7221C48.6265 89.6723 48.682 89.5415 48.803 89.4217C48.7404 89.3375 48.6812 89.2533 48.6373 89.1796C48.4326 88.8356 48.5416 88.3884 48.881 88.1808Z" fill="#E8E5FF"/>
<path fill-rule="evenodd" clip-rule="evenodd" d="M67.9135 87.0605C68.2757 86.8971 68.6999 87.0623 68.861 87.4295C68.8634 87.4342 68.8795 87.4655 68.9204 87.5319C68.9616 87.5988 69.0152 87.6811 69.0794 87.7768C69.1556 87.8906 69.2361 88.008 69.3203 88.1306C69.3829 88.2218 69.4476 88.316 69.5141 88.414C69.659 88.6277 69.8104 88.856 69.9121 89.0376C69.9564 89.1168 70.0238 89.2428 70.0616 89.375C70.075 89.422 70.1262 89.601 70.0715 89.8125C70.0382 89.9412 69.9608 90.0987 69.8049 90.2195C69.653 90.3373 69.4917 90.3697 69.3786 90.3738C69.3454 90.375 69.2885 90.38 69.1976 90.3881C69.1539 90.392 69.1024 90.3965 69.0419 90.4017C68.8762 90.4159 68.6692 90.4318 68.4683 90.4367C68.2819 90.4413 68.042 90.4386 67.8343 90.393C67.7394 90.3722 67.563 90.325 67.403 90.1965C67.3143 90.1254 67.2148 90.0164 67.1517 89.8603C67.0863 89.6989 67.0792 89.5344 67.1078 89.3894C67.19 88.9715 67.2498 88.5453 67.2152 88.2583C67.1828 87.9887 67.3001 87.7356 67.501 87.5848C67.5447 87.3605 67.6918 87.1605 67.9135 87.0605ZM68.1378 88.9708C68.1309 88.9693 68.1326 88.9691 68.141 88.9715L68.1378 88.9708Z" fill="#E8E5FF"/>
<path fill-rule="evenodd" clip-rule="evenodd" d="M37.82 110.698C38.2139 110.654 38.5688 110.942 38.6125 111.341C38.6167 111.379 38.6192 111.418 38.6204 111.456C38.683 111.51 38.7469 111.565 38.8123 111.622C38.8857 111.685 38.9611 111.75 39.0386 111.817C39.1913 111.95 39.3618 112.101 39.4637 112.209C39.4889 112.236 39.5315 112.283 39.571 112.339C39.5889 112.365 39.6278 112.423 39.6596 112.502C39.6776 112.548 39.7768 112.796 39.6503 113.083C39.4887 113.449 39.1471 113.509 39.03 113.516C38.9077 113.523 38.8117 113.497 38.7788 113.488C38.7574 113.482 38.7367 113.475 38.7173 113.468C38.6816 113.472 38.6402 113.479 38.5822 113.489L38.579 113.489C38.5222 113.499 38.4495 113.51 38.3756 113.52C38.2459 113.536 38.0046 113.56 37.7623 113.488C37.6277 113.448 37.4729 113.372 37.3383 113.234C37.2011 113.093 37.1204 112.923 37.0824 112.752C37.0135 112.441 37.0647 112.135 37.1056 111.942C36.9888 111.679 37.0362 111.365 37.2331 111.15C37.3287 110.909 37.5481 110.729 37.82 110.698Z" fill="#E8E5FF"/>
<path fill-rule="evenodd" clip-rule="evenodd" d="M14.8987 102.249C14.6995 101.975 14.331 101.872 14.0157 102.023C13.6331 102.205 13.4762 102.562 13.4099 102.795C13.3397 103.042 13.3243 103.306 13.3266 103.528C13.3313 103.98 13.4125 104.444 13.4665 104.688C13.5083 104.876 13.6009 105.058 13.7545 105.203C13.903 105.342 14.0712 105.413 14.2139 105.447C14.4769 105.51 14.7397 105.473 14.9112 105.438C15.0994 105.4 15.2863 105.342 15.4281 105.297C15.4613 105.286 15.4912 105.277 15.5181 105.268C15.6257 105.233 15.6859 105.214 15.7279 105.204C15.745 105.2 15.7638 105.196 15.7836 105.192C15.8763 105.171 15.9928 105.145 16.0811 105.117C16.1374 105.099 16.2396 105.063 16.3426 104.994C16.4554 104.918 16.6123 104.772 16.6759 104.528C16.7361 104.297 16.6795 104.104 16.6375 104.001C16.5954 103.897 16.5394 103.813 16.5012 103.76C16.425 103.653 16.3172 103.531 16.2141 103.413C16.0606 103.239 15.8881 103.076 15.7445 102.94C15.7295 102.926 15.7148 102.912 15.7005 102.899C15.5369 102.744 15.4124 102.622 15.316 102.502C15.2059 102.366 15.0571 102.28 14.8987 102.249ZM15.6487 103.729L15.6467 103.73L15.6487 103.729Z" fill="#E8E5FF"/>
<path fill-rule="evenodd" clip-rule="evenodd" d="M45.5839 60.7631C45.5848 60.7656 45.5974 60.801 45.6704 60.886C45.7109 60.9333 45.758 60.9826 45.8209 61.0474C45.8252 61.0519 45.8297 61.0565 45.8342 61.0612C45.8899 61.1186 45.9593 61.1901 46.0249 61.2647C46.0284 61.2676 46.0492 61.2853 46.1032 61.3124C46.157 61.3394 46.1791 61.348 46.2102 61.36C46.2379 61.3708 46.2725 61.3842 46.3426 61.4157C46.3682 61.4271 46.4074 61.4454 46.4494 61.4698C46.4832 61.4893 46.5661 61.5391 46.6456 61.6258C46.7271 61.7149 46.8803 61.9304 46.8381 62.2395C46.7993 62.5227 46.6209 62.6808 46.5517 62.7349C46.4225 62.8359 46.2754 62.8811 46.2249 62.8966L46.2208 62.8979C46.1426 62.922 46.05 62.945 45.9498 62.9678C45.9433 62.9693 45.9266 62.9737 45.9013 62.9802C45.7553 63.0182 45.326 63.1298 44.9695 63.1825C44.7784 63.2107 44.481 63.2448 44.2226 63.1855C44.1016 63.1578 43.8144 63.0711 43.6421 62.7728C43.448 62.4367 43.5486 62.1073 43.6276 61.9432C43.6985 61.7956 43.7618 61.6549 43.8043 61.5211C43.8487 61.3819 43.853 61.3024 43.8495 61.2699C43.8133 60.9401 44.0007 60.6373 44.2889 60.5169C44.3877 60.3683 44.5404 60.2563 44.7264 60.2139C45.1128 60.1258 45.4965 60.3716 45.5839 60.7631Z" fill="#E8E5FF"/>
<path fill-rule="evenodd" clip-rule="evenodd" d="M2.08791 66.901C2.04069 66.5106 1.69457 66.2274 1.30617 66.2657C0.91165 66.3046 0.622907 66.6603 0.661241 67.0602C0.666576 67.1159 0.661845 67.2149 0.644674 67.4024C0.643181 67.4187 0.641575 67.4359 0.639901 67.4537C0.625737 67.6049 0.606719 67.808 0.610026 67.9937C0.613184 68.1711 0.633699 68.5305 0.87051 68.8211C1.17799 69.1986 1.62047 69.2212 1.949 69.1463C2.09495 69.113 2.22262 69.0818 2.32843 69.0512C2.42245 69.0239 2.54866 68.9837 2.6626 68.9197C2.7376 68.8776 3.08632 68.6716 3.08813 68.2212C3.08894 68.0215 3.0145 67.8718 2.96159 67.7887C2.90903 67.7061 2.85095 67.647 2.81634 67.614C2.75609 67.5566 2.68379 67.502 2.64422 67.4721C2.64091 67.4696 2.63782 67.4672 2.63499 67.4651C2.58478 67.4271 2.54315 67.3954 2.50058 67.3592C2.41835 67.2893 2.34766 67.2147 2.29303 67.1229C2.23902 67.0322 2.16858 66.9577 2.08791 66.901Z" fill="#E8E5FF"/>
<path fill-rule="evenodd" clip-rule="evenodd" d="M235.856 212.049C236.329 211.729 236.973 211.923 237.294 212.483C238.237 214.128 239.242 215.755 240.263 217.409C240.327 217.513 240.392 217.617 240.456 217.721C241.539 219.476 242.637 221.262 243.667 223.094C243.879 223.472 244.21 223.94 244.618 224.518C244.676 224.6 244.735 224.684 244.796 224.77C245.255 225.422 245.782 226.184 246.164 226.922C246.512 227.594 246.92 228.574 246.715 229.526C246.475 230.645 245.568 231.119 244.582 231.272C242.29 231.628 240.076 232.389 237.797 233.173C237.441 233.295 237.084 233.418 236.725 233.54C236.659 233.562 236.514 233.635 236.257 233.788C236.176 233.837 236.071 233.9 235.959 233.969C235.791 234.071 235.606 234.184 235.447 234.277C235.158 234.445 234.83 234.625 234.509 234.751C234.224 234.863 233.782 235.002 233.32 234.904C232.877 234.809 232.646 234.456 232.576 234.333C232.494 234.19 232.456 234.063 232.442 234.011C232.41 233.896 232.398 233.797 232.394 233.758C232.383 233.663 232.38 233.564 232.378 233.486C232.374 233.319 232.376 233.097 232.381 232.84C232.392 232.32 232.42 231.589 232.458 230.724C232.534 228.99 232.655 226.681 232.782 224.361C232.884 222.49 232.99 220.609 233.081 219.013C233.103 218.629 233.123 218.261 233.143 217.914C233.193 217.018 233.236 216.261 233.265 215.711C233.28 215.436 233.292 215.215 233.299 215.054C233.304 214.945 233.307 214.882 233.308 214.851C233.309 214.83 233.309 214.824 233.309 214.83C233.301 214.187 233.758 213.698 234.329 213.738C234.901 213.779 235.37 214.333 235.378 214.976C235.381 215.174 235.306 216.499 235.208 218.239C235.189 218.586 235.168 218.955 235.146 219.339C235.056 220.935 234.949 222.813 234.847 224.681C234.72 227 234.6 229.298 234.525 231.017C234.507 231.426 234.491 231.8 234.479 232.132C234.604 232.058 234.715 231.99 234.83 231.92C234.941 231.852 235.055 231.782 235.185 231.704C235.426 231.561 235.724 231.391 235.992 231.3C236.339 231.182 236.688 231.062 237.04 230.941C239.309 230.16 241.687 229.341 244.147 228.959C244.492 228.905 244.642 228.828 244.7 228.783C244.691 228.701 244.646 228.461 244.398 227.982C244.109 227.425 243.683 226.799 243.214 226.134C243.158 226.054 243.1 225.973 243.042 225.891C242.649 225.334 242.228 224.74 241.943 224.233C240.943 222.455 239.872 220.711 238.787 218.954C238.721 218.847 238.655 218.74 238.589 218.633C237.573 216.987 236.547 215.326 235.581 213.641C235.26 213.082 235.384 212.369 235.856 212.049ZM244.732 228.747C244.732 228.747 244.73 228.755 244.717 228.768C244.724 228.752 244.732 228.747 244.732 228.747Z" fill="#E8E5FF"/>
<path fill-rule="evenodd" clip-rule="evenodd" d="M302.388 256.002C302.179 255.406 301.599 255.063 301.073 255.234C300.537 255.409 300.261 256.053 300.457 256.674C300.832 257.858 301.42 258.568 302.064 259.255C301.931 261.119 301.829 262.985 301.733 264.843C301.714 265.214 301.695 265.584 301.676 265.954C301.551 268.407 301.427 270.841 301.243 273.26C301.111 275.001 300.861 276.726 300.587 278.484C300.538 278.797 300.488 279.112 300.438 279.428C300.21 280.873 299.977 282.346 299.801 283.83C299.784 283.974 299.745 284.16 299.689 284.431C299.674 284.499 299.659 284.572 299.642 284.652C299.571 284.996 299.483 285.443 299.458 285.868C299.438 286.215 299.428 286.937 299.87 287.521C300.414 288.241 301.175 288.216 301.674 288.087C306.604 286.817 311.562 285.5 316.424 284.139C317.289 283.897 318.163 283.689 319.057 283.476C319.162 283.451 319.267 283.426 319.372 283.401C320.369 283.163 321.388 282.914 322.399 282.609C322.519 282.572 322.632 282.537 322.739 282.504C323.263 282.341 323.652 282.22 324.06 282.215C324.064 282.216 324.068 282.216 324.073 282.217C324.077 282.218 324.083 282.219 324.089 282.22C324.129 282.228 324.215 282.244 324.291 282.254L324.297 282.255C324.358 282.262 324.597 282.292 324.844 282.199C324.997 282.14 325.238 282.002 325.393 281.687C325.553 281.363 325.533 281.03 325.485 280.814C325.308 280.017 324.795 279.259 324.403 278.734C324.188 278.446 323.966 278.172 323.772 277.935C323.732 277.887 323.693 277.84 323.657 277.796C323.508 277.615 323.386 277.467 323.288 277.339C320.205 273.34 316.959 269.579 313.316 266.134C312.944 265.781 312.568 265.422 312.188 265.06C310.262 263.219 308.236 261.285 306.079 259.682C305.819 259.488 305.507 259.273 305.215 259.072C305.025 258.94 304.843 258.815 304.69 258.705C304.525 258.587 304.369 258.471 304.222 258.356C304.264 257.828 304.31 257.301 304.359 256.775C304.418 256.141 304.005 255.534 303.436 255.418C302.983 255.326 302.567 255.575 302.388 256.002ZM304.04 260.903C304.132 260.967 304.22 261.027 304.307 261.087C304.555 261.257 304.784 261.415 305.036 261.602C307.066 263.111 308.966 264.925 310.893 266.764C311.28 267.134 311.669 267.505 312.06 267.874C315.585 271.209 318.745 274.865 321.771 278.792C321.897 278.956 322.052 279.144 322.204 279.328C322.237 279.369 322.271 279.409 322.304 279.45C322.463 279.643 322.623 279.84 322.774 280.038C322.486 280.11 322.218 280.195 321.983 280.269C321.891 280.298 321.804 280.326 321.723 280.35C320.767 280.639 319.794 280.877 318.798 281.115C318.693 281.14 318.588 281.165 318.482 281.19C317.593 281.402 316.684 281.618 315.783 281.871C311.108 283.179 306.342 284.448 301.595 285.674C301.613 285.572 301.635 285.463 301.659 285.347C301.67 285.296 301.681 285.242 301.693 285.185C301.752 284.909 301.822 284.579 301.853 284.311C302.022 282.881 302.246 281.466 302.474 280.023C302.524 279.703 302.575 279.381 302.626 279.058C302.902 277.291 303.165 275.482 303.305 273.635C303.491 271.181 303.617 268.713 303.742 266.262C303.761 265.893 303.78 265.524 303.799 265.156C303.873 263.731 303.949 262.313 304.04 260.903Z" fill="#E8E5FF"/>
<path fill-rule="evenodd" clip-rule="evenodd" d="M269.173 214.374C269.733 214.788 270.143 215.487 270.483 216.289C271.744 219.273 274.575 222.318 277.073 224.468C277.48 224.819 277.874 225.257 278.071 225.808C278.306 226.464 278.195 227.083 277.89 227.539C277.63 227.928 277.252 228.173 276.929 228.335C276.588 228.506 276.198 228.638 275.809 228.743C275.03 228.953 274.139 229.085 273.394 229.177C273.063 229.219 272.775 229.251 272.532 229.278C272.188 229.317 271.935 229.345 271.778 229.374C271.382 229.448 270.979 229.54 270.553 229.637L270.536 229.641C270.11 229.738 269.661 229.841 269.205 229.924C268.297 230.092 267.306 230.198 266.276 230.041C265.405 229.908 265.137 228.998 265.076 228.741C264.988 228.376 264.974 227.977 264.974 227.675C264.973 227.353 264.991 227.029 265.006 226.786C265.021 226.529 265.026 226.428 265.028 226.403C265.028 226.398 265.028 226.396 265.028 226.396C264.99 225.713 264.995 224.891 264.999 224.085C265.002 223.614 265.004 223.149 264.998 222.72C264.981 221.453 264.896 220.362 264.641 219.558C264.445 218.937 264.72 218.293 265.257 218.118C265.365 218.083 265.475 218.07 265.584 218.076C265.481 218.014 265.383 217.932 265.296 217.83C264.884 217.349 264.871 216.612 265.268 216.182C265.412 216.026 265.556 215.858 265.708 215.68C265.724 215.662 265.74 215.643 265.756 215.624C265.89 215.467 266.033 215.299 266.174 215.143C266.473 214.811 266.863 214.412 267.321 214.188C267.845 213.931 268.511 213.885 269.173 214.374ZM266.041 218.219C266.284 218.365 266.485 218.612 266.584 218.926C266.969 220.142 267.05 221.579 267.068 222.863C267.075 223.417 267.072 223.933 267.069 224.419C267.064 225.148 267.059 225.809 267.093 226.43C267.1 226.555 267.094 226.692 267.09 226.779C267.086 226.861 267.081 226.956 267.075 227.049C267.074 227.072 267.072 227.095 267.071 227.118C267.058 227.337 267.046 227.566 267.043 227.782C267.579 227.793 268.134 227.728 268.721 227.62C269.134 227.544 269.548 227.45 269.979 227.351L270.011 227.344C270.426 227.249 270.858 227.151 271.291 227.07C271.505 227.03 271.876 226.988 272.292 226.941C272.525 226.915 272.771 226.887 273.013 226.857C273.741 226.766 274.531 226.646 275.184 226.47C275.45 226.398 275.674 226.322 275.853 226.244C273.293 224.033 270.121 220.695 268.627 217.159C268.492 216.84 268.375 216.623 268.282 216.481C268.252 216.437 268.227 216.402 268.205 216.374C268.091 216.448 267.924 216.598 267.682 216.867C267.56 217.003 267.436 217.148 267.299 217.309C267.283 217.327 267.267 217.346 267.251 217.364C267.099 217.543 266.933 217.736 266.759 217.924C266.563 218.137 266.303 218.234 266.041 218.219Z" fill="#E8E5FF"/>
<path fill-rule="evenodd" clip-rule="evenodd" d="M293.734 185.743C294.163 185.615 294.55 185.78 294.794 185.938C295.099 186.134 295.437 186.31 295.821 186.502C295.886 186.534 295.953 186.568 296.021 186.601C296.339 186.759 296.687 186.931 297.019 187.119C298.629 188.028 299.314 188.955 300.075 189.985C300.226 190.19 300.38 190.399 300.546 190.613C301.153 191.399 301.801 192.154 302.474 192.939C302.735 193.243 303 193.552 303.269 193.869C304.209 194.981 305.164 196.167 305.968 197.47C307.365 199.73 308.506 202.111 309.597 204.447C309.722 204.714 309.846 204.981 309.97 205.246C310.937 207.322 311.88 209.349 312.972 211.301C313.096 211.523 313.236 211.776 313.34 212.015C313.43 212.219 313.59 212.616 313.56 213.067C313.543 213.326 313.465 213.587 313.305 213.811C313.153 214.026 312.965 214.153 312.799 214.229C312.495 214.37 312.148 214.393 311.853 214.39C310.519 214.377 309.138 214.75 307.681 215.26C307.218 215.422 306.736 215.602 306.247 215.786C305.262 216.155 304.246 216.536 303.284 216.803C302.623 216.985 301.975 217.149 301.338 217.309C299.524 217.766 297.806 218.199 296.178 218.989C296.178 218.989 296.176 218.99 296.172 218.992L296.156 219.001C296.141 219.009 296.122 219.02 296.098 219.035C296.065 219.054 296.034 219.073 295.997 219.095C295.973 219.11 295.947 219.125 295.917 219.143C295.779 219.227 295.593 219.336 295.394 219.431C295.202 219.522 294.946 219.624 294.665 219.662C294.392 219.698 293.96 219.69 293.542 219.374C293.1 219.04 292.908 218.553 292.821 218.212C292.732 217.865 292.713 217.514 292.712 217.238C292.712 216.952 292.732 216.676 292.751 216.461C292.76 216.357 292.767 216.277 292.773 216.214C292.782 216.124 292.787 216.067 292.789 216.018C292.842 214.89 292.922 213.818 292.999 212.767C293.137 210.906 293.269 209.115 293.241 207.206C293.229 206.386 293.272 205.436 293.314 204.498C293.336 204.01 293.358 203.526 293.372 203.066C293.415 201.642 293.39 200.348 293.162 199.307C293.073 198.903 293.177 198.512 293.407 198.253C293.375 197.449 293.355 196.665 293.335 195.893C293.283 193.86 293.232 191.908 292.986 189.899C292.979 189.843 292.969 189.768 292.957 189.677C292.898 189.244 292.793 188.463 292.78 187.817C292.772 187.467 292.78 186.917 292.969 186.476C293.075 186.227 293.301 185.873 293.734 185.743ZM295.459 202.21C295.459 202.586 295.452 202.959 295.441 203.323C295.424 203.88 295.399 204.41 295.376 204.916C295.336 205.793 295.299 206.598 295.31 207.346C295.34 209.356 295.193 211.363 295.051 213.309C294.976 214.332 294.902 215.338 294.856 216.318C294.851 216.427 294.836 216.586 294.823 216.723C294.818 216.774 294.814 216.823 294.81 216.864C294.804 216.941 294.798 217.017 294.793 217.091C294.807 217.083 294.822 217.074 294.837 217.065C294.853 217.055 294.871 217.044 294.891 217.032C294.993 216.97 295.131 216.886 295.24 216.833C297.048 215.956 299.02 215.46 300.882 214.991C301.485 214.84 302.077 214.691 302.648 214.533C303.538 214.286 304.419 213.955 305.354 213.604C305.861 213.414 306.384 213.217 306.933 213.025C308.231 212.57 309.62 212.165 311.045 212.074C309.986 210.142 309.058 208.148 308.153 206.203C308.029 205.937 307.906 205.672 307.782 205.408C306.692 203.074 305.607 200.819 304.3 198.703C303.601 197.57 302.748 196.503 301.824 195.411C301.582 195.125 301.333 194.835 301.081 194.541C300.393 193.738 299.682 192.91 299.031 192.069C298.821 191.796 298.64 191.553 298.476 191.333C297.761 190.37 297.371 189.847 296.209 189.191C295.932 189.035 295.647 188.893 295.332 188.737C295.259 188.701 295.184 188.663 295.107 188.625C295.034 188.589 294.959 188.551 294.884 188.513C294.913 188.829 294.956 189.149 294.992 189.425C295.008 189.544 295.023 189.656 295.035 189.755C295.299 191.901 295.354 194.045 295.408 196.122C295.427 196.883 295.447 197.634 295.476 198.374C295.493 198.792 295.47 199.261 295.452 199.64C295.444 199.798 295.437 199.94 295.434 200.056C295.422 200.527 295.449 200.878 295.552 201.204C295.666 201.564 295.621 201.931 295.459 202.21ZM294.268 217.343C294.264 217.344 294.264 217.344 294.268 217.343V217.343Z" fill="#E8E5FF"/>
<path fill-rule="evenodd" clip-rule="evenodd" d="M286.793 243.694C287.24 243.332 287.891 243.472 288.247 244.005C288.301 244.087 288.435 244.247 288.683 244.541C288.9 244.798 289.175 245.124 289.411 245.449C289.618 245.734 289.92 246.18 290.048 246.665C290.118 246.932 290.172 247.349 289.996 247.765C289.821 248.18 289.506 248.388 289.233 248.485C289.218 248.5 289.176 248.541 289.08 248.638C288.89 248.829 288.519 249.173 287.901 249.17C287.442 249.168 287.15 248.851 287.048 248.719C286.935 248.575 286.873 248.434 286.845 248.365C286.784 248.217 286.749 248.071 286.729 247.977C286.684 247.77 286.653 247.531 286.635 247.31C286.618 247.089 286.609 246.834 286.624 246.6C286.631 246.485 286.646 246.338 286.683 246.187C286.703 246.106 286.758 245.891 286.909 245.689C286.804 245.559 286.704 245.43 286.628 245.316C286.272 244.782 286.346 244.056 286.793 243.694Z" fill="#E8E5FF"/>
<path fill-rule="evenodd" clip-rule="evenodd" d="M313.796 240.257C314.283 239.964 314.92 240.192 315.218 240.767C315.222 240.774 315.251 240.823 315.322 240.926C315.393 241.029 315.485 241.156 315.594 241.304C315.724 241.48 315.861 241.661 316.004 241.85C316.11 241.991 316.22 242.136 316.333 242.287C316.579 242.617 316.838 242.97 317.016 243.252C317.094 243.375 317.214 243.571 317.292 243.78C317.32 243.854 317.426 244.136 317.387 244.48C317.363 244.689 317.281 244.948 317.081 245.155C316.885 245.356 316.661 245.422 316.5 245.438C316.452 245.443 316.372 245.456 316.243 245.477C316.182 245.487 316.109 245.499 316.023 245.512C315.789 245.549 315.496 245.593 315.21 245.618C314.944 245.641 314.601 245.658 314.295 245.603C314.156 245.578 313.895 245.517 313.643 245.325C313.503 245.219 313.34 245.053 313.221 244.808C313.098 244.555 313.058 244.292 313.072 244.057C313.113 243.381 313.12 242.693 313.018 242.236C312.922 241.807 313.043 241.392 313.302 241.133C313.323 240.77 313.497 240.437 313.796 240.257ZM314.468 243.298C314.457 243.296 314.46 243.296 314.472 243.299L314.468 243.298Z" fill="#E8E5FF"/>
<path fill-rule="evenodd" clip-rule="evenodd" d="M275.123 280.72C275.678 280.615 276.238 281.046 276.374 281.682C276.387 281.743 276.398 281.804 276.406 281.865C276.506 281.947 276.607 282.03 276.711 282.114C276.828 282.209 276.947 282.307 277.071 282.408C277.313 282.608 277.585 282.834 277.75 282.999C277.791 283.04 277.861 283.111 277.928 283.198C277.958 283.238 278.024 283.327 278.084 283.452C278.119 283.523 278.306 283.913 278.178 284.382C278.014 284.983 277.537 285.108 277.371 285.129C277.197 285.152 277.055 285.118 277.007 285.106C276.975 285.099 276.944 285.09 276.915 285.08C276.865 285.09 276.807 285.105 276.726 285.125L276.721 285.126C276.642 285.146 276.54 285.171 276.436 285.193C276.254 285.229 275.913 285.289 275.553 285.194C275.354 285.142 275.118 285.034 274.901 284.824C274.678 284.61 274.532 284.345 274.446 284.074C274.29 283.582 274.307 283.088 274.33 282.775C274.115 282.364 274.125 281.857 274.367 281.495C274.459 281.101 274.74 280.793 275.123 280.72Z" fill="#E8E5FF"/>
<path fill-rule="evenodd" clip-rule="evenodd" d="M240.8 269.163C240.464 268.741 239.919 268.609 239.496 268.877C238.982 269.203 238.824 269.788 238.772 270.167C238.717 270.568 238.743 270.992 238.788 271.349C238.877 272.072 239.079 272.809 239.201 273.194C239.295 273.493 239.461 273.775 239.707 273.994C239.945 274.205 240.199 274.303 240.409 274.346C240.797 274.425 241.165 274.341 241.404 274.271C241.666 274.194 241.923 274.085 242.117 274C242.163 273.981 242.204 273.963 242.241 273.946C242.388 273.882 242.471 273.845 242.529 273.826C242.553 273.819 242.579 273.81 242.606 273.801C242.735 273.76 242.897 273.709 243.018 273.656C243.095 273.622 243.234 273.556 243.369 273.436C243.516 273.305 243.713 273.057 243.76 272.661C243.803 272.286 243.687 271.982 243.608 271.82C243.528 271.657 243.433 271.528 243.368 271.445C243.24 271.282 243.063 271.094 242.894 270.915C242.643 270.649 242.366 270.403 242.136 270.198C242.112 270.177 242.088 270.156 242.065 270.135C241.803 269.901 241.603 269.717 241.443 269.533C241.26 269.324 241.032 269.2 240.8 269.163ZM242.144 271.47L242.141 271.471L242.144 271.47Z" fill="#E8E5FF"/>
<path fill-rule="evenodd" clip-rule="evenodd" d="M277.034 200.057C277.036 200.061 277.061 200.117 277.181 200.247C277.247 200.319 277.324 200.394 277.426 200.492C277.433 200.499 277.44 200.506 277.447 200.513C277.537 200.6 277.65 200.709 277.757 200.823C277.763 200.827 277.796 200.854 277.878 200.893C277.96 200.931 277.993 200.943 278.04 200.96C278.081 200.974 278.133 200.993 278.239 201.037C278.278 201.053 278.337 201.079 278.402 201.115C278.454 201.143 278.581 201.216 278.711 201.348C278.844 201.483 279.103 201.815 279.099 202.314C279.096 202.771 278.87 203.04 278.781 203.133C278.615 203.305 278.413 203.391 278.343 203.42L278.338 203.422C278.23 203.468 278.102 203.512 277.963 203.558C277.954 203.561 277.931 203.569 277.896 203.582C277.694 203.655 277.101 203.871 276.601 203.986C276.333 204.048 275.914 204.128 275.534 204.055C275.356 204.021 274.929 203.907 274.628 203.444C274.289 202.923 274.372 202.386 274.455 202.117C274.529 201.874 274.594 201.643 274.63 201.425C274.668 201.198 274.659 201.071 274.648 201.019C274.536 200.494 274.748 199.992 275.138 199.775C275.252 199.528 275.449 199.335 275.708 199.251C276.244 199.077 276.837 199.438 277.034 200.057Z" fill="#E8E5FF"/>
<path fill-rule="evenodd" clip-rule="evenodd" d="M215.982 213.644C215.842 213.022 215.295 212.599 214.747 212.693C214.19 212.79 213.843 213.384 213.971 214.022C213.989 214.111 214.001 214.27 214.011 214.571C214.011 214.598 214.012 214.625 214.013 214.654C214.021 214.897 214.031 215.224 214.07 215.522C214.107 215.805 214.202 216.379 214.594 216.825C215.103 217.403 215.74 217.401 216.196 217.252C216.399 217.187 216.575 217.126 216.721 217.067C216.85 217.016 217.023 216.94 217.175 216.828C217.274 216.754 217.735 216.394 217.654 215.672C217.619 215.352 217.485 215.119 217.394 214.99C217.304 214.862 217.21 214.773 217.154 214.723C217.057 214.636 216.944 214.555 216.882 214.51C216.877 214.507 216.872 214.503 216.867 214.5C216.789 214.443 216.723 214.396 216.656 214.342C216.525 214.237 216.411 214.124 216.316 213.981C216.222 213.841 216.107 213.727 215.982 213.644Z" fill="#E8E5FF"/>
</svg>
