<svg width="17" height="18" viewBox="0 0 17 18" fill="none" xmlns="http://www.w3.org/2000/svg">
<path d="M9.91699 5.28133H7.08366C6.40366 5.28133 5.13574 5.28133 5.13574 3.33341C5.13574 1.3855 6.40366 1.3855 7.08366 1.3855H9.91699C10.597 1.3855 11.8649 1.3855 11.8649 3.33341C11.8649 4.01341 11.8649 5.28133 9.91699 5.28133ZM7.08366 2.448C6.38241 2.448 6.19824 2.448 6.19824 3.33341C6.19824 4.21883 6.38241 4.21883 7.08366 4.21883H9.91699C10.8024 4.21883 10.8024 4.03466 10.8024 3.33341C10.8024 2.448 10.6182 2.448 9.91699 2.448H7.08366Z" fill="#AFAAD0"/>
<path d="M10.625 16.6146H6.375C2.39417 16.6146 1.59375 14.7871 1.59375 11.8334V7.58339C1.59375 4.35339 2.7625 2.97214 5.63833 2.82339C5.92875 2.80922 6.18375 3.0288 6.19792 3.3263C6.21208 3.6238 5.98542 3.86464 5.695 3.8788C3.68333 3.99214 2.65625 4.59422 2.65625 7.58339V11.8334C2.65625 14.4542 3.17333 15.5521 6.375 15.5521H10.625C13.8267 15.5521 14.3438 14.4542 14.3438 11.8334V7.58339C14.3438 4.59422 13.3167 3.99214 11.305 3.8788C11.0146 3.86464 10.7879 3.60964 10.8021 3.31922C10.8162 3.0288 11.0712 2.80214 11.3617 2.8163C14.2375 2.97214 15.4062 4.35339 15.4062 7.5763V11.8263C15.4062 14.7871 14.6058 16.6146 10.625 16.6146Z" fill="#AFAAD0"/>
</svg>
