<svg width="24" height="25" viewBox="0 0 24 25" fill="none" xmlns="http://www.w3.org/2000/svg">
<path d="M15 23.25H9C3.57 23.25 1.25 20.93 1.25 15.5V9.5C1.25 4.07 3.57 1.75 9 1.75H15C20.43 1.75 22.75 4.07 22.75 9.5V15.5C22.75 20.93 20.43 23.25 15 23.25ZM9 3.25C4.39 3.25 2.75 4.89 2.75 9.5V15.5C2.75 20.11 4.39 21.75 9 21.75H15C19.61 21.75 21.25 20.11 21.25 15.5V9.5C21.25 4.89 19.61 3.25 15 3.25H9Z" fill="#292D32"/>
<path d="M10.7598 16.8701C10.3398 16.8701 9.94984 16.77 9.59984 16.57C8.79984 16.11 8.33984 15.17 8.33984 13.98V11.02C8.33984 9.84005 8.79984 8.89005 9.59984 8.43005C10.3998 7.97005 11.4398 8.04005 12.4698 8.64005L15.0398 10.12C16.0598 10.71 16.6498 11.58 16.6498 12.5C16.6498 13.42 16.0598 14.29 15.0398 14.88L12.4698 16.36C11.8898 16.7 11.2998 16.8701 10.7598 16.8701ZM10.7698 9.63005C10.6098 9.63005 10.4698 9.66005 10.3598 9.73005C10.0398 9.92005 9.84984 10.39 9.84984 11.02V13.98C9.84984 14.61 10.0298 15.08 10.3598 15.27C10.6798 15.46 11.1798 15.38 11.7298 15.06L14.2998 13.58C14.8498 13.26 15.1598 12.87 15.1598 12.5C15.1598 12.13 14.8498 11.73 14.2998 11.42L11.7298 9.94005C11.3698 9.73005 11.0398 9.63005 10.7698 9.63005Z" fill="#292D32"/>
</svg>
