<svg width="313" height="189" viewBox="0 0 313 189" fill="none" xmlns="http://www.w3.org/2000/svg">
<rect width="313" height="189" rx="10" fill="#E8E5FF"/>
<path d="M161.75 114.604H150.25C139.842 114.604 135.396 110.158 135.396 99.75V88.25C135.396 77.8425 139.842 73.3959 150.25 73.3959H161.75C172.157 73.3959 176.604 77.8425 176.604 88.25V99.75C176.604 110.158 172.157 114.604 161.75 114.604ZM150.25 76.2709C141.414 76.2709 138.271 79.4142 138.271 88.25V99.75C138.271 108.586 141.414 111.729 150.25 111.729H161.75C170.586 111.729 173.729 108.586 173.729 99.75V88.25C173.729 79.4142 170.586 76.2709 161.75 76.2709H150.25Z" fill="#AFAAD0"/>
<path d="M153.624 102.376C152.819 102.376 152.071 102.184 151.4 101.801C149.867 100.919 148.985 99.1175 148.985 96.8367V91.1633C148.985 88.9017 149.867 87.0808 151.4 86.1992C152.934 85.3175 154.927 85.4517 156.901 86.6017L161.827 89.4383C163.782 90.5692 164.913 92.2367 164.913 94C164.913 95.7633 163.782 97.4308 161.827 98.5617L156.901 101.398C155.79 102.05 154.659 102.376 153.624 102.376ZM153.643 88.4992C153.336 88.4992 153.068 88.5567 152.857 88.6908C152.244 89.055 151.88 89.9558 151.88 91.1633V96.8367C151.88 98.0442 152.225 98.945 152.857 99.3092C153.47 99.6733 154.429 99.52 155.483 98.9067L160.409 96.07C161.463 95.4567 162.057 94.7092 162.057 94C162.057 93.2908 161.463 92.5242 160.409 91.93L155.483 89.0933C154.793 88.6908 154.16 88.4992 153.643 88.4992Z" fill="#AFAAD0"/>
</svg>
