<svg width="36" height="36" viewBox="0 0 36 36" fill="none" xmlns="http://www.w3.org/2000/svg">
<rect width="36" height="36" rx="8" fill="#F2F1FA"/>
<path d="M18.4383 24.9802L14.3761 24.9042C13.0608 24.8778 11.7423 24.9306 10.4528 24.6565C8.49128 24.247 8.35232 22.2391 8.20691 20.5549C8.00654 18.187 8.08411 15.7762 8.46222 13.4281C8.67567 12.1106 9.51571 11.3244 10.8148 11.2389C15.2001 10.9284 19.6147 10.9652 23.9903 11.1101C24.4524 11.1233 24.9177 11.1959 25.3734 11.2785C27.6227 11.6814 27.6775 13.9568 27.8233 15.8723C27.9688 17.8075 27.9074 19.7527 27.6294 21.6747C27.4065 23.2661 26.9798 24.6007 25.1795 24.7295C22.9237 24.898 20.7197 25.0336 18.4576 24.9904C18.4577 24.9802 18.4447 24.9802 18.4383 24.9802ZM16.0501 20.9512C17.75 19.9538 19.4175 18.973 21.1076 17.9823C19.4046 16.9849 17.7403 16.0041 16.0501 15.0133V20.9512Z" fill="#8D8BA7"/>
</svg>
