<svg width="24" height="79" viewBox="0 0 24 79" fill="none" xmlns="http://www.w3.org/2000/svg">
<path d="M20.2473 52.2751C19.8415 53.3919 18.1213 57.174 16.9127 59.5202C14.178 64.9915 10.7375 70.0219 6.58252 74.2169C5.92089 74.8645 4.92404 76.075 3.45081 74.6298C1.92466 73.1282 1.65118 71.5046 2.66568 70.3784C5.10047 67.6193 7.65876 64.8508 9.29078 61.4911C11.6726 56.6016 14.2221 51.8998 15.7836 46.7476C16.4716 44.4483 17.0362 42.1207 17.4862 39.7651C17.9096 37.4002 18.1301 35.0447 18.1478 32.6704C18.086 28.1938 17.1156 23.8298 15.8806 19.6911C14.8396 16.1155 13.7634 12.446 11.7697 9.28332C11.5315 8.91731 11.1874 8.57958 10.8434 8.23234C10.4817 7.90387 10.0935 7.5941 9.81126 7.21871C9.36135 6.57116 8.45272 5.67971 8.0381 4.98524C7.87048 4.67554 7.65877 4.39395 7.36765 4.23441C6.0444 3.5587 6.1679 2.66704 7.93224 1.07162C8.32922 0.724382 8.61151 0.0769871 9.14081 0.0582175C9.15845 0.0582175 9.21139 0.0488235 9.22903 0.0488235C10.1377 -0.120103 10.7552 0.17067 11.2668 0.592986C11.7432 1.05284 12.1137 1.65359 12.5901 2.12283C17.2303 6.84338 20.3267 13.0185 22.0558 19.4565C23.1056 23.4357 23.5202 27.5274 23.8025 31.638C23.9083 32.7641 24.1289 33.909 23.8995 35.0539V35.0354C23.9083 36.2366 23.8819 37.4565 23.7407 38.6484C23.1056 43.1155 22.0558 47.733 20.4061 51.6464C20.3356 51.7966 20.3356 52.0405 20.2473 52.2751Z" fill="#8860C3"/>
<path d="M9.06119 70.191C9.51992 69.9657 11.1696 69.243 12.1841 68.6987C14.5483 67.4317 16.9301 66.2211 19.5855 65.6299C20.0001 65.536 20.6353 65.2264 21.4822 67.1503C22.3643 69.1493 22.4614 70.5287 21.7733 70.7821C20.1236 71.3921 18.3416 71.7393 16.9302 72.8749C14.8747 74.536 12.4664 75.4276 10.2345 76.6852L9.45817 77.1074L8.08198 77.8207C7.16453 78.3181 6.21178 78.7405 5.38254 78.8907C4.5533 79.0502 3.78581 79.0408 3.04478 78.8249C2.31258 78.6372 1.53627 78.0835 1.03343 77.4172L0.980506 77.3421C0.539421 76.7039 0.292412 76.094 0.124799 75.315C-0.0516347 74.5455 -0.0339961 73.5131 0.133616 72.4432L0.354159 70.8291L0.468845 70.0033L0.521774 69.5247C0.583526 68.9616 0.67175 68.3985 0.777611 67.8448C1.15694 65.9303 2.03029 64.119 2.57723 62.2421C2.70956 61.801 2.44491 61.1814 2.56842 60.6934C2.67428 60.2899 2.81542 59.6141 3.06243 59.2387C3.16829 59.0792 3.30062 58.9199 3.25651 58.7322C3.07125 57.8688 3.82109 57.8123 6.00888 58.5631C6.48525 58.7226 7.14688 58.7977 7.44682 59.0605C7.46446 59.0699 7.4821 59.0887 7.49975 59.1075C8.74361 59.9803 8.00258 60.4308 7.92319 61.0408C7.51739 64.0064 6.97927 66.9438 6.49407 69.8906L6.26471 71.167C6.24707 71.2609 6.22942 71.3451 6.22942 71.4296C6.2206 71.5985 6.2206 71.7675 6.37939 71.7581C6.41467 71.7581 6.49407 71.7111 6.56465 71.6548C6.67933 71.5797 6.75872 71.4861 6.6705 71.6457C6.78519 71.5612 6.89105 71.3547 6.89105 71.3641C6.90869 71.3734 6.93516 71.3077 6.92634 71.2889V71.2795L7.56151 70.9604C7.98495 70.7539 8.4172 70.5663 8.84947 70.3974C8.92004 70.3692 8.96415 70.2379 9.06119 70.191Z" fill="#8860C3"/>
</svg>
