<svg width="32" height="32" viewBox="0 0 32 32" fill="none" xmlns="http://www.w3.org/2000/svg">
<path d="M18.3 16L14.1677 13.6V18.4L18.3 16Z" fill="#CBB1ED"/>
<path fill-rule="evenodd" clip-rule="evenodd" d="M0 16C0 7.16344 7.0479 0 15.7419 0C24.436 0 31.4839 7.16344 31.4839 16C31.4839 24.8366 24.436 32 15.7419 32C7.0479 32 0 24.8366 0 16ZM21.8419 10.7C22.5307 10.9 23.0226 11.4 23.2194 12.1C23.6129 13.4 23.6129 16 23.6129 16C23.6129 16 23.6129 18.6 23.3178 19.9C23.121 20.6 22.629 21.1 21.9403 21.3C20.6613 21.6 15.7419 21.6 15.7419 21.6C15.7419 21.6 10.7242 21.6 9.54355 21.3C8.85484 21.1 8.36291 20.6 8.16613 19.9C7.87097 18.6 7.87097 16 7.87097 16C7.87097 16 7.87097 13.4 8.06774 12.1C8.26451 11.4 8.75646 10.9 9.44517 10.7C10.7242 10.4 15.6435 10.4 15.6435 10.4C15.6435 10.4 20.6613 10.4 21.8419 10.7Z" fill="#CBB1ED"/>
</svg>
