<svg width="21" height="20" viewBox="0 0 21 20" fill="none" xmlns="http://www.w3.org/2000/svg">
<path d="M6.85742 3.33301H13.5241C14.4081 3.33301 15.256 3.6842 15.8811 4.30932C16.5062 4.93444 16.8574 5.78229 16.8574 6.66634C16.8574 7.5504 16.5062 8.39824 15.8811 9.02336C15.256 9.64849 14.4081 9.99967 13.5241 9.99967H6.85742V3.33301Z" stroke="#303030" stroke-width="1.5" stroke-linecap="round" stroke-linejoin="round"/>
<path d="M6.85742 10H14.3574C15.2415 10 16.0893 10.3512 16.7144 10.9763C17.3396 11.6014 17.6908 12.4493 17.6908 13.3333C17.6908 14.2174 17.3396 15.0652 16.7144 15.6904C16.0893 16.3155 15.2415 16.6667 14.3574 16.6667H6.85742V10Z" stroke="#303030" stroke-width="1.5" stroke-linecap="round" stroke-linejoin="round"/>
</svg>
