<svg width="34" height="34" viewBox="0 0 34 34" fill="none" xmlns="http://www.w3.org/2000/svg">
<path d="M15.583 29.3955C7.96134 29.3955 1.77051 23.2047 1.77051 15.583C1.77051 7.96134 7.96134 1.77051 15.583 1.77051C23.2047 1.77051 29.3955 7.96134 29.3955 15.583C29.3955 23.2047 23.2047 29.3955 15.583 29.3955ZM15.583 3.89551C9.13717 3.89551 3.89551 9.13717 3.89551 15.583C3.89551 22.0288 9.13717 27.2705 15.583 27.2705C22.0288 27.2705 27.2705 22.0288 27.2705 15.583C27.2705 9.13717 22.0288 3.89551 15.583 3.89551Z" fill="#662D91"/>
<path d="M28.5599 32.2858C28.4465 32.2858 28.3332 32.2717 28.234 32.2575C27.5682 32.1725 26.364 31.7192 25.684 29.6933C25.3299 28.6308 25.4574 27.5683 26.0382 26.7608C26.619 25.9533 27.5965 25.5 28.7157 25.5C30.1607 25.5 31.294 26.0525 31.804 27.03C32.314 28.0075 32.1724 29.2542 31.3649 30.4583C30.359 31.9742 29.2682 32.2858 28.5599 32.2858ZM27.7099 29.0275C27.9507 29.7642 28.2907 30.1325 28.5174 30.1608C28.744 30.1892 29.169 29.92 29.6082 29.2825C30.019 28.6733 30.0474 28.2342 29.9482 28.0358C29.849 27.8375 29.4524 27.625 28.7157 27.625C28.2765 27.625 27.9507 27.7667 27.7665 28.0075C27.5965 28.2483 27.5682 28.6167 27.7099 29.0275Z" fill="#662D91"/>
</svg>
