<svg width="217" height="219" viewBox="0 0 217 219" fill="none" xmlns="http://www.w3.org/2000/svg">
<path fill-rule="evenodd" clip-rule="evenodd" d="M188.481 25.2525C188.628 26.2816 187.815 27.3734 186.665 27.691L132.535 42.6444C131.385 42.962 130.334 42.3852 130.187 41.3561C130.04 40.3269 130.853 39.2352 132.003 38.9175L186.134 23.9642C187.284 23.6465 188.335 24.2233 188.481 25.2525Z" fill="#FFF4BA"/>
<path fill-rule="evenodd" clip-rule="evenodd" d="M160.394 9.77147C161.548 9.49529 162.566 10.1153 162.667 11.1563C163.004 14.6514 163.204 18.1626 163.402 21.6337C163.448 22.4371 163.493 23.2383 163.541 24.0366C163.793 28.3036 164.09 32.5131 164.684 36.6791C164.968 38.6681 165.322 40.7136 165.684 42.7994C166.669 48.4798 167.706 54.4587 167.499 60.4074C167.462 61.4738 166.493 62.4606 165.334 62.6114C164.175 62.7622 163.266 62.0199 163.303 60.9534C163.497 55.3906 162.552 49.9416 161.588 44.3802C161.213 42.218 160.835 40.0388 160.52 37.8294C159.906 33.5185 159.602 29.1919 159.349 24.9106C159.301 24.0959 159.254 23.2837 159.208 22.4735C159.011 19.0071 158.815 15.5785 158.485 12.1565C158.384 11.1155 159.239 10.0477 160.394 9.77147Z" fill="#FFF4BA"/>
<path fill-rule="evenodd" clip-rule="evenodd" d="M128.926 97.2488C128.254 98.2204 126.943 98.6314 125.999 98.1668C125.615 97.978 125.029 97.9444 124.032 98.1453C123.546 98.2432 123.045 98.3785 122.482 98.5323C122.458 98.5387 122.435 98.5452 122.411 98.5517C121.9 98.6913 121.303 98.8546 120.744 98.9619C117.243 99.6336 113.747 100.496 110.2 101.402C109.55 101.568 108.898 101.736 108.244 101.904C105.347 102.649 102.408 103.405 99.4647 104.071C96.9731 104.634 94.5879 105.26 92.1485 105.9C90.2184 106.406 88.2543 106.922 86.1765 107.422C81.644 108.514 76.9731 109.422 72.2692 109.583C71.1208 109.622 70.3173 108.781 70.4745 107.705C70.6318 106.629 71.6902 105.724 72.8387 105.685C77.0854 105.54 81.395 104.716 85.8047 103.654C87.6285 103.215 89.553 102.712 91.4993 102.203C94.0759 101.529 96.6905 100.846 99.1595 100.287C102.026 99.6388 104.878 98.9054 107.771 98.1614C108.433 97.9914 109.096 97.8209 109.762 97.6507C113.322 96.7409 116.94 95.8468 120.595 95.1455C120.957 95.0762 121.383 94.9606 121.963 94.8019L121.967 94.801C122.509 94.6527 123.166 94.4731 123.839 94.3375C125.164 94.0708 126.903 93.8957 128.433 94.6481C129.377 95.1127 129.598 96.2771 128.926 97.2488Z" fill="#FFF4BA"/>
<path fill-rule="evenodd" clip-rule="evenodd" d="M95.9768 74.0495C97.1312 73.77 98.1516 74.3866 98.2559 75.4267C98.693 79.7866 99.1842 84.1695 99.6775 88.5703C100.873 99.2391 102.081 110.013 102.557 120.819C102.603 121.872 101.702 122.909 100.544 123.136C99.3854 123.363 98.4089 122.694 98.3625 121.641C97.8919 110.957 96.7046 100.365 95.5141 89.7444C95.0178 85.317 94.521 80.8848 94.0753 76.4389C93.971 75.3988 94.8223 74.329 95.9768 74.0495Z" fill="#FFF4BA"/>
<path fill-rule="evenodd" clip-rule="evenodd" d="M98.7735 170.116C98.9202 171.145 98.1071 172.237 96.9572 172.555C92.6418 173.747 88.302 174.604 84.0497 175.424C83.7594 175.48 83.4696 175.536 83.1802 175.592C79.2017 176.358 75.3053 177.108 71.4423 178.096C69.0897 178.698 66.7493 179.279 64.4173 179.858C59.8856 180.984 55.3854 182.102 50.8888 183.344C49.7389 183.662 48.6879 183.085 48.5411 182.056C48.3944 181.027 49.2076 179.935 50.3574 179.617C54.9129 178.359 59.5272 177.212 64.0999 176.076C66.4161 175.501 68.7217 174.928 71.0035 174.345C75.0161 173.319 79.0505 172.542 82.9988 171.782C83.2985 171.724 83.5977 171.667 83.8964 171.609C88.1584 170.787 92.3223 169.961 96.4259 168.828C97.5757 168.51 98.6268 169.087 98.7735 170.116Z" fill="#FFF4BA"/>
<path fill-rule="evenodd" clip-rule="evenodd" d="M72.4897 152.199C73.6438 151.917 74.6665 152.531 74.7739 153.57C75.892 164.392 75.7026 175.667 75.133 186.667C75.0776 187.736 74.0942 188.711 72.9363 188.845C71.7785 188.979 70.8848 188.221 70.9401 187.152C71.5061 176.221 71.6856 165.155 70.5943 154.593C70.4869 153.553 71.3355 152.482 72.4897 152.199Z" fill="#FFF4BA"/>
<path fill-rule="evenodd" clip-rule="evenodd" d="M44.0736 74.8286C44.2203 75.8577 43.4071 76.9495 42.2573 77.2671L25.6017 81.8682C24.4519 82.1858 23.4008 81.609 23.2541 80.5799C23.1074 79.5507 23.9205 78.459 25.0704 78.1413L41.7259 73.5403C42.8758 73.2227 43.9268 73.7995 44.0736 74.8286Z" fill="#FFF4BA"/>
<path fill-rule="evenodd" clip-rule="evenodd" d="M32.0698 66.5237C33.2197 66.2061 34.2707 66.7829 34.4174 67.812L36.5428 82.7194C36.6895 83.7485 35.8763 84.8403 34.7265 85.1579C33.5767 85.4755 32.5256 84.8988 32.3789 83.8696L30.2535 68.9623C30.1068 67.9331 30.92 66.8414 32.0698 66.5237Z" fill="#FFF4BA"/>
<path fill-rule="evenodd" clip-rule="evenodd" d="M205.326 82.8955C205.282 83.9629 204.307 84.945 203.148 85.0891C201.927 85.2411 200.729 85.4289 199.477 85.6251L199.462 85.6274C198.215 85.8227 196.918 86.0259 195.562 86.1946C195.064 86.2566 194.389 86.4748 193.38 86.818C193.342 86.8312 193.302 86.8446 193.262 86.8582C192.414 87.1474 191.273 87.5362 190.24 87.6648C189.082 87.8089 188.179 87.0605 188.223 85.9931C188.267 84.9257 189.242 83.9437 190.401 83.7995C190.887 83.739 191.554 83.5228 192.567 83.1781C192.601 83.1664 192.636 83.1544 192.672 83.1423C193.526 82.8514 194.675 82.4597 195.722 82.3294C196.993 82.1713 198.219 81.9797 199.475 81.7829L199.522 81.7755C200.752 81.5828 202.013 81.3851 203.309 81.2239C204.467 81.0797 205.37 81.8282 205.326 82.8955Z" fill="#FFF4BA"/>
<path fill-rule="evenodd" clip-rule="evenodd" d="M195.654 75.5648C196.804 75.2471 197.855 75.8239 198.002 76.8531L199.862 89.897C200.008 90.9261 199.195 92.0179 198.045 92.3355C196.896 92.6532 195.845 92.0764 195.698 91.0472L193.838 78.0033C193.691 76.9742 194.505 75.8824 195.654 75.5648Z" fill="#FFF4BA"/>
<path fill-rule="evenodd" clip-rule="evenodd" d="M34.6344 145.224C34.7811 146.254 33.9679 147.345 32.8181 147.663L16.1625 152.264C15.0127 152.582 13.9616 152.005 13.8149 150.976C13.6682 149.947 14.4813 148.855 15.6312 148.537L32.2868 143.936C33.4366 143.618 34.4876 144.195 34.6344 145.224Z" fill="#FFF4BA"/>
<path fill-rule="evenodd" clip-rule="evenodd" d="M23.1652 138.725C24.3243 138.541 25.2626 139.253 25.2608 140.315C25.2578 142.076 25.1806 143.846 25.1062 145.553C25.0672 146.445 25.0291 147.319 25.0026 148.167C24.9239 150.691 24.9401 153.118 25.2873 155.554C25.434 156.583 24.6208 157.675 23.471 157.992C22.3212 158.31 21.2701 157.733 21.1234 156.704C20.7356 153.984 20.7256 151.326 20.8067 148.726C20.8361 147.783 20.8764 146.864 20.9164 145.954C20.9889 144.3 21.0603 142.674 21.0631 140.978C21.0649 139.917 22.006 138.908 23.1652 138.725Z" fill="#FFF4BA"/>
</svg>
