<svg width="37" height="37" viewBox="0 0 37 37" fill="none" xmlns="http://www.w3.org/2000/svg">
<path d="M24.2229 25.8585L11.1414 12.777C10.6944 12.33 10.6944 11.5888 11.1414 11.1418C11.5883 10.6949 12.3296 10.6949 12.7766 11.1418L25.8581 24.2233C26.305 24.6702 26.305 25.4115 25.8581 25.8585C25.4111 26.3054 24.6698 26.3054 24.2229 25.8585Z" fill="#403A64"/>
<path d="M11.1419 25.8585C10.695 25.4115 10.695 24.6702 11.1419 24.2233L24.2234 11.1418C24.6704 10.6949 25.4117 10.6949 25.8586 11.1418C26.3056 11.5888 26.3056 12.33 25.8586 12.777L12.7771 25.8585C12.3302 26.3054 11.5889 26.3054 11.1419 25.8585Z" fill="#403A64"/>
</svg>
