<svg width="65" height="92" viewBox="0 0 65 92" fill="none" xmlns="http://www.w3.org/2000/svg">
<path d="M3.984 92V79.84L33.936 48.608C37.6907 44.6827 40.464 41.056 42.256 37.728C44.048 34.4 44.944 30.9867 44.944 27.488C44.944 23.136 43.5787 19.8507 40.848 17.632C38.1173 15.4133 34.1493 14.304 28.944 14.304C24.7627 14.304 20.752 15.072 16.912 16.608C13.072 18.0587 9.31733 20.3627 5.648 23.52L0.272 11.232C3.94133 7.98933 8.464 5.38666 13.84 3.424C19.3013 1.46133 25.0187 0.479996 30.992 0.479996C40.72 0.479996 48.1867 2.656 53.392 7.008C58.5973 11.36 61.2 17.5893 61.2 25.696C61.2 31.328 59.8773 36.704 57.232 41.824C54.5867 46.8587 50.4907 52.1493 44.944 57.696L19.984 82.656V78.304H64.784V92H3.984Z" fill="#F5E3FF"/>
</svg>
