<svg width="67" height="57" viewBox="0 0 67 57" fill="none" xmlns="http://www.w3.org/2000/svg">
<path fill-rule="evenodd" clip-rule="evenodd" d="M32.0675 13.95C32.1153 13.9916 32.2048 14.073 32.2696 14.1715C32.3822 14.3425 32.5188 14.4801 32.7012 14.6636C32.7691 14.732 32.8434 14.8067 32.9251 14.8919C33.1943 15.1727 33.5171 15.5482 33.6551 16.0681C33.8454 16.7851 34.2192 17.3854 34.6991 17.9847C34.9407 18.2863 35.2028 18.58 35.481 18.8912L35.4967 18.9087C35.7666 19.2105 36.051 19.5286 36.3232 19.865C37.1061 20.8328 37.9575 21.6892 38.827 22.5638C39.2619 23.0013 39.7013 23.4434 40.139 23.9062C41.4248 25.2659 42.6329 26.7487 43.3778 28.6301C43.3954 28.6744 43.4119 28.7141 43.4275 28.7498C43.4763 28.714 43.527 28.6758 43.5843 28.6327C43.6074 28.6153 43.6315 28.5972 43.6571 28.578C43.7749 28.4896 43.8855 28.4086 43.9903 28.332C44.3522 28.067 44.6439 27.8535 44.9227 27.5612C45.2895 27.1766 45.7812 26.8885 46.1747 26.6579C46.2033 26.6412 46.2313 26.6247 46.2588 26.6085C46.7091 26.3436 47.0352 26.1369 47.246 25.8887C49.3319 23.4326 51.313 20.7669 53.2546 18.1193C53.5595 17.7034 53.8544 17.2789 54.1562 16.8446C54.2063 16.7724 54.2567 16.7 54.3073 16.6272C54.66 16.1203 55.0236 15.6029 55.4116 15.0941C55.5119 14.9626 55.6254 14.795 55.759 14.5945C55.7766 14.5682 55.7944 14.5413 55.8126 14.5141C55.9282 14.3402 56.0553 14.1492 56.1867 13.9632C56.4674 13.566 56.8386 13.0848 57.2769 12.8013C57.2846 12.7935 57.3003 12.7773 57.3246 12.7493C57.3769 12.6889 57.4432 12.6043 57.5227 12.4969C57.6411 12.3369 57.7698 12.1524 57.9048 11.959C57.9526 11.8903 58.0013 11.8206 58.0505 11.7504C58.2284 11.497 58.4219 11.2266 58.5853 11.0392C58.6546 10.9597 58.7747 10.8275 58.9238 10.7383C58.9879 10.6999 59.185 10.5896 59.4476 10.6253C59.787 10.6714 59.9546 10.9088 60.0156 11.0628C60.0657 11.1893 60.1035 11.3579 60.1313 11.4878C60.1505 11.5771 60.1637 11.642 60.1767 11.706C60.1909 11.7762 60.205 11.8454 60.2265 11.9446C60.2598 12.0985 60.2915 12.2281 60.3225 12.3236C60.3302 12.3475 60.3368 12.3658 60.3421 12.3792C60.5025 12.5465 60.5946 12.7424 60.6517 12.9047C60.7181 13.0938 60.7561 13.2936 60.781 13.4715C60.8062 13.6511 60.821 13.832 60.8333 13.9829C60.8463 14.1442 60.8558 14.2603 60.8691 14.3481C60.8988 14.5429 60.9582 14.7208 61.0361 14.9436L61.0473 14.9758C61.1187 15.1797 61.2085 15.4361 61.2514 15.718C61.3496 16.3641 61.5683 17.0183 61.8103 17.7391L61.8143 17.751C62.0487 18.4491 62.3041 19.2098 62.4231 19.9921L63.1987 25.0918C63.3103 25.8255 63.496 26.5475 63.6941 27.3003C63.7042 27.3388 63.7144 27.3773 63.7246 27.416C63.9111 28.124 64.1054 28.8618 64.2347 29.6177C64.5676 31.5641 64.7728 33.4983 64.9544 35.4355C65.051 36.4651 65.1251 37.4903 65.1989 38.5102C65.3386 40.4437 65.4771 42.358 65.7643 44.2467C65.7991 44.4758 65.8782 44.7242 65.973 45.0157L65.9844 45.0506C66.0678 45.3066 66.1712 45.624 66.2036 45.914C66.2376 46.2179 66.2148 46.6873 65.7946 47.0245C65.4227 47.3231 64.9115 47.3672 64.424 47.3376C63.7428 47.2963 63.0082 47.3748 62.2296 47.5009C61.8698 47.5591 61.5095 47.6259 61.1434 47.6938L61.057 47.7098C60.6647 47.7825 60.2657 47.8556 59.8737 47.9153C58.0372 48.1946 56.1995 48.4296 54.3716 48.6634C54.1437 48.6926 53.9159 48.7217 53.6883 48.7509C51.6317 49.0147 49.5869 49.2841 47.5468 49.622C46.5355 49.7896 45.5274 50.0177 44.4941 50.2516C44.4401 50.2638 44.386 50.2761 44.3319 50.2883C43.2496 50.5331 42.1402 50.7804 41.0162 50.9514C39.6918 51.1528 38.368 51.327 37.0496 51.5006C34.0603 51.894 31.0988 52.2837 28.2213 52.9787C24.0636 53.983 19.7521 54.6896 15.5526 55.3283C14.4395 55.4976 13.3581 55.7389 12.2927 56.0766C12.2611 56.0866 12.1826 56.1146 12.0595 56.1585C12.0272 56.17 11.9918 56.1827 11.9534 56.1963C11.7807 56.2578 11.5663 56.3335 11.3567 56.4033C11.1515 56.4715 10.9325 56.5403 10.7559 56.5835C10.6742 56.6034 10.5643 56.6274 10.4572 56.6349C10.4118 56.6381 10.3031 56.6438 10.1798 56.6123C10.0594 56.5816 9.72903 56.4525 9.6713 56.073C9.53174 55.1554 9.35022 54.2428 9.16572 53.3162L9.1633 53.3041C8.9805 52.3861 8.79489 51.4539 8.65218 50.5157C8.37971 48.7242 8.11056 46.5518 8.21068 44.6702C8.23399 44.2322 8.17211 43.7688 8.10103 43.2363C8.09608 43.1992 8.09108 43.1617 8.08606 43.1239C8.013 42.5736 7.93535 41.9439 8.01351 41.3325C8.07819 40.8266 8.02847 40.272 7.92901 39.668C7.88294 39.3882 7.82808 39.1079 7.77178 38.8201L7.7592 38.7558C7.6993 38.4494 7.63841 38.1343 7.59126 37.8243C7.50717 37.2714 7.32855 36.7125 7.13131 36.0954C7.09802 35.9913 7.06421 35.8855 7.03023 35.7778C6.81461 35.0943 6.59585 34.3417 6.55703 33.5697C6.35791 33.4828 6.20847 33.3054 6.17471 33.0834L5.86089 31.0202C5.69423 29.9244 5.61658 28.8288 5.54109 27.7637L5.54077 27.7591C5.4646 26.6845 5.39051 25.6411 5.23367 24.6098C5.13228 23.9433 5.07486 23.2744 5.01924 22.6264L5.01792 22.6111C4.96132 21.9518 4.90616 21.3133 4.80974 20.6794C4.79653 20.5926 4.75763 20.4433 4.70024 20.2231C4.69251 20.1934 4.68444 20.1624 4.67605 20.1302C4.61248 19.8855 4.53658 19.5854 4.49629 19.3175C4.47622 19.1841 4.46114 19.035 4.4669 18.8912C4.47174 18.7705 4.49329 18.5421 4.64352 18.3366C4.72959 18.2188 4.85821 18.1089 5.03231 18.0459C5.20111 17.9848 5.36231 17.9858 5.48943 18.0071C5.72032 18.0458 5.91745 18.1639 6.06309 18.2673C6.27399 18.417 6.48856 18.5334 6.74009 18.6699C6.85906 18.7344 6.9863 18.8035 7.12533 18.8826C7.52389 19.1095 7.97171 19.3985 8.32623 19.8386C8.41896 19.9537 8.50853 20.0668 8.59613 20.1775C9.05109 20.7522 9.45258 21.2593 9.96389 21.6223C11.1207 22.4434 11.6169 23.0793 12.0834 23.6792L12.0878 23.6848C12.5207 24.2414 12.926 24.7625 13.9255 25.472C14.7797 26.0784 15.8636 27.063 16.7149 27.8744C17.145 28.2843 17.5235 28.6575 17.7945 28.9283C17.9301 29.0638 18.039 29.1737 18.1141 29.2501C18.1517 29.2883 18.1809 29.318 18.2008 29.3384L18.2083 29.346L18.322 29.4415C18.4106 29.5157 18.5377 29.6223 18.6919 29.7513C19.0003 30.0093 19.4165 30.3569 19.8484 30.7156C20.3372 31.1216 20.8327 31.5306 21.215 31.8412C21.2432 31.7993 21.2725 31.75 21.3131 31.6817C21.328 31.6566 21.3446 31.6288 21.3631 31.5979C21.4369 31.475 21.5475 31.2952 21.7017 31.1379C22.2214 30.6077 22.5476 29.9452 22.8363 29.1144C22.9693 28.7317 23.0897 28.328 23.22 27.8909C23.2315 27.8526 23.243 27.814 23.2546 27.7751C23.3969 27.2984 23.5512 26.7885 23.7393 26.2607C23.9146 25.7688 24.0353 25.3859 24.157 24.9999C24.2447 24.7217 24.3328 24.4419 24.4424 24.1186C24.6874 23.395 25.0165 22.7893 25.3462 22.2263C25.4245 22.0925 25.5019 21.9626 25.5782 21.8346C25.8295 21.4126 26.0689 21.0108 26.2899 20.5568C26.5053 20.1144 26.8079 19.7361 27.062 19.4183L27.071 19.4072C27.3415 19.069 27.5622 18.7912 27.7197 18.4818C28.2231 17.4926 28.8327 16.6296 29.4325 15.7803C29.4628 15.7374 29.4931 15.6945 29.5234 15.6517C29.6853 15.4223 29.8356 15.1721 30.0007 14.8972C30.0174 14.8694 30.0343 14.8413 30.0514 14.813C30.2304 14.5154 30.4288 14.1903 30.6549 13.8939C30.951 13.5057 31.4034 13.5995 31.5045 13.6268C31.6505 13.6661 31.7721 13.7366 31.8449 13.7831C31.9277 13.836 32.0047 13.8953 32.0675 13.95ZM17.2136 30.2487L17.1923 30.2269C17.1734 30.2076 17.1453 30.1789 17.1089 30.1419C17.0359 30.0678 16.9295 29.9603 16.7967 29.8276C16.5309 29.5621 16.1599 29.1962 15.739 28.795C14.8882 27.9842 13.8644 27.0587 13.0956 26.5129C11.9411 25.6934 11.4461 25.0583 10.9797 24.4587L10.9767 24.4548C10.5435 23.8978 10.1371 23.3753 9.13397 22.6632C8.45493 22.1812 7.91985 21.5015 7.46965 20.9297C7.38917 20.8275 7.31141 20.7287 7.23602 20.6351C7.03714 20.3882 6.76466 20.1984 6.40818 19.9954C6.32222 19.9465 6.22565 19.894 6.12299 19.8383C6.08079 19.8153 6.03756 19.7919 5.99361 19.7678C5.99645 19.7788 5.99931 19.7898 6.00217 19.8008C6.0099 19.8306 6.01792 19.8612 6.02606 19.8923C6.07901 20.0944 6.13756 20.3178 6.16129 20.4739C6.26451 21.1525 6.32261 21.8293 6.37859 22.4814L6.37888 22.4848C6.43552 23.1444 6.49004 23.7786 6.58521 24.4043C6.7497 25.4858 6.82668 26.5719 6.90182 27.6322L6.90316 27.651C6.9793 28.7253 7.05412 29.7737 7.21244 30.8146L7.51945 32.8332C7.74897 32.9294 7.91091 33.1441 7.91759 33.3994C7.93389 34.0228 8.11255 34.6703 8.33896 35.3879C8.36976 35.4856 8.40161 35.5849 8.43392 35.6857C8.62984 36.2969 8.8428 36.9612 8.9428 37.6187C8.98556 37.8998 9.04166 38.1912 9.10192 38.4995C9.10631 38.5219 9.11072 38.5444 9.11515 38.5671C9.17075 38.8511 9.22902 39.1489 9.27821 39.4476C9.38394 40.0898 9.45643 40.7833 9.369 41.4672C9.31406 41.897 9.36569 42.375 9.44088 42.9413C9.44674 42.9855 9.45276 43.0302 9.45885 43.0756C9.52682 43.581 9.60411 44.1557 9.5744 44.714C9.48151 46.4597 9.73212 48.5243 10.0037 50.3101C10.1422 51.2203 10.3231 52.129 10.5076 53.0557L10.5079 53.057C10.6474 53.7577 10.7889 54.4686 10.9122 55.1863C10.9161 55.185 10.9199 55.1837 10.9237 55.1824C11.1183 55.1177 11.3209 55.0462 11.492 54.9853C11.5211 54.9749 11.5502 54.9646 11.5786 54.9544C11.7054 54.9092 11.8205 54.8681 11.8792 54.8495C13.0246 54.4864 14.1802 54.2293 15.3582 54.0501C19.5525 53.4122 23.8118 52.7132 27.9049 51.7245C30.8596 51.0108 33.9468 50.6043 36.972 50.2059C38.2719 50.0347 39.5603 49.8651 40.8218 49.6732C41.8878 49.5111 42.9497 49.275 44.036 49.0293C44.0938 49.0162 44.1518 49.0031 44.2098 48.99C45.2329 48.7584 46.2791 48.5215 47.3335 48.3469C49.4023 48.0041 51.4704 47.7319 53.5273 47.468C53.7553 47.4388 53.9831 47.4097 54.2108 47.3805C56.0408 47.1465 57.8608 46.9137 59.6793 46.6371C60.0452 46.5814 60.4228 46.5123 60.8166 46.4394L60.9061 46.4228C61.2688 46.3555 61.6448 46.2858 62.0215 46.2248C62.8348 46.0932 63.6934 45.9947 64.5336 46.0457C64.6791 46.0545 64.7779 46.0506 64.8422 46.0439C64.8212 45.8951 64.7602 45.7005 64.6676 45.4159L64.6624 45.3997C64.5745 45.1298 64.4643 44.7912 64.4128 44.4522C64.1188 42.5195 63.9736 40.5161 63.831 38.5502C63.7579 37.5425 63.6856 36.5448 63.5943 35.5714C63.4133 33.6408 63.2116 31.7444 62.8868 29.8456C62.7668 29.1445 62.5852 28.4546 62.3953 27.7335L62.3689 27.6332C62.1721 26.8853 61.9698 26.1041 61.8471 25.2973L61.0715 20.1977C60.9705 19.5335 60.7499 18.8693 60.5086 18.1503L60.4963 18.1139C60.2649 17.4245 60.0149 16.6801 59.8998 15.9236C59.8748 15.7594 59.8202 15.6009 59.7391 15.3689C59.663 15.151 59.5664 14.8744 59.5176 14.5537C59.4976 14.422 59.485 14.2672 59.4739 14.1296L59.4718 14.1034C59.4593 13.9491 59.4469 13.8022 59.4274 13.6629C59.4076 13.522 59.3835 13.412 59.3555 13.3321C59.3392 13.2859 59.3265 13.2638 59.3223 13.2569C59.2132 13.1557 59.1496 13.0407 59.115 12.9707C59.0743 12.8881 59.0423 12.8014 59.0168 12.7229C59.0146 12.7163 59.0125 12.7096 59.0104 12.7029C58.8843 12.8835 58.7544 13.0689 58.6362 13.2286C58.5487 13.3469 58.459 13.4629 58.3738 13.5612C58.3031 13.6427 58.1858 13.7721 58.0423 13.8613C57.8558 13.9773 57.6116 14.2547 57.3172 14.6714C57.1974 14.841 57.0815 15.0151 56.9652 15.1899C56.9468 15.2176 56.9284 15.2452 56.91 15.2729C56.7791 15.4693 56.6433 15.6711 56.5135 15.8413C56.1445 16.3251 55.7951 16.8218 55.4433 17.3275C55.3937 17.3988 55.3441 17.4702 55.2943 17.5419C54.993 17.9755 54.6873 18.4156 54.3715 18.8463C52.4303 21.4934 50.424 24.194 48.3039 26.6904C47.9199 27.1426 47.3841 27.4587 46.9648 27.7054L46.9499 27.7142C46.4934 27.9828 46.1582 28.18 45.9286 28.4207C45.5575 28.8098 45.1405 29.114 44.7635 29.3892C44.6706 29.457 44.5801 29.523 44.4933 29.5881C44.4718 29.6042 44.45 29.6207 44.428 29.6373C44.2855 29.7446 44.1327 29.8597 43.9943 29.9466C43.847 30.0392 43.5934 30.1827 43.2823 30.1853C42.9061 30.1885 42.6393 29.9941 42.4706 29.7896C42.317 29.6036 42.2005 29.3603 42.0985 29.1027C41.4406 27.441 40.3621 26.0974 39.1156 24.7792C38.7245 24.3656 38.3097 23.948 37.8867 23.5222C36.9906 22.6201 36.0577 21.6809 35.2347 20.6636C34.9826 20.352 34.7162 20.0541 34.4401 19.7454L34.4334 19.7379C34.1586 19.4306 33.8734 19.1115 33.6067 18.7784C33.0698 18.1081 32.5821 17.3514 32.3306 16.4035C32.2768 16.2011 32.1444 16.0181 31.9079 15.7715C31.8656 15.7274 31.8169 15.6786 31.7641 15.6256C31.6453 15.5066 31.5058 15.3669 31.3724 15.2135C31.3273 15.2868 31.2815 15.3624 31.2347 15.4403C31.2174 15.469 31.2 15.498 31.1823 15.5274C31.0216 15.7951 30.846 16.0877 30.6543 16.3592C30.6293 16.3947 30.6044 16.43 30.5795 16.4652C29.9671 17.3326 29.4073 18.1254 28.9476 19.0286C28.7265 19.463 28.4287 19.8353 28.1788 20.1475L28.154 20.1785C27.8847 20.5152 27.6724 20.7865 27.528 21.0832C27.2808 21.5912 27.0042 22.0551 26.7479 22.485C26.6758 22.606 26.6053 22.7243 26.5375 22.8401C26.222 23.379 25.9451 23.8956 25.7418 24.4958C25.6525 24.7593 25.568 25.0264 25.4798 25.3048C25.3477 25.7221 25.2077 26.1644 25.0321 26.6568C24.8562 27.1505 24.7101 27.6324 24.568 28.1085C24.556 28.1485 24.5441 28.1886 24.5321 28.2286C24.4036 28.6596 24.2752 29.0902 24.1325 29.501C23.8198 30.4006 23.4164 31.2745 22.6948 32.0107C22.6617 32.0444 22.6194 32.1035 22.5472 32.2239C22.538 32.2392 22.5278 32.2565 22.5167 32.2753C22.4684 32.357 22.4034 32.467 22.3307 32.5705C22.3267 32.5799 22.3221 32.5907 22.317 32.603C22.293 32.6601 22.2585 32.7432 22.2239 32.8232C22.1906 32.9002 22.1491 32.993 22.1093 33.069C22.0923 33.1013 22.0596 33.162 22.0152 33.2208C21.9988 33.2424 21.9421 33.3175 21.8463 33.3841C21.7969 33.4184 21.6932 33.4818 21.5442 33.5054C21.3697 33.5329 21.1797 33.4973 21.0234 33.3864C20.7455 33.1891 19.7902 32.4025 18.939 31.6955C18.5056 31.3355 18.088 30.9868 17.7789 30.7282C17.6243 30.5988 17.4968 30.492 17.4079 30.4174L17.2686 30.3006L17.2433 30.2793L17.2136 30.2487ZM5.83306 18.9011C5.83326 18.9013 5.833 18.9052 5.83172 18.9122C5.83223 18.9043 5.83287 18.9008 5.83306 18.9011ZM60.3535 12.406C60.3534 12.4058 60.3532 12.4055 60.3531 12.4052C60.3567 12.4114 60.3566 12.4123 60.3535 12.406Z" fill="#B3ABE3"/>
<path fill-rule="evenodd" clip-rule="evenodd" d="M4.13943 8.55882C4.08575 8.20586 4.34478 7.87371 4.718 7.81694C5.38412 7.71563 6.14723 7.85761 6.80964 8.0771C7.48338 8.30034 8.14661 8.63498 8.62753 9.00613C9.11354 9.38121 9.33413 9.96312 9.45033 10.4394C9.57139 10.9355 9.60982 11.4548 9.63463 11.8188C9.68632 12.5772 9.5117 13.2353 9.15378 13.7801C8.79924 14.3198 8.29096 14.709 7.73644 14.9773C6.64453 15.5056 5.2978 15.6045 4.23732 15.4369C2.9515 15.2337 1.1174 14.6132 0.826959 12.7036C0.825023 12.6909 0.82305 12.678 0.821046 12.6648C0.771547 12.3403 0.703255 11.8925 0.717008 11.4547C0.731033 11.0082 0.832036 10.4444 1.25454 10.0098C1.96213 9.28194 3.0145 8.72676 4.17153 8.92807C4.54126 8.9924 4.781 9.32963 4.70701 9.68129C4.63301 10.033 4.2733 10.2659 3.90357 10.2016C3.36878 10.1085 2.76486 10.3505 2.25148 10.8786C2.16803 10.9645 2.09229 11.1397 2.08186 11.4717C2.07171 11.7947 2.12504 12.1465 2.1785 12.4981C2.33171 13.5054 3.28567 13.9705 4.48349 14.1598C5.32234 14.2924 6.3588 14.2002 7.13189 13.8262C7.50986 13.6433 7.80452 13.4035 7.99812 13.1089C8.18835 12.8193 8.30705 12.4377 8.27201 11.9236C8.24692 11.5556 8.21294 11.1329 8.11974 10.751C8.02169 10.3491 7.88621 10.1168 7.75502 10.0156C7.41623 9.7541 6.89685 9.48446 6.34019 9.30002C5.7722 9.11182 5.25712 9.04271 4.91241 9.09513C4.53919 9.1519 4.19312 8.91178 4.13943 8.55882Z" fill="#B3ABE3"/>
<path fill-rule="evenodd" clip-rule="evenodd" d="M31.6849 4.55398C31.4627 4.40461 31.1551 4.39331 30.9113 4.54761C30.5953 4.74757 30.5058 5.1499 30.7115 5.44625C30.8529 5.65001 31.0615 5.7333 31.1636 5.76752C31.2835 5.80774 31.4074 5.82839 31.5098 5.8408C31.7157 5.86578 31.9566 5.87067 32.1639 5.87303C32.2165 5.87362 32.2673 5.87406 32.3166 5.87448C32.4778 5.87587 32.6219 5.8771 32.7523 5.88334C32.9076 5.89077 32.9641 5.90344 32.9647 5.9016C32.9648 5.9014 32.9642 5.90103 32.963 5.90046C33.4195 6.09566 33.6732 6.40176 33.7846 6.75745C33.9016 7.131 33.874 7.60642 33.6601 8.11839C33.5836 8.30135 33.495 8.47881 33.3954 8.67831C33.3602 8.74884 33.3236 8.82212 33.2856 8.89939C33.1554 9.1647 33.0155 9.46613 32.9208 9.78496C32.8907 9.8109 32.8373 9.84791 32.7483 9.89801C32.6805 9.93616 32.6155 9.96938 32.5397 10.0081C32.506 10.0253 32.4702 10.0436 32.431 10.0639C32.323 10.12 32.1759 10.1983 32.049 10.2935C31.7971 10.4824 31.4296 10.7156 31.0552 10.8873C30.6531 11.0718 30.3629 11.1295 30.2164 11.111C29.9399 11.0762 29.6823 11.0809 29.4669 11.0895C29.4039 11.0921 29.3467 11.0947 29.2934 11.0972C29.1493 11.104 29.0344 11.1094 28.9147 11.1065C28.6571 11.1003 28.4762 11.0575 28.2782 10.8767C28.2761 10.8725 28.2736 10.8674 28.2708 10.8613C28.2518 10.8199 28.2281 10.7556 28.2027 10.6665C28.1521 10.4889 28.1077 10.2585 28.0749 10.0119C28.0424 9.76689 28.0233 9.52118 28.0189 9.31697C28.0168 9.21482 28.0184 9.12864 28.0229 9.06156C28.0268 9.00275 28.0319 8.97394 28.033 8.96746C28.0333 8.96583 28.0334 8.96561 28.0331 8.96669C28.2403 8.21286 28.4671 7.75845 28.7586 7.46297C29.0324 7.18546 29.4307 6.98152 30.1416 6.87339C30.5149 6.81662 30.7739 6.48447 30.7202 6.13151C30.6665 5.77855 30.3205 5.53843 29.9472 5.59519C29.0385 5.7334 28.3175 6.03071 27.7687 6.58695C27.2376 7.12523 26.9383 7.8371 26.7121 8.65969C26.6561 8.86326 26.6488 9.13304 26.6537 9.36453C26.6592 9.61879 26.6823 9.90989 26.7202 10.1947C26.7578 10.4779 26.8121 10.7704 26.8841 11.0232C26.92 11.1494 26.9636 11.2773 27.0173 11.3943C27.0666 11.5019 27.1448 11.6459 27.2697 11.7667C27.788 12.2675 28.3469 12.3884 28.8573 12.4007C29.0331 12.4049 29.2199 12.3961 29.3769 12.3886C29.4213 12.3865 29.4633 12.3845 29.502 12.383C29.6957 12.3752 29.8582 12.3747 30.0147 12.3944C30.5782 12.4653 31.1794 12.2592 31.6333 12.0509C32.115 11.8299 32.5684 11.5413 32.8852 11.3036C32.9093 11.2855 32.9615 11.2541 33.0711 11.1973C33.0936 11.1856 33.1193 11.1724 33.1473 11.1582C33.2318 11.115 33.3363 11.0616 33.4307 11.0084C33.56 10.9357 33.7172 10.8384 33.8572 10.7124C33.998 10.5857 34.1547 10.4002 34.2258 10.1472C34.2874 9.92829 34.3905 9.69726 34.5219 9.42953C34.5505 9.37124 34.5811 9.30998 34.6128 9.24656C34.7174 9.03726 34.8337 8.80448 34.9284 8.5778C35.2312 7.85303 35.3149 7.07522 35.0941 6.37018C34.8687 5.65009 34.3389 5.05427 33.5231 4.71105C33.2992 4.61686 33.0184 4.59873 32.8437 4.59037C32.6822 4.58264 32.4989 4.58111 32.3326 4.57971C32.2879 4.57934 32.2444 4.57897 32.2029 4.5785C31.9896 4.57608 31.8228 4.57088 31.7051 4.5566C31.6977 4.55571 31.691 4.55483 31.6849 4.55398ZM28.2865 10.8919C28.2865 10.8919 28.2862 10.8915 28.2857 10.8907L28.2865 10.8919Z" fill="#B3ABE3"/>
<path fill-rule="evenodd" clip-rule="evenodd" d="M57.8265 0.425024C58.1119 0.394522 58.3776 0.365278 58.631 0.326739C58.9031 0.285348 59.1608 0.401804 59.3013 0.604759C59.375 0.369227 59.5864 0.181418 59.8586 0.140027C61.0294 -0.0380488 62.2581 0.475755 62.9748 1.31798C63.3421 1.74959 63.5946 2.28942 63.6225 2.89642C63.6506 3.50915 63.4474 4.14103 62.9891 4.74215C61.3919 6.83735 59.6311 8.33826 56.8163 8.29181C56.0494 8.27916 55.2302 7.92592 54.552 7.5142C53.8576 7.09263 53.208 6.54669 52.7757 6.02963C51.943 5.03369 51.9593 3.68312 52.431 2.65237C52.7207 2.0193 53.3807 1.68719 53.8556 1.4917C54.0901 1.39516 54.3316 1.31242 54.5369 1.24206C54.5555 1.23571 54.5737 1.22946 54.5916 1.22331C54.8233 1.14376 54.9891 1.08448 55.1075 1.02798C55.7066 0.742151 56.3515 0.611115 56.947 0.527997C57.2245 0.489269 57.5032 0.459523 57.7661 0.431482C57.7863 0.42932 57.8065 0.427169 57.8265 0.425024ZM59.3827 1.1402C59.309 1.37573 59.0975 1.56354 58.8254 1.60493C58.536 1.64895 58.2402 1.68121 57.9573 1.71146C57.9386 1.71346 57.9199 1.71545 57.9014 1.71743C57.6337 1.74601 57.3772 1.77339 57.1239 1.80874C56.58 1.88466 56.1069 1.99077 55.7051 2.18247C55.4995 2.2806 55.2529 2.36581 55.0376 2.43974C55.0212 2.44537 55.0049 2.45098 54.9886 2.45656C54.776 2.52946 54.5744 2.59862 54.3818 2.67788C53.9307 2.86355 53.7399 3.02505 53.6822 3.15101C53.359 3.85736 53.4008 4.67652 53.8512 5.21513C54.1793 5.60757 54.7131 6.06317 55.3018 6.42056C55.9067 6.7878 56.4703 6.99092 56.8627 6.99739C58.9972 7.03261 60.3848 5.96587 61.887 3.99529C62.1822 3.60812 62.2716 3.26275 62.2583 2.97411C62.2448 2.67975 62.1219 2.39409 61.9065 2.14097C61.4579 1.61372 60.6921 1.32102 60.053 1.41822C59.7808 1.45961 59.5231 1.34315 59.3827 1.1402Z" fill="#B3ABE3"/>
</svg>
