<svg width="32" height="32" viewBox="0 0 32 32" fill="none" xmlns="http://www.w3.org/2000/svg">
<path d="M15.7419 18.8C14.2661 18.8 12.9871 17.6 12.9871 16C12.9871 14.5 14.1677 13.2 15.7419 13.2C17.2177 13.2 18.4968 14.4 18.4968 16C18.4968 17.5 17.2177 18.8 15.7419 18.8Z" fill="#CBB1ED"/>
<path fill-rule="evenodd" clip-rule="evenodd" d="M19.0871 9.2H12.3968C11.6097 9.3 11.2161 9.4 10.921 9.5C10.5274 9.6 10.2323 9.8 9.9371 10.1C9.70354 10.3374 9.59319 10.5748 9.45981 10.8617C9.42465 10.9373 9.38781 11.0166 9.34677 11.1C9.33155 11.1464 9.31398 11.1952 9.29514 11.2475C9.19221 11.5333 9.05161 11.9238 9.05161 12.6V19.4C9.15 20.2 9.24839 20.6 9.34677 20.9C9.44516 21.3 9.64194 21.6 9.9371 21.9C10.1707 22.1374 10.4042 22.2495 10.6865 22.3851C10.761 22.4209 10.8388 22.4583 10.921 22.5C10.9666 22.5155 11.0146 22.5333 11.0661 22.5525C11.3473 22.6571 11.7314 22.8 12.3968 22.8H19.0871C19.8742 22.7 20.2677 22.6 20.5629 22.5C20.9565 22.4 21.2516 22.2 21.5468 21.9C21.7803 21.6626 21.8907 21.4252 22.0241 21.1383C22.0592 21.0626 22.096 20.9835 22.1371 20.9C22.1523 20.8536 22.1699 20.8048 22.1887 20.7525C22.2917 20.4667 22.4323 20.0762 22.4323 19.4V12.6C22.3339 11.8 22.2355 11.4 22.1371 11.1C22.0387 10.7 21.8419 10.4 21.5468 10.1C21.3132 9.86261 21.0797 9.75045 20.7974 9.61488C20.723 9.57918 20.6449 9.54167 20.5629 9.5C20.5172 9.48453 20.4692 9.46666 20.4178 9.44752C20.1366 9.3429 19.7524 9.2 19.0871 9.2ZM15.7419 11.7C13.3806 11.7 11.5113 13.6 11.5113 16C11.5113 18.4 13.3806 20.3 15.7419 20.3C18.1032 20.3 19.9726 18.4 19.9726 16C19.9726 13.6 18.1032 11.7 15.7419 11.7ZM21.0548 11.6C21.0548 12.1523 20.6143 12.6 20.071 12.6C19.5276 12.6 19.0871 12.1523 19.0871 11.6C19.0871 11.0477 19.5276 10.6 20.071 10.6C20.6143 10.6 21.0548 11.0477 21.0548 11.6Z" fill="#CBB1ED"/>
<path fill-rule="evenodd" clip-rule="evenodd" d="M0 16C0 7.16344 7.0479 0 15.7419 0C24.436 0 31.4839 7.16344 31.4839 16C31.4839 24.8366 24.436 32 15.7419 32C7.0479 32 0 24.8366 0 16ZM12.3968 7.7H19.0871C19.9726 7.8 20.5629 7.9 21.0548 8.1C21.6452 8.4 22.0387 8.6 22.5306 9.1C23.0226 9.6 23.3177 10.1 23.5145 10.6C23.7113 11.1 23.9081 11.7 23.9081 12.6V19.4C23.8097 20.3 23.7113 20.9 23.5145 21.4C23.2194 22 23.0226 22.4 22.5306 22.9C22.0387 23.4 21.5468 23.7 21.0548 23.9C20.5629 24.1 19.9726 24.3 19.0871 24.3H12.3968C11.5113 24.2 10.921 24.1 10.429 23.9C9.83871 23.6 9.44516 23.4 8.95323 22.9C8.46129 22.4 8.16613 21.9 7.96936 21.4C7.77258 20.9 7.57581 20.3 7.57581 19.4V12.6C7.67419 11.7 7.77258 11.1 7.96936 10.6C8.26452 10 8.46129 9.6 8.95323 9.1C9.44516 8.6 9.9371 8.3 10.429 8.1C10.921 7.9 11.5113 7.7 12.3968 7.7Z" fill="#CBB1ED"/>
</svg>
