<svg width="32" height="32" viewBox="0 0 32 32" fill="none" xmlns="http://www.w3.org/2000/svg">
<path fill-rule="evenodd" clip-rule="evenodd" d="M0 16C0 7.16344 7.0479 0 15.7419 0C24.436 0 31.4839 7.16344 31.4839 16C31.4839 24.8366 24.436 32 15.7419 32C7.0479 32 0 24.8366 0 16ZM8.06774 13.3V24H11.4129V13.3H8.06774ZM7.87097 9.9C7.87097 11 8.65807 11.8 9.74032 11.8C10.8226 11.8 11.6097 11 11.6097 9.9C11.6097 8.8 10.8226 8 9.74032 8C8.75645 8 7.87097 8.8 7.87097 9.9ZM20.2677 24H23.4161V17.4C23.4161 14.1 21.4484 13 19.579 13C17.9064 13 16.7258 14.1 16.4306 14.8V13.3H13.2823V24H16.6274V18.3C16.6274 16.8 17.6113 16 18.5952 16C19.579 16 20.2677 16.5 20.2677 18.2V24Z" fill="#CBB1ED"/>
</svg>
