<svg width="130" height="67" viewBox="0 0 130 67" fill="none" xmlns="http://www.w3.org/2000/svg">
<path d="M84.9808 29.8585C86.5487 30.8292 92.0201 34.4041 95.4995 36.7163C103.576 42.041 111.452 47.6351 118.994 53.6109C120.17 54.5438 122.247 56.0361 121.334 57.2188C120.388 58.4518 118.475 58.1917 116.379 56.617C111.31 52.8169 106.33 48.8436 100.999 45.4924C93.2101 40.5864 85.6734 35.3682 77.7856 30.7208C74.2413 28.6354 70.6753 26.6085 67.0688 24.6421C63.4592 22.69 59.7997 20.8415 56.0831 19.1161C49.0793 15.9192 41.8486 13.3174 34.5776 10.9538C28.3166 8.89016 22.0165 6.85406 15.5277 5.55404C14.7626 5.40127 13.911 5.31385 13.0357 5.22427C12.1623 5.1532 11.2673 5.09848 10.4292 4.96283C9.04075 4.71246 6.70862 4.47803 5.33474 4.18867C4.74025 4.05523 4.12094 3.95252 3.53194 3.9589C0.818112 4.00837 0.128208 3.41706 1.13935 1.7887C1.36313 1.42798 1.16001 0.925384 1.84456 0.716981C1.87134 0.704775 1.92589 0.689626 1.95779 0.681559C3.00631 0.242628 4.06224 0.181986 5.10415 0.253877C6.14901 0.353535 7.184 0.580598 8.23398 0.684392C18.568 1.79142 28.7185 4.25641 38.533 7.56672C44.5535 9.61378 50.422 12.0795 56.2585 14.5532C57.8639 15.2158 59.5201 15.7841 61.0463 16.6704L61.0217 16.6589C62.6975 17.4123 64.3703 18.1801 66.0128 19.0165C72.1643 22.2525 78.5055 25.7771 84.0981 29.3906C84.3225 29.5212 84.6549 29.6544 84.9808 29.8585Z" fill="#8860C3"/>
<path d="M127.491 64.6986C126.981 65.1412 126.045 65.7133 124.933 66.0326C123.818 66.3757 122.585 66.4879 121.379 66.5036C120.149 66.5079 119.074 66.4348 117.971 66.4068C116.872 66.3737 115.811 66.3366 114.877 66.3095C106.227 66.0813 97.5769 65.8016 88.9659 65.0545C87.62 64.9401 85.3272 64.8559 85.4177 63.3721C85.5157 61.8266 87.0771 60.9729 89.4262 61.1026C95.1139 61.4253 100.824 61.9609 106.496 61.8734C110.645 61.8073 114.787 61.8964 118.928 62.0183C119.979 62.0471 120.977 62.1003 121.861 62.0532C122.756 62.0144 123.567 61.858 124.129 61.5924C124.414 61.4592 124.632 61.305 124.8 61.128C124.964 60.9469 125.098 60.7173 125.192 60.4968C125.341 60.0504 125.351 59.4409 125.104 58.6996C124.904 58.047 124.553 57.3494 124.134 56.6638C123.705 55.97 123.22 55.3241 122.646 54.6316C121.47 53.2074 120.31 51.7628 119.112 50.3549C116.746 47.5126 114.317 44.7286 111.84 41.9824C107.166 36.8439 102.157 32.0265 97.2814 27.0967C93.0673 22.8454 89.0134 18.4274 84.6754 14.2875C83.6543 13.3102 82.1992 12.3883 81.0716 11.3333C80.1282 10.4694 78.5274 9.05756 77.6614 8.12928C77.282 7.72964 76.8955 7.30736 76.456 7.00302C74.4205 5.59519 74.2755 4.75883 76.0009 3.99531C76.381 3.82859 76.5377 3.32055 77.1617 3.51169C77.1905 3.518 77.2387 3.5316 77.2633 3.54303C79.3181 3.94261 80.436 5.52276 81.8536 6.75284C88.8889 12.7591 95.6202 19.1205 102.152 25.6763C106.156 29.7065 109.998 33.8943 113.932 37.9787C115.019 39.0849 116.196 40.1205 117.144 41.3864L117.128 41.3647C118.257 42.5646 119.394 43.7543 120.467 45.0022C121.469 46.1922 122.486 47.3946 123.508 48.6012C124.522 49.8273 125.537 51.0533 126.547 52.2752C127.619 53.6496 128.623 55.1295 129.281 57.0065C129.596 57.9465 129.823 59.0269 129.744 60.2147C129.673 61.4015 129.203 62.6635 128.465 63.5984C128.345 63.7468 128.215 63.9292 128.063 64.1278C127.886 64.3151 127.702 64.5218 127.491 64.6986Z" fill="#8860C3"/>
</svg>
