<svg width="129" height="125" viewBox="0 0 129 125" fill="none" xmlns="http://www.w3.org/2000/svg">
<mask id="path-1-inside-1_1333_3652" fill="white">
<path fill-rule="evenodd" clip-rule="evenodd" d="M38.3646 0.983517C37.5875 1.29672 37.255 2.02675 37.255 3.41943C37.255 4.33537 37.3985 4.7486 37.8863 5.23615C38.6572 6.00732 39.2877 6.03432 40.1774 5.33437C40.7717 4.86715 40.855 4.61617 40.855 3.296C40.855 1.97583 40.7717 1.72486 40.1774 1.25763C39.4394 0.677002 39.2113 0.642288 38.3646 0.983517ZM31.7149 7.52729C30.9437 8.2982 30.9167 8.92872 31.6166 9.81843C32.0839 10.4127 32.3348 10.496 33.655 10.496C34.9852 10.496 35.2243 10.415 35.708 9.79992C36.8161 8.39154 35.7381 6.896 33.6149 6.896C32.6105 6.896 32.2142 7.02766 31.7149 7.52729ZM42.655 7.41029C41.9982 8.06703 41.9749 9.49469 42.611 10.0704C42.9307 10.3597 43.5421 10.496 44.5208 10.496C45.7698 10.496 46.031 10.4063 46.4934 9.81843C47.1933 8.92872 47.1663 8.2982 46.3951 7.52729C45.5587 6.69055 43.4411 6.6242 42.655 7.41029ZM8.16905 11.1283C7.33822 11.5927 6.826 12.7632 7.05485 13.6748C7.28062 14.5751 8.33285 15.3817 9.28094 15.3817C10.3126 15.3817 11.5407 14.1425 11.5407 13.1016C11.5407 11.4747 9.59105 10.3335 8.16905 11.1283ZM76.071 11.6012C74.4206 12.0695 73.1969 12.8903 71.7805 14.4791C70.555 15.8541 70.555 15.8541 69.1407 15.474C66.4016 14.7378 63.1269 15.6589 60.9654 17.7734C59.8615 18.8531 59.8615 18.8531 57.4939 18.8585C55.4959 18.8632 54.904 18.9673 53.7003 19.5274C51.9415 20.3459 50.6233 21.4799 49.6773 22.9893C49.0378 24.0094 48.8812 24.1184 48.3121 23.9402C47.9586 23.8294 46.8593 23.7417 45.8693 23.745C43.7491 23.7525 42.0798 24.4427 40.5979 25.9246C39.2157 27.3067 38.6544 28.7285 37.9166 32.7144C37.3139 35.9722 37.255 36.8879 37.255 43.0202C37.255 49.7504 37.255 49.7504 40.4341 57.5732C42.1824 61.8757 44.5157 67.3359 45.6193 69.7067C47.6258 74.0175 47.6258 74.0175 46.4116 96.4496C45.7438 108.787 45.1297 119.825 45.0472 120.979C44.9035 122.988 44.925 123.104 45.5643 123.743C46.3841 124.563 47.049 124.588 47.9264 123.832C48.5981 123.253 48.5981 123.253 49.9699 98.3103C51.3421 73.3674 51.342 73.3674 49.0247 68.3531C47.75 65.5953 45.3905 60.077 43.7813 56.0903C40.855 48.8414 40.855 48.8414 40.855 42.9534C40.855 37.7354 40.9298 36.6598 41.5133 33.5013C42.231 29.6164 42.5328 28.8943 43.8042 28.0234C45.0678 27.1576 46.2257 27.0596 47.6662 27.6968C49.9967 28.7277 50.2531 28.5965 52.618 25.1673C54.2159 22.8502 56.1761 22.0569 58.6873 22.7108C59.4786 22.917 60.3318 23.0106 60.5833 22.9191C60.8347 22.8273 61.8674 21.9738 62.8777 21.0224C64.9452 19.0751 66.2286 18.5873 68.1479 19.0185C68.9869 19.207 70.52 19.8321 70.8803 20.1324C70.9176 20.1638 70.6355 20.7485 70.2534 21.4323C69.7092 22.4058 69.5593 23.014 69.5622 24.2359C69.5665 26.003 70.0312 27.119 71.3359 28.496C72.1382 29.3425 72.2436 29.6807 73.1076 34.1799C74.3106 40.4431 74.3062 40.8767 73.0282 42.1549C72.1413 43.0415 71.8898 43.1531 70.7782 43.1521C69.276 43.1511 68.0643 42.4913 67.6488 41.4478C67.487 41.0423 66.6675 37.5341 65.8277 33.6522C64.1915 26.0886 64.1223 25.9246 62.5743 25.9246C61.5805 25.9246 60.9111 26.6068 60.9147 27.6163C60.9162 28.0293 61.5609 31.376 62.3472 35.0532C64.0729 43.122 64.1555 43.6944 63.7397 44.6983C62.9873 46.5148 60.3318 47.2163 58.6747 46.0365C57.7549 45.3815 57.497 44.7749 54.8785 37.1103C52.9032 31.3279 52.4791 30.5531 51.2893 30.5531C50.4855 30.5531 49.5978 31.4735 49.5978 32.3069C49.5978 32.6946 50.2921 35.0876 51.1407 37.6246C51.9893 40.1615 52.6836 42.501 52.6836 42.8237C52.6836 43.6078 51.8124 44.4389 50.9903 44.4389C50.5529 44.4389 49.425 43.7412 47.6891 42.3971C46.2388 41.2739 44.7684 40.284 44.4211 40.1968C43.4542 39.954 42.3979 40.9006 42.3979 42.0099C42.3979 42.8096 42.6133 43.058 44.8561 44.8433C48.2751 47.5655 49.1599 48.0332 50.8836 48.0301C51.7445 48.0286 52.7422 47.8259 53.4337 47.5122C54.5692 46.9972 54.5692 46.9972 55.3239 47.9126C55.7389 48.4161 56.6742 49.1394 57.4024 49.5198C58.4914 50.0888 59.0689 50.2128 60.655 50.2182C62.3434 50.2238 62.7597 50.1251 63.9978 49.4269C64.7757 48.988 65.8015 48.1201 66.2769 47.4983C67.3021 46.1581 67.323 46.1471 68.2155 46.4865C68.9111 46.7508 68.9111 46.7508 67.7598 48.3641C64.6623 52.705 62.9572 57.8717 63.3943 61.5913C63.5957 63.3049 64.1557 63.9817 65.3723 63.9817C66.7907 63.9817 67.083 63.4083 67.0869 60.6186C67.0936 55.9195 69.3022 51.5429 74.155 46.6112C76.9108 43.8107 79.4563 41.8695 82.1822 40.4894C83.8238 39.6583 84.055 39.6478 84.055 40.404C84.055 41.8232 85.756 42.5751 86.89 41.6568C87.4421 41.2097 87.5418 40.8641 87.6938 38.8712C87.7892 37.6199 87.8774 35.5435 87.8898 34.2573C87.9083 32.3303 87.8329 31.8504 87.4621 31.5318C87.2148 31.3192 84.1771 30.0196 80.7121 28.6439C77.2471 27.2679 74.1519 25.975 73.8336 25.7703C73.3779 25.4774 73.255 25.1585 73.255 24.2701C73.255 23.3259 73.3841 23.0333 74.0462 22.476C74.4813 22.1099 75.1139 21.8103 75.4518 21.8103C75.7899 21.8103 78.2978 22.1667 81.0251 22.602C83.7523 23.0376 87.43 23.617 89.1978 23.8895C91.2185 24.2009 92.841 24.6047 93.567 24.976C94.9257 25.6713 96.2706 27.3252 96.6632 28.7837C96.8468 29.4652 96.9147 32.8379 96.8612 38.6087C96.7851 46.8573 96.7463 47.4855 96.2287 48.8579C95.9252 49.6619 93.786 53.2661 91.4746 56.8668C86.5981 64.4644 87.7121 63.4731 77.7002 69.1246C72.1904 72.235 71.455 72.7979 71.455 73.9056C71.455 74.4714 72.6335 75.5532 73.2498 75.5532C73.5427 75.5532 74.7909 74.9831 76.0234 74.2862C77.2559 73.5896 78.3004 73.0555 78.3446 73.0998C78.3886 73.144 78.8828 84.4464 79.4426 98.2167C80.4604 123.253 80.4604 123.253 81.1148 123.832C81.948 124.568 82.563 124.563 83.4348 123.813C84.129 123.216 84.1291 123.216 83.1874 99.7061C82.6693 86.7754 82.175 75.0268 82.0891 73.5978C81.9328 70.9997 81.9328 70.9997 84.9866 69.1868C89.8988 66.2713 89.7054 66.4714 93.8264 60.031C99.0994 51.7898 99.1012 51.7865 99.7708 49.8851C100.355 48.2253 100.378 47.8563 100.462 38.9103C100.56 28.4291 100.458 27.487 98.9675 25.1814C97.1307 22.3397 95.206 21.2428 90.6232 20.4263C87.5485 19.8784 87.5485 19.8784 86.5475 17.5085C85.3579 14.6926 84.0421 13.0934 82.1547 12.17C80.4987 11.3597 77.8087 11.1083 76.071 11.6012ZM37.7693 12.296C36.9832 13.0821 37.0495 15.1997 37.8863 16.0361C39.2486 17.3985 40.855 16.4054 40.855 14.2009C40.855 12.5256 40.3366 11.7817 39.1689 11.7817C38.6263 11.7817 38.0845 11.9807 37.7693 12.296ZM80.022 15.24C80.5617 15.4324 81.2395 15.8034 81.5283 16.0644C82.0722 16.5558 83.3944 18.9565 83.2182 19.1327C83.1632 19.1877 81.68 18.9946 79.9224 18.7032C78.15 18.4098 76.0105 18.2162 75.1193 18.2687C74.2355 18.3206 73.5121 18.282 73.5121 18.183C73.5121 18.084 74.004 17.4648 74.605 16.8071C76.2196 15.0402 78.0098 14.5223 80.022 15.24ZM114.052 24.3377C113.409 25.0477 113.467 27.5649 114.141 28.2389C115.345 29.4431 117.226 28.3422 117.226 26.4337C117.226 25.3679 116.874 24.4126 116.352 24.0641C115.816 23.7062 114.48 23.8651 114.052 24.3377ZM108.133 30.3148C107.353 30.9281 107.241 31.9335 107.855 32.8101C108.197 33.2979 108.493 33.3817 109.873 33.3817C111.732 33.3817 112.341 32.9533 112.341 31.6445C112.341 30.549 111.335 29.7817 109.898 29.7817C109.187 29.7817 108.575 29.9663 108.133 30.3148ZM118.886 30.413C118.122 31.1775 118.074 32.1724 118.769 32.8674C119.478 33.5759 122.088 33.6049 122.715 32.9114C123.152 32.429 123.281 31.16 122.944 30.656C122.244 29.6071 119.836 29.4629 118.886 30.413ZM84.2553 34.8811C84.1879 35.6865 84.0756 35.7796 82.364 36.4438C81.3632 36.8323 79.9114 37.512 79.1382 37.9545C77.7318 38.7591 77.7318 38.7591 77.0363 35.2198C76.6536 33.2732 76.3407 31.4961 76.3407 31.2703C76.3407 30.945 77.1677 31.1878 80.3339 32.4424C84.3273 34.0246 84.3273 34.0246 84.2553 34.8811ZM114.052 35.1377C113.754 35.4674 113.626 36.0781 113.626 37.1802C113.626 38.5135 113.713 38.8133 114.198 39.1528C115.667 40.1819 117.226 39.1304 117.226 37.1103C117.226 35.6469 116.462 34.6674 115.319 34.6674C114.83 34.6674 114.299 34.8647 114.052 35.1377ZM10.7693 35.2563C9.39305 35.9498 9.44088 39.0918 10.8377 39.7594C12.3461 40.4804 13.3407 39.5812 13.3407 37.4963C13.3407 36.1758 13.2574 35.9249 12.6631 35.4576C11.8778 34.8397 11.6446 34.815 10.7693 35.2563ZM28.5638 35.7032C27.4643 36.7274 27.5111 38.451 28.6587 39.2029C30.2126 40.2212 32.215 39.1728 32.215 37.3412C32.215 35.5307 29.8755 34.481 28.5638 35.7032ZM4.34071 41.6103C3.68397 42.267 3.66057 43.6947 4.29674 44.2704C5.03911 44.9423 7.5154 44.8549 8.18782 44.1331C8.8888 43.381 8.84945 42.4956 8.08085 41.7273C7.24437 40.8906 5.1268 40.8242 4.34071 41.6103ZM15.1855 41.691C14.4868 42.4349 14.4675 43.5085 15.1407 44.1817C15.5303 44.5713 15.9978 44.696 17.0693 44.696C18.7114 44.696 19.5121 44.1208 19.5121 42.9407C19.5121 41.7959 18.5718 41.096 17.0333 41.096C16.0189 41.096 15.6257 41.2225 15.1855 41.691ZM10.615 46.1784C10.093 46.5269 9.74071 47.4821 9.74071 48.548C9.74071 50.4565 11.6222 51.5574 12.8264 50.3531C13.5349 49.6447 13.5639 47.0347 12.8704 46.4073C12.388 45.9707 11.119 45.8418 10.615 46.1784ZM29.3813 49.7345C12.469 61.0217 2.15191 79.2244 1.09814 99.6348C0.923539 103.017 0.923539 103.017 1.59185 103.685C2.37845 104.471 3.3754 104.547 4.05065 103.872C4.44305 103.479 4.56442 102.825 4.70662 100.336C5.07382 93.9106 5.8882 89.4767 7.73885 83.829C9.17551 79.4447 11.9208 73.6716 14.3037 70.0246C18.6067 63.4386 24.8926 57.133 31.5979 52.6762C33.924 51.1302 34.4264 50.6262 34.4264 49.8389C34.4264 48.9877 33.4526 48.0389 32.5789 48.0389C32.1975 48.0389 30.856 48.7501 29.3813 49.7345ZM122.117 49.3873C120.715 50.1199 120.456 51.8227 121.578 52.9444C123.062 54.4278 125.315 53.5029 125.315 51.4103C125.315 49.6763 123.618 48.603 122.117 49.3873ZM31.7339 61.9351C23.1253 68.7761 16.599 78.9528 13.8483 89.8246C12.9913 93.2127 12.3121 98.2049 12.3121 101.118C12.3121 102.998 12.3787 103.297 12.9072 103.794C13.6794 104.519 14.6511 104.505 15.3531 103.758C15.7959 103.287 15.9132 102.846 15.9165 101.637C15.9291 97.3861 16.9515 91.6415 18.5221 86.9986C21.4078 78.4686 26.6137 70.9634 33.7435 65.0532C34.853 64.1337 35.8495 63.1409 35.9582 62.847C36.3835 61.6975 35.3601 60.3817 34.0407 60.3817C33.8471 60.3817 32.809 61.0806 31.7339 61.9351ZM96.5796 63.4715C96.0934 63.8539 95.8836 64.2566 95.8836 64.8074C95.8836 65.4613 96.3557 66.0839 98.6489 68.4532C107.463 77.5599 111.961 87.8919 112.752 100.843C112.875 102.851 113.008 103.478 113.395 103.865C114.077 104.546 115.072 104.474 115.86 103.686C116.524 103.022 116.526 103.001 116.354 100.11C115.544 86.5671 110.242 74.7208 100.853 65.4757C98.3066 62.9686 97.6252 62.6489 96.5796 63.4715ZM35.6119 74.0872C28.5381 81.2934 24.4861 90.3564 23.9615 100.146C23.81 102.969 23.8265 103.102 24.403 103.716C25.6928 105.089 27.4818 104.106 27.4856 102.022C27.4895 99.9195 27.9991 96.2763 28.6651 93.5879C30.317 86.9214 33.5344 81.3018 38.5921 76.2497C40.4186 74.4251 40.855 73.8424 40.855 73.2283C40.855 72.2324 40.0409 71.4389 39.019 71.4389C38.3345 71.4389 37.8161 71.8418 35.6119 74.0872ZM88.809 72.4708C87.8296 73.5531 88.1603 74.3487 90.654 76.9078C94.3286 80.679 96.855 84.5496 98.5771 89.0465C100.171 93.2099 100.652 95.5321 101.177 101.612C101.347 103.569 101.858 104.353 102.967 104.353C103.328 104.353 103.92 104.055 104.288 103.687C104.945 103.03 104.951 102.984 104.775 100.417C104.061 90.0529 100.098 81.1355 93.0403 74.0113C91.299 72.2532 90.876 71.9531 90.1395 71.9531C89.6023 71.9531 89.1012 72.1481 88.809 72.4708Z"/>
</mask>
<path fill-rule="evenodd" clip-rule="evenodd" d="M38.3646 0.983517C37.5875 1.29672 37.255 2.02675 37.255 3.41943C37.255 4.33537 37.3985 4.7486 37.8863 5.23615C38.6572 6.00732 39.2877 6.03432 40.1774 5.33437C40.7717 4.86715 40.855 4.61617 40.855 3.296C40.855 1.97583 40.7717 1.72486 40.1774 1.25763C39.4394 0.677002 39.2113 0.642288 38.3646 0.983517ZM31.7149 7.52729C30.9437 8.2982 30.9167 8.92872 31.6166 9.81843C32.0839 10.4127 32.3348 10.496 33.655 10.496C34.9852 10.496 35.2243 10.415 35.708 9.79992C36.8161 8.39154 35.7381 6.896 33.6149 6.896C32.6105 6.896 32.2142 7.02766 31.7149 7.52729ZM42.655 7.41029C41.9982 8.06703 41.9749 9.49469 42.611 10.0704C42.9307 10.3597 43.5421 10.496 44.5208 10.496C45.7698 10.496 46.031 10.4063 46.4934 9.81843C47.1933 8.92872 47.1663 8.2982 46.3951 7.52729C45.5587 6.69055 43.4411 6.6242 42.655 7.41029ZM8.16905 11.1283C7.33822 11.5927 6.826 12.7632 7.05485 13.6748C7.28062 14.5751 8.33285 15.3817 9.28094 15.3817C10.3126 15.3817 11.5407 14.1425 11.5407 13.1016C11.5407 11.4747 9.59105 10.3335 8.16905 11.1283ZM76.071 11.6012C74.4206 12.0695 73.1969 12.8903 71.7805 14.4791C70.555 15.8541 70.555 15.8541 69.1407 15.474C66.4016 14.7378 63.1269 15.6589 60.9654 17.7734C59.8615 18.8531 59.8615 18.8531 57.4939 18.8585C55.4959 18.8632 54.904 18.9673 53.7003 19.5274C51.9415 20.3459 50.6233 21.4799 49.6773 22.9893C49.0378 24.0094 48.8812 24.1184 48.3121 23.9402C47.9586 23.8294 46.8593 23.7417 45.8693 23.745C43.7491 23.7525 42.0798 24.4427 40.5979 25.9246C39.2157 27.3067 38.6544 28.7285 37.9166 32.7144C37.3139 35.9722 37.255 36.8879 37.255 43.0202C37.255 49.7504 37.255 49.7504 40.4341 57.5732C42.1824 61.8757 44.5157 67.3359 45.6193 69.7067C47.6258 74.0175 47.6258 74.0175 46.4116 96.4496C45.7438 108.787 45.1297 119.825 45.0472 120.979C44.9035 122.988 44.925 123.104 45.5643 123.743C46.3841 124.563 47.049 124.588 47.9264 123.832C48.5981 123.253 48.5981 123.253 49.9699 98.3103C51.3421 73.3674 51.342 73.3674 49.0247 68.3531C47.75 65.5953 45.3905 60.077 43.7813 56.0903C40.855 48.8414 40.855 48.8414 40.855 42.9534C40.855 37.7354 40.9298 36.6598 41.5133 33.5013C42.231 29.6164 42.5328 28.8943 43.8042 28.0234C45.0678 27.1576 46.2257 27.0596 47.6662 27.6968C49.9967 28.7277 50.2531 28.5965 52.618 25.1673C54.2159 22.8502 56.1761 22.0569 58.6873 22.7108C59.4786 22.917 60.3318 23.0106 60.5833 22.9191C60.8347 22.8273 61.8674 21.9738 62.8777 21.0224C64.9452 19.0751 66.2286 18.5873 68.1479 19.0185C68.9869 19.207 70.52 19.8321 70.8803 20.1324C70.9176 20.1638 70.6355 20.7485 70.2534 21.4323C69.7092 22.4058 69.5593 23.014 69.5622 24.2359C69.5665 26.003 70.0312 27.119 71.3359 28.496C72.1382 29.3425 72.2436 29.6807 73.1076 34.1799C74.3106 40.4431 74.3062 40.8767 73.0282 42.1549C72.1413 43.0415 71.8898 43.1531 70.7782 43.1521C69.276 43.1511 68.0643 42.4913 67.6488 41.4478C67.487 41.0423 66.6675 37.5341 65.8277 33.6522C64.1915 26.0886 64.1223 25.9246 62.5743 25.9246C61.5805 25.9246 60.9111 26.6068 60.9147 27.6163C60.9162 28.0293 61.5609 31.376 62.3472 35.0532C64.0729 43.122 64.1555 43.6944 63.7397 44.6983C62.9873 46.5148 60.3318 47.2163 58.6747 46.0365C57.7549 45.3815 57.497 44.7749 54.8785 37.1103C52.9032 31.3279 52.4791 30.5531 51.2893 30.5531C50.4855 30.5531 49.5978 31.4735 49.5978 32.3069C49.5978 32.6946 50.2921 35.0876 51.1407 37.6246C51.9893 40.1615 52.6836 42.501 52.6836 42.8237C52.6836 43.6078 51.8124 44.4389 50.9903 44.4389C50.5529 44.4389 49.425 43.7412 47.6891 42.3971C46.2388 41.2739 44.7684 40.284 44.4211 40.1968C43.4542 39.954 42.3979 40.9006 42.3979 42.0099C42.3979 42.8096 42.6133 43.058 44.8561 44.8433C48.2751 47.5655 49.1599 48.0332 50.8836 48.0301C51.7445 48.0286 52.7422 47.8259 53.4337 47.5122C54.5692 46.9972 54.5692 46.9972 55.3239 47.9126C55.7389 48.4161 56.6742 49.1394 57.4024 49.5198C58.4914 50.0888 59.0689 50.2128 60.655 50.2182C62.3434 50.2238 62.7597 50.1251 63.9978 49.4269C64.7757 48.988 65.8015 48.1201 66.2769 47.4983C67.3021 46.1581 67.323 46.1471 68.2155 46.4865C68.9111 46.7508 68.9111 46.7508 67.7598 48.3641C64.6623 52.705 62.9572 57.8717 63.3943 61.5913C63.5957 63.3049 64.1557 63.9817 65.3723 63.9817C66.7907 63.9817 67.083 63.4083 67.0869 60.6186C67.0936 55.9195 69.3022 51.5429 74.155 46.6112C76.9108 43.8107 79.4563 41.8695 82.1822 40.4894C83.8238 39.6583 84.055 39.6478 84.055 40.404C84.055 41.8232 85.756 42.5751 86.89 41.6568C87.4421 41.2097 87.5418 40.8641 87.6938 38.8712C87.7892 37.6199 87.8774 35.5435 87.8898 34.2573C87.9083 32.3303 87.8329 31.8504 87.4621 31.5318C87.2148 31.3192 84.1771 30.0196 80.7121 28.6439C77.2471 27.2679 74.1519 25.975 73.8336 25.7703C73.3779 25.4774 73.255 25.1585 73.255 24.2701C73.255 23.3259 73.3841 23.0333 74.0462 22.476C74.4813 22.1099 75.1139 21.8103 75.4518 21.8103C75.7899 21.8103 78.2978 22.1667 81.0251 22.602C83.7523 23.0376 87.43 23.617 89.1978 23.8895C91.2185 24.2009 92.841 24.6047 93.567 24.976C94.9257 25.6713 96.2706 27.3252 96.6632 28.7837C96.8468 29.4652 96.9147 32.8379 96.8612 38.6087C96.7851 46.8573 96.7463 47.4855 96.2287 48.8579C95.9252 49.6619 93.786 53.2661 91.4746 56.8668C86.5981 64.4644 87.7121 63.4731 77.7002 69.1246C72.1904 72.235 71.455 72.7979 71.455 73.9056C71.455 74.4714 72.6335 75.5532 73.2498 75.5532C73.5427 75.5532 74.7909 74.9831 76.0234 74.2862C77.2559 73.5896 78.3004 73.0555 78.3446 73.0998C78.3886 73.144 78.8828 84.4464 79.4426 98.2167C80.4604 123.253 80.4604 123.253 81.1148 123.832C81.948 124.568 82.563 124.563 83.4348 123.813C84.129 123.216 84.1291 123.216 83.1874 99.7061C82.6693 86.7754 82.175 75.0268 82.0891 73.5978C81.9328 70.9997 81.9328 70.9997 84.9866 69.1868C89.8988 66.2713 89.7054 66.4714 93.8264 60.031C99.0994 51.7898 99.1012 51.7865 99.7708 49.8851C100.355 48.2253 100.378 47.8563 100.462 38.9103C100.56 28.4291 100.458 27.487 98.9675 25.1814C97.1307 22.3397 95.206 21.2428 90.6232 20.4263C87.5485 19.8784 87.5485 19.8784 86.5475 17.5085C85.3579 14.6926 84.0421 13.0934 82.1547 12.17C80.4987 11.3597 77.8087 11.1083 76.071 11.6012ZM37.7693 12.296C36.9832 13.0821 37.0495 15.1997 37.8863 16.0361C39.2486 17.3985 40.855 16.4054 40.855 14.2009C40.855 12.5256 40.3366 11.7817 39.1689 11.7817C38.6263 11.7817 38.0845 11.9807 37.7693 12.296ZM80.022 15.24C80.5617 15.4324 81.2395 15.8034 81.5283 16.0644C82.0722 16.5558 83.3944 18.9565 83.2182 19.1327C83.1632 19.1877 81.68 18.9946 79.9224 18.7032C78.15 18.4098 76.0105 18.2162 75.1193 18.2687C74.2355 18.3206 73.5121 18.282 73.5121 18.183C73.5121 18.084 74.004 17.4648 74.605 16.8071C76.2196 15.0402 78.0098 14.5223 80.022 15.24ZM114.052 24.3377C113.409 25.0477 113.467 27.5649 114.141 28.2389C115.345 29.4431 117.226 28.3422 117.226 26.4337C117.226 25.3679 116.874 24.4126 116.352 24.0641C115.816 23.7062 114.48 23.8651 114.052 24.3377ZM108.133 30.3148C107.353 30.9281 107.241 31.9335 107.855 32.8101C108.197 33.2979 108.493 33.3817 109.873 33.3817C111.732 33.3817 112.341 32.9533 112.341 31.6445C112.341 30.549 111.335 29.7817 109.898 29.7817C109.187 29.7817 108.575 29.9663 108.133 30.3148ZM118.886 30.413C118.122 31.1775 118.074 32.1724 118.769 32.8674C119.478 33.5759 122.088 33.6049 122.715 32.9114C123.152 32.429 123.281 31.16 122.944 30.656C122.244 29.6071 119.836 29.4629 118.886 30.413ZM84.2553 34.8811C84.1879 35.6865 84.0756 35.7796 82.364 36.4438C81.3632 36.8323 79.9114 37.512 79.1382 37.9545C77.7318 38.7591 77.7318 38.7591 77.0363 35.2198C76.6536 33.2732 76.3407 31.4961 76.3407 31.2703C76.3407 30.945 77.1677 31.1878 80.3339 32.4424C84.3273 34.0246 84.3273 34.0246 84.2553 34.8811ZM114.052 35.1377C113.754 35.4674 113.626 36.0781 113.626 37.1802C113.626 38.5135 113.713 38.8133 114.198 39.1528C115.667 40.1819 117.226 39.1304 117.226 37.1103C117.226 35.6469 116.462 34.6674 115.319 34.6674C114.83 34.6674 114.299 34.8647 114.052 35.1377ZM10.7693 35.2563C9.39305 35.9498 9.44088 39.0918 10.8377 39.7594C12.3461 40.4804 13.3407 39.5812 13.3407 37.4963C13.3407 36.1758 13.2574 35.9249 12.6631 35.4576C11.8778 34.8397 11.6446 34.815 10.7693 35.2563ZM28.5638 35.7032C27.4643 36.7274 27.5111 38.451 28.6587 39.2029C30.2126 40.2212 32.215 39.1728 32.215 37.3412C32.215 35.5307 29.8755 34.481 28.5638 35.7032ZM4.34071 41.6103C3.68397 42.267 3.66057 43.6947 4.29674 44.2704C5.03911 44.9423 7.5154 44.8549 8.18782 44.1331C8.8888 43.381 8.84945 42.4956 8.08085 41.7273C7.24437 40.8906 5.1268 40.8242 4.34071 41.6103ZM15.1855 41.691C14.4868 42.4349 14.4675 43.5085 15.1407 44.1817C15.5303 44.5713 15.9978 44.696 17.0693 44.696C18.7114 44.696 19.5121 44.1208 19.5121 42.9407C19.5121 41.7959 18.5718 41.096 17.0333 41.096C16.0189 41.096 15.6257 41.2225 15.1855 41.691ZM10.615 46.1784C10.093 46.5269 9.74071 47.4821 9.74071 48.548C9.74071 50.4565 11.6222 51.5574 12.8264 50.3531C13.5349 49.6447 13.5639 47.0347 12.8704 46.4073C12.388 45.9707 11.119 45.8418 10.615 46.1784ZM29.3813 49.7345C12.469 61.0217 2.15191 79.2244 1.09814 99.6348C0.923539 103.017 0.923539 103.017 1.59185 103.685C2.37845 104.471 3.3754 104.547 4.05065 103.872C4.44305 103.479 4.56442 102.825 4.70662 100.336C5.07382 93.9106 5.8882 89.4767 7.73885 83.829C9.17551 79.4447 11.9208 73.6716 14.3037 70.0246C18.6067 63.4386 24.8926 57.133 31.5979 52.6762C33.924 51.1302 34.4264 50.6262 34.4264 49.8389C34.4264 48.9877 33.4526 48.0389 32.5789 48.0389C32.1975 48.0389 30.856 48.7501 29.3813 49.7345ZM122.117 49.3873C120.715 50.1199 120.456 51.8227 121.578 52.9444C123.062 54.4278 125.315 53.5029 125.315 51.4103C125.315 49.6763 123.618 48.603 122.117 49.3873ZM31.7339 61.9351C23.1253 68.7761 16.599 78.9528 13.8483 89.8246C12.9913 93.2127 12.3121 98.2049 12.3121 101.118C12.3121 102.998 12.3787 103.297 12.9072 103.794C13.6794 104.519 14.6511 104.505 15.3531 103.758C15.7959 103.287 15.9132 102.846 15.9165 101.637C15.9291 97.3861 16.9515 91.6415 18.5221 86.9986C21.4078 78.4686 26.6137 70.9634 33.7435 65.0532C34.853 64.1337 35.8495 63.1409 35.9582 62.847C36.3835 61.6975 35.3601 60.3817 34.0407 60.3817C33.8471 60.3817 32.809 61.0806 31.7339 61.9351ZM96.5796 63.4715C96.0934 63.8539 95.8836 64.2566 95.8836 64.8074C95.8836 65.4613 96.3557 66.0839 98.6489 68.4532C107.463 77.5599 111.961 87.8919 112.752 100.843C112.875 102.851 113.008 103.478 113.395 103.865C114.077 104.546 115.072 104.474 115.86 103.686C116.524 103.022 116.526 103.001 116.354 100.11C115.544 86.5671 110.242 74.7208 100.853 65.4757C98.3066 62.9686 97.6252 62.6489 96.5796 63.4715ZM35.6119 74.0872C28.5381 81.2934 24.4861 90.3564 23.9615 100.146C23.81 102.969 23.8265 103.102 24.403 103.716C25.6928 105.089 27.4818 104.106 27.4856 102.022C27.4895 99.9195 27.9991 96.2763 28.6651 93.5879C30.317 86.9214 33.5344 81.3018 38.5921 76.2497C40.4186 74.4251 40.855 73.8424 40.855 73.2283C40.855 72.2324 40.0409 71.4389 39.019 71.4389C38.3345 71.4389 37.8161 71.8418 35.6119 74.0872ZM88.809 72.4708C87.8296 73.5531 88.1603 74.3487 90.654 76.9078C94.3286 80.679 96.855 84.5496 98.5771 89.0465C100.171 93.2099 100.652 95.5321 101.177 101.612C101.347 103.569 101.858 104.353 102.967 104.353C103.328 104.353 103.92 104.055 104.288 103.687C104.945 103.03 104.951 102.984 104.775 100.417C104.061 90.0529 100.098 81.1355 93.0403 74.0113C91.299 72.2532 90.876 71.9531 90.1395 71.9531C89.6023 71.9531 89.1012 72.1481 88.809 72.4708Z" fill="#CBAACB" stroke="#CBAACB" stroke-width="19.4062" mask="url(#path-1-inside-1_1333_3652)"/>
<path fill-rule="evenodd" clip-rule="evenodd" d="M34.4491 48.8258C34.9599 49.7605 34.6163 50.9322 33.6817 51.443C23.0683 57.2434 4.72824 75.7066 4.72824 102.336C4.72824 103.402 3.86479 104.265 2.79967 104.265C1.73454 104.265 0.871094 103.402 0.871094 102.336C0.871094 73.9377 20.331 54.3438 31.8319 48.0584C32.7666 47.5476 33.9383 47.8912 34.4491 48.8258Z" fill="#9960C3"/>
<path fill-rule="evenodd" clip-rule="evenodd" d="M36.0742 61.4739C36.6294 62.3829 36.3427 63.5698 35.4337 64.1251C28.4136 68.4133 16.0427 82.2589 16.0427 102.336C16.0427 103.402 15.1792 104.265 14.1141 104.265C13.049 104.265 12.1855 103.402 12.1855 102.336C12.1855 80.7052 25.4472 65.7055 33.4231 60.8335C34.332 60.2782 35.519 60.565 36.0742 61.4739Z" fill="#CBAACB"/>
<path fill-rule="evenodd" clip-rule="evenodd" d="M40.911 72.1986C41.5079 73.0808 41.2766 74.2798 40.3944 74.8766C35.9508 77.883 27.8708 87.8181 27.8708 102.336C27.8708 103.402 27.0074 104.265 25.9422 104.265C24.8771 104.265 24.0137 103.402 24.0137 102.336C24.0137 86.4478 32.8058 75.3538 38.233 71.682C39.1152 71.0851 40.3142 71.3164 40.911 72.1986Z" fill="#E8CBF8"/>
<path fill-rule="evenodd" clip-rule="evenodd" d="M100.413 52.2141C99.8564 53.1222 100.141 54.3096 101.049 54.8663C109.777 60.2168 125.072 77.412 125.072 102.336C125.072 103.402 125.935 104.265 127 104.265C128.065 104.265 128.929 103.402 128.929 102.336C128.929 75.8649 112.75 57.5153 103.065 51.5779C102.157 51.0212 100.97 51.3061 100.413 52.2141Z" fill="#9960C3"/>
<path fill-rule="evenodd" clip-rule="evenodd" d="M95.8363 63.8328C95.2427 64.7172 95.4785 65.9153 96.363 66.5089C102.189 70.4192 112.734 83.3282 112.986 102.362C113 103.427 113.874 104.279 114.939 104.265C116.005 104.251 116.856 103.376 116.842 102.311C116.573 81.9417 105.333 67.8838 98.5124 63.3061C97.628 62.7126 96.4298 62.9484 95.8363 63.8328Z" fill="#CBAACB"/>
<path fill-rule="evenodd" clip-rule="evenodd" d="M87.8507 72.2127C87.2617 73.1001 87.5035 74.297 88.3909 74.886C92.9308 77.8996 101.158 87.8346 101.158 102.336C101.158 103.402 102.021 104.265 103.086 104.265C104.151 104.265 105.015 103.402 105.015 102.336C105.015 86.4312 96.0448 75.3371 90.5241 71.6724C89.6367 71.0834 88.4398 71.3253 87.8507 72.2127Z" fill="#E8CBF8"/>
</svg>
