<svg width="126" height="140" viewBox="0 0 126 140" fill="none" xmlns="http://www.w3.org/2000/svg">
<path fill-rule="evenodd" clip-rule="evenodd" d="M108.253 13.191C107.361 13.6013 107.014 14.2917 107.014 15.6542C107.014 16.9184 107.339 17.5904 108.139 17.9774C109.076 18.431 110.003 18.161 110.541 17.2777C110.868 16.7422 110.908 14.6501 110.603 14.0603C110.188 13.2574 109.035 12.8312 108.253 13.191ZM27.6437 16.8704C27.0358 17.1865 26.6912 17.5676 26.4557 18.1839C26.0301 19.2984 26.5337 20.5626 27.6111 21.0842C29.4098 21.955 31.2918 20.4437 30.9143 18.4316C30.8077 17.8639 30.1481 17.0814 29.5739 16.8414C29.0112 16.6064 28.1258 16.6195 27.6437 16.8704ZM10.3142 19.5215C9.59103 19.9982 9.44977 20.3791 9.44886 21.8551C9.44794 23.197 9.44794 23.197 9.94869 23.7339C10.3946 24.2119 10.5266 24.2765 11.1552 24.3231C12.5925 24.4296 13.3054 23.4679 13.2051 21.5578C13.1431 20.3751 12.8741 19.8249 12.1833 19.4676C11.6617 19.1979 10.7659 19.2237 10.3142 19.5215ZM101.992 19.399C101.006 19.8097 100.567 21.2606 101.165 22.1302C101.643 22.8245 102.209 23.0565 103.425 23.0563C104.657 23.0562 105.226 22.8265 105.686 22.1435C105.941 21.7656 105.984 21.5654 105.937 20.9812C105.887 20.3554 105.819 20.2187 105.343 19.7747C104.807 19.2739 104.807 19.2739 103.53 19.2821C102.828 19.2867 102.136 19.3393 101.992 19.399ZM112.793 19.529C111.909 20.0676 111.639 20.9946 112.093 21.9315C112.514 22.8017 113.195 23.0975 114.638 23.0372C115.816 22.9879 116.178 22.8239 116.723 22.093C117.301 21.3189 116.927 19.9416 116.01 19.4676C115.42 19.1625 113.328 19.2026 112.793 19.529ZM107.927 24.3845C107.244 24.8448 107.014 25.4137 107.014 26.6456C107.014 27.8611 107.246 28.4274 107.94 28.9052C108.305 29.1564 108.506 29.2005 109.078 29.1546C109.666 29.1073 109.845 29.0259 110.252 28.619C110.731 28.1392 110.731 28.1392 110.731 26.6435C110.731 25.1478 110.731 25.1478 110.252 24.6681C109.845 24.2611 109.666 24.1797 109.078 24.1325C108.506 24.0866 108.303 24.1312 107.927 24.3845ZM4.18669 25.6799C3.22851 26.1854 2.9452 27.5152 3.59986 28.4345C4.02677 29.0343 4.47847 29.187 5.82183 29.1865C7.27867 29.186 7.7605 28.9627 8.14828 28.1082C8.46602 27.4083 8.46537 27.1778 8.14359 26.5131C7.74536 25.6906 7.12867 25.403 5.778 25.4101C4.94256 25.4146 4.56978 25.4778 4.18669 25.6799ZM15.3202 25.6329C14.6595 25.9647 14.2741 26.6105 14.2741 27.3853C14.2741 27.9474 14.335 28.0885 14.7862 28.5725C15.2982 29.1218 15.2982 29.1218 16.6449 29.1603C17.8144 29.1937 18.0474 29.1638 18.4166 28.9332C19.3432 28.3545 19.6375 27.1611 19.065 26.3041C18.6182 25.6355 18.0418 25.4048 16.8176 25.4048C16.0841 25.4048 15.6392 25.4726 15.3202 25.6329ZM120.316 30.0809C118.876 30.847 118.672 32.872 119.928 33.929C121.268 35.0566 123.321 34.3541 123.713 32.6335C123.938 31.6491 123.382 30.4761 122.491 30.0533C121.887 29.7669 120.882 29.7797 120.316 30.0809ZM10.494 30.459C10.2444 30.5844 9.90682 30.8865 9.74403 31.1303C9.48747 31.5144 9.44794 31.7404 9.44846 32.8259C9.44899 34.2575 9.6509 34.754 10.3879 35.1366C10.9755 35.4417 11.849 35.4262 12.2818 35.1029C12.9971 34.5689 13.1622 34.2006 13.2113 33.0288C13.2684 31.6628 12.9842 30.955 12.202 30.5154C11.5896 30.1712 11.099 30.155 10.494 30.459ZM1.79189 41.0509C1.18314 41.4222 1.0034 41.7753 0.723749 43.1495C0.164832 45.8952 -0.00708285 47.6767 0.00022155 50.6437C0.00609116 52.9963 0.0583956 53.7969 0.290702 55.0868C0.659183 57.1338 1.22293 59.01 2.00906 60.8057C2.54059 62.0199 2.65642 62.4307 2.72933 63.3612C2.9452 66.115 3.66077 68.7211 4.83639 71.0349C5.22052 71.7909 5.53487 72.5376 5.53487 72.6944C5.53487 72.8511 5.62083 73.4721 5.72583 74.0742C6.69301 79.6206 9.99147 84.3218 15.463 87.9529C17.708 89.4427 20.1335 90.6267 23.2089 91.7341C24.0698 92.044 24.7641 92.347 24.7518 92.4074C24.7396 92.4678 24.6586 93.3674 24.5721 94.4067C24.1121 99.9287 25.2202 104.562 27.9881 108.688C30.6923 112.718 34.092 115.529 42.1873 120.426C48.6435 124.332 51.3048 126.323 54.9048 129.941C57.7767 132.827 59.7311 135.389 60.7738 137.636C61.1408 138.427 61.4533 138.914 61.6953 139.072C62.2099 139.409 63.0539 139.481 63.5416 139.229C64.024 138.979 64.6223 138.293 64.6223 137.99C64.6223 137.67 65.6682 135.882 66.5322 134.725C68.9449 131.493 73.4914 127.037 77.3464 124.126C79.0078 122.872 80.3545 121.973 83.6659 119.907C88.8061 116.701 91.266 114.96 93.4674 112.969C97.4831 109.336 99.877 105.224 100.705 100.535C100.945 99.1781 101.02 95.5871 100.851 93.5571C100.753 92.3832 100.753 92.3832 102.307 91.8793C110.621 89.1829 116.966 83.8335 119.344 77.5145C119.751 76.4356 120.27 74.2954 120.389 73.2091C120.451 72.6454 120.672 72.0253 121.178 70.9917C122.385 68.525 123.041 66.0984 123.271 63.2412C123.345 62.3206 123.461 61.9164 123.986 60.7436C124.757 59.0204 125.321 57.1518 125.693 55.0868C126.077 52.9509 126.106 48.5869 125.751 46.0785C125.421 43.7465 125.047 41.975 124.809 41.6106C124.328 40.8764 123.197 40.582 122.414 40.987C122.211 41.0922 121.465 41.9272 120.757 42.8429C116.493 48.3585 111.384 52.1579 102.123 56.7004C100.544 57.4745 98.4337 58.4773 97.4325 58.929C95.3025 59.8897 93.7253 60.7683 92.4629 61.6975C91.1438 62.6682 88.6907 65.1928 87.6773 66.6221C86.7243 67.9664 85.2005 70.853 84.6978 72.2663C84.3835 73.1495 84.3835 73.1495 83.6008 73.0489C82.122 72.8588 78.6042 72.9425 77.405 73.1963C71.8018 74.3825 67.0339 77.6467 63.6926 82.584C63.2496 83.2387 62.8465 83.821 62.7969 83.8778C62.7474 83.9347 62.3957 83.5026 62.0156 82.9174C58.5647 77.6061 53.7868 74.1553 48.1874 72.93C47.2952 72.7347 46.5284 72.6878 44.2616 72.6891C41.4446 72.6908 41.4446 72.6908 41.1445 71.9064C39.9607 68.8135 37.8844 65.6891 35.4958 63.4059C33.4532 61.4536 31.8059 60.3967 28.4263 58.87C21.2346 55.6214 15.1044 52.1381 11.4045 49.1978C9.72538 47.8633 6.6621 44.7157 5.22274 42.8457C4.51695 41.9285 3.77294 41.0922 3.56973 40.987C3.0562 40.7215 2.28689 40.7491 1.79189 41.0509ZM5.66726 49.0891C9.8776 53.3316 15.8843 57.2209 24.1872 61.0807C30.3844 63.9615 31.5389 64.6707 33.5801 66.85C36.1851 69.6311 38.1279 73.6244 38.9268 77.8396C39.0696 78.5928 39.2913 79.3499 39.4193 79.5221C39.7295 79.9387 40.46 80.3184 40.9461 80.3158C41.5411 80.3125 42.3231 79.8021 42.6232 79.221C42.8664 78.7503 42.8748 78.6309 42.7337 77.6628C42.6132 76.8354 42.6151 76.5927 42.7428 76.5116C43.0172 76.3373 45.8745 76.3941 47.029 76.5965C48.4859 76.8521 50.1164 77.4175 51.5882 78.1777C55.1958 80.0408 57.995 83.0716 60.3116 87.6223C61.3832 89.7272 61.6285 89.9934 62.5669 90.0687C63.6598 90.1565 63.9934 89.85 65.0211 87.8141C68.1906 81.5353 72.8378 77.8063 78.689 76.847C79.8985 76.6487 82.9138 76.6383 83.2262 76.8314C83.3055 76.8804 83.3052 77.2383 83.2258 77.8134C83.1152 78.6138 83.1308 78.7766 83.3622 79.2245C83.6605 79.802 84.4442 80.3125 85.0375 80.3158C85.5306 80.3184 86.255 79.9372 86.5773 79.5055C86.7208 79.3132 86.9231 78.6201 87.063 77.8417C87.5916 74.8984 88.8939 71.6557 90.5435 69.1751C91.6462 67.5169 93.7634 65.3704 95.2908 64.3623C96.3813 63.6426 97.2548 63.2025 101.796 61.0841C107.834 58.2678 113.214 55.1001 116.895 52.1943C117.594 51.6423 119.031 50.3377 120.087 49.295C121.144 48.2524 122.053 47.4432 122.106 47.4968C122.16 47.5504 122.202 48.8381 122.2 50.3582C122.195 53.2433 122.052 54.4819 121.477 56.5785C120.696 59.4303 119.125 62.0897 116.932 64.2743C115.458 65.7427 114.233 66.6503 112.18 67.7942C111.47 68.1898 110.774 68.6681 110.633 68.8572C110.267 69.3474 110.205 70.2332 110.496 70.7868C111.03 71.8024 112.021 72.0743 113.207 71.5313C114.236 71.0606 115.954 70.0076 117.193 69.0889C118.236 68.3155 118.236 68.3156 118.033 68.8059C117.696 69.6233 116.647 71.284 115.8 72.3445C113.911 74.7076 110.953 76.9634 108.057 78.249C106.6 78.8962 106.101 79.4182 106.101 80.2966C106.101 81.4619 107.03 82.3464 108.136 82.2345C108.818 82.1655 111.298 80.964 112.818 79.9662C114.494 78.8661 114.42 78.9011 114.137 79.3447C111.776 83.0377 106.265 86.7464 100.607 88.4487C100.004 88.6301 100.004 88.6301 99.5258 87.1766C98.8588 85.1489 98.0621 83.5887 97.5054 83.2201C96.6453 82.6504 95.4453 82.9484 94.8827 83.8711C94.4986 84.5011 94.5597 84.9995 95.2075 86.516C97.1597 91.0868 97.7361 96.9613 96.6517 101.236C95.8941 104.223 94.4473 106.603 91.7628 109.279C89.3877 111.647 87.1879 113.259 81.7094 116.649C77.5092 119.247 75.39 120.74 72.6441 123.035C69.2244 125.894 65.6121 129.602 63.5914 132.329C63.2061 132.849 62.8486 133.275 62.7971 133.275C62.7456 133.275 62.3209 132.755 61.8534 132.12C60.0041 129.608 56.8856 126.351 54.0875 124.008C51.2963 121.672 49.3489 120.329 44.3395 117.289C37.6709 113.243 34.8555 111.133 32.6063 108.499C29.5725 104.946 28.3065 101.499 28.3153 96.818C28.3216 93.4864 28.7927 90.5563 29.7587 87.8398C30.0848 86.923 30.1961 86.4233 30.1448 86.1074C29.9334 84.8039 28.4463 84.083 27.3491 84.752C26.7804 85.0987 26.4838 85.6164 25.9848 87.1331C25.7432 87.8679 25.4955 88.4049 25.3983 88.4049C25.3058 88.4049 24.7461 88.235 24.1543 88.0275C19.6009 86.4302 15.607 83.8613 13.0381 80.8778C12.0891 79.7758 11.4769 78.8825 11.8096 79.086C11.9097 79.1472 12.4588 79.5077 13.0301 79.8873C14.4928 80.859 17.1671 82.1652 17.8324 82.2328C18.9545 82.3466 19.8828 81.4701 19.8828 80.2966C19.8828 79.4182 19.384 78.8962 17.9263 78.249C15.0311 76.9634 12.073 74.7076 10.1839 72.3445C9.33616 71.284 8.28785 69.6233 7.95028 68.8059C7.74784 68.3156 7.74784 68.3155 8.79081 69.0889C10.0298 70.0076 11.748 71.0606 12.7764 71.5313C13.3281 71.784 13.6482 71.8528 14.0311 71.8014C15.0213 71.6687 15.7074 70.9051 15.7083 69.9349C15.7091 69.088 15.2998 68.6261 13.8166 67.8006C9.79699 65.5632 7.30045 63.0069 5.53135 59.3177C4.59886 57.3728 4.05208 55.2007 3.82408 52.535C3.67773 50.8236 3.76264 47.448 3.95216 47.448C3.99977 47.448 4.77156 48.1864 5.66726 49.0891ZM87.9682 91.3812C87.6723 91.5356 87.4059 91.8327 87.2049 92.2323C86.896 92.8462 86.896 92.8462 87.2049 94.1657C87.3747 94.8916 87.6181 95.6571 87.7455 95.8671C88.0613 96.3873 88.9972 96.7922 89.6157 96.6762C90.2428 96.5584 90.9315 95.9339 91.1172 95.3145C91.3229 94.6282 90.8472 92.5016 90.358 91.9204C89.6989 91.1371 88.8172 90.9382 87.9682 91.3812ZM116.825 98.9262C116.047 99.31 115.824 99.79 115.775 101.188C115.737 102.31 115.761 102.469 116.036 102.871C116.505 103.557 116.968 103.84 117.623 103.84C118.345 103.84 118.975 103.48 119.293 102.885C119.479 102.537 119.536 102.152 119.536 101.241C119.536 100.222 119.493 99.9889 119.24 99.609C118.691 98.7883 117.683 98.5032 116.825 98.9262ZM87.5912 100.296C87.275 100.513 86.9555 100.98 86.4825 101.917C85.0374 104.779 83.1955 106.494 79.326 108.582C76.6402 110.03 73.4708 112.036 72.3503 112.995C71.6679 113.579 71.425 114.262 71.6422 114.987C71.9307 115.95 72.9968 116.572 73.9088 116.311C74.128 116.248 75.1658 115.616 76.2149 114.907C78.1131 113.623 80.1381 112.411 81.6598 111.646C84.0475 110.446 86.9029 108.088 88.4019 106.079C89.5055 104.6 90.4485 102.634 90.4485 101.814C90.4485 101.256 90.3867 101.111 89.9478 100.641C89.5038 100.165 89.3671 100.097 88.7413 100.047C88.1571 100 87.9589 100.043 87.5912 100.296ZM110.893 105.018C110 105.352 109.622 105.888 109.623 106.822C109.624 107.512 109.984 108.137 110.563 108.453C111.202 108.801 113.175 108.785 113.782 108.427C114.967 107.727 115.002 105.936 113.845 105.221C113.266 104.863 111.611 104.749 110.893 105.018ZM122.016 104.966C121.128 105.189 120.412 106.371 120.632 107.25C120.769 107.797 121.468 108.475 122.058 108.635C122.807 108.838 124.24 108.718 124.771 108.408C125.997 107.692 125.994 105.9 124.767 105.183C124.275 104.896 122.766 104.777 122.016 104.966ZM117.212 109.806C116.727 109.908 116.211 110.337 115.936 110.866C115.675 111.369 115.693 113.217 115.965 113.79C116.59 115.109 118.416 115.216 119.24 113.984C119.492 113.605 119.536 113.369 119.536 112.373C119.536 111.577 119.47 111.067 119.329 110.769C118.977 110.029 118.083 109.621 117.212 109.806ZM27.5746 124.438C25.2894 125.592 26.2856 128.999 28.8516 128.805C30.7236 128.663 31.6729 126.308 30.4068 124.947C29.6569 124.141 28.555 123.942 27.5746 124.438ZM117.131 126.644C115.958 126.907 115.296 127.842 115.387 129.106C115.588 131.872 119.395 132.013 119.985 129.275C120.103 128.725 119.868 127.901 119.452 127.406C118.863 126.707 118.046 126.439 117.131 126.644Z" fill="#662D91" fill-opacity="0.6"/>
<path d="M14.1003 110.687C14.1507 109.317 14.3398 108.916 15.1326 108.499C16.0192 108.033 17.2115 108.446 17.6508 109.371C17.9765 110.057 17.9413 111.82 17.5894 112.446C17.0576 113.392 15.8834 113.695 14.9595 113.124C14.2435 112.681 14.0474 112.125 14.1003 110.687Z" fill="#662D91" fill-opacity="0.6"/>
<path d="M7.95028 116.365C7.95028 115.401 8.45311 114.783 9.44938 114.521C10.1313 114.342 11.7381 114.493 12.1137 114.771C13.0096 115.434 13.2582 116.391 12.7632 117.272C12.3683 117.975 11.8549 118.227 10.6832 118.295C8.94316 118.396 7.95028 117.694 7.95028 116.365Z" fill="#662D91" fill-opacity="0.6"/>
<path d="M18.9421 116.222C19.0189 115.34 19.5235 114.754 20.406 114.522C21.0023 114.365 22.607 114.49 23.0705 114.73C23.6383 115.023 23.9921 115.651 23.9921 116.365C23.9921 117.697 22.9997 118.396 21.2507 118.294C19.6149 118.2 18.8312 117.496 18.9421 116.222Z" fill="#662D91" fill-opacity="0.6"/>
<path d="M14.1023 121.778C14.1482 120.378 14.2958 120.013 14.9929 119.576C15.1769 119.461 15.6129 119.37 15.9937 119.369C16.7423 119.365 17.3109 119.72 17.6715 120.417C17.9518 120.96 17.9284 122.822 17.634 123.399C16.9682 124.705 15.1987 124.781 14.3658 123.539C14.0861 123.122 14.0633 122.969 14.1023 121.778Z" fill="#662D91" fill-opacity="0.6"/>
<path fill-rule="evenodd" clip-rule="evenodd" d="M66.418 17.1653C84.7012 18.5104 101.778 29.0012 109.512 44.4699C109.989 45.4226 109.603 46.581 108.65 47.0573C107.697 47.5336 106.539 47.1475 106.063 46.1948C99.0118 32.0932 83.2399 22.2704 66.135 21.012C49.1389 19.7616 30.8806 26.9811 18.7984 46.9727C18.2475 47.8843 17.0619 48.1766 16.1504 47.6257C15.2389 47.0748 14.9465 45.8893 15.4974 44.9777C28.3572 23.6994 48.0261 15.8123 66.418 17.1653Z" fill="#E8CBF8"/>
<path fill-rule="evenodd" clip-rule="evenodd" d="M65.5741 30.6914C79.4097 31.7586 92.3719 39.766 98.2794 51.5676C98.7561 52.52 98.3705 53.6786 97.4181 54.1554C96.4657 54.6321 95.3071 54.2465 94.8303 53.2941C89.6004 42.8461 77.9305 35.513 65.2775 34.537C52.7348 33.5695 39.2733 38.8611 30.3814 53.6817C29.8335 54.5951 28.6489 54.8912 27.7355 54.3433C26.8222 53.7953 26.526 52.6107 27.074 51.6974C36.745 35.5781 51.6284 29.6157 65.5741 30.6914Z" fill="url(#paint0_linear_1333_3662)"/>
<path fill-rule="evenodd" clip-rule="evenodd" d="M64.5085 44.5034C73.6254 45.2646 82.0526 50.8498 86.2203 58.6989C86.7197 59.6396 86.3621 60.8071 85.4214 61.3066C84.4807 61.8061 83.3132 61.4484 82.8137 60.5077C79.2674 53.8288 72.0094 49.0001 64.1876 48.347C56.4955 47.7048 48.0863 51.0933 42.0774 61.2296C41.5343 62.1458 40.3513 62.4482 39.4351 61.9051C38.5189 61.3619 38.2165 60.1789 38.7596 59.2627C45.4788 47.9283 55.2618 43.7314 64.5085 44.5034Z" fill="#9960C3"/>
<defs>
<linearGradient id="paint0_linear_1333_3662" x1="50.4408" y1="31.374" x2="72.0515" y2="68.8048" gradientUnits="userSpaceOnUse">
<stop offset="0.00520833" stop-color="#8176AF"/>
<stop offset="0.489583" stop-color="#B8B4DD"/>
<stop offset="0.994792" stop-color="#8A7CB2"/>
</linearGradient>
</defs>
</svg>
