<svg width="67" height="94" viewBox="0 0 67 94" fill="none" xmlns="http://www.w3.org/2000/svg">
<path d="M32.992 93.28C26.7627 93.28 20.7893 92.384 15.072 90.592C9.35467 88.7147 4.66133 86.1547 0.992 82.912L6.368 70.496C10.3787 73.568 14.5173 75.8293 18.784 77.28C23.136 78.7307 27.7013 79.456 32.48 79.456C38.2827 79.456 42.6773 78.304 45.664 76C48.6507 73.696 50.144 70.3253 50.144 65.888C50.144 61.6213 48.6507 58.4213 45.664 56.288C42.7627 54.0693 38.496 52.96 32.864 52.96H18.272V39.776H31.456C36.32 39.776 40.2027 38.5813 43.104 36.192C46.0053 33.8027 47.456 30.5173 47.456 26.336C47.456 22.4107 46.0907 19.424 43.36 17.376C40.7147 15.328 36.8747 14.304 31.84 14.304C22.7947 14.304 14.816 17.376 7.904 23.52L2.528 11.232C6.19733 7.81866 10.72 5.17333 16.096 3.296C21.5573 1.41866 27.2747 0.479996 33.248 0.479996C42.6347 0.479996 49.9733 2.61333 55.264 6.88C60.64 11.0613 63.328 16.9067 63.328 24.416C63.328 29.792 61.792 34.4427 58.72 38.368C55.7333 42.208 51.5947 44.768 46.304 46.048V44.512C52.5333 45.536 57.3547 48.096 60.768 52.192C64.2667 56.2027 66.016 61.2373 66.016 67.296C66.016 75.3173 63.072 81.6747 57.184 86.368C51.296 90.976 43.232 93.28 32.992 93.28Z" fill="#F6E1FF"/>
</svg>
