<svg width="587" height="64" viewBox="0 0 587 64" fill="none" xmlns="http://www.w3.org/2000/svg">
<path d="M335.355 49.5535L322.626 47.9072L309.906 46.2218C277.805 42.0146 245.765 37.2717 213.505 33.2409C211.86 33.0384 210.232 32.751 208.604 32.5027L208.755 32.5092C189.232 30.1247 169.603 28.0603 149.877 26.5316L137.024 25.6301L132.734 25.3949L124.145 24.9376C121.279 24.8069 118.404 24.722 115.538 24.6175C109.806 24.3627 104.056 24.3366 98.3065 24.232C92.5656 24.1537 86.7805 24.1994 80.9776 24.4281C75.1748 24.6502 69.3542 25.1206 63.5692 25.898C57.8017 26.7276 52.0519 27.8513 46.5676 29.5433C43.8077 30.3468 41.1186 31.3725 38.5179 32.4439C37.253 33.0318 35.9438 33.5676 34.7319 34.2143L32.892 35.155L31.114 36.1676C30.5125 36.5008 29.9375 36.8536 29.3802 37.2194L27.6907 38.3039L26.0808 39.4602L25.2758 40.0416L24.5151 40.6557L23.0024 41.8839L21.5871 43.1774L20.8883 43.8242L20.2425 44.5036L18.9511 45.869C18.4645 46.4635 17.9338 47.1102 17.3765 47.7896C16.8458 48.4755 16.3681 49.2269 15.8551 49.9716C15.3774 50.7294 14.9793 51.5264 14.5635 52.2842C14.192 53.0616 13.909 53.8456 13.6259 54.5773C13.1836 56.0668 12.9006 57.393 13.0156 58.3598C13.0775 59.3202 13.334 59.8885 13.8382 59.8885C16.1469 59.895 17.4562 54.0939 24.3647 47.0449C28.5045 42.7724 33.98 39.1532 40.1544 36.3963C46.3022 33.6133 53.2372 31.7187 60.3758 30.484C67.5232 29.2362 74.9005 28.6287 82.3133 28.387C86.0197 28.2628 89.7349 28.2302 93.459 28.2432C97.183 28.2498 100.916 28.387 104.631 28.4653C110.071 28.5568 115.512 28.8639 120.943 29.0729C123.658 29.1644 126.374 29.3734 129.09 29.5106C131.805 29.6739 134.521 29.8046 137.228 29.9875C148.073 30.7453 158.9 31.5816 169.701 32.653C191.311 34.7304 212.824 37.3697 234.301 40.3095C272.86 45.5619 311.392 51.337 350.331 55.6226C368.616 57.6217 386.997 59.3136 405.476 60.3262C423.955 61.3454 442.549 61.6851 461.107 60.9861C477.127 60.3916 493.102 59.0066 508.865 56.7659L520.63 54.8909C524.549 54.2507 528.45 53.4994 532.333 52.6763C540.091 51.0169 547.778 48.9329 555.031 46.0976C558.455 44.7714 561.843 43.1905 565.062 41.4789C568.282 39.7607 571.316 37.9446 574.174 36.0762L574.103 36.1611C576.863 33.4304 579.879 30.5363 582.241 27.3025C584.612 24.1014 586.292 20.5606 586.425 17.2223V17.2157C586.611 16.0725 586.885 14.9292 586.903 13.7664C586.929 13.1849 586.991 12.61 587 12.0417C586.991 11.4668 586.982 10.8984 586.973 10.3366C587 9.68983 586.903 9.07577 586.823 8.48781C586.735 7.89985 586.699 7.33799 586.558 6.81535C586.407 6.29272 586.266 5.80279 586.133 5.33896C586 4.87512 585.868 4.43739 585.655 4.04542C585.284 3.25494 584.957 2.57553 584.62 2.02024C584.231 1.47801 583.886 1.04685 583.577 0.72674C582.338 -0.566771 581.816 -0.0768063 581.648 1.74587C581.613 2.14437 581.321 2.19663 581.171 2.43181C581.011 2.66046 581.011 3.05895 581.277 4.163C581.277 4.16954 581.383 4.31329 581.383 4.31329L581.321 4.26101C581.869 7.38373 582.153 10.7547 581.693 14.2563C581.215 17.7449 579.941 21.3118 577.924 24.4607C575.492 28.3347 572.015 31.8428 567.902 34.8153C563.683 37.7682 558.879 40.3029 553.678 42.3412C543.293 46.483 531.687 48.9394 519.958 50.8536C514.049 51.7224 508.166 52.7219 502.196 53.3622L497.728 53.8979C496.242 54.0808 494.756 54.2703 493.253 54.3879L484.274 55.211C472.279 56.1452 460.231 56.7985 448.148 56.8899C433.331 57.0794 418.488 56.7462 403.68 55.9557C388.872 55.1326 374.109 53.8913 359.434 52.3235C351.393 51.4676 343.396 50.344 335.223 49.5208L335.355 49.5535Z" fill="#FFE5A2"/>
<path d="M15.97 56.0279C15.7577 55.4269 15.6073 54.8063 15.3243 54.2248L12.0425 47.6265C11.9894 47.5155 12.0425 47.3718 12.0425 47.2477L12.0602 47.2542C11.3967 45.928 10.6802 44.6084 10.0699 43.2626C8.64569 40.1595 7.16846 37.0629 5.08972 34.1362C4.76239 33.6789 4.36432 32.8623 2.48901 33.3718C0.534119 33.901 -0.350464 34.7503 0.127197 35.5669C1.27716 37.5529 2.71014 39.4801 3.3382 41.5967C4.25818 44.6868 5.93884 47.5744 7.24805 50.5599C8.4245 53.2384 9.79565 55.8711 10.9633 58.5561L11.4144 59.634L11.7064 60.3461C11.8479 60.6793 11.9894 61.0255 12.1752 61.3456C12.874 62.6391 14.0858 63.606 15.8373 63.9131C17.1553 64.1287 18.4291 63.9392 19.6675 63.3904C20.2867 63.1226 20.8794 62.7372 21.472 62.3713L22.507 61.718C24.8334 60.2155 26.8326 58.4385 29.0529 56.838C29.5748 56.4591 30.0878 56.0278 31.1051 56.1193L31.114 56.1389C31.1494 55.2243 33.007 55.7013 32.7504 54.558C32.9451 54.4012 33.0777 54.1856 33.3342 54.0941C34.5196 53.6695 34.2985 53.1077 32.485 52.0298C32.087 51.7946 31.7332 51.3699 31.282 51.3307L31.2908 51.3634L31.2732 51.3373C29.6102 50.8865 29.2917 51.8142 28.5398 52.2584C26.6999 53.3559 24.8865 54.4665 23.0731 55.5902L17.8276 58.8501C17.6418 58.9415 17.4826 59.0918 17.2438 59.0722C17.058 59.046 16.9695 58.9024 16.9342 58.7782C16.9165 58.7129 16.9077 58.6475 16.9077 58.5887L16.598 57.7199C16.4034 57.1515 16.4211 56.5244 15.9877 56.0083L15.97 56.0279Z" fill="#FFE5A2"/>
</svg>
