<svg width="64" height="64" viewBox="0 0 64 64" fill="none" xmlns="http://www.w3.org/2000/svg">
<rect opacity="0.05" width="64" height="64" rx="32" fill="#3873B3"/>
<path d="M35 42.75H29C23.57 42.75 21.25 40.43 21.25 35V29C21.25 23.57 23.57 21.25 29 21.25H35C40.43 21.25 42.75 23.57 42.75 29V35C42.75 40.43 40.43 42.75 35 42.75ZM29 22.75C24.39 22.75 22.75 24.39 22.75 29V35C22.75 39.61 24.39 41.25 29 41.25H35C39.61 41.25 41.25 39.61 41.25 35V29C41.25 24.39 39.61 22.75 35 22.75H29Z" fill="#4946DE"/>
<path d="M30.7598 36.3698C30.3398 36.3698 29.9498 36.2698 29.5998 36.0698C28.7998 35.6098 28.3398 34.6698 28.3398 33.4798V30.5198C28.3398 29.3398 28.7998 28.3898 29.5998 27.9298C30.3998 27.4698 31.4398 27.5398 32.4698 28.1398L35.0398 29.6198C36.0598 30.2098 36.6498 31.0798 36.6498 31.9998C36.6498 32.9198 36.0598 33.7898 35.0398 34.3798L32.4698 35.8598C31.8898 36.1998 31.2998 36.3698 30.7598 36.3698ZM30.7698 29.1298C30.6098 29.1298 30.4698 29.1598 30.3598 29.2298C30.0398 29.4198 29.8498 29.8898 29.8498 30.5198V33.4798C29.8498 34.1098 30.0298 34.5798 30.3598 34.7698C30.6798 34.9598 31.1798 34.8798 31.7298 34.5598L34.2998 33.0798C34.8498 32.7598 35.1598 32.3698 35.1598 31.9998C35.1598 31.6298 34.8498 31.2298 34.2998 30.9198L31.7298 29.4398C31.3698 29.2298 31.0398 29.1298 30.7698 29.1298Z" fill="#4946DE"/>
</svg>
